<svg xmlns="http://www.w3.org/2000/svg" id="Layer_1" viewBox="0 0 260.4 169.1">
  <style>
    .st0{fill:#FFFFFF;} .st1{fill:none;stroke:#FFFFFF;stroke-miterlimit:10;} .st2{fill:none;} .st3{fill:#C4D82E;}
  </style>
  <path d="M31 3.1c.7-.1 1.8-.3 2.9-.3 1.6 0 2.6.3 3.3.9.6.5 1 1.2 1 2.1 0 1.2-.8 2.2-2.1 2.7 1.2.3 2.5 1.2 2.5 3 0 1-.4 1.8-1 2.4-.8.8-2.2 1.1-4.2 1.1-1.1 0-1.9-.1-2.4-.1V3.1zm1.6 5H34c1.7 0 2.6-.9 2.6-2 0-1.4-1.1-2-2.7-2-.7 0-1.1.1-1.4.1v3.9zm0 5.8c.3.1.8.1 1.3.1 1.6 0 3.1-.6 3.1-2.4 0-1.7-1.4-2.3-3.1-2.3h-1.3v4.6z" class="st0"/>
  <path d="M47.1 9.4h-4.7v4.4h5.3v1.3h-6.8V2.9h6.6v1.3h-5V8h4.7v1.4z" class="st0"/>
  <path d="M63.7 9.7c-.1-1.7-.2-3.7-.2-5.2h-.1c-.4 1.4-.9 2.9-1.5 4.6L59.8 15h-1.2l-2-5.8c-.6-1.7-1.1-3.3-1.4-4.7 0 1.5-.1 3.5-.2 5.4l-.3 5.2h-1.5L54 2.9h2l2 5.9c.5 1.5.9 2.8 1.2 4.1h.1c.3-1.2.7-2.6 1.3-4.1l2.2-5.9h2l.8 12.1H64l-.3-5.3z" class="st0"/>
  <path d="M69.5 2.9V15h-1.6V2.9h1.6z" class="st0"/>
  <path d="M72.2 15.1V2.9h1.7L77.8 9c.9 1.4 1.6 2.7 2.2 3.9-.1-1.6-.2-3.1-.2-5v-5h1.5V15h-1.6l-3.9-6.2c-.8-1.4-1.7-2.7-2.3-4.1h-.1c.1 1.5.1 3 .1 5v5.2h-1.3z" class="st0"/>
  <path d="M84.1 3.1c1-.1 2.1-.3 3.3-.3 2.3 0 3.9.5 4.9 1.5 1.1 1 1.7 2.4 1.7 4.4 0 2-.6 3.6-1.7 4.7s-3 1.7-5.4 1.7c-1.1 0-2.1-.1-2.8-.1V3.1zm1.5 10.7c.4.1 1 .1 1.6.1 3.3 0 5.2-1.9 5.2-5.1 0-2.9-1.6-4.7-4.9-4.7-.8 0-1.4.1-1.8.2v9.5z" class="st0"/>
  <path d="M96.1 2.9h6.5v1.3h-5v4h4.6v1.3h-4.6V15H96V2.9z" class="st0"/>
  <path d="M106.4 2.9v7.2c0 2.7 1.2 3.9 2.8 3.9 1.8 0 3-1.2 3-3.9V2.9h1.6V10c0 3.7-2 5.3-4.6 5.3-2.5 0-4.4-1.4-4.4-5.2V2.9h1.6z" class="st0"/>
  <path d="M116.5 2.9h1.6v10.8h5.2V15h-6.8V2.9z" class="st0"/>
  <path d="M139.2 8.9c0 4.2-2.5 6.4-5.6 6.4-3.2 0-5.5-2.5-5.5-6.2 0-3.9 2.4-6.4 5.6-6.4 3.3 0 5.5 2.6 5.5 6.2zm-9.5.2c0 2.6 1.4 4.9 3.9 4.9s3.9-2.3 3.9-5c0-2.4-1.3-4.9-3.9-4.9-2.6-.1-3.9 2.3-3.9 5z" class="st0"/>
  <path d="M141.2 2.9h6.5v1.3h-5v4h4.6v1.3h-4.6V15h-1.6V2.9z" class="st0"/>
  <path d="M155.6 15.1V9.9l-3.8-7h1.8l1.7 3.3c.5.9.8 1.7 1.2 2.5.3-.8.8-1.6 1.2-2.5l1.7-3.3h1.8l-4.1 7v5.2h-1.5z" class="st0"/>
  <path d="M172.4 8.9c0 4.2-2.5 6.4-5.6 6.4-3.2 0-5.5-2.5-5.5-6.2 0-3.9 2.4-6.4 5.6-6.4 3.4 0 5.5 2.6 5.5 6.2zm-9.4.2c0 2.6 1.4 4.9 3.9 4.9s3.9-2.3 3.9-5c0-2.4-1.3-4.9-3.9-4.9-2.6-.1-3.9 2.3-3.9 5z" class="st0"/>
  <path d="M176 2.9v7.2c0 2.7 1.2 3.9 2.8 3.9 1.8 0 3-1.2 3-3.9V2.9h1.6V10c0 3.7-2 5.3-4.6 5.3-2.5 0-4.4-1.4-4.4-5.2V2.9h1.6z" class="st0"/>
  <path d="M186.1 3.1c.8-.2 1.9-.3 3-.3 1.7 0 2.8.3 3.5 1 .6.5 1 1.4 1 2.3 0 1.6-1 2.7-2.3 3.1v.1c.9.3 1.5 1.2 1.8 2.4.4 1.7.7 2.9.9 3.3h-1.6c-.2-.3-.5-1.4-.8-2.9-.4-1.7-1-2.3-2.4-2.4h-1.5V15h-1.6V3.1zm1.5 5.5h1.6c1.7 0 2.7-.9 2.7-2.3 0-1.6-1.1-2.3-2.8-2.3-.8 0-1.3.1-1.5.1v4.5z" class="st0"/>
  <path d="M209.8 9.7c-.1-1.7-.2-3.7-.2-5.2h-.1c-.4 1.4-.9 2.9-1.5 4.6l-2.1 5.9h-1.2l-2-5.8c-.6-1.7-1.1-3.3-1.4-4.7 0 1.5-.1 3.5-.2 5.4l-.3 5.2h-1.5l.8-12.1h2l2.1 5.9c.5 1.5.9 2.8 1.2 4.1h.1c.3-1.2.7-2.6 1.3-4.1L209 3h2l.8 12.1h-1.5l-.5-5.4z" class="st0"/>
  <path d="M215.6 2.9V15H214V2.9h1.6z" class="st0"/>
  <path d="M225 15.1l-1.5-2.7c-.6-1-1-1.7-1.4-2.4-.3.7-.7 1.4-1.3 2.4l-1.5 2.7h-1.8l3.7-6.1-3.6-6h1.8l1.6 2.8c.5.8.8 1.4 1.1 2.1h.1c.3-.7.6-1.3 1.1-2.1L225 3h1.8L223 8.8l3.8 6.2H225z" class="st0"/>
  <path d="M234.9 9.4h-4.7v4.4h5.3v1.3h-6.8V2.9h6.6v1.3h-5V8h4.7v1.4z" class="st0"/>
  <path d="M237.3 13.2c.7.4 1.7.8 2.8.8 1.6 0 2.5-.8 2.5-2.1 0-1.1-.6-1.8-2.3-2.4-2-.7-3.2-1.7-3.2-3.4 0-1.9 1.6-3.3 3.9-3.3 1.2 0 2.1.3 2.7.6l-.4 1.3c-.4-.3-1.2-.7-2.3-.7-1.7 0-2.3 1-2.3 1.8 0 1.1.7 1.7 2.4 2.3 2.1.8 3.1 1.8 3.1 3.6 0 1.9-1.4 3.5-4.2 3.5-1.2 0-2.4-.3-3.1-.8l.4-1.2z" class="st0"/>
  <path d="M47.1 28.1l-.8 2.5h-1.1l2.7-8.1h1.3l2.8 8.1h-1.1l-.9-2.5h-2.9zm2.7-.8L49 25c-.2-.5-.3-1-.4-1.5-.1.5-.3 1-.4 1.5l-.8 2.3h2.4z" class="st0"/>
  <path d="M54.3 30.7l-2.6-8.1h1.1l1.3 4c.3 1.1.6 2.1.9 3 .2-.9.6-2 .9-3l1.4-4h1.1l-2.9 8.1h-1.2z" class="st0"/>
  <path d="M66.1 26.5c0 2.8-1.7 4.3-3.8 4.3-2.1 0-3.6-1.7-3.6-4.1 0-2.6 1.6-4.2 3.8-4.2 2.2-.1 3.6 1.6 3.6 4zm-6.3.2c0 1.7.9 3.3 2.6 3.3 1.7 0 2.6-1.5 2.6-3.4 0-1.6-.8-3.3-2.6-3.3-1.7 0-2.6 1.6-2.6 3.4z" class="st0"/>
  <path d="M68.5 22.6v8.1h-1v-8.1h1z" class="st0"/>
  <path d="M70.3 22.7c.6-.1 1.4-.2 2.2-.2 1.5 0 2.6.3 3.3 1 .7.7 1.1 1.6 1.1 2.9 0 1.3-.4 2.4-1.2 3.1-.8.8-2 1.2-3.6 1.2-.7 0-1.4 0-1.9-.1v-7.9zm1.1 7.1c.3 0 .6.1 1.1.1 2.2 0 3.4-1.2 3.4-3.4 0-1.9-1.1-3.1-3.3-3.1-.5 0-.9 0-1.2.1v6.3z" class="st0"/>
  <path d="M215.4 23.5H213v-.9h6v.9h-2.5v7.2h-1.1v-7.2z" class="st0"/>
  <path d="M219.8 22.7c.5-.1 1.3-.2 2-.2 1.1 0 1.8.2 2.3.7.4.4.6.9.6 1.5 0 1.1-.7 1.8-1.5 2.1.6.2 1 .8 1.2 1.6.3 1.1.5 1.9.6 2.2h-1c-.1-.2-.3-.9-.5-1.9-.2-1.1-.7-1.5-1.6-1.6h-1v3.5h-1v-7.9zm1.1 3.7h1.1c1.1 0 1.8-.6 1.8-1.5 0-1-.8-1.5-1.9-1.5-.5 0-.9 0-1 .1v2.9z" class="st0"/>
  <path d="M228 30.7v-3.4l-2.6-4.7h1.2l1.1 2.2c.3.6.6 1.1.8 1.7.2-.5.5-1.1.8-1.7l1.2-2.2h1.2l-2.7 4.6v3.4h-1z" class="st0"/>
  <path d="M33.1 34.2h61" class="st1"/>
  <path d="M192.2 34.2h61" class="st1"/>
  <path d="M39.5 50.3h71.6v12.4H39.5z" class="st2"/>
  <path d="M40.1 56.4c.4.2 1 .4 1.6.4.9 0 1.4-.5 1.4-1.1 0-.6-.4-1-1.3-1.3-1.1-.4-1.8-1-1.8-1.9 0-1 .9-1.8 2.2-1.8.7 0 1.2.2 1.5.3l-.2.7c-.2-.1-.7-.3-1.3-.3-.9 0-1.3.5-1.3 1 0 .6.4.9 1.3 1.3 1.1.4 1.7 1 1.7 2s-.8 1.9-2.4 1.9c-.6 0-1.4-.2-1.7-.4l.3-.8z" class="st0"/>
  <path d="M49.2 56.1v1.3h-.8v-.8c-.2.4-.7.9-1.6.9-.8 0-1.7-.4-1.7-2.1v-2.8h.9v2.7c0 .9.3 1.5 1.1 1.5.6 0 1-.4 1.2-.8 0-.1.1-.3.1-.5v-3h.9v3.6z" class="st0"/>
  <path d="M54.8 52.6v4.1c0 1.1-.2 1.8-.7 2.2-.5.4-1.1.6-1.8.6-.6 0-1.2-.1-1.6-.4l.2-.7c.3.2.8.4 1.4.4.9 0 1.6-.5 1.6-1.7v-.5c-.3.4-.8.8-1.5.8-1.2 0-2.1-1-2.1-2.4 0-1.6 1.1-2.6 2.2-2.6.8 0 1.3.4 1.5.8v-.7h.8zm-.9 1.9c0-.1 0-.3-.1-.4-.2-.5-.6-.9-1.2-.9-.8 0-1.4.7-1.4 1.8 0 .9.5 1.7 1.4 1.7.5 0 1-.3 1.2-.9 0-.2.1-.3.1-.5v-.8z" class="st0"/>
  <path d="M58.9 57.4l-.1-.6c-.3.4-.8.7-1.5.7-1 0-1.5-.7-1.5-1.4 0-1.2 1-1.8 2.9-1.8v-.1c0-.4-.1-1.1-1.1-1.1-.5 0-.9.1-1.3.4l-.2-.6c.4-.3 1-.4 1.6-.4 1.5 0 1.8 1 1.8 2v1.8c0 .4 0 .8.1 1.2h-.7zm-.1-2.5c-1 0-2 .2-2 1.1 0 .6.4.8.8.8.6 0 1-.4 1.2-.8v-1.1z" class="st0"/>
  <path d="M61 54.1v-1.5h.8v.9c.2-.6.7-1.1 1.3-1.1h.2v.8H63c-.6 0-1.1.5-1.2 1.1v3H61v-3.2z" class="st0"/>
  <path d="M64.9 52.6l1.1 2.9.3 1 .3-1 1-2.8h.9L67.2 56c-.6 1.7-1.1 2.5-1.7 3-.4.4-.9.5-1.1.6l-.2-.7c.2-.1.5-.2.8-.4.2-.2.5-.5.7-1 0-.1.1-.2.1-.2s0-.1-.1-.2l-1.8-4.5h1z" class="st0"/>
  <path d="M71.3 56.5c.3.2.7.3 1.2.3.6 0 .9-.3.9-.7 0-.4-.2-.6-.9-.9-.9-.3-1.3-.8-1.3-1.4 0-.8.6-1.4 1.7-1.4.5 0 .9.1 1.2.3l-.2.6c-.2-.1-.5-.3-1-.3s-.8.3-.8.7c0 .4.3.6.9.8.8.3 1.3.7 1.3 1.5s-.7 1.4-1.8 1.4c-.5 0-1-.1-1.4-.3l.2-.6z" class="st0"/>
  <path d="M79.7 55c0 1.8-1.2 2.6-2.4 2.6-1.3 0-2.3-1-2.3-2.5 0-1.6 1.1-2.6 2.4-2.6 1.4 0 2.3 1 2.3 2.5zm-3.8 0c0 1.1.6 1.9 1.5 1.9.8 0 1.5-.8 1.5-1.9 0-.8-.4-1.9-1.4-1.9-1.2 0-1.6 1-1.6 1.9z" class="st0"/>
  <path d="M85 50.3v7h-.8v-.8c-.3.5-.9 1-1.6 1-1.2 0-2.1-1-2.1-2.5 0-1.6 1-2.6 2.2-2.6.7 0 1.2.3 1.5.7v-2.9h.8zm-.9 4.2v-.4c-.1-.6-.6-1-1.3-1-.9 0-1.4.8-1.4 1.9 0 1 .5 1.8 1.4 1.8.6 0 1.1-.4 1.3-1v-1.3z" class="st0"/>
  <path d="M89.2 57.4l-.1-.6c-.3.4-.8.7-1.5.7-1 0-1.5-.7-1.5-1.4 0-1.2 1-1.8 2.9-1.8v-.1c0-.4-.1-1.1-1.1-1.1-.5 0-.9.1-1.3.4l-.2-.6c.4-.3 1-.4 1.6-.4 1.5 0 1.8 1 1.8 2v1.8c0 .4 0 .8.1 1.2h-.7zm-.2-2.5c-1 0-2 .2-2 1.1 0 .6.4.8.8.8.6 0 1-.4 1.2-.8v-1.1z" class="st0"/>
  <path d="M91.2 56.5c.3.2.7.3 1.2.3.6 0 .9-.3.9-.7 0-.4-.2-.6-.9-.9-.9-.3-1.3-.8-1.3-1.4 0-.8.6-1.4 1.7-1.4.5 0 .9.1 1.2.3l-.2.6c-.2-.1-.5-.3-1-.3s-.8.3-.8.7c0 .4.3.6.9.8.8.3 1.3.7 1.3 1.5s-.7 1.4-1.8 1.4c-.5 0-1-.1-1.4-.3l.2-.6z" class="st0"/>
  <path d="M39.5 100.1H111v12.4H39.5z" class="st2"/>
  <path d="M40.1 106.2c.4.2 1 .4 1.6.4.9 0 1.4-.5 1.4-1.1 0-.6-.4-1-1.3-1.3-1.1-.4-1.8-1-1.8-1.9 0-1 .9-1.8 2.2-1.8.7 0 1.2.2 1.5.3l-.2.7c-.2-.1-.7-.3-1.3-.3-.9 0-1.3.5-1.3 1 0 .6.4.9 1.3 1.3 1.1.4 1.7 1 1.7 2s-.8 1.9-2.4 1.9c-.6 0-1.4-.2-1.7-.4l.3-.8z" class="st0"/>
  <path d="M49.2 105.9v1.3h-.8v-.8c-.2.4-.7.9-1.6.9-.8 0-1.7-.4-1.7-2.1v-2.8h.9v2.7c0 .9.3 1.5 1.1 1.5.6 0 1-.4 1.2-.8 0-.1.1-.3.1-.5v-3h.9v3.6z" class="st0"/>
  <path d="M54.8 102.4v4.1c0 1.1-.2 1.8-.7 2.2-.5.4-1.1.6-1.8.6-.6 0-1.2-.1-1.6-.4l.2-.7c.3.2.8.4 1.4.4.9 0 1.6-.5 1.6-1.7v-.5c-.3.4-.8.8-1.5.8-1.2 0-2.1-1-2.1-2.4 0-1.6 1.1-2.6 2.2-2.6.8 0 1.3.4 1.5.8v-.7h.8zm-.9 1.9c0-.1 0-.3-.1-.4-.2-.5-.6-.9-1.2-.9-.8 0-1.4.7-1.4 1.8 0 .9.5 1.7 1.4 1.7.5 0 1-.3 1.2-.9 0-.2.1-.3.1-.5v-.8z" class="st0"/>
  <path d="M58.9 107.2l-.1-.6c-.3.4-.8.7-1.5.7-1 0-1.5-.7-1.5-1.4 0-1.2 1-1.8 2.9-1.8v-.1c0-.4-.1-1.1-1.1-1.1-.5 0-.9.1-1.3.4l-.2-.6c.4-.3 1-.4 1.6-.4 1.5 0 1.8 1 1.8 2v1.8c0 .4 0 .8.1 1.2h-.7zm-.1-2.4c-1 0-2 .2-2 1.1 0 .6.4.8.8.8.6 0 1-.4 1.2-.8v-1.1z" class="st0"/>
  <path d="M61 103.9v-1.5h.8v.9c.2-.6.7-1.1 1.3-1.1h.2v.8H63c-.6 0-1.1.5-1.2 1.1v3H61v-3.2z" class="st0"/>
  <path d="M64.9 102.4l1.1 2.9.3 1 .3-1 1-2.8h.9l-1.3 3.4c-.6 1.7-1.1 2.5-1.7 3-.4.4-.9.5-1.1.6l-.2-.7c.2-.1.5-.2.8-.4.2-.2.5-.5.7-1 0-.1.1-.2.1-.2s0-.1-.1-.2l-1.8-4.5h1z" class="st0"/>
  <path d="M70.2 108.6c.4 0 .8-.1 1-.4.2-.3.3-.7.3-1.8v-4h.9v4.4c0 .9-.1 1.5-.6 2-.4.4-1 .5-1.5.5l-.1-.7zm2.3-7.6c0 .3-.2.5-.5.5s-.5-.2-.5-.5.2-.5.6-.5c.2 0 .4.2.4.5z" class="st0"/>
  <path d="M77.9 105.9v1.3h-.8v-.8c-.2.4-.7.9-1.6.9-.8 0-1.7-.4-1.7-2.1v-2.8h.9v2.7c0 .9.3 1.5 1.1 1.5.6 0 1-.4 1.2-.8 0-.1.1-.3.1-.5v-3h.9v3.6z" class="st0"/>
  <path d="M80.3 101c0 .3-.2.5-.6.5-.3 0-.5-.2-.5-.5s.2-.5.5-.5c.4 0 .6.2.6.5zm-1 6.2v-4.8h.9v4.8h-.9z" class="st0"/>
  <path d="M85.1 107c-.2.1-.7.3-1.4.3-1.5 0-2.4-1-2.4-2.5s1-2.6 2.6-2.6c.5 0 1 .1 1.2.2l-.2.7c-.2-.1-.5-.2-1-.2-1.1 0-1.7.8-1.7 1.8 0 1.1.7 1.8 1.7 1.8.5 0 .8-.1 1.1-.2l.1.7z" class="st0"/>
  <path d="M86.6 105c0 1.2.8 1.7 1.7 1.7.6 0 1-.1 1.3-.2l.1.6c-.3.1-.8.3-1.6.3-1.5 0-2.4-1-2.4-2.4s.9-2.6 2.3-2.6c1.6 0 2 1.4 2 2.3v.4h-3.4zm2.6-.7c0-.6-.2-1.4-1.2-1.4-.9 0-1.3.8-1.3 1.4h2.5z" class="st0"/>
  <path d="M91 106.3c.3.2.7.3 1.2.3.6 0 .9-.3.9-.7 0-.4-.2-.6-.9-.9-.9-.3-1.3-.8-1.3-1.4 0-.8.6-1.4 1.7-1.4.5 0 .9.1 1.2.3l-.2.6c-.2-.1-.5-.3-1-.3s-.8.3-.8.7c0 .4.3.6.9.8.8.3 1.3.7 1.3 1.5s-.7 1.4-1.8 1.4c-.5 0-1-.1-1.4-.3l.2-.6z" class="st0"/>
  <path d="M39.5 147.3h114.1v12.4H39.5z" class="st2"/>
  <path d="M40.2 147.7h3.6v.7H41v2.2h2.5v.7H41v3h-.9v-6.6z" class="st0"/>
  <path d="M44.8 151.1v-1.5h.8v.9c.2-.6.7-1.1 1.3-1.1h.2v.8h-.3c-.6 0-1.1.5-1.2 1.1v3h-.9v-3.2z" class="st0"/>
  <path d="M52.4 151.9c0 1.8-1.2 2.6-2.4 2.6-1.3 0-2.3-1-2.3-2.5 0-1.6 1.1-2.6 2.4-2.6 1.3 0 2.3 1.1 2.3 2.5zm-3.9.1c0 1.1.6 1.9 1.5 1.9.8 0 1.5-.8 1.5-1.9 0-.8-.4-1.9-1.4-1.9-1.1 0-1.6 1-1.6 1.9z" class="st0"/>
  <path d="M52.8 153.9L55 151c.2-.3.4-.5.6-.7H53v-.7h3.7v.5l-2.2 2.8c-.2.3-.4.5-.6.8h2.8v.7h-3.9v-.5z" class="st0"/>
  <path d="M58.1 152.1c0 1.2.8 1.7 1.7 1.7.6 0 1-.1 1.3-.2l.1.6c-.3.1-.8.3-1.6.3-1.5 0-2.4-1-2.4-2.4s.9-2.6 2.3-2.6c1.6 0 2 1.4 2 2.3v.4h-3.4zm2.6-.6c0-.6-.2-1.4-1.2-1.4-.9 0-1.3.8-1.3 1.4h2.5z" class="st0"/>
  <path d="M62.6 150.9v-1.3h.8l.1.8c.2-.5.8-.9 1.6-.9.7 0 1.7.4 1.7 2.1v2.9h-.9v-2.8c0-.8-.3-1.4-1.1-1.4-.6 0-1 .4-1.2.9 0 .1-.1.3-.1.4v2.9h-.9v-3.6z" class="st0"/>
  <path d="M70.2 154.4v-7h.9v3c.3-.5.9-.9 1.6-.9 1.2 0 2 1 2 2.5 0 1.7-1.1 2.6-2.2 2.6-.7 0-1.3-.3-1.6-.9v.8h-.7zm1-1.9v.3c.2.6.7 1 1.3 1 .9 0 1.5-.7 1.5-1.9 0-1-.5-1.8-1.4-1.8-.6 0-1.2.4-1.3 1.1 0 .1-.1.2-.1.4v.9z" class="st0"/>
  <path d="M76 147.3h.9v7.1H76v-7.1z" class="st0"/>
  <path d="M78.8 152.1c0 1.2.8 1.7 1.7 1.7.6 0 1-.1 1.3-.2l.1.6c-.3.1-.8.3-1.6.3-1.5 0-2.4-1-2.4-2.4s.9-2.6 2.3-2.6c1.6 0 2 1.4 2 2.3v.4h-3.4zm2.6-.6c0-.6-.2-1.4-1.2-1.4-.9 0-1.3.8-1.3 1.4h2.5z" class="st0"/>
  <path d="M83.3 150.9v-1.3h.8l.1.8c.2-.5.8-.9 1.6-.9.7 0 1.7.4 1.7 2.1v2.9h-.9v-2.8c0-.8-.3-1.4-1.1-1.4-.6 0-1 .4-1.2.9 0 .1-.1.3-.1.4v2.9h-.9v-3.6z" class="st0"/>
  <path d="M93.1 147.3v7h-.8v-.8c-.3.5-.9 1-1.6 1-1.2 0-2.1-1-2.1-2.5 0-1.6 1-2.6 2.2-2.6.7 0 1.2.3 1.5.7v-2.9h.8zm-.9 4.2v-.4c-.1-.6-.6-1-1.3-1-.9 0-1.4.8-1.4 1.9 0 1 .5 1.8 1.4 1.8.6 0 1.1-.4 1.3-1v-1.3z" class="st0"/>
  <path d="M95 152.1c0 1.2.8 1.7 1.7 1.7.6 0 1-.1 1.3-.2l.1.6c-.3.1-.8.3-1.6.3-1.5 0-2.4-1-2.4-2.4s.9-2.6 2.3-2.6c1.6 0 2 1.4 2 2.3v.4H95zm2.6-.6c0-.6-.2-1.4-1.2-1.4-.9 0-1.3.8-1.3 1.4h2.5z" class="st0"/>
  <path d="M103.7 147.3v7h-.7v-.8c-.3.5-.9 1-1.6 1-1.2 0-2.1-1-2.1-2.5 0-1.6 1-2.6 2.2-2.6.7 0 1.2.3 1.5.7v-2.9h.7zm-.9 4.2v-.4c-.1-.6-.6-1-1.3-1-.9 0-1.4.8-1.4 1.9 0 1 .5 1.8 1.4 1.8.6 0 1.1-.4 1.3-1v-1.3z" class="st0"/>
  <path d="M106.1 155.8c.4 0 .8-.1 1-.4.2-.3.3-.7.3-1.8v-4h.9v4.4c0 .9-.1 1.5-.6 2-.4.4-1 .5-1.5.5l-.1-.7zm2.3-7.6c0 .3-.2.5-.5.5s-.5-.2-.5-.5.2-.5.6-.5c.2-.1.4.2.4.5z" class="st0"/>
  <path d="M113.8 153.1v1.3h-.8v-.8c-.2.4-.7.9-1.6.9-.8 0-1.7-.4-1.7-2.1v-2.8h.9v2.7c0 .9.3 1.5 1.1 1.5.6 0 1-.4 1.2-.8 0-.1.1-.3.1-.5v-3h.9v3.6z" class="st0"/>
  <path d="M116.2 148.2c0 .3-.2.5-.6.5-.3 0-.5-.2-.5-.5s.2-.5.5-.5c.4-.1.6.2.6.5zm-1 6.2v-4.8h.9v4.8h-.9z" class="st0"/>
  <path d="M121 154.2c-.2.1-.7.3-1.4.3-1.5 0-2.4-1-2.4-2.5s1-2.6 2.6-2.6c.5 0 1 .1 1.2.2l-.2.7c-.2-.1-.5-.2-1-.2-1.1 0-1.7.8-1.7 1.8 0 1.1.7 1.8 1.7 1.8.5 0 .8-.1 1.1-.2l.1.7z" class="st0"/>
  <path d="M122.5 152.1c0 1.2.8 1.7 1.7 1.7.6 0 1-.1 1.3-.2l.1.6c-.3.1-.8.3-1.6.3-1.5 0-2.4-1-2.4-2.4s.9-2.6 2.3-2.6c1.6 0 2 1.4 2 2.3v.4h-3.4zm2.6-.6c0-.6-.2-1.4-1.2-1.4-.9 0-1.3.8-1.3 1.4h2.5z" class="st0"/>
  <path d="M126.9 153.5c.3.2.7.3 1.2.3.6 0 .9-.3.9-.7 0-.4-.2-.6-.9-.9-.9-.3-1.3-.8-1.3-1.4 0-.8.6-1.4 1.7-1.4.5 0 .9.1 1.2.3l-.2.6c-.2-.1-.5-.3-1-.3s-.8.3-.8.7c0 .4.3.6.9.8.8.3 1.3.7 1.3 1.5s-.7 1.4-1.8 1.4c-.5 0-1-.1-1.4-.3l.2-.6z" class="st0"/>
  <path d="M199.7 50.2h57.4v12.4h-57.4z" class="st2"/>
  <path d="M205.2 57c-.3.2-1 .3-1.8.3-1.9 0-3.3-1.2-3.3-3.4 0-2.1 1.4-3.5 3.5-3.5.8 0 1.4.2 1.6.3l-.2.7c-.3-.2-.8-.3-1.4-.3-1.6 0-2.6 1-2.6 2.8 0 1.6.9 2.7 2.6 2.7.5 0 1.1-.1 1.4-.3l.2.7z" class="st0"/>
  <path d="M206.2 50.2h.9v7.1h-.9v-7.1z" class="st0"/>
  <path d="M212.7 55.9v1.3h-.8v-.8c-.2.4-.7.9-1.6.9-.8 0-1.7-.4-1.7-2.1v-2.8h.9v2.7c0 .9.3 1.5 1.1 1.5.6 0 1-.4 1.2-.8 0-.1.1-.3.1-.5v-3h.9v3.6z" class="st0"/>
  <path d="M214.1 57.3v-7h.9v3c.3-.5.9-.9 1.6-.9 1.2 0 2 1 2 2.5 0 1.7-1.1 2.6-2.2 2.6-.7 0-1.3-.3-1.6-.9v.8h-.7zm.9-2v.3c.2.6.7 1 1.3 1 .9 0 1.5-.7 1.5-1.9 0-1-.5-1.8-1.4-1.8-.6 0-1.2.4-1.3 1.1 0 .1-.1.2-.1.4v.9z" class="st0"/>
  <path d="M221.8 56.4c.3.2.7.3 1.2.3.6 0 .9-.3.9-.7 0-.4-.2-.6-.9-.9-.9-.3-1.3-.8-1.3-1.4 0-.8.6-1.4 1.7-1.4.5 0 .9.1 1.2.3l-.2.6c-.2-.1-.5-.3-1-.3s-.8.3-.8.7c0 .4.3.6.9.8.8.3 1.3.7 1.3 1.5s-.7 1.4-1.8 1.4c-.5 0-1-.1-1.4-.3l.2-.6z" class="st0"/>
  <path d="M230.3 54.8c0 1.8-1.2 2.6-2.4 2.6-1.3 0-2.3-1-2.3-2.5 0-1.6 1.1-2.6 2.4-2.6 1.3 0 2.3 1 2.3 2.5zm-3.9.1c0 1.1.6 1.9 1.5 1.9.8 0 1.5-.8 1.5-1.9 0-.8-.4-1.9-1.4-1.9-1.1 0-1.6.9-1.6 1.9z" class="st0"/>
  <path d="M235.6 50.2v7h-.8v-.8c-.3.5-.9 1-1.6 1-1.2 0-2.1-1-2.1-2.5 0-1.6 1-2.6 2.2-2.6.7 0 1.2.3 1.5.7v-2.9h.8zm-.9 4.2V54c-.1-.6-.6-1-1.3-1-.9 0-1.4.8-1.4 1.9 0 1 .5 1.8 1.4 1.8.6 0 1.1-.4 1.3-1v-1.3z" class="st0"/>
  <path d="M239.7 57.3l-.1-.6c-.3.4-.8.7-1.5.7-1 0-1.5-.7-1.5-1.4 0-1.2 1-1.8 2.9-1.8v-.1c0-.4-.1-1.1-1.1-1.1-.5 0-.9.1-1.3.4l-.2-.6c.4-.3 1-.4 1.6-.4 1.5 0 1.8 1 1.8 2v1.8c0 .4 0 .8.1 1.2h-.7zm-.1-2.5c-1 0-2 .2-2 1.1 0 .6.4.8.8.8.6 0 1-.4 1.2-.8v-1.1z" class="st0"/>
  <path d="M199.7 100.1h53.1v12.4h-53.1z" class="st2"/>
  <path d="M200.5 100.5h3.6v.7h-2.8v2.2h2.5v.7h-2.5v3h-.9v-6.6z" class="st0"/>
  <path d="M205.1 103.9v-1.5h.8v.9c.2-.6.7-1.1 1.3-1.1h.2v.8h-.3c-.6 0-1.1.5-1.2 1.1v3h-.9v-3.2z" class="st0"/>
  <path d="M208.7 105c0 1.2.8 1.7 1.7 1.7.6 0 1-.1 1.3-.2l.1.6c-.3.1-.8.3-1.6.3-1.5 0-2.4-1-2.4-2.4s.9-2.6 2.3-2.6c1.6 0 2 1.4 2 2.3v.4h-3.4zm2.6-.7c0-.6-.2-1.4-1.2-1.4-.9 0-1.3.8-1.3 1.4h2.5z" class="st0"/>
  <path d="M213.1 106.3c.3.2.7.3 1.2.3.6 0 .9-.3.9-.7 0-.4-.2-.6-.9-.9-.9-.3-1.3-.8-1.3-1.4 0-.8.6-1.4 1.7-1.4.5 0 .9.1 1.2.3l-.2.6c-.2-.1-.5-.3-1-.3s-.8.3-.8.7c0 .4.3.6.9.8.8.3 1.3.7 1.3 1.5s-.7 1.4-1.8 1.4c-.5 0-1-.1-1.4-.3l.2-.6z" class="st0"/>
  <path d="M217.2 100.1h.9v3c.1-.2.4-.5.6-.6.3-.2.6-.2.9-.2.6 0 1.7.4 1.7 2.1v2.9h-.9v-2.8c0-.8-.3-1.4-1.1-1.4-.6 0-1 .4-1.2.9 0 .1-.1.2-.1.4v2.9h-.9v-7.2z" class="st0"/>
  <path d="M225 107.2V103h-.7v-.7h.7v-.2c0-.7.2-1.3.6-1.7.3-.3.8-.5 1.2-.5.3 0 .6.1.8.1l-.1.7c-.1-.1-.3-.1-.6-.1-.8 0-.9.7-.9 1.4v.3h1.2v.7H226v4.2h-1z" class="st0"/>
  <path d="M227.8 103.9v-1.5h.8v.9c.2-.6.7-1.1 1.3-1.1h.2v.8h-.3c-.6 0-1.1.5-1.2 1.1v3h-.9v-3.2z" class="st0"/>
  <path d="M235.1 105.9v1.3h-.8v-.8c-.2.4-.7.9-1.6.9-.8 0-1.7-.4-1.7-2.1v-2.8h.9v2.7c0 .9.3 1.5 1.1 1.5.6 0 1-.4 1.2-.8 0-.1.1-.3.1-.5v-3h.9v3.6z" class="st0"/>
  <path d="M237.5 101c0 .3-.2.5-.6.5-.3 0-.5-.2-.5-.5s.2-.5.5-.5c.4 0 .6.2.6.5zm-.9 6.2v-4.8h.9v4.8h-.9z" class="st0"/>
  <path d="M240 101v1.4h1.3v.7H240v2.6c0 .6.2.9.7.9.2 0 .4 0 .5-.1v.7c-.2.1-.4.1-.8.1s-.7-.1-.9-.4c-.2-.3-.3-.7-.3-1.3V103h-.8v-.7h.8v-1.2l.8-.1z" class="st0"/>
  <path d="M199.3 147.3h61.1v12.4h-61.1z" class="st2"/>
  <path d="M201.4 148.4h-2v-.7h5v.7h-2.1v6h-.9v-6z" class="st0"/>
  <path d="M208.7 151.9c0 1.8-1.2 2.6-2.4 2.6-1.3 0-2.3-1-2.3-2.5 0-1.6 1.1-2.6 2.4-2.6 1.3 0 2.3 1.1 2.3 2.5zm-3.9.1c0 1.1.6 1.9 1.5 1.9.8 0 1.5-.8 1.5-1.9 0-.8-.4-1.9-1.4-1.9-1.1 0-1.6 1-1.6 1.9z" class="st0"/>
  <path d="M209.8 150.9v-1.3h.8l.1.8c.2-.5.8-.9 1.6-.9.7 0 1.7.4 1.7 2.1v2.9h-1v-2.8c0-.8-.3-1.4-1.1-1.4-.6 0-1 .4-1.2.9 0 .1-.1.3-.1.4v2.9h-.9v-3.6z" class="st0"/>
  <path d="M216.3 148.2c0 .3-.2.5-.6.5-.3 0-.5-.2-.5-.5s.2-.5.5-.5c.4-.1.6.2.6.5zm-1 6.2v-4.8h.9v4.8h-.9z" class="st0"/>
  <path d="M221.1 154.2c-.2.1-.7.3-1.4.3-1.5 0-2.4-1-2.4-2.5s1-2.6 2.6-2.6c.5 0 1 .1 1.2.2l-.2.7c-.2-.1-.5-.2-1-.2-1.1 0-1.7.8-1.7 1.8 0 1.1.7 1.8 1.7 1.8.5 0 .8-.1 1.1-.2l.1.7z" class="st0"/>
  <path d="M224.6 149.6l.6 2.5c.1.5.3 1 .4 1.5.1-.5.3-1 .4-1.5l.8-2.5h.7l.8 2.4c.2.6.3 1.1.4 1.6.1-.5.2-1 .4-1.6l.7-2.4h.9l-1.6 4.8h-.8l-.7-2.3c-.2-.5-.3-1-.4-1.6-.1.6-.3 1.1-.4 1.6l-.8 2.3h-.8l-1.5-4.8h.9z" class="st0"/>
  <path d="M234.3 154.4l-.1-.6c-.3.4-.8.7-1.5.7-1 0-1.5-.7-1.5-1.4 0-1.2 1-1.8 2.9-1.8v-.1c0-.4-.1-1.1-1.1-1.1-.5 0-.9.1-1.3.4l-.2-.6c.4-.3 1-.4 1.6-.4 1.5 0 1.8 1 1.8 2v1.8c0 .4 0 .8.1 1.2h-.7zm-.2-2.5c-1 0-2 .2-2 1.1 0 .6.4.8.8.8.6 0 1-.4 1.2-.8v-1.1z" class="st0"/>
  <path d="M237.4 148.2v1.4h1.3v.7h-1.3v2.6c0 .6.2.9.7.9.2 0 .4 0 .5-.1v.7c-.2.1-.4.1-.8.1s-.7-.1-.9-.4c-.2-.3-.3-.7-.3-1.3v-2.6h-.8v-.7h.8v-1.2l.8-.1z" class="st0"/>
  <path d="M240.1 152.1c0 1.2.8 1.7 1.7 1.7.6 0 1-.1 1.3-.2l.1.6c-.3.1-.8.3-1.6.3-1.5 0-2.4-1-2.4-2.4s.9-2.6 2.3-2.6c1.6 0 2 1.4 2 2.3v.4h-3.4zm2.6-.6c0-.6-.2-1.4-1.2-1.4-.9 0-1.3.8-1.3 1.4h2.5z" class="st0"/>
  <path d="M244.6 151.1v-1.5h.8v.9c.2-.6.7-1.1 1.3-1.1h.2v.8h-.3c-.6 0-1.1.5-1.2 1.1v3h-.9v-3.2z" class="st0"/>
  <g id="avoid_2_">
    <path id="pop_2_" d="M9.7 68s.5.8 1.3 1.2c0 0 .5.4.6.5 0 0 .1.4 1.5.6 0 0 4.8.9 7.7 0 0 0 1.3-.3 1.4-.4 0 0 .3-.2.5-.3l.2-.2c.3-.3 1.1-.9 1.3-1 0 0 .3-.1.3-.5l.1-21s-.2-.8-.5-1.2c0 0-.8-1.5-.9-1.5 0 0-.1-.2-.1-.4 0 0 .1-.1.1-.3v-.4s-.2-.6-2.9-.8c0 0-3.6-.3-5.5 0 0 0-2.2 0-3.5.6 0 0-.2.1-.2.4 0 0 0 .3.1.4 0 0-.1.6-.5 1 0 0-.9 1.5-.9 1.8L9.7 68z" class="st3"/>
    <path id="suger_2_" d="M6.3 100.1s.9 15.6.2 17.6c0 0 5.1 4.2 5.9 4.3 0 0 8.1-2.2 12.4-4.8 0 0 .5-18.4-.2-18.5l-3.9-2.2s1.2-4.4 1.8-4.4c0 0 3.9 2.1 4.8 2 0 0 .8-.3.5-1.2 0 0-5.1-2-5.3-2.4 0 0-.7-.4-1.4.9L19.7 96s-1-.4-1-.5l-12.4 4.6z" class="st3"/>
    <path id="juice_2_" d="M12.2 153l.9-.1s.1-3.1 2.8-3.7l8.9-2.4s.9-.3 2.1.3c0 0 2.2.8 2.4 4h.6s1-.1 2.3 1.4c0 0 1.7 2.2 1.8 5.3 0 0 .3 3.2-1.5 4.6 0 0 0 .3-2 .6l-18.2 3.4s-1.2.3-1.8-.3c0 0-1.1-.5-1.8-4.9 0 0-5.2 1-6.5-1 0 0-.4-.9-.4-1.5L0 141.1s-.1-.2.3-.3c0 0 1.6-.3 5.8-.3 0 0 5.2-.1 5.6.3l.5 12.2z" class="st3"/>
  </g>
  <g id="try">
    <path id="lemon" d="M163.9 113.3s-1.3 0-1.2-1.3c0 0-.1-1.7.7-2.7 0 0 .3-1.7.1-2.8 0 0-2.6-5.8 4-11.9 0 0 4.9-5.1 13.3-5.9 0 0 .2.1 3.4-.7 0 0 1.9-.9 3.4.5 0 0 .7.2.6.6 0 0 1.3.8 1.3 1.4 0 0 2.1 1.4.7 4.8 0 0 .7 5.6-1.1 8.2 0 0-.2.8-.4 1 0 0-5.6 8.1-11.7 9 0 0-6 .4-6.6-.3 0 0-1.8-.3-2.3-.1 0 .1-3.4.9-4.2.2z" class="st3"/>
    <path id="tonic" d="M176.5 131.8v.8s-3.1 5.7-3.3 9.9c0 0 0 14.4.1 14.8 0 0 .2 2.8.1 4.7 0 0-.4 4-.2 4.3 0 0 .2 1.4 1.1 2.3 0 0 .2.4 2.6.5 0 0 2.6.2 5-.2 0 0 .7 0 1.2-1.1 0 0 .7-1.1.5-2.3 0 0-.2-3.5-.2-3.7 0 0-.1-3.9.1-4.5 0 0 .2-14.7.1-14.8 0 0 .5-2.1-3.4-9.8v-.8h.6v-.2l-.7-.3h.4s.1-.5-.1-.6v-.1h.1v-.2s.1-1.4 0-1.7h-.1l-.1-.2s-1.7-.3-3.7 0l-.1.1s-.1 0-.1.1c0 0-.1 1-.1 1.8h.1v.2s-.2-.1-.2.6h.5s-.1.1-.6.3v.2c-.1-.1.3 0 .4-.1z" class="st3"/>
    <path id="soda" d="M178.6 35.4c-.8 0-1.7.1-2.5.5 0 0-.2.2-.1.4 0 0-.6.2-.6.8 0 0 0 .3.3.5v.4s-.4.3-.3.8c0 0 .2.5.7.5 0 0-4.8 19.3-4.7 20.5 0 0-1.1 5.7 1 15.5 0 0 .2 1.1 2.3 1.1 0 0 1.8.1 3.9.1h-.3c2.1 0 3.9-.1 3.9-.1 2 0 2.3-1.1 2.3-1.1 2.1-9.9 1-15.5 1-15.5.1-1.2-4.7-20.5-4.7-20.5.5 0 .7-.5.7-.5.1-.5-.3-.8-.3-.8v-.4c.3-.2.3-.5.3-.5 0-.6-.6-.8-.6-.8.1-.2-.1-.4-.1-.4-.8-.4-1.7-.5-2.5-.5" class="st3"/>
  </g>
</svg>
