<svg xmlns="http://www.w3.org/2000/svg" id="Layer_1" viewBox="0 0 516.8 635.9">
  <style>
    .st0{opacity:0.88;fill:#FFFFFF;stroke:#FFFFFF;stroke-miterlimit:10;} .st1{fill:#7FBB42;} .st2{fill:#FFFFFF;} .st3{fill:#FFFFFF;stroke:#FFFFFF;stroke-miterlimit:10;} .st4{fill:#C4D82E;stroke:#C4D82E;stroke-miterlimit:10;} .st5{fill:#009B9B;stroke:#009B9B;stroke-miterlimit:10;} .st6{fill:#009B9B;}
  </style>
  <path d="M482 448.7l10.9-20.4c.5-1 1.5-1.6 2.6-1.6 4.7 0 17 1.3 20.6 12.7.2.8.2 1.6-.2 2.4l-23.3 42.9c-.5.9-1.3 1.5-2.3 1.5-1 .1-2.4.1-4.4-.1-1.1-.1-2.2.4-2.8 1.4L472.9 504c-.2.4-.4.8-.4 1.3v.1c-.2 1.9-2.1 3-3.9 2.4-1.7-.6-4.2-1.7-5.4-3.4-.4-.5-.5-1.2-.5-1.9.1-.9.4-2.2 1.5-2.4.9-.1 1.8-.6 2.2-1.5l6.7-14.3c.4-.8.4-1.7 0-2.5l-2.9-6.3c-.4-.8-.4-1.7 0-2.5l11.8-24.3z" class="st0"/>
  <g id="burp_2_">
    <path d="M80.9 60.8s1.9-22.7 35.2-25.6c0 0 26.8-37.3 73.7-35.1 0 0 39 .4 55 18.3 0 0 31.5-25.2 75.2-15.7 0 0 33.8 4.8 52.1 33.3 0 0 44.2-5.1 65.3 42.4 0 0 37.6 16.5 37.1 47.9 0 0 1.9 19.3-21.6 36.1 0 0 19.3 28.9-12.2 56.7 0 0-30.5 33.6-99.6 19.4 0 0-9.9 25.2-51.2 19.7 0 0-26.3 32.2-76.6 30 0 0-64.3-3.3-71.9-45.3 0 0-24.9 24.5-60.6 8.8 0 0-32.9-11-29.6-42.8 0 0-50.7-10.4-51.2-46.5 0 0-3.3-31.8 21.6-43.8 0 0-20.7-20.1 4.7-43.5.1 0 20.8-20.2 54.6-14.3z" class="st1"/>
    <path d="M242.2 238.1s-4.7 9.3.7 19.7c2.1 4.1 5.4 7.3 9.4 9.6 5.6 3.2 16.8 11 20.6 23.7 1.4 4.7 3.9 9.1 7.5 12.6 1.6 1.6 3.6 3.1 5.9 4.4 0 0 14.7 8.1 14.8 20.4 0 5.6 3.2 10.8 8.2 13.5.1 0 .2.1.3.1 0 0 14.8 8.7 14.5 25.7 0 0-.2 1.2-1.3-.3 0 0-6.5-17.4-13.9-20 0 0-.1 0-.3-.1-8-3.1-14.3-9.4-17.4-17.4-1.8-4.6-6-11.5-15.6-16 0 0-14.5-7.8-19.4-17.7-.8-1.6-1.3-3.4-1.5-5.2-.4-2.4-4.5-10.6-16.4-16.1 0 0-15.4-7.1-17.8-25 0 0-.4-7 3.2-10-.2-.1 12.2-6.5 18.5-1.9z" class="st1"/>
  </g>
  <g id="message">
    <path d="M123.5 56.7c-.1-1.7-.2-3.7-.2-5.2h-.1c-.4 1.4-.9 2.9-1.5 4.6l-2.1 5.9h-1.2l-2-5.8c-.6-1.7-1.1-3.3-1.4-4.7 0 1.5-.1 3.5-.2 5.4l-.3 5.2H113l.8-12.1h2l2.1 5.9c.5 1.5.9 2.8 1.2 4.1h.1c.3-1.2.7-2.6 1.3-4.1l2.2-5.9h2l.8 12.1H124l-.5-5.4z" class="st2"/>
    <path d="M134 56.3h-4.7v4.4h5.3V62h-6.8V49.8h6.6v1.3h-5V55h4.7v1.3z" class="st2"/>
    <path d="M139.2 51.2h-3.7v-1.3h9v1.3h-3.7V62h-1.6V51.2z" class="st2"/>
    <path d="M146.4 58.2l-1.3 3.8h-1.6l4.1-12.1h1.9l4.1 12.1H152l-1.3-3.8h-4.3zm4-1.3l-1.2-3.5c-.3-.8-.5-1.5-.6-2.2l-.6 2.2-1.2 3.5h3.6z" class="st2"/>
    <path d="M155.5 50c.7-.1 1.8-.3 2.9-.3 1.6 0 2.6.3 3.3.9.6.5 1 1.2 1 2.1 0 1.2-.8 2.2-2.1 2.7 1.2.3 2.5 1.2 2.5 3 0 1-.4 1.8-1 2.4-.8.8-2.2 1.1-4.2 1.1-1.1 0-1.9-.1-2.4-.1V50zm1.5 5h1.4c1.7 0 2.6-.9 2.6-2 0-1.4-1.1-2-2.7-2-.7 0-1.1.1-1.4.1V55zm0 5.8c.3.1.8.1 1.3.1 1.6 0 3.1-.6 3.1-2.4 0-1.7-1.4-2.3-3.1-2.3H157v4.6z" class="st2"/>
    <path d="M175.6 55.8c0 4.2-2.5 6.4-5.6 6.4-3.2 0-5.5-2.5-5.5-6.2 0-3.9 2.4-6.4 5.6-6.4 3.4 0 5.5 2.6 5.5 6.2zm-9.4.2c0 2.6 1.4 4.9 3.9 4.9s3.9-2.3 3.9-5c0-2.4-1.3-4.9-3.9-4.9-2.6-.1-3.9 2.3-3.9 5z" class="st2"/>
    <path d="M177.6 49.8h1.6v10.8h5.2V62h-6.8V49.8z" class="st2"/>
    <path d="M187.7 49.8V62h-1.6V49.8h1.6z" class="st2"/>
    <path d="M190.2 60.1c.7.4 1.7.8 2.8.8 1.6 0 2.5-.8 2.5-2.1 0-1.1-.6-1.8-2.3-2.4-2-.7-3.2-1.7-3.2-3.4 0-1.9 1.6-3.3 3.9-3.3 1.2 0 2.1.3 2.7.6l-.4 1.3c-.4-.2-1.2-.6-2.3-.6-1.7 0-2.3 1-2.3 1.8 0 1.1.7 1.7 2.4 2.3 2.1.8 3.1 1.8 3.1 3.6 0 1.9-1.4 3.5-4.2 3.5-1.2 0-2.4-.3-3.1-.8l.4-1.3z" class="st2"/>
    <path d="M209.5 56.7c-.1-1.7-.2-3.7-.2-5.2h-.1c-.4 1.4-.9 2.9-1.5 4.6l-2.1 5.9h-1.2l-2-5.8c-.6-1.7-1.1-3.3-1.4-4.7 0 1.5-.1 3.5-.2 5.4l-.3 5.2H199l.8-12.1h2l2.1 5.9c.5 1.5.9 2.8 1.2 4.1h.1c.3-1.2.7-2.6 1.3-4.1l2.2-5.9h2l.8 12.1H210l-.5-5.4z" class="st2"/>
    <path d="M309.9 78v5.6c0 2.1.9 3 2.2 3 1.4 0 2.3-.9 2.3-3V78h1.2v5.5c0 2.9-1.5 4.1-3.6 4.1-1.9 0-3.4-1.1-3.4-4V78h1.3z" class="st2"/>
    <path d="M317.7 82.5c0-.7 0-1.3-.1-1.8h1.1l.1 1.1c.3-.6 1.1-1.3 2.2-1.3.9 0 2.4.6 2.4 2.9v4h-1.2v-3.9c0-1.1-.4-2-1.6-2-.8 0-1.4.6-1.7 1.3-.1.2-.1.4-.1.6v4.1h-1.2v-5z" class="st2"/>
    <path d="M331.3 77.5v8.2c0 .6 0 1.3.1 1.8h-1.1l-.1-1.2c-.4.8-1.2 1.3-2.3 1.3-1.6 0-2.9-1.4-2.9-3.4 0-2.3 1.4-3.6 3-3.6 1 0 1.7.5 2 1v-4h1.3zm-1.2 5.9c0-.2 0-.4-.1-.5-.2-.8-.9-1.4-1.8-1.4-1.3 0-2 1.1-2 2.6 0 1.4.7 2.5 2 2.5.8 0 1.6-.5 1.8-1.5 0-.2.1-.3.1-.5v-1.2z" class="st2"/>
    <path d="M334.1 84.2c0 1.7 1.1 2.4 2.3 2.4.9 0 1.4-.2 1.9-.4l.2.9c-.4.2-1.2.4-2.3.4-2.1 0-3.3-1.4-3.3-3.4s1.2-3.7 3.2-3.7c2.2 0 2.8 1.9 2.8 3.2v.6h-4.8zm3.6-.9c0-.8-.3-2-1.7-2-1.2 0-1.8 1.1-1.9 2h3.6z" class="st2"/>
    <path d="M340.4 82.7c0-.8 0-1.5-.1-2.1h1.1v1.3h.1c.3-.9 1-1.5 1.9-1.5h.3v1.2h-.4c-.9 0-1.5.7-1.7 1.6 0 .2-.1.4-.1.6v3.6h-1.2v-4.7z" class="st2"/>
    <path d="M344.8 86.1c.4.2 1 .5 1.6.5.9 0 1.3-.4 1.3-1s-.3-.9-1.3-1.2c-1.2-.4-1.8-1.1-1.8-1.9 0-1.1.9-2 2.3-2 .7 0 1.3.2 1.7.4l-.3.9c-.3-.2-.8-.4-1.4-.4-.7 0-1.1.4-1.1.9 0 .6.4.8 1.3 1.1 1.2.4 1.8 1 1.8 2 0 1.2-.9 2-2.5 2-.7 0-1.4-.2-1.9-.5l.3-.8z" class="st2"/>
    <path d="M352 78.7v1.9h1.8v.9H352v3.7c0 .8.2 1.3.9 1.3.3 0 .6 0 .7-.1l.1.9c-.2.1-.6.2-1.1.2-.6 0-1-.2-1.3-.5-.4-.4-.5-1-.5-1.8v-3.7h-1.1v-.9h1.1V79l1.2-.3z" class="st2"/>
    <path d="M358.9 87.4l-.1-.9c-.4.5-1.1 1-2.1 1-1.4 0-2.1-1-2.1-1.9 0-1.6 1.5-2.5 4.1-2.5V83c0-.6-.2-1.6-1.5-1.6-.6 0-1.3.2-1.8.5l-.3-.8c.6-.4 1.4-.6 2.2-.6 2.1 0 2.6 1.4 2.6 2.8v2.5c0 .6 0 1.2.1 1.6h-1.1zm-.2-3.5c-1.3 0-2.9.2-2.9 1.5 0 .8.5 1.2 1.2 1.2.9 0 1.4-.6 1.6-1.1 0-.1.1-.3.1-.4v-1.2z" class="st2"/>
    <path d="M361.9 82.5c0-.7 0-1.3-.1-1.8h1.1l.1 1.1c.3-.6 1.1-1.3 2.2-1.3.9 0 2.4.6 2.4 2.9v4h-1.2v-3.9c0-1.1-.4-2-1.6-2-.8 0-1.4.6-1.7 1.3-.1.2-.1.4-.1.6v4.1h-1.2v-5z" class="st2"/>
    <path d="M375.5 77.5v8.2c0 .6 0 1.3.1 1.8h-1.1l-.1-1.2c-.4.8-1.2 1.3-2.3 1.3-1.6 0-2.9-1.4-2.9-3.4 0-2.3 1.4-3.6 3-3.6 1 0 1.7.5 2 1v-4h1.3zm-1.2 5.9c0-.2 0-.4-.1-.5-.2-.8-.9-1.4-1.8-1.4-1.3 0-2 1.1-2 2.6 0 1.4.7 2.5 2 2.5.8 0 1.6-.5 1.8-1.5 0-.2.1-.3.1-.5v-1.2z" class="st2"/>
    <path d="M378.9 78.7c0 .4-.3.8-.8.8-.4 0-.7-.3-.7-.8 0-.4.3-.8.8-.8.4 0 .7.4.7.8zm-1.3 8.7v-6.8h1.2v6.8h-1.2z" class="st2"/>
    <path d="M380.8 82.5c0-.7 0-1.3-.1-1.8h1.1l.1 1.1c.3-.6 1.1-1.3 2.2-1.3.9 0 2.4.6 2.4 2.9v4h-1.2v-3.9c0-1.1-.4-2-1.6-2-.8 0-1.4.6-1.7 1.3-.1.2-.1.4-.1.6v4.1h-1.2v-5z" class="st2"/>
    <path d="M394.4 80.6c0 .5-.1 1-.1 1.9v3.9c0 1.6-.3 2.5-1 3.1-.7.6-1.6.8-2.5.8-.8 0-1.7-.2-2.3-.6l.3-.9c.4.3 1.1.5 2 .5 1.3 0 2.2-.7 2.2-2.4v-.8c-.4.6-1.1 1.1-2.2 1.1-1.7 0-2.9-1.4-2.9-3.3 0-2.3 1.5-3.6 3.1-3.6 1.2 0 1.8.6 2.1 1.2l.1-1h1.2zm-1.2 2.7c0-.2 0-.4-.1-.6-.2-.7-.8-1.3-1.7-1.3-1.2 0-2 1-2 2.6 0 1.3.7 2.4 2 2.4.8 0 1.4-.5 1.7-1.3.1-.2.1-.4.1-.7v-1.1z" class="st2"/>
    <path d="M400.9 78.7v1.9h1.8v.9h-1.8v3.7c0 .8.2 1.3.9 1.3.3 0 .6 0 .7-.1l.1.9c-.2.1-.6.2-1.1.2-.6 0-1-.2-1.3-.5-.4-.4-.5-1-.5-1.8v-3.7h-1.1v-.9h1.1V79l1.2-.3z" class="st2"/>
    <path d="M404 77.5h1.2v4.2c.2-.4.5-.7.9-.9.4-.2.8-.4 1.3-.4.9 0 2.4.6 2.4 2.9v4h-1.2v-3.9c0-1.1-.4-2-1.6-2-.8 0-1.4.6-1.7 1.2-.1.2-.1.4-.1.6v4.1H404v-9.8z" class="st2"/>
    <path d="M412.5 84.2c0 1.7 1.1 2.4 2.3 2.4.9 0 1.4-.2 1.9-.4l.2.9c-.4.2-1.2.4-2.3.4-2.1 0-3.3-1.4-3.3-3.4s1.2-3.7 3.2-3.7c2.2 0 2.8 1.9 2.8 3.2v.6h-4.8zm3.6-.9c0-.8-.3-2-1.7-2-1.2 0-1.8 1.1-1.9 2h3.6z" class="st2"/>
    <path d="M341.5 99.6c0-.9 0-1.6-.1-2.2h1.1l.1 1.2c.5-.8 1.3-1.3 2.4-1.3 1.6 0 2.9 1.4 2.9 3.4 0 2.4-1.5 3.6-3.1 3.6-.9 0-1.7-.4-2.1-1.1v3.7h-1.2v-7.3zm1.3 1.8c0 .2 0 .4.1.5.2.9 1 1.4 1.8 1.4 1.3 0 2.1-1.1 2.1-2.6 0-1.4-.7-2.5-2-2.5-.8 0-1.6.6-1.9 1.5 0 .2-.1.3-.1.5v1.2z" class="st2"/>
    <path d="M349.5 99.5c0-.8 0-1.5-.1-2.1h1.1v1.3h.1c.3-.9 1-1.5 1.9-1.5h.3v1.2h-.4c-.9 0-1.5.7-1.7 1.6 0 .2-.1.4-.1.6v3.6h-1.2v-4.7z" class="st2"/>
    <path d="M360.1 100.8c0 2.5-1.7 3.6-3.4 3.6-1.8 0-3.2-1.3-3.2-3.5 0-2.3 1.5-3.6 3.4-3.6s3.2 1.4 3.2 3.5zm-5.4 0c0 1.5.9 2.6 2.1 2.6 1.2 0 2.1-1.1 2.1-2.6 0-1.1-.6-2.6-2-2.6s-2.2 1.3-2.2 2.6z" class="st2"/>
    <path d="M366.5 103.9c-.3.2-1 .4-1.9.4-2 0-3.4-1.4-3.4-3.5s1.4-3.6 3.6-3.6c.7 0 1.4.2 1.7.4l-.3 1c-.3-.2-.8-.3-1.4-.3-1.6 0-2.4 1.1-2.4 2.6 0 1.6 1 2.5 2.4 2.5.7 0 1.2-.2 1.5-.3l.2.8z" class="st2"/>
    <path d="M368.5 101c0 1.7 1.1 2.4 2.3 2.4.9 0 1.4-.2 1.9-.4l.2.9c-.4.2-1.2.4-2.3.4-2.1 0-3.3-1.4-3.3-3.4s1.2-3.7 3.2-3.7c2.2 0 2.8 1.9 2.8 3.2v.6h-4.8zm3.6-.9c0-.8-.3-2-1.7-2-1.2 0-1.8 1.1-1.9 2h3.6z" class="st2"/>
    <path d="M374.7 102.9c.4.2 1 .5 1.6.5.9 0 1.3-.4 1.3-1s-.3-.9-1.3-1.2c-1.2-.4-1.8-1.1-1.8-1.9 0-1.1.9-2 2.3-2 .7 0 1.3.2 1.7.4l-.3.9c-.3-.2-.8-.4-1.4-.4-.7 0-1.1.4-1.1.9 0 .6.4.8 1.3 1.1 1.2.4 1.8 1 1.8 2 0 1.2-.9 2-2.5 2-.7 0-1.4-.2-1.9-.5l.3-.8z" class="st2"/>
    <path d="M380.2 102.9c.4.2 1 .5 1.6.5.9 0 1.3-.4 1.3-1s-.3-.9-1.3-1.2c-1.2-.4-1.8-1.1-1.8-1.9 0-1.1.9-2 2.3-2 .7 0 1.3.2 1.7.4l-.3.9c-.3-.2-.8-.4-1.4-.4-.7 0-1.1.4-1.1.9 0 .6.4.8 1.3 1.1 1.2.4 1.8 1 1.8 2 0 1.2-.9 2-2.5 2-.7 0-1.4-.2-1.9-.5l.3-.8z" class="st2"/>
    <path d="M204.9 138.4s-6.1-6.8-6.5-6.4c0 0-2.7-3.4-2.7-4.7 0 0 6.6-10.1 12.3-12.1 0 0 10.1-9.9-3.2-27.5 0 0-4.3-5.9-9.4-6.3 0 0-2.2-.1-2.6-1.4 0 0-1.3.3-1.1 1.2 0 0-.5-.3-.5-.5 0 0-2 1.2-1.5 2.7 0 0-2.4 0-2.6 1.5 0 0-.3.9-.2 1.9 0 0-.4.1-.5-.2 0 0-.4.3 0 1.1 0 0-5.2 2.2-6.1 5.6 0 0-.1.3-1 .5 0 0-6.2.5-6.4 2.7 0 0-.2.6.7 2.4 0 0 .2 1.1-.4 1.2 0 0-1.7-.2-2 .5L159 98.8s-1.1-2.1-4.5-2.8v-2.2s.1-1.5-1.5-1.7c0 0-1.2-.2-1.8.8 0 0-2-1.8-3.3-.7 0 0-2.8-2-4.3-.2 0 0-2.5-.5-3.7 1l-1.6 1.4-3.3-.1s-.6-.3-.9.9c0 0-.9 3.3-.7 9.4 0 0 0 .2.3.2 0 0-9.7 16.2-11.7 30.5 0 0-.4 1.2 4.6 4.7 0 0 6.9 6.2 37.1 6.8 0 0-4.4 11.5-2 22.6 0 0-.1 4.4-1.4 7.5 0 0-14.3 12.9-9.7 31.5h54.2c.1 0 12.1-62.1.1-70z" class="st3"/>
    <path d="M222.9 103.3l-.6 1.7h-.7l1.8-5.4h.8l1.8 5.4h-.7l-.6-1.7h-1.8zm1.8-.5l-.5-1.6c-.1-.4-.2-.7-.3-1-.1.3-.2.6-.3 1l-.5 1.6h1.6z" class="st2"/>
    <path d="M226.9 99.4h.7v5.7h-.7v-5.7z" class="st2"/>
    <path d="M231.5 104.9c-.2.1-.6.2-1.1.2-1.2 0-1.9-.8-1.9-2s.8-2.1 2.1-2.1c.4 0 .8.1 1 .2l-.2.5c-.2-.1-.4-.2-.8-.2-.9 0-1.4.7-1.4 1.5 0 .9.6 1.4 1.3 1.4.4 0 .7-.1.9-.2l.1.7z" class="st2"/>
    <path d="M235.8 103.1c0 1.4-1 2.1-1.9 2.1-1 0-1.9-.8-1.9-2 0-1.3.8-2.1 1.9-2.1 1.2 0 1.9.8 1.9 2zm-3.1 0c0 .8.5 1.5 1.2 1.5s1.2-.6 1.2-1.5c0-.7-.3-1.5-1.2-1.5-.8 0-1.2.8-1.2 1.5z" class="st2"/>
    <path d="M236.7 99.4h.7v2.4c.1-.2.3-.4.5-.5.2-.1.5-.2.7-.2.5 0 1.4.3 1.4 1.7v2.3h-.7v-2.2c0-.6-.2-1.2-.9-1.2-.5 0-.8.3-.9.7v2.6h-.7v-5.6z" class="st2"/>
    <path d="M244.6 103.1c0 1.4-1 2.1-1.9 2.1-1 0-1.9-.8-1.9-2 0-1.3.8-2.1 1.9-2.1 1.2 0 1.9.8 1.9 2zm-3 0c0 .8.5 1.5 1.2 1.5s1.2-.6 1.2-1.5c0-.7-.3-1.5-1.2-1.5-.9 0-1.2.8-1.2 1.5z" class="st2"/>
    <path d="M245.5 99.4h.7v5.7h-.7v-5.7z" class="st2"/>
    <path d="M249.9 100.1c0 .2-.2.4-.4.4s-.4-.2-.4-.4.2-.4.4-.4c.2-.1.4.1.4.4zm-.8 4.9v-3.9h.7v3.9h-.7z" class="st2"/>
    <path d="M250.9 104.3c.2.1.6.3.9.3.5 0 .8-.3.8-.6s-.2-.5-.7-.7c-.7-.2-1-.6-1-1.1 0-.6.5-1.1 1.3-1.1.4 0 .7.1 1 .2l-.2.5c-.2-.1-.4-.2-.8-.2s-.6.2-.6.5.2.5.7.7c.7.3 1 .6 1 1.2 0 .7-.5 1.2-1.4 1.2-.4 0-.8-.1-1.1-.3l.1-.6z" class="st2"/>
    <path d="M225.2 109.7c0 .2-.2.4-.4.4s-.4-.2-.4-.4.2-.4.4-.4c.2-.1.4.1.4.4zm-.8 4.9v-3.9h.7v3.9h-.7z" class="st2"/>
    <path d="M226.3 111.8v-1h.6v.6c.2-.4.6-.7 1.3-.7.5 0 1.4.3 1.4 1.6v2.3h-.7v-2.2c0-.6-.2-1.1-.9-1.1-.5 0-.8.3-.9.7v2.6h-.7v-2.8z" class="st2"/>
    <path d="M234 110.8v3.3c0 .9-.2 1.4-.6 1.8-.4.4-.9.5-1.4.5-.5 0-1-.1-1.3-.3l.2-.5c.3.2.7.3 1.1.3.7 0 1.2-.4 1.2-1.4v-.5c-.2.4-.6.6-1.2.6-1 0-1.6-.8-1.6-1.9 0-1.3.9-2.1 1.7-2.1.7 0 1 .4 1.2.7v-.6h.7zm-.7 1.5v-.3c-.1-.4-.5-.7-1-.7-.7 0-1.2.6-1.2 1.5 0 .8.4 1.4 1.1 1.4.4 0 .8-.3 1-.7 0-.1.1-.3.1-.4v-.8z" class="st2"/>
    <path d="M235.6 112.8c0 1 .6 1.3 1.3 1.3.5 0 .8-.1 1.1-.2l.1.5c-.2.1-.7.2-1.3.2-1.2 0-1.9-.8-1.9-2s.7-2.1 1.8-2.1c1.3 0 1.6 1.1 1.6 1.8v.3h-2.7zm2-.5c0-.4-.2-1.1-1-1.1-.7 0-1 .7-1.1 1.1h2.1z" class="st2"/>
    <path d="M239.1 113.9c.2.1.6.3.9.3.5 0 .8-.3.8-.6s-.2-.5-.7-.7c-.7-.2-1-.6-1-1.1 0-.6.5-1.1 1.3-1.1.4 0 .7.1 1 .2l-.2.5c-.2-.1-.4-.2-.8-.2s-.6.2-.6.5.2.5.7.7c.7.3 1 .6 1 1.2 0 .7-.5 1.2-1.4 1.2-.4 0-.8-.1-1.1-.3l.1-.6z" class="st2"/>
    <path d="M243.2 109.7v1.1h1v.5h-1v2.1c0 .5.1.8.5.8h.4v.5c-.1.1-.4.1-.6.1-.3 0-.6-.1-.8-.3-.2-.2-.3-.6-.3-1v-2.1h-.6v-.5h.6v-.9l.8-.3z" class="st2"/>
    <path d="M245.3 112.8c0 1 .6 1.3 1.3 1.3.5 0 .8-.1 1.1-.2l.1.5c-.2.1-.7.2-1.3.2-1.2 0-1.9-.8-1.9-2s.7-2.1 1.8-2.1c1.3 0 1.6 1.1 1.6 1.8v.3h-2.7zm2.1-.5c0-.4-.2-1.1-1-1.1-.7 0-1 .7-1.1 1.1h2.1z" class="st2"/>
    <path d="M252.3 109v5.7h-.6v-.7c-.2.4-.7.8-1.3.8-.9 0-1.7-.8-1.7-2 0-1.3.8-2.1 1.7-2.1.6 0 1 .3 1.2.6V109h.7zm-.7 3.3v-.3c-.1-.4-.5-.8-1-.8-.7 0-1.2.6-1.2 1.5 0 .8.4 1.4 1.1 1.4.5 0 .9-.3 1-.8v-1z" class="st2"/>
    <path d="M76 131.3l-.6 1.7h-.7l1.8-5.4h.8l1.8 5.4h-.7l-.6-1.7H76zm1.7-.5l-.5-1.6c-.1-.4-.2-.7-.3-1-.1.3-.2.6-.3 1l-.5 1.6h1.6z" class="st2"/>
    <path d="M80 127.3h.7v5.7H80v-5.7z" class="st2"/>
    <path d="M84.6 132.9c-.2.1-.6.2-1.1.2-1.2 0-1.9-.8-1.9-2s.8-2.1 2.1-2.1c.4 0 .8.1 1 .2l-.2.5c-.2-.1-.4-.2-.8-.2-.9 0-1.4.7-1.4 1.5 0 .9.6 1.4 1.3 1.4.4 0 .7-.1.9-.2l.1.7z" class="st2"/>
    <path d="M88.9 131c0 1.4-1 2.1-1.9 2.1-1 0-1.9-.8-1.9-2 0-1.3.8-2.1 1.9-2.1 1.1 0 1.9.8 1.9 2zm-3.1.1c0 .8.5 1.5 1.2 1.5s1.2-.6 1.2-1.5c0-.7-.3-1.5-1.2-1.5-.8 0-1.2.7-1.2 1.5z" class="st2"/>
    <path d="M89.8 127.3h.7v2.4c.1-.2.3-.4.5-.5.2-.1.5-.2.7-.2.5 0 1.4.3 1.4 1.7v2.3h-.7v-2.2c0-.6-.2-1.2-.9-1.2-.5 0-.8.3-.9.7v2.6h-.7v-5.6z" class="st2"/>
    <path d="M97.7 131c0 1.4-1 2.1-1.9 2.1-1 0-1.9-.8-1.9-2 0-1.3.8-2.1 1.9-2.1 1.2 0 1.9.8 1.9 2zm-3.1.1c0 .8.5 1.5 1.2 1.5s1.2-.6 1.2-1.5c0-.7-.3-1.5-1.2-1.5-.8 0-1.2.7-1.2 1.5z" class="st2"/>
    <path d="M98.6 127.3h.7v5.7h-.7v-5.7z" class="st2"/>
    <path d="M103 128c0 .2-.2.4-.4.4s-.4-.2-.4-.4.2-.4.4-.4.4.2.4.4zm-.8 5v-3.9h.7v3.9h-.7z" class="st2"/>
    <path d="M104 132.3c.2.1.6.3.9.3.5 0 .8-.3.8-.6s-.2-.5-.7-.7c-.7-.2-1-.6-1-1.1 0-.6.5-1.1 1.3-1.1.4 0 .7.1 1 .2l-.2.5c-.2-.1-.4-.2-.8-.2s-.6.2-.6.5.2.5.7.7c.7.3 1 .6 1 1.2 0 .7-.5 1.2-1.4 1.2-.4 0-.8-.1-1.1-.3l.1-.6z" class="st2"/>
    <path d="M71.1 139.8v-1h.6v.6c.2-.4.6-.7 1.2-.7.5 0 .9.3 1.1.8.1-.2.3-.4.4-.5.2-.2.5-.3.9-.3.5 0 1.3.3 1.3 1.7v2.3H76v-2.2c0-.7-.3-1.2-.8-1.2-.4 0-.7.3-.8.6 0 .1-.1.2-.1.4v2.4h-.7v-2.3c0-.6-.3-1.1-.8-1.1-.4 0-.8.4-.9.7 0 .1-.1.2-.1.3v2.3h-.7v-2.8z" class="st2"/>
    <path d="M78.2 140.8c0 1 .6 1.3 1.3 1.3.5 0 .8-.1 1.1-.2l.1.5c-.2.1-.7.2-1.3.2-1.2 0-1.9-.8-1.9-2s.7-2.1 1.8-2.1c1.3 0 1.6 1.1 1.6 1.8v.3h-2.7zm2-.5c0-.4-.2-1.1-1-1.1-.7 0-1 .7-1.1 1.1h2.1z" class="st2"/>
    <path d="M82.6 137.6v1.1h1v.5h-1v2.1c0 .5.1.8.5.8h.4v.5c-.1.1-.4.1-.6.1-.3 0-.6-.1-.8-.3-.2-.2-.3-.6-.3-1v-2.1h-.6v-.5h.8v-.9l.6-.3z" class="st2"/>
    <path d="M86.6 142.6l-.1-.5c-.2.3-.6.6-1.2.6-.8 0-1.2-.6-1.2-1.1 0-.9.8-1.4 2.3-1.4v-.1c0-.3-.1-.9-.9-.9-.4 0-.7.1-1 .3l-.2-.5c.3-.2.8-.3 1.3-.3 1.2 0 1.5.8 1.5 1.6v1.4c0 .3 0 .7.1.9h-.6zm-.1-2c-.8 0-1.6.1-1.6.9 0 .5.3.7.7.7.5 0 .8-.3.9-.6v-1z" class="st2"/>
    <path d="M88.3 142.6v-5.7h.7v2.4c.2-.4.7-.7 1.3-.7 1 0 1.6.8 1.6 2 0 1.4-.9 2.1-1.7 2.1-.6 0-1-.2-1.3-.7v.6h-.6zm.7-1.6v.3c.1.5.5.8 1.1.8.7 0 1.2-.6 1.2-1.5 0-.8-.4-1.4-1.2-1.4-.5 0-.9.3-1.1.9v.9z" class="st2"/>
    <path d="M96.4 140.6c0 1.4-1 2.1-1.9 2.1-1 0-1.9-.8-1.9-2 0-1.3.8-2.1 1.9-2.1 1.1 0 1.9.8 1.9 2zm-3.1.1c0 .8.5 1.5 1.2 1.5s1.2-.6 1.2-1.5c0-.7-.3-1.5-1.2-1.5-.9 0-1.2.7-1.2 1.5z" class="st2"/>
    <path d="M97.2 136.9h.7v5.7h-.7v-5.7z" class="st2"/>
    <path d="M99.9 137.6c0 .2-.2.4-.4.4s-.4-.2-.4-.4.2-.4.4-.4.4.2.4.4zm-.8 5v-3.9h.7v3.9h-.7z" class="st2"/>
    <path d="M100.6 142.2l1.8-2.3c.2-.2.3-.4.5-.6h-2.1v-.6h3v.4l-1.7 2.2c-.2.2-.3.4-.5.6h2.3v.6h-3.1v-.3z" class="st2"/>
    <path d="M104.8 140.8c0 1 .6 1.3 1.3 1.3.5 0 .8-.1 1.1-.2l.1.5c-.2.1-.7.2-1.3.2-1.2 0-1.9-.8-1.9-2s.7-2.1 1.8-2.1c1.3 0 1.6 1.1 1.6 1.8v.3h-2.7zm2-.5c0-.4-.2-1.1-1-1.1-.7 0-1 .7-1.1 1.1h2.1z" class="st2"/>
    <path d="M111.7 136.9v5.7h-.6v-.7c-.2.4-.7.8-1.3.8-.9 0-1.7-.8-1.7-2 0-1.3.8-2.1 1.7-2.1.6 0 1 .3 1.2.6v-2.3h.7zm-.7 3.4v-.3c-.1-.4-.5-.8-1-.8-.7 0-1.2.6-1.2 1.5 0 .8.4 1.4 1.1 1.4.5 0 .9-.3 1-.8v-1z" class="st2"/>
    <path d="M222.2 155.6h2.9v.6h-2.2v1.8h2v.6h-2v2.4h-.7v-5.4z" class="st2"/>
    <path d="M227.9 160.9l-.1-.5c-.2.3-.6.6-1.2.6-.8 0-1.2-.6-1.2-1.1 0-.9.8-1.4 2.3-1.4v-.1c0-.3-.1-.9-.9-.9-.4 0-.7.1-1 .3l-.2-.5c.3-.2.8-.3 1.3-.3 1.2 0 1.5.8 1.5 1.6v1.4c0 .3 0 .7.1.9h-.6zm-.1-1.9c-.8 0-1.6.1-1.6.9 0 .5.3.7.7.7.5 0 .8-.3.9-.6v-1z" class="st2"/>
    <path d="M230.4 156v1.1h1v.5h-1v2.1c0 .5.1.8.5.8h.4v.5c-.1.1-.4.1-.6.1-.3 0-.6-.1-.8-.3-.2-.2-.3-.6-.3-1v-2.1h-.6v-.5h.6v-.9l.8-.3z" class="st2"/>
    <path d="M237.4 159c0 1.4-1 2.1-1.9 2.1-1 0-1.9-.8-1.9-2 0-1.3.8-2.1 1.9-2.1 1.2 0 1.9.8 1.9 2zm-3.1 0c0 .8.5 1.5 1.2 1.5s1.2-.6 1.2-1.5c0-.7-.3-1.5-1.2-1.5-.8 0-1.2.8-1.2 1.5z" class="st2"/>
    <path d="M238.5 157.1l.6.8c.1.2.3.4.4.6.1-.2.3-.4.4-.6l.5-.8h.8l-1.3 1.9 1.4 2h-.8l-.6-.9c-.2-.2-.3-.4-.4-.7-.1.2-.3.4-.4.7l-.6.9h-.8l1.4-2-1.3-1.9h.7z" class="st2"/>
    <path d="M242.7 156c0 .2-.2.4-.4.4s-.4-.2-.4-.4.2-.4.4-.4c.2-.1.4.1.4.4zm-.8 4.9V157h.7v3.9h-.7z" class="st2"/>
    <path d="M247.1 155.3v5.7h-.6v-.7c-.2.4-.7.8-1.3.8-.9 0-1.7-.8-1.7-2 0-1.3.8-2.1 1.7-2.1.6 0 1 .3 1.2.6v-2.3h.7zm-.7 3.4v-.3c-.1-.4-.5-.8-1-.8-.7 0-1.2.6-1.2 1.5 0 .8.4 1.4 1.1 1.4.5 0 .9-.3 1-.8v-1z" class="st2"/>
    <path d="M249.1 156c0 .2-.2.4-.4.4s-.4-.2-.4-.4.2-.4.4-.4c.2-.1.4.1.4.4zm-.8 4.9V157h.7v3.9h-.7z" class="st2"/>
    <path d="M249.7 160.5l1.8-2.3c.2-.2.3-.4.5-.6h-2.1v-.6h3v.4l-1.7 2.2c-.2.2-.3.4-.5.6h2.3v.6h-3.1v-.3z" class="st2"/>
    <path d="M255.7 160.9l-.1-.5c-.2.3-.6.6-1.2.6-.8 0-1.2-.6-1.2-1.1 0-.9.8-1.4 2.3-1.4v-.1c0-.3-.1-.9-.9-.9-.4 0-.7.1-1 .3l-.2-.5c.3-.2.8-.3 1.3-.3 1.2 0 1.5.8 1.5 1.6v1.4c0 .3 0 .7.1.9h-.6zm-.1-1.9c-.8 0-1.6.1-1.6.9 0 .5.3.7.7.7.5 0 .8-.3.9-.6v-1z" class="st2"/>
    <path d="M258.2 156v1.1h1v.5h-1v2.1c0 .5.1.8.5.8h.4v.5c-.1.1-.4.1-.6.1-.3 0-.6-.1-.8-.3-.2-.2-.3-.6-.3-1v-2.1h-.6v-.5h.6v-.9l.8-.3z" class="st2"/>
    <path d="M260.8 156c0 .2-.2.4-.4.4s-.4-.2-.4-.4.2-.4.4-.4c.3-.1.4.1.4.4zm-.8 4.9V157h.7v3.9h-.7z" class="st2"/>
    <path d="M265.4 159c0 1.4-1 2.1-1.9 2.1-1 0-1.9-.8-1.9-2 0-1.3.8-2.1 1.9-2.1 1.2 0 1.9.8 1.9 2zm-3.1 0c0 .8.5 1.5 1.2 1.5s1.2-.6 1.2-1.5c0-.7-.3-1.5-1.2-1.5-.8 0-1.2.8-1.2 1.5z" class="st2"/>
    <path d="M266.3 158.1v-1h.6v.6c.2-.4.6-.7 1.3-.7.5 0 1.4.3 1.4 1.6v2.3h-.7v-2.2c0-.6-.2-1.1-.9-1.1-.5 0-.8.3-.9.7v2.6h-.7v-2.8z" class="st2"/>
    <path d="M238.3 169.8c.2.1.6.3.9.3.5 0 .8-.3.8-.6s-.2-.5-.7-.7c-.7-.2-1-.6-1-1.1 0-.6.5-1.1 1.3-1.1.4 0 .7.1 1 .2l-.2.5c-.2-.1-.4-.2-.8-.2s-.6.2-.6.5.2.5.7.7c.7.3 1 .6 1 1.2 0 .7-.5 1.2-1.4 1.2-.4 0-.8-.1-1.1-.3l.1-.6z" class="st2"/>
    <path d="M242.4 165.6v1.1h1v.5h-1v2.1c0 .5.1.8.5.8h.4v.5c-.1.1-.4.1-.6.1-.3 0-.6-.1-.8-.3-.2-.2-.3-.6-.3-1v-2.1h-.6v-.5h.6v-.9l.8-.3z" class="st2"/>
    <path d="M247.6 168.6c0 1.4-1 2.1-1.9 2.1-1 0-1.9-.8-1.9-2 0-1.3.8-2.1 1.9-2.1 1.2 0 1.9.8 1.9 2zm-3 0c0 .8.5 1.5 1.2 1.5s1.2-.6 1.2-1.5c0-.7-.3-1.5-1.2-1.5-.9 0-1.2.8-1.2 1.5z" class="st2"/>
    <path d="M248.5 167.9v-1.3h.6v.7c.3-.5.7-.8 1.4-.8.9 0 1.6.8 1.6 2 0 1.4-.8 2.1-1.8 2.1-.5 0-1-.2-1.2-.6v2.1h-.7v-4.2zm.7 1.1v.3c.1.5.6.8 1.1.8.7 0 1.2-.6 1.2-1.5 0-.8-.4-1.4-1.2-1.4-.5 0-.9.3-1.1.9v.9z" class="st2"/>
    <path d="M253 169.8c.2.1.6.3.9.3.5 0 .8-.3.8-.6s-.2-.5-.7-.7c-.7-.2-1-.6-1-1.1 0-.6.5-1.1 1.3-1.1.4 0 .7.1 1 .2l-.2.5c-.2-.1-.4-.2-.8-.2s-.6.2-.6.5.2.5.7.7c.7.3 1 .6 1 1.2 0 .7-.5 1.2-1.4 1.2-.4 0-.8-.1-1.1-.3l.1-.6z" class="st2"/>
    <path d="M71.9 188.9l-1.4-5.4h.7l.6 2.7c.2.7.3 1.3.4 1.9.1-.5.3-1.2.4-1.9l.7-2.7h.7l.7 2.7c.2.6.3 1.3.4 1.8.1-.6.3-1.2.4-1.9l.7-2.7h.7l-1.5 5.4h-.7L74 186c-.2-.7-.3-1.2-.4-1.8-.1.5-.2 1.1-.4 1.8l-.8 2.8h-.5z" class="st2"/>
    <path d="M77.9 187.1c0 1 .6 1.3 1.3 1.3.5 0 .8-.1 1.1-.2l.1.5c-.2.1-.7.2-1.3.2-1.2 0-1.9-.8-1.9-2s.7-2.1 1.8-2.1c1.3 0 1.6 1.1 1.6 1.8v.3h-2.7zm2.1-.5c0-.4-.2-1.1-1-1.1-.7 0-1 .7-1.1 1.1H80z" class="st2"/>
    <path d="M82.3 183.9c0 .2-.2.4-.4.4s-.4-.2-.4-.4.2-.4.4-.4c.3 0 .4.2.4.4zm-.8 5V185h.7v3.9h-.7z" class="st2"/>
    <path d="M86.7 185v3.3c0 .9-.2 1.4-.6 1.8-.4.4-.9.5-1.4.5-.5 0-1-.1-1.3-.3l.2-.5c.3.2.7.3 1.1.3.7 0 1.2-.4 1.2-1.4v-.4c-.2.4-.6.6-1.2.6-1 0-1.6-.8-1.6-1.9 0-1.3.9-2.1 1.7-2.1.7 0 1 .4 1.2.7v-.6h.7zm-.7 1.6v-.3c-.1-.4-.5-.7-1-.7-.7 0-1.2.6-1.2 1.5 0 .8.4 1.4 1.1 1.4.4 0 .8-.3 1-.7 0-.1.1-.3.1-.4v-.8z" class="st2"/>
    <path d="M87.9 183.2h.7v2.4c.1-.2.3-.4.5-.5.2-.1.5-.2.7-.2.5 0 1.4.3 1.4 1.7v2.3h-.7v-2.2c0-.6-.2-1.2-.9-1.2-.5 0-.8.3-.9.7v2.6H88v-5.6z" class="st2"/>
    <path d="M93.1 183.9v1.1h1v.5h-1v2.1c0 .5.1.8.5.8h.4v.5c-.1.1-.4.1-.6.1-.3 0-.6-.1-.8-.3-.2-.2-.3-.6-.3-1v-2.1h-.6v-.6h.6v-.9l.8-.2z" class="st2"/>
    <path d="M100 185v3.3c0 .9-.2 1.4-.6 1.8-.4.4-.9.5-1.4.5-.5 0-1-.1-1.3-.3l.2-.5c.3.2.7.3 1.1.3.7 0 1.2-.4 1.2-1.4v-.4c-.2.4-.6.6-1.2.6-1 0-1.6-.8-1.6-1.9 0-1.3.9-2.1 1.7-2.1.7 0 1 .4 1.2.7v-.6h.7zm-.8 1.6v-.3c-.1-.4-.5-.7-1-.7-.7 0-1.2.6-1.2 1.5 0 .8.4 1.4 1.1 1.4.4 0 .8-.3 1-.7 0-.1.1-.3.1-.4v-.8z" class="st2"/>
    <path d="M103.2 188.9l-.1-.5c-.2.3-.6.6-1.2.6-.8 0-1.2-.6-1.2-1.1 0-.9.8-1.4 2.3-1.4v-.1c0-.3-.1-.9-.9-.9-.4 0-.7.1-1 .3l-.2-.5c.3-.2.8-.3 1.3-.3 1.2 0 1.5.8 1.5 1.6v1.4c0 .3 0 .7.1.9h-.6zm-.1-2c-.8 0-1.6.1-1.6.9 0 .5.3.7.7.7.5 0 .8-.3.9-.6v-1z" class="st2"/>
    <path d="M105.7 183.9c0 .2-.2.4-.4.4s-.4-.2-.4-.4.2-.4.4-.4c.3 0 .4.2.4.4zm-.7 5V185h.7v3.9h-.7z" class="st2"/>
    <path d="M106.8 186.1v-1h.6v.6c.2-.4.6-.7 1.3-.7.5 0 1.4.3 1.4 1.6v2.3h-.7v-2.2c0-.6-.2-1.1-.9-1.1-.5 0-.8.3-.9.7v2.6h-.7v-2.8z" class="st2"/>
    <path d="M115.1 188.9l-.1-.5c-.2.3-.6.6-1.2.6-.8 0-1.2-.6-1.2-1.1 0-.9.8-1.4 2.3-1.4v-.1c0-.3-.1-.9-.9-.9-.4 0-.7.1-1 .3l-.2-.5c.3-.2.8-.3 1.3-.3 1.2 0 1.5.8 1.5 1.6v1.4c0 .3 0 .7.1.9h-.6zm-.1-2c-.8 0-1.6.1-1.6.9 0 .5.3.7.7.7.5 0 .8-.3.9-.6v-1z" class="st2"/>
    <path d="M116.8 186.1v-1h.6v.6c.2-.4.6-.7 1.3-.7.5 0 1.4.3 1.4 1.6v2.3h-.7v-2.2c0-.6-.2-1.1-.9-1.1-.5 0-.8.3-.9.7v2.6h-.7v-2.8z" class="st2"/>
    <path d="M124.6 183.2v5.7h-.6v-.7c-.2.4-.7.8-1.3.8-.9 0-1.7-.8-1.7-2 0-1.3.8-2.1 1.7-2.1.6 0 1 .3 1.2.6v-2.3h.7zm-.7 3.4v-.3c-.1-.4-.5-.8-1-.8-.7 0-1.2.6-1.2 1.5 0 .8.4 1.4 1.1 1.4.5 0 .9-.3 1-.8v-1z" class="st2"/>
    <path d="M131 186.9c0 1.4-1 2.1-1.9 2.1-1 0-1.9-.8-1.9-2 0-1.3.8-2.1 1.9-2.1 1.1 0 1.9.8 1.9 2zm-3.1.1c0 .8.5 1.5 1.2 1.5s1.2-.6 1.2-1.5c0-.7-.3-1.5-1.2-1.5-.8 0-1.2.7-1.2 1.5z" class="st2"/>
    <path d="M131.9 186.2V185h.6v.8c.2-.5.6-.8 1.1-.8h.2v.7h-.2c-.5 0-.8.4-.9.9v2.4h-.7v-2.8z" class="st2"/>
    <path d="M70.1 197.8c.2.1.6.3.9.3.5 0 .8-.3.8-.6s-.2-.5-.7-.7c-.7-.2-1-.6-1-1.1 0-.6.5-1.1 1.3-1.1.4 0 .7.1 1 .2l-.2.5c-.2-.1-.4-.2-.8-.2s-.6.2-.6.5.2.5.7.7c.7.3 1 .6 1 1.2 0 .7-.5 1.2-1.4 1.2-.4 0-.8-.1-1.1-.3l.1-.6z" class="st2"/>
    <path d="M73.4 192.8h.7v5.7h-.7v-5.7z" class="st2"/>
    <path d="M78.7 196.5c0 1.4-1 2.1-1.9 2.1-1 0-1.9-.8-1.9-2 0-1.3.8-2.1 1.9-2.1 1.2 0 1.9.8 1.9 2zm-3 .1c0 .8.5 1.5 1.2 1.5s1.2-.6 1.2-1.5c0-.7-.3-1.5-1.2-1.5-.9 0-1.2.7-1.2 1.5z" class="st2"/>
    <path d="M79.9 194.6l.5 2 .3 1.2.3-1.2.6-2h.6l.6 1.9c.1.5.3.9.3 1.3.1-.4.2-.8.3-1.3l.6-1.9h.7l-1.2 3.9h-.6l-.6-1.8c-.1-.4-.2-.8-.3-1.3-.1.5-.2.9-.4 1.3l-.6 1.8h-.6l-1.2-3.9h.7z" class="st2"/>
    <path d="M85.8 196.7c0 1 .6 1.3 1.3 1.3.5 0 .8-.1 1.1-.2l.1.5c-.2.1-.7.2-1.3.2-1.2 0-1.9-.8-1.9-2s.7-2.1 1.8-2.1c1.3 0 1.6 1.1 1.6 1.8v.3h-2.7zm2-.5c0-.4-.2-1.1-1-1.1-.7 0-1 .7-1.1 1.1h2.1z" class="st2"/>
    <path d="M92.7 192.8v5.7h-.6v-.7c-.2.4-.7.8-1.3.8-.9 0-1.7-.8-1.7-2 0-1.3.8-2.1 1.7-2.1.6 0 1 .3 1.2.6v-2.3h.7zm-.7 3.4v-.3c-.1-.4-.5-.8-1-.8-.7 0-1.2.6-1.2 1.5 0 .8.4 1.4 1.1 1.4.5 0 .9-.3 1-.8v-1z" class="st2"/>
    <path d="M95.6 195.7v-1h.6v.6c.2-.4.6-.7 1.2-.7.5 0 .9.3 1.1.8.1-.2.3-.4.4-.5.2-.2.5-.3.9-.3.5 0 1.3.3 1.3 1.7v2.3h-.7v-2.2c0-.7-.3-1.2-.8-1.2-.4 0-.7.3-.8.6 0 .1-.1.2-.1.4v2.4H98v-2.3c0-.6-.3-1.1-.8-1.1-.4 0-.8.4-.9.7 0 .1-.1.2-.1.3v2.3h-.7v-2.8z" class="st2"/>
    <path d="M102.7 196.7c0 1 .6 1.3 1.3 1.3.5 0 .8-.1 1.1-.2l.1.5c-.2.1-.7.2-1.3.2-1.2 0-1.9-.8-1.9-2s.7-2.1 1.8-2.1c1.3 0 1.6 1.1 1.6 1.8v.3h-2.7zm2-.5c0-.4-.2-1.1-1-1.1-.7 0-1 .7-1.1 1.1h2.1z" class="st2"/>
    <path d="M107.1 193.5v1.1h1v.5h-1v2.1c0 .5.1.8.5.8h.4v.5c-.1.1-.4.1-.6.1-.3 0-.6-.1-.8-.3-.2-.2-.3-.6-.3-1v-2.1h-.6v-.5h.6v-.9l.8-.3z" class="st2"/>
    <path d="M111.1 198.5l-.1-.5c-.2.3-.6.6-1.2.6-.8 0-1.2-.6-1.2-1.1 0-.9.8-1.4 2.3-1.4v-.1c0-.3-.1-.9-.9-.9-.4 0-.7.1-1 .3l-.2-.5c.3-.2.8-.3 1.3-.3 1.2 0 1.5.8 1.5 1.6v1.4c0 .3 0 .7.1.9h-.6zm-.1-2c-.8 0-1.6.1-1.6.9 0 .5.3.7.7.7.5 0 .8-.3.9-.6v-1z" class="st2"/>
    <path d="M112.7 198.5v-5.7h.7v2.4c.2-.4.7-.7 1.3-.7 1 0 1.6.8 1.6 2 0 1.4-.9 2.1-1.7 2.1-.6 0-1-.2-1.3-.7v.6h-.6zm.8-1.6v.3c.1.5.5.8 1.1.8.7 0 1.2-.6 1.2-1.5 0-.8-.4-1.4-1.2-1.4-.5 0-.9.3-1.1.9v.9z" class="st2"/>
    <path d="M120.8 196.5c0 1.4-1 2.1-1.9 2.1-1 0-1.9-.8-1.9-2 0-1.3.8-2.1 1.9-2.1 1.2 0 1.9.8 1.9 2zm-3 .1c0 .8.5 1.5 1.2 1.5s1.2-.6 1.2-1.5c0-.7-.3-1.5-1.2-1.5-.9 0-1.2.7-1.2 1.5z" class="st2"/>
    <path d="M121.7 192.8h.7v5.7h-.7v-5.7z" class="st2"/>
    <path d="M124.4 193.5c0 .2-.2.4-.4.4s-.4-.2-.4-.4.2-.4.4-.4.4.2.4.4zm-.8 5v-3.9h.7v3.9h-.7z" class="st2"/>
    <path d="M125.4 197.8c.2.1.6.3.9.3.5 0 .8-.3.8-.6s-.2-.5-.7-.7c-.7-.2-1-.6-1-1.1 0-.6.5-1.1 1.3-1.1.4 0 .7.1 1 .2l-.2.5c-.2-.1-.4-.2-.8-.2s-.6.2-.6.5.2.5.7.7c.7.3 1 .6 1 1.2 0 .7-.5 1.2-1.4 1.2-.4 0-.8-.1-1.1-.3l.1-.6z" class="st2"/>
    <path d="M128.7 195.7v-1h.6v.6c.2-.4.6-.7 1.2-.7.5 0 .9.3 1.1.8.1-.2.3-.4.4-.5.2-.2.5-.3.9-.3.5 0 1.3.3 1.3 1.7v2.3h-.7v-2.2c0-.7-.3-1.2-.8-1.2-.4 0-.7.3-.8.6 0 .1-.1.2-.1.4v2.4h-.7v-2.3c0-.6-.3-1.1-.8-1.1-.4 0-.8.4-.9.7 0 .1-.1.2-.1.3v2.3h-.7v-2.8z" class="st2"/>
    <path d="M311.4 121.8h-1.6v-.6h4v.6h-1.6v4.8h-.7v-4.8z" class="st2"/>
    <path d="M314.3 120.9h.7v2.4c.1-.2.3-.4.5-.5.2-.1.5-.2.7-.2.5 0 1.4.3 1.4 1.7v2.3h-.7v-2.2c0-.6-.2-1.2-.9-1.2-.5 0-.8.3-.9.7v2.6h-.7v-5.6z" class="st2"/>
    <path d="M319.1 124.8c0 1 .6 1.3 1.3 1.3.5 0 .8-.1 1.1-.2l.1.5c-.2.1-.7.2-1.3.2-1.2 0-1.9-.8-1.9-2s.7-2.1 1.8-2.1c1.3 0 1.6 1.1 1.6 1.8v.3h-2.7zm2.1-.5c0-.4-.2-1.1-1-1.1-.7 0-1 .7-1.1 1.1h2.1z" class="st2"/>
    <path d="M324.4 126.6v-5.7h.7v2.4c.2-.4.7-.7 1.3-.7 1 0 1.6.8 1.6 2 0 1.4-.9 2.1-1.7 2.1-.6 0-1-.2-1.3-.7v.6h-.6zm.7-1.6v.3c.1.5.5.8 1.1.8.7 0 1.2-.6 1.2-1.5 0-.8-.4-1.4-1.2-1.4-.5 0-.9.3-1.1.9v.9z" class="st2"/>
    <path d="M332.5 124.6c0 1.4-1 2.1-1.9 2.1-1 0-1.9-.8-1.9-2 0-1.3.8-2.1 1.9-2.1 1.1 0 1.9.8 1.9 2zm-3.1.1c0 .8.5 1.5 1.2 1.5s1.2-.6 1.2-1.5c0-.7-.3-1.5-1.2-1.5-.8 0-1.2.7-1.2 1.5z" class="st2"/>
    <path d="M336.7 120.9v5.7h-.6v-.7c-.2.4-.7.8-1.3.8-.9 0-1.7-.8-1.7-2 0-1.3.8-2.1 1.7-2.1.6 0 1 .3 1.2.6v-2.3h.7zm-.7 3.4v-.3c-.1-.4-.5-.8-1-.8-.7 0-1.2.6-1.2 1.5 0 .8.4 1.4 1.1 1.4.5 0 .9-.3 1-.8v-1z" class="st2"/>
    <path d="M338.2 122.7l.8 2.3c.1.3.2.6.2.8.1-.2.2-.5.2-.8l.8-2.3h.7l-1.1 2.8c-.5 1.3-.8 2-1.3 2.4-.3.3-.7.4-.9.5l-.2-.6.6-.3c.2-.2.4-.4.6-.8 0-.1.1-.1.1-.2v-.2l-1.4-3.6h.9z" class="st2"/>
    <path d="M346.1 126.5c-.2.1-.6.2-1.1.2-1.2 0-1.9-.8-1.9-2s.8-2.1 2.1-2.1c.4 0 .8.1 1 .2l-.2.5c-.2-.1-.4-.2-.8-.2-.9 0-1.4.7-1.4 1.5 0 .9.6 1.4 1.3 1.4.4 0 .7-.1.9-.2l.1.7z" class="st2"/>
    <path d="M349.1 126.6l-.1-.5c-.2.3-.6.6-1.2.6-.8 0-1.2-.6-1.2-1.1 0-.9.8-1.4 2.3-1.4v-.1c0-.3-.1-.9-.9-.9-.4 0-.7.1-1 .3l-.2-.5c.3-.2.8-.3 1.3-.3 1.2 0 1.5.8 1.5 1.6v1.4c0 .3 0 .7.1.9h-.6zm-.1-2c-.8 0-1.6.1-1.6.9 0 .5.3.7.7.7.5 0 .8-.3.9-.6v-1z" class="st2"/>
    <path d="M350.8 123.8v-1h.6v.6c.2-.4.6-.7 1.3-.7.5 0 1.4.3 1.4 1.6v2.3h-.7v-2.2c0-.6-.2-1.1-.9-1.1-.5 0-.8.3-.9.7v2.6h-.7v-2.8z" class="st2"/>
    <path d="M355.9 121.1c-.2.7-.5 1.5-.8 1.9l-.4.1c.2-.5.4-1.3.5-1.9l.7-.1z" class="st2"/>
    <path d="M357.4 121.6v1.1h1v.5h-1v2.1c0 .5.1.8.5.8h.4v.5c-.1.1-.4.1-.6.1-.3 0-.6-.1-.8-.3-.2-.2-.3-.6-.3-1v-2.1h-.6v-.5h.6v-.9l.8-.3z" class="st2"/>
    <path d="M360.8 125.9c.2.1.6.3.9.3.5 0 .8-.3.8-.6s-.2-.5-.7-.7c-.7-.2-1-.6-1-1.1 0-.6.5-1.1 1.3-1.1.4 0 .7.1 1 .2l-.2.5c-.2-.1-.4-.2-.8-.2s-.6.2-.6.5.2.5.7.7c.7.3 1 .6 1 1.2 0 .7-.5 1.2-1.4 1.2-.4 0-.8-.1-1.1-.3l.1-.6z" class="st2"/>
    <path d="M364.9 121.6v1.1h1v.5h-1v2.1c0 .5.1.8.5.8h.4v.5c-.1.1-.4.1-.6.1-.3 0-.6-.1-.8-.3-.2-.2-.3-.6-.3-1v-2.1h-.6v-.5h.6v-.9l.8-.3z" class="st2"/>
    <path d="M370.2 124.6c0 1.4-1 2.1-1.9 2.1-1 0-1.9-.8-1.9-2 0-1.3.8-2.1 1.9-2.1 1.1 0 1.9.8 1.9 2zm-3.1.1c0 .8.5 1.5 1.2 1.5s1.2-.6 1.2-1.5c0-.7-.3-1.5-1.2-1.5-.9 0-1.2.7-1.2 1.5z" class="st2"/>
    <path d="M371.1 123.9v-1.2h.6v.8c.2-.5.6-.8 1.1-.8h.2v.7h-.2c-.5 0-.8.4-.9.9v2.4h-.7v-2.8z" class="st2"/>
    <path d="M374 124.8c0 1 .6 1.3 1.3 1.3.5 0 .8-.1 1.1-.2l.1.5c-.2.1-.7.2-1.3.2-1.2 0-1.9-.8-1.9-2s.7-2.1 1.8-2.1c1.3 0 1.6 1.1 1.6 1.8v.3H374zm2-.5c0-.4-.2-1.1-1-1.1-.7 0-1 .7-1.1 1.1h2.1z" class="st2"/>
    <path d="M381.4 126.6l-.1-.5c-.2.3-.6.6-1.2.6-.8 0-1.2-.6-1.2-1.1 0-.9.8-1.4 2.3-1.4v-.1c0-.3-.1-.9-.9-.9-.4 0-.7.1-1 .3l-.2-.5c.3-.2.8-.3 1.3-.3 1.2 0 1.5.8 1.5 1.6v1.4c0 .3 0 .7.1.9h-.6zm-.1-2c-.8 0-1.6.1-1.6.9 0 .5.3.7.7.7.5 0 .8-.3.9-.6v-1z" class="st2"/>
    <path d="M383.1 120.9h.7v5.7h-.7v-5.7z" class="st2"/>
    <path d="M387.8 126.5c-.2.1-.6.2-1.1.2-1.2 0-1.9-.8-1.9-2s.8-2.1 2.1-2.1c.4 0 .8.1 1 .2l-.2.5c-.2-.1-.4-.2-.8-.2-.9 0-1.4.7-1.4 1.5 0 .9.6 1.4 1.3 1.4.4 0 .7-.1.9-.2l.1.7z" class="st2"/>
    <path d="M392.1 124.6c0 1.4-1 2.1-1.9 2.1-1 0-1.9-.8-1.9-2 0-1.3.8-2.1 1.9-2.1 1.1 0 1.9.8 1.9 2zm-3.1.1c0 .8.5 1.5 1.2 1.5s1.2-.6 1.2-1.5c0-.7-.3-1.5-1.2-1.5-.8 0-1.2.7-1.2 1.5z" class="st2"/>
    <path d="M393 120.9h.7v2.4c.1-.2.3-.4.5-.5.2-.1.5-.2.7-.2.5 0 1.4.3 1.4 1.7v2.3h-.7v-2.2c0-.6-.2-1.2-.9-1.2-.5 0-.8.3-.9.7v2.6h-.8v-5.6z" class="st2"/>
    <path d="M400.9 124.6c0 1.4-1 2.1-1.9 2.1-1 0-1.9-.8-1.9-2 0-1.3.8-2.1 1.9-2.1 1.2 0 1.9.8 1.9 2zm-3.1.1c0 .8.5 1.5 1.2 1.5s1.2-.6 1.2-1.5c0-.7-.3-1.5-1.2-1.5-.8 0-1.2.7-1.2 1.5z" class="st2"/>
    <path d="M401.8 120.9h.7v5.7h-.7v-5.7z" class="st2"/>
    <path d="M403.1 127.6c.2-.5.4-1.3.5-1.9l.8-.1c-.2.7-.5 1.6-.8 1.9l-.5.1z" class="st2"/>
    <path d="M406.9 125.9c.2.1.6.3.9.3.5 0 .8-.3.8-.6s-.2-.5-.7-.7c-.7-.2-1-.6-1-1.1 0-.6.5-1.1 1.3-1.1.4 0 .7.1 1 .2l-.2.5c-.2-.1-.4-.2-.8-.2s-.6.2-.6.5.2.5.7.7c.7.3 1 .6 1 1.2 0 .7-.5 1.2-1.4 1.2-.4 0-.8-.1-1.1-.3l.1-.6z" class="st2"/>
    <path d="M413.6 124.6c0 1.4-1 2.1-1.9 2.1-1 0-1.9-.8-1.9-2 0-1.3.8-2.1 1.9-2.1 1.2 0 1.9.8 1.9 2zm-3 .1c0 .8.5 1.5 1.2 1.5s1.2-.6 1.2-1.5c0-.7-.3-1.5-1.2-1.5-.9 0-1.2.7-1.2 1.5z" class="st2"/>
    <path d="M308.1 131.2c0 .2-.2.4-.4.4s-.4-.2-.4-.4.2-.4.4-.4.4.2.4.4zm-.8 5v-3.9h.7v3.9h-.7z" class="st2"/>
    <path d="M310 131.2v1.1h1v.5h-1v2.1c0 .5.1.8.5.8h.4v.5c-.1.1-.4.1-.6.1-.3 0-.6-.1-.8-.3-.2-.2-.3-.6-.3-1v-2.1h-.6v-.5h.6v-.9l.8-.3z" class="st2"/>
    <path d="M313.5 133.4v-1h.6v.6c.2-.4.6-.7 1.2-.7.5 0 .9.3 1.1.8.1-.2.3-.4.4-.5.2-.2.5-.3.9-.3.5 0 1.3.3 1.3 1.7v2.3h-.7V134c0-.7-.3-1.2-.8-1.2-.4 0-.7.3-.8.6 0 .1-.1.2-.1.4v2.4h-.7v-2.3c0-.6-.3-1.1-.8-1.1-.4 0-.8.4-.9.7 0 .1-.1.2-.1.3v2.3h-.7v-2.7z" class="st2"/>
    <path d="M320.6 134.4c0 1 .6 1.3 1.3 1.3.5 0 .8-.1 1.1-.2l.1.5c-.2.1-.7.2-1.3.2-1.2 0-1.9-.8-1.9-2s.7-2.1 1.8-2.1c1.3 0 1.6 1.1 1.6 1.8v.3h-2.7zm2-.5c0-.4-.2-1.1-1-1.1-.7 0-1 .7-1.1 1.1h2.1z" class="st2"/>
    <path d="M325 131.2v1.1h1v.5h-1v2.1c0 .5.1.8.5.8h.4v.5c-.1.1-.4.1-.6.1-.3 0-.6-.1-.8-.3-.2-.2-.3-.6-.3-1v-2.1h-.6v-.5h.6v-.9l.8-.3z" class="st2"/>
    <path d="M329 136.2l-.1-.5c-.2.3-.6.6-1.2.6-.8 0-1.2-.6-1.2-1.1 0-.9.8-1.4 2.3-1.4v-.1c0-.3-.1-.9-.9-.9-.4 0-.7.1-1 .3l-.2-.5c.3-.2.8-.3 1.3-.3 1.2 0 1.5.8 1.5 1.6v1.4c0 .3 0 .7.1.9h-.6zm-.1-2c-.8 0-1.6.1-1.6.9 0 .5.3.7.7.7.5 0 .8-.3.9-.6v-1z" class="st2"/>
    <path d="M330.6 136.2v-5.7h.7v2.4c.2-.4.7-.7 1.3-.7 1 0 1.6.8 1.6 2 0 1.4-.9 2.1-1.7 2.1-.6 0-1-.2-1.3-.7v.6h-.6zm.8-1.6v.3c.1.5.5.8 1.1.8.7 0 1.2-.6 1.2-1.5 0-.8-.4-1.4-1.2-1.4-.5 0-.9.3-1.1.9v.9z" class="st2"/>
    <path d="M338.7 134.2c0 1.4-1 2.1-1.9 2.1-1 0-1.9-.8-1.9-2 0-1.3.8-2.1 1.9-2.1 1.2 0 1.9.8 1.9 2zm-3 .1c0 .8.5 1.5 1.2 1.5s1.2-.6 1.2-1.5c0-.7-.3-1.5-1.2-1.5-.9 0-1.2.7-1.2 1.5z" class="st2"/>
    <path d="M339.6 130.5h.7v5.7h-.7v-5.7z" class="st2"/>
    <path d="M342.3 131.2c0 .2-.2.4-.4.4s-.4-.2-.4-.4.2-.4.4-.4.4.2.4.4zm-.8 5v-3.9h.7v3.9h-.7z" class="st2"/>
    <path d="M342.9 135.8l1.8-2.3c.2-.2.3-.4.5-.6h-2.1v-.6h3v.4l-1.7 2.2c-.2.2-.3.4-.5.6h2.3v.6h-3.1v-.3z" class="st2"/>
    <path d="M347.1 134.4c0 1 .6 1.3 1.3 1.3.5 0 .8-.1 1.1-.2l.1.5c-.2.1-.7.2-1.3.2-1.2 0-1.9-.8-1.9-2s.7-2.1 1.8-2.1c1.3 0 1.6 1.1 1.6 1.8v.3h-2.7zm2.1-.5c0-.4-.2-1.1-1-1.1-.7 0-1 .7-1.1 1.1h2.1z" class="st2"/>
    <path d="M350.7 135.5c.2.1.6.3.9.3.5 0 .8-.3.8-.6s-.2-.5-.7-.7c-.7-.2-1-.6-1-1.1 0-.6.5-1.1 1.3-1.1.4 0 .7.1 1 .2l-.2.5c-.2-.1-.4-.2-.8-.2s-.6.2-.6.5.2.5.7.7c.7.3 1 .6 1 1.2 0 .7-.5 1.2-1.4 1.2-.4 0-.8-.1-1.1-.3l.1-.6z" class="st2"/>
    <path d="M356.4 131.2c0 .2-.2.4-.4.4s-.4-.2-.4-.4.2-.4.4-.4.4.2.4.4zm-.8 5v-3.9h.7v3.9h-.7z" class="st2"/>
    <path d="M358.3 131.2v1.1h1v.5h-1v2.1c0 .5.1.8.5.8h.4v.5c-.1.1-.4.1-.6.1-.3 0-.6-.1-.8-.3-.2-.2-.3-.6-.3-1v-2.1h-.5v-.5h.6v-.9l.7-.3z" class="st2"/>
    <path d="M361.8 133.5v-1.2h.6v.8c.2-.5.6-.8 1.1-.8h.2v.7h-.2c-.5 0-.8.4-.9.9v2.4h-.7v-2.8z" class="st2"/>
    <path d="M365.3 131.2c0 .2-.2.4-.4.4s-.4-.2-.4-.4.2-.4.4-.4.4.2.4.4zm-.8 5v-3.9h.7v3.9h-.7z" class="st2"/>
    <path d="M369.7 132.3v3.3c0 .9-.2 1.4-.6 1.8-.4.4-.9.5-1.4.5-.5 0-1-.1-1.3-.3l.2-.5c.3.2.7.3 1.1.3.7 0 1.2-.4 1.2-1.4v-.4c-.2.4-.6.6-1.2.6-1 0-1.6-.8-1.6-1.9 0-1.3.9-2.1 1.7-2.1.7 0 1 .4 1.2.7v-.6h.7zm-.7 1.6v-.3c-.1-.4-.5-.7-1-.7-.7 0-1.2.6-1.2 1.5 0 .8.4 1.4 1.1 1.4.4 0 .8-.3 1-.7 0-.1.1-.3.1-.4v-.8z" class="st2"/>
    <path d="M370.8 130.5h.7v2.4c.1-.2.3-.4.5-.5.2-.1.5-.2.7-.2.5 0 1.4.3 1.4 1.7v2.3h-.7V134c0-.6-.2-1.2-.9-1.2-.5 0-.8.3-.9.7v2.6h-.7v-5.6z" class="st2"/>
    <path d="M376.1 131.2v1.1h1v.5h-1v2.1c0 .5.1.8.5.8h.4v.5c-.1.1-.4.1-.6.1-.3 0-.6-.1-.8-.3-.2-.2-.3-.6-.3-1v-2.1h-.6v-.5h.6v-.9l.8-.3z" class="st2"/>
    <path d="M381.7 136.2l-.1-.5c-.2.3-.6.6-1.2.6-.8 0-1.2-.6-1.2-1.1 0-.9.8-1.4 2.3-1.4v-.1c0-.3-.1-.9-.9-.9-.4 0-.7.1-1 .3l-.2-.5c.3-.2.8-.3 1.3-.3 1.2 0 1.5.8 1.5 1.6v1.4c0 .3 0 .7.1.9h-.6zm-.1-2c-.8 0-1.6.1-1.6.9 0 .5.3.7.7.7.5 0 .8-.3.9-.6v-1z" class="st2"/>
    <path d="M383.6 132.3l.5 2 .3 1.2.3-1.2.6-2h.6l.6 1.9c.1.5.3.9.3 1.3.1-.4.2-.8.3-1.3l.6-1.9h.7l-1.2 3.9h-.6l-.6-1.8c-.1-.4-.2-.8-.3-1.3-.1.5-.2.9-.4 1.3l-.6 1.8h-.6l-1.2-3.9h.7z" class="st2"/>
    <path d="M391.4 136.2l-.1-.5c-.2.3-.6.6-1.2.6-.8 0-1.2-.6-1.2-1.1 0-.9.8-1.4 2.3-1.4v-.1c0-.3-.1-.9-.9-.9-.4 0-.7.1-1 .3l-.2-.5c.3-.2.8-.3 1.3-.3 1.2 0 1.5.8 1.5 1.6v1.4c0 .3 0 .7.1.9h-.6zm-.1-2c-.8 0-1.6.1-1.6.9 0 .5.3.7.7.7.5 0 .8-.3.9-.6v-1z" class="st2"/>
    <path d="M393.3 132.3l.8 2.3c.1.3.2.6.2.8.1-.2.2-.5.2-.8l.8-2.3h.7l-1.1 2.8c-.5 1.3-.8 2-1.3 2.4-.3.3-.7.4-.9.5l-.2-.6.6-.3c.2-.2.4-.4.6-.8 0-.1.1-.1.1-.2v-.2l-1.4-3.6h.9z" class="st2"/>
    <path d="M396.3 135.8c0-.3.2-.5.5-.5s.5.2.5.5-.2.5-.5.5-.5-.2-.5-.5z" class="st2"/>
    <path d="M399.7 135.3c.3.2.8.4 1.2.4.7 0 1.1-.4 1.1-.9s-.3-.8-1-1.1c-.9-.3-1.4-.8-1.4-1.5 0-.8.7-1.5 1.7-1.5.6 0 1 .1 1.2.3l-.2.6c-.2-.1-.5-.3-1-.3-.7 0-1 .4-1 .8 0 .5.3.8 1.1 1 .9.4 1.4.8 1.4 1.6s-.6 1.6-1.9 1.6c-.5 0-1.1-.2-1.4-.3l.2-.7z" class="st2"/>
    <path d="M404.5 131.2c0 .2-.2.4-.4.4s-.4-.2-.4-.4.2-.4.4-.4c.3 0 .4.2.4.4zm-.7 5v-3.9h.7v3.9h-.7z" class="st2"/>
    <path d="M405.6 133.4v-1h.6v.6c.2-.4.6-.7 1.3-.7.5 0 1.4.3 1.4 1.6v2.3h-.7V134c0-.6-.2-1.1-.9-1.1-.5 0-.8.3-.9.7v2.6h-.7v-2.8z" class="st2"/>
    <path d="M412.8 136.1c-.2.1-.6.2-1.1.2-1.2 0-1.9-.8-1.9-2s.8-2.1 2.1-2.1c.4 0 .8.1 1 .2l-.2.5c-.2-.1-.4-.2-.8-.2-.9 0-1.4.7-1.4 1.5 0 .9.6 1.4 1.3 1.4.4 0 .7-.1.9-.2l.1.7z" class="st2"/>
    <path d="M414 134.4c0 1 .6 1.3 1.3 1.3.5 0 .8-.1 1.1-.2l.1.5c-.2.1-.7.2-1.3.2-1.2 0-1.9-.8-1.9-2s.7-2.1 1.8-2.1c1.3 0 1.6 1.1 1.6 1.8v.3H414zm2.1-.5c0-.4-.2-1.1-1-1.1-.7 0-1 .7-1.1 1.1h2.1z" class="st2"/>
    <path d="M305.2 140.8v1.1h1v.5h-1v2.1c0 .5.1.8.5.8h.4v.5c-.1.1-.4.1-.6.1-.3 0-.6-.1-.8-.3-.2-.2-.3-.6-.3-1v-2.1h-.6v-.5h.6v-1l.8-.2z" class="st2"/>
    <path d="M307 140.1h.7v2.4c.1-.2.3-.4.5-.5.2-.1.5-.2.7-.2.5 0 1.4.3 1.4 1.7v2.3h-.7v-2.2c0-.6-.2-1.2-.9-1.2-.5 0-.8.3-.9.7v2.6h-.8v-5.6z" class="st2"/>
    <path d="M311.8 144c0 1 .6 1.3 1.3 1.3.5 0 .8-.1 1.1-.2l.1.5c-.2.1-.7.2-1.3.2-1.2 0-1.9-.8-1.9-2s.7-2.1 1.8-2.1c1.3 0 1.6 1.1 1.6 1.8v.3h-2.7zm2.1-.5c0-.4-.2-1.1-1-1.1-.7 0-1 .7-1.1 1.1h2.1z" class="st2"/>
    <path d="M319.3 145.8l-.1-.5c-.2.3-.6.6-1.2.6-.8 0-1.2-.6-1.2-1.1 0-.9.8-1.4 2.3-1.4v-.1c0-.3-.1-.9-.9-.9-.4 0-.7.1-1 .3l-.2-.5c.3-.2.8-.3 1.3-.3 1.2 0 1.5.8 1.5 1.6v1.4c0 .3 0 .7.1.9h-.6zm-.1-2c-.8 0-1.6.1-1.6.9 0 .5.3.7.7.7.5 0 .8-.3.9-.6v-1z" class="st2"/>
    <path d="M321 140.1h.7v5.7h-.7v-5.7z" class="st2"/>
    <path d="M325.6 145.7c-.2.1-.6.2-1.1.2-1.2 0-1.9-.8-1.9-2s.8-2.1 2.1-2.1c.4 0 .8.1 1 .2l-.2.5c-.2-.1-.4-.2-.8-.2-.9 0-1.4.7-1.4 1.5 0 .9.6 1.4 1.3 1.4.4 0 .7-.1.9-.2l.1.7z" class="st2"/>
    <path d="M329.9 143.8c0 1.4-1 2.1-1.9 2.1-1 0-1.9-.8-1.9-2 0-1.3.8-2.1 1.9-2.1 1.2 0 1.9.8 1.9 2zm-3 .1c0 .8.5 1.5 1.2 1.5s1.2-.6 1.2-1.5c0-.7-.3-1.5-1.2-1.5-.9 0-1.2.7-1.2 1.5z" class="st2"/>
    <path d="M330.8 140.1h.7v2.4c.1-.2.3-.4.5-.5.2-.1.5-.2.7-.2.5 0 1.4.3 1.4 1.7v2.3h-.7v-2.2c0-.6-.2-1.2-.9-1.2-.5 0-.8.3-.9.7v2.6h-.7v-5.6z" class="st2"/>
    <path d="M338.8 143.8c0 1.4-1 2.1-1.9 2.1-1 0-1.9-.8-1.9-2 0-1.3.8-2.1 1.9-2.1 1.1 0 1.9.8 1.9 2zm-3.1.1c0 .8.5 1.5 1.2 1.5s1.2-.6 1.2-1.5c0-.7-.3-1.5-1.2-1.5-.9 0-1.2.7-1.2 1.5z" class="st2"/>
    <path d="M339.7 140.1h.7v5.7h-.7v-5.7z" class="st2"/>
    <path d="M343.2 145.8v-5.7h.7v2.4c.2-.4.7-.7 1.3-.7 1 0 1.6.8 1.6 2 0 1.4-.9 2.1-1.7 2.1-.6 0-1-.2-1.3-.7v.6h-.6zm.7-1.6v.3c.1.5.5.8 1.1.8.7 0 1.2-.6 1.2-1.5 0-.8-.4-1.4-1.2-1.4-.5 0-.9.3-1.1.9v.9z" class="st2"/>
    <path d="M348.2 144c0 1 .6 1.3 1.3 1.3.5 0 .8-.1 1.1-.2l.1.5c-.2.1-.7.2-1.3.2-1.2 0-1.9-.8-1.9-2s.7-2.1 1.8-2.1c1.3 0 1.6 1.1 1.6 1.8v.3h-2.7zm2-.5c0-.4-.2-1.1-1-1.1-.7 0-1 .7-1.1 1.1h2.1z" class="st2"/>
    <path d="M354.6 145.7c-.2.1-.6.2-1.1.2-1.2 0-1.9-.8-1.9-2s.8-2.1 2.1-2.1c.4 0 .8.1 1 .2l-.2.5c-.2-.1-.4-.2-.8-.2-.9 0-1.4.7-1.4 1.5 0 .9.6 1.4 1.3 1.4.4 0 .7-.1.9-.2l.1.7z" class="st2"/>
    <path d="M358.8 143.8c0 1.4-1 2.1-1.9 2.1-1 0-1.9-.8-1.9-2 0-1.3.8-2.1 1.9-2.1 1.2 0 1.9.8 1.9 2zm-3 .1c0 .8.5 1.5 1.2 1.5s1.2-.6 1.2-1.5c0-.7-.3-1.5-1.2-1.5-.9 0-1.2.7-1.2 1.5z" class="st2"/>
    <path d="M359.7 143v-1h.6v.6c.2-.4.6-.7 1.2-.7.5 0 .9.3 1.1.8.1-.2.3-.4.4-.5.2-.2.5-.3.9-.3.5 0 1.3.3 1.3 1.7v2.3h-.7v-2.2c0-.7-.3-1.2-.8-1.2-.4 0-.7.3-.8.6 0 .1-.1.2-.1.4v2.4h-.7v-2.3c0-.6-.3-1.1-.8-1.1-.4 0-.8.4-.9.7 0 .1-.1.2-.1.3v2.3h-.7V143z" class="st2"/>
    <path d="M366.8 144c0 1 .6 1.3 1.3 1.3.5 0 .8-.1 1.1-.2l.1.5c-.2.1-.7.2-1.3.2-1.2 0-1.9-.8-1.9-2s.7-2.1 1.8-2.1c1.3 0 1.6 1.1 1.6 1.8v.3h-2.7zm2-.5c0-.4-.2-1.1-1-1.1-.7 0-1 .7-1.1 1.1h2.1z" class="st2"/>
    <path d="M370.3 145.1c.2.1.6.3.9.3.5 0 .8-.3.8-.6s-.2-.5-.7-.7c-.7-.2-1-.6-1-1.1 0-.6.5-1.1 1.3-1.1.4 0 .7.1 1 .2l-.2.5c-.2-.1-.4-.2-.8-.2s-.6.2-.6.5.2.5.7.7c.7.3 1 .6 1 1.2 0 .7-.5 1.2-1.4 1.2-.4 0-.8-.1-1.1-.3l.1-.6z" class="st2"/>
    <path d="M375.3 143.2v-1.3h.6v.7c.3-.5.7-.8 1.4-.8.9 0 1.6.8 1.6 2 0 1.4-.8 2.1-1.8 2.1-.5 0-1-.2-1.2-.6v2.1h-.7v-4.2zm.7 1v.3c.1.5.6.8 1.1.8.7 0 1.2-.6 1.2-1.5 0-.8-.4-1.4-1.2-1.4-.5 0-.9.3-1.1.9v.9z" class="st2"/>
    <path d="M379.8 143.1v-1.2h.6v.8c.2-.5.6-.8 1.1-.8h.2v.7h-.2c-.5 0-.8.4-.9.9v2.4h-.7v-2.8z" class="st2"/>
    <path d="M383.2 140.8c0 .2-.2.4-.4.4s-.4-.2-.4-.4.2-.4.4-.4c.3 0 .4.2.4.4zm-.7 5v-3.9h.7v3.9h-.7z" class="st2"/>
    <path d="M387.8 143.8c0 1.4-1 2.1-1.9 2.1-1 0-1.9-.8-1.9-2 0-1.3.8-2.1 1.9-2.1 1.2 0 1.9.8 1.9 2zm-3 .1c0 .8.5 1.5 1.2 1.5s1.2-.6 1.2-1.5c0-.7-.3-1.5-1.2-1.5-.9 0-1.2.7-1.2 1.5z" class="st2"/>
    <path d="M388.7 143.1v-1.2h.6v.8c.2-.5.6-.8 1.1-.8h.2v.7h-.2c-.5 0-.8.4-.9.9v2.4h-.7v-2.8z" class="st2"/>
    <path d="M392.2 140.8c0 .2-.2.4-.4.4s-.4-.2-.4-.4.2-.4.4-.4.4.2.4.4zm-.8 5v-3.9h.7v3.9h-.7z" class="st2"/>
    <path d="M394.1 140.8v1.1h1v.5h-1v2.1c0 .5.1.8.5.8h.4v.5c-.1.1-.4.1-.6.1-.3 0-.6-.1-.8-.3-.2-.2-.3-.6-.3-1v-2.1h-.6v-.5h.6v-1l.8-.2z" class="st2"/>
    <path d="M396.2 141.9l.8 2.3c.1.3.2.6.2.8.1-.2.2-.5.2-.8l.8-2.3h.7l-1.1 2.8c-.5 1.3-.8 2-1.3 2.4-.3.3-.7.4-.9.5l-.2-.6.6-.3c.2-.2.4-.4.6-.8 0-.1.1-.1.1-.2v-.2l-1.4-3.6h.9z" class="st2"/>
    <path d="M402.2 140.8c0 .2-.2.4-.4.4s-.4-.2-.4-.4.2-.4.4-.4.4.2.4.4zm-.8 5v-3.9h.7v3.9h-.7z" class="st2"/>
    <path d="M403.3 143v-1h.6v.6c.2-.4.6-.7 1.3-.7.5 0 1.4.3 1.4 1.6v2.3h-.7v-2.2c0-.6-.2-1.1-.9-1.1-.5 0-.8.3-.9.7v2.6h-.7V143z" class="st2"/>
    <path d="M410.3 140.8v1.1h1v.5h-1v2.1c0 .5.1.8.5.8h.4v.5c-.1.1-.4.1-.6.1-.3 0-.6-.1-.8-.3-.2-.2-.3-.6-.3-1v-2.1h-.5v-.5h.6v-1l.7-.2z" class="st2"/>
    <path d="M412.1 140.1h.7v2.4c.1-.2.3-.4.5-.5.2-.1.5-.2.7-.2.5 0 1.4.3 1.4 1.7v2.3h-.7v-2.2c0-.6-.2-1.2-.9-1.2-.5 0-.8.3-.9.7v2.6h-.7v-5.6z" class="st2"/>
    <path d="M416.9 144c0 1 .6 1.3 1.3 1.3.5 0 .8-.1 1.1-.2l.1.5c-.2.1-.7.2-1.3.2-1.2 0-1.9-.8-1.9-2s.7-2.1 1.8-2.1c1.3 0 1.6 1.1 1.6 1.8v.3h-2.7zm2.1-.5c0-.4-.2-1.1-1-1.1-.7 0-1 .7-1.1 1.1h2.1z" class="st2"/>
    <path d="M303.4 152.6v-1h.6v.6c.2-.4.6-.7 1.2-.7.5 0 .9.3 1.1.8.1-.2.3-.4.4-.5.2-.2.5-.3.9-.3.5 0 1.3.3 1.3 1.7v2.3h-.7v-2.2c0-.7-.3-1.2-.8-1.2-.4 0-.7.3-.8.6 0 .1-.1.2-.1.4v2.4h-.7v-2.3c0-.6-.3-1.1-.8-1.1-.4 0-.8.4-.9.7 0 .1-.1.2-.1.3v2.3h-.7v-2.8z" class="st2"/>
    <path d="M310.5 153.6c0 1 .6 1.3 1.3 1.3.5 0 .8-.1 1.1-.2l.1.5c-.2.1-.7.2-1.3.2-1.2 0-1.9-.8-1.9-2s.7-2.1 1.8-2.1c1.3 0 1.6 1.1 1.6 1.8v.3h-2.7zm2-.5c0-.4-.2-1.1-1-1.1-.7 0-1 .7-1.1 1.1h2.1z" class="st2"/>
    <path d="M314.9 150.4v1.1h1v.5h-1v2.1c0 .5.1.8.5.8h.4v.5c-.1.1-.4.1-.6.1-.3 0-.6-.1-.8-.3-.2-.2-.3-.6-.3-1v-2.1h-.6v-.5h.6v-.9l.8-.3z" class="st2"/>
    <path d="M318.9 155.4l-.1-.5c-.2.3-.6.6-1.2.6-.8 0-1.2-.6-1.2-1.1 0-.9.8-1.4 2.3-1.4v-.1c0-.3-.1-.9-.9-.9-.4 0-.7.1-1 .3l-.2-.5c.3-.2.8-.3 1.3-.3 1.2 0 1.5.8 1.5 1.6v1.4c0 .3 0 .7.1.9h-.6zm-.1-2c-.8 0-1.6.1-1.6.9 0 .5.3.7.7.7.5 0 .8-.3.9-.6v-1z" class="st2"/>
    <path d="M320.5 155.4v-5.7h.7v2.4c.2-.4.7-.7 1.3-.7 1 0 1.6.8 1.6 2 0 1.4-.9 2.1-1.7 2.1-.6 0-1-.2-1.3-.7v.6h-.6zm.8-1.6v.3c.1.5.5.8 1.1.8.7 0 1.2-.6 1.2-1.5 0-.8-.4-1.4-1.2-1.4-.5 0-.9.3-1.1.9v.9z" class="st2"/>
    <path d="M328.6 153.4c0 1.4-1 2.1-1.9 2.1-1 0-1.9-.8-1.9-2 0-1.3.8-2.1 1.9-2.1 1.2 0 1.9.8 1.9 2zm-3 .1c0 .8.5 1.5 1.2 1.5s1.2-.6 1.2-1.5c0-.7-.3-1.5-1.2-1.5-.9 0-1.2.7-1.2 1.5z" class="st2"/>
    <path d="M329.5 149.7h.7v5.7h-.7v-5.7z" class="st2"/>
    <path d="M332.2 150.4c0 .2-.2.4-.4.4s-.4-.2-.4-.4.2-.4.4-.4.4.2.4.4zm-.8 5v-3.9h.7v3.9h-.7z" class="st2"/>
    <path d="M336 155.3c-.2.1-.6.2-1.1.2-1.2 0-1.9-.8-1.9-2s.8-2.1 2.1-2.1c.4 0 .8.1 1 .2l-.2.5c-.2-.1-.4-.2-.8-.2-.9 0-1.4.7-1.4 1.5 0 .9.6 1.4 1.3 1.4.4 0 .7-.1.9-.2l.1.7z" class="st2"/>
    <path d="M338.6 152.8v-1.3h.6v.7c.3-.5.7-.8 1.4-.8.9 0 1.6.8 1.6 2 0 1.4-.8 2.1-1.8 2.1-.5 0-1-.2-1.2-.6v2.1h-.7v-4.2zm.7 1v.3c.1.5.6.8 1.1.8.7 0 1.2-.6 1.2-1.5 0-.8-.4-1.4-1.2-1.4-.5 0-.9.3-1.1.9v.9z" class="st2"/>
    <path d="M343.1 152.7v-1.2h.6v.8c.2-.5.6-.8 1.1-.8h.2v.7h-.2c-.5 0-.8.4-.9.9v2.4h-.7v-2.8z" class="st2"/>
    <path d="M349.2 153.4c0 1.4-1 2.1-1.9 2.1-1 0-1.9-.8-1.9-2 0-1.3.8-2.1 1.9-2.1 1.1 0 1.9.8 1.9 2zm-3.1.1c0 .8.5 1.5 1.2 1.5s1.2-.6 1.2-1.5c0-.7-.3-1.5-1.2-1.5-.9 0-1.2.7-1.2 1.5z" class="st2"/>
    <path d="M352.8 155.3c-.2.1-.6.2-1.1.2-1.2 0-1.9-.8-1.9-2s.8-2.1 2.1-2.1c.4 0 .8.1 1 .2l-.2.5c-.2-.1-.4-.2-.8-.2-.9 0-1.4.7-1.4 1.5 0 .9.6 1.4 1.3 1.4.4 0 .7-.1.9-.2l.1.7z" class="st2"/>
    <path d="M354 153.6c0 1 .6 1.3 1.3 1.3.5 0 .8-.1 1.1-.2l.1.5c-.2.1-.7.2-1.3.2-1.2 0-1.9-.8-1.9-2s.7-2.1 1.8-2.1c1.3 0 1.6 1.1 1.6 1.8v.3H354zm2-.5c0-.4-.2-1.1-1-1.1-.7 0-1 .7-1.1 1.1h2.1z" class="st2"/>
    <path d="M357.5 154.7c.2.1.6.3.9.3.5 0 .8-.3.8-.6s-.2-.5-.7-.7c-.7-.2-1-.6-1-1.1 0-.6.5-1.1 1.3-1.1.4 0 .7.1 1 .2l-.2.5c-.2-.1-.4-.2-.8-.2s-.6.2-.6.5.2.5.7.7c.7.3 1 .6 1 1.2 0 .7-.5 1.2-1.4 1.2-.4 0-.8-.1-1.1-.3l.1-.6z" class="st2"/>
    <path d="M360.7 154.7c.2.1.6.3.9.3.5 0 .8-.3.8-.6s-.2-.5-.7-.7c-.7-.2-1-.6-1-1.1 0-.6.5-1.1 1.3-1.1.4 0 .7.1 1 .2l-.2.5c-.2-.1-.4-.2-.8-.2s-.6.2-.6.5.2.5.7.7c.7.3 1 .6 1 1.2 0 .7-.5 1.2-1.4 1.2-.4 0-.8-.1-1.1-.3l.1-.6z" class="st2"/>
    <path d="M363.4 156.4c.2-.5.4-1.3.5-1.9l.8-.1c-.2.7-.5 1.6-.8 1.9l-.5.1z" class="st2"/>
    <path d="M367.4 151.5l.8 2.3c.1.3.2.6.2.8.1-.2.2-.5.2-.8l.8-2.3h.7l-1.1 2.8c-.5 1.3-.8 2-1.3 2.4-.3.3-.7.4-.9.5l-.2-.6.6-.3c.2-.2.4-.4.6-.8 0-.1.1-.1.1-.2v-.2l-1.4-3.6h.9z" class="st2"/>
    <path d="M374.4 153.4c0 1.4-1 2.1-1.9 2.1-1 0-1.9-.8-1.9-2 0-1.3.8-2.1 1.9-2.1 1.1 0 1.9.8 1.9 2zm-3.1.1c0 .8.5 1.5 1.2 1.5s1.2-.6 1.2-1.5c0-.7-.3-1.5-1.2-1.5-.8 0-1.2.7-1.2 1.5z" class="st2"/>
    <path d="M378.5 154.3v1.1h-.6v-.6c-.2.3-.6.7-1.3.7-.6 0-1.3-.3-1.3-1.7v-2.3h.7v2.1c0 .7.2 1.2.9 1.2.5 0 .8-.3.9-.6 0-.1.1-.2.1-.4v-2.4h.7v2.9z" class="st2"/>
    <path d="M379.7 152.7v-1.2h.6v.8c.2-.5.6-.8 1.1-.8h.2v.7h-.2c-.5 0-.8.4-.9.9v2.4h-.7v-2.8z" class="st2"/>
    <path d="M384 155.4v-5.7h.7v2.4c.2-.4.7-.7 1.3-.7 1 0 1.6.8 1.6 2 0 1.4-.9 2.1-1.7 2.1-.6 0-1-.2-1.3-.7v.6h-.6zm.7-1.6v.3c.1.5.5.8 1.1.8.7 0 1.2-.6 1.2-1.5 0-.8-.4-1.4-1.2-1.4-.5 0-.9.3-1.1.9v.9z" class="st2"/>
    <path d="M392 153.4c0 1.4-1 2.1-1.9 2.1-1 0-1.9-.8-1.9-2 0-1.3.8-2.1 1.9-2.1 1.2 0 1.9.8 1.9 2zm-3 .1c0 .8.5 1.5 1.2 1.5s1.2-.6 1.2-1.5c0-.7-.3-1.5-1.2-1.5-.9 0-1.2.7-1.2 1.5z" class="st2"/>
    <path d="M396.3 149.7v5.7h-.6v-.7c-.2.4-.7.8-1.3.8-.9 0-1.7-.8-1.7-2 0-1.3.8-2.1 1.7-2.1.6 0 1 .3 1.2.6v-2.3h.7zm-.7 3.4v-.3c-.1-.4-.5-.8-1-.8-.7 0-1.2.6-1.2 1.5 0 .8.4 1.4 1.1 1.4.5 0 .9-.3 1-.8v-1z" class="st2"/>
    <path d="M397.7 151.5l.8 2.3c.1.3.2.6.2.8.1-.2.2-.5.2-.8l.8-2.3h.7l-1.1 2.8c-.5 1.3-.8 2-1.3 2.4-.3.3-.7.4-.9.5l-.2-.6.6-.3c.2-.2.4-.4.6-.8 0-.1.1-.1.1-.2v-.2l-1.4-3.6h.9z" class="st2"/>
    <path d="M403.2 151.5l.5 2 .3 1.2.3-1.2.6-2h.6l.6 1.9c.1.5.3.9.3 1.3.1-.4.2-.8.3-1.3l.6-1.9h.7l-1.2 3.9h-.6l-.6-1.8c-.1-.4-.2-.8-.3-1.3-.1.5-.2.9-.4 1.3l-.6 1.8h-.6l-1.2-3.9h.7z" class="st2"/>
    <path d="M412.2 153.4c0 1.4-1 2.1-1.9 2.1-1 0-1.9-.8-1.9-2 0-1.3.8-2.1 1.9-2.1 1.2 0 1.9.8 1.9 2zm-3.1.1c0 .8.5 1.5 1.2 1.5s1.2-.6 1.2-1.5c0-.7-.3-1.5-1.2-1.5-.8 0-1.2.7-1.2 1.5z" class="st2"/>
    <path d="M413.1 152.6v-1h.6v.6c.2-.4.6-.7 1.3-.7.5 0 1.4.3 1.4 1.6v2.3h-.7v-2.2c0-.6-.2-1.1-.9-1.1-.5 0-.8.3-.9.7v2.6h-.7v-2.8z" class="st2"/>
    <path d="M418.2 149.9c-.2.7-.5 1.5-.8 1.9l-.4.1c.2-.5.4-1.3.5-1.9l.7-.1z" class="st2"/>
    <path d="M419.7 150.4v1.1h1v.5h-1v2.1c0 .5.1.8.5.8h.4v.5c-.1.1-.4.1-.6.1-.3 0-.6-.1-.8-.3-.2-.2-.3-.6-.3-1v-2.1h-.6v-.5h.6v-.9l.8-.3z" class="st2"/>
    <path d="M303.8 162.2v-1h.6v.6c.2-.4.6-.7 1.2-.7.5 0 .9.3 1.1.8.1-.2.3-.4.4-.5.2-.2.5-.3.9-.3.5 0 1.3.3 1.3 1.7v2.3h-.7v-2.2c0-.7-.3-1.2-.8-1.2-.4 0-.7.3-.8.6 0 .1-.1.2-.1.4v2.4h-.7v-2.3c0-.6-.3-1.1-.8-1.1-.4 0-.8.4-.9.7 0 .1-.1.2-.1.3v2.3h-.7v-2.8z" class="st2"/>
    <path d="M310.8 163.2c0 1 .6 1.3 1.3 1.3.5 0 .8-.1 1.1-.2l.1.5c-.2.1-.7.2-1.3.2-1.2 0-1.9-.8-1.9-2s.7-2.1 1.8-2.1c1.3 0 1.6 1.1 1.6 1.8v.3h-2.7zm2.1-.5c0-.4-.2-1.1-1-1.1-.7 0-1 .7-1.1 1.1h2.1z" class="st2"/>
    <path d="M315.3 160v1.1h1v.5h-1v2.1c0 .5.1.8.5.8h.4v.5c-.1.1-.4.1-.6.1-.3 0-.6-.1-.8-.3-.2-.2-.3-.6-.3-1v-2.1h-.5v-.5h.6v-.9l.7-.3z" class="st2"/>
    <path d="M319.2 165l-.1-.5c-.2.3-.6.6-1.2.6-.8 0-1.2-.6-1.2-1.1 0-.9.8-1.4 2.3-1.4v-.1c0-.3-.1-.9-.9-.9-.4 0-.7.1-1 .3l-.2-.5c.3-.2.8-.3 1.3-.3 1.2 0 1.5.8 1.5 1.6v1.4c0 .3 0 .7.1.9h-.6zm-.1-2c-.8 0-1.6.1-1.6.9 0 .5.3.7.7.7.5 0 .8-.3.9-.6v-1z" class="st2"/>
    <path d="M320.9 165v-5.7h.7v2.4c.2-.4.7-.7 1.3-.7 1 0 1.6.8 1.6 2 0 1.4-.9 2.1-1.7 2.1-.6 0-1-.2-1.3-.7v.6h-.6zm.8-1.6v.3c.1.5.5.8 1.1.8.7 0 1.2-.6 1.2-1.5 0-.8-.4-1.4-1.2-1.4-.5 0-.9.3-1.1.9v.9z" class="st2"/>
    <path d="M329 163c0 1.4-1 2.1-1.9 2.1-1 0-1.9-.8-1.9-2 0-1.3.8-2.1 1.9-2.1 1.2 0 1.9.8 1.9 2zm-3.1.1c0 .8.5 1.5 1.2 1.5s1.2-.6 1.2-1.5c0-.7-.3-1.5-1.2-1.5-.8 0-1.2.7-1.2 1.5z" class="st2"/>
    <path d="M329.9 159.3h.7v5.7h-.7v-5.7z" class="st2"/>
    <path d="M332.6 160c0 .2-.2.4-.4.4s-.4-.2-.4-.4.2-.4.4-.4.4.2.4.4zm-.8 5v-3.9h.7v3.9h-.7z" class="st2"/>
    <path d="M333.2 164.6l1.8-2.3c.2-.2.3-.4.5-.6h-2.1v-.6h3v.4l-1.7 2.2c-.2.2-.3.4-.5.6h2.3v.6h-3.1v-.3z" class="st2"/>
    <path d="M337.4 163.2c0 1 .6 1.3 1.3 1.3.5 0 .8-.1 1.1-.2l.1.5c-.2.1-.7.2-1.3.2-1.2 0-1.9-.8-1.9-2s.7-2.1 1.8-2.1c1.3 0 1.6 1.1 1.6 1.8v.3h-2.7zm2.1-.5c0-.4-.2-1.1-1-1.1-.7 0-1 .7-1.1 1.1h2.1z" class="st2"/>
    <path d="M346.2 163c0 1.4-1 2.1-1.9 2.1-1 0-1.9-.8-1.9-2 0-1.3.8-2.1 1.9-2.1 1.2 0 1.9.8 1.9 2zm-3 .1c0 .8.5 1.5 1.2 1.5s1.2-.6 1.2-1.5c0-.7-.3-1.5-1.2-1.5-.9 0-1.2.7-1.2 1.5z" class="st2"/>
    <path d="M348 160v1.1h1v.5h-1v2.1c0 .5.1.8.5.8h.4v.5c-.1.1-.4.1-.6.1-.3 0-.6-.1-.8-.3-.2-.2-.3-.6-.3-1v-2.1h-.6v-.5h.6v-.9l.8-.3z" class="st2"/>
    <path d="M349.8 159.3h.7v2.4c.1-.2.3-.4.5-.5.2-.1.5-.2.7-.2.5 0 1.4.3 1.4 1.7v2.3h-.7v-2.2c0-.6-.2-1.2-.9-1.2-.5 0-.8.3-.9.7v2.6h-.7v-5.6z" class="st2"/>
    <path d="M354.6 163.2c0 1 .6 1.3 1.3 1.3.5 0 .8-.1 1.1-.2l.1.5c-.2.1-.7.2-1.3.2-1.2 0-1.9-.8-1.9-2s.7-2.1 1.8-2.1c1.3 0 1.6 1.1 1.6 1.8v.3h-2.7zm2.1-.5c0-.4-.2-1.1-1-1.1-.7 0-1 .7-1.1 1.1h2.1z" class="st2"/>
    <path d="M358.2 162.3v-1.2h.6v.8c.2-.5.6-.8 1.1-.8h.2v.7h-.2c-.5 0-.8.4-.9.9v2.4h-.7v-2.8z" class="st2"/>
    <path d="M362.6 165v-3.3h-.5v-.5h.5v-.2c0-.5.1-1 .4-1.4.3-.3.6-.4.9-.4.2 0 .5.1.6.1l-.1.5c-.1 0-.2-.1-.4-.1-.6 0-.8.5-.8 1.1v.2h.9v.5h-.9v3.3h-.6z" class="st2"/>
    <path d="M367 165l-.1-.5c-.2.3-.6.6-1.2.6-.8 0-1.2-.6-1.2-1.1 0-.9.8-1.4 2.3-1.4v-.1c0-.3-.1-.9-.9-.9-.4 0-.7.1-1 .3l-.2-.5c.3-.2.8-.3 1.3-.3 1.2 0 1.5.8 1.5 1.6v1.4c0 .3 0 .7.1.9h-.6zm-.1-2c-.8 0-1.6.1-1.6.9 0 .5.3.7.7.7.5 0 .8-.3.9-.6v-1z" class="st2"/>
    <path d="M369.5 160v1.1h1v.5h-1v2.1c0 .5.1.8.5.8h.4v.5c-.1.1-.4.1-.6.1-.3 0-.6-.1-.8-.3-.2-.2-.3-.6-.3-1v-2.1h-.6v-.5h.6v-.9l.8-.3z" class="st2"/>
    <path d="M371.2 164.3c.2.1.6.3.9.3.5 0 .8-.3.8-.6s-.2-.5-.7-.7c-.7-.2-1-.6-1-1.1 0-.6.5-1.1 1.3-1.1.4 0 .7.1 1 .2l-.2.5c-.2-.1-.4-.2-.8-.2s-.6.2-.6.5.2.5.7.7c.7.3 1 .6 1 1.2 0 .7-.5 1.2-1.4 1.2-.4 0-.8-.1-1.1-.3l.1-.6z" class="st2"/>
    <path d="M378.3 165l-.1-.5c-.2.3-.6.6-1.2.6-.8 0-1.2-.6-1.2-1.1 0-.9.8-1.4 2.3-1.4v-.1c0-.3-.1-.9-.9-.9-.4 0-.7.1-1 .3l-.2-.5c.3-.2.8-.3 1.3-.3 1.2 0 1.5.8 1.5 1.6v1.4c0 .3 0 .7.1.9h-.6zm-.1-2c-.8 0-1.6.1-1.6.9 0 .5.3.7.7.7.5 0 .8-.3.9-.6v-1z" class="st2"/>
    <path d="M380.1 162.2v-1h.6v.6c.2-.4.6-.7 1.3-.7.5 0 1.4.3 1.4 1.6v2.3h-.7v-2.2c0-.6-.2-1.1-.9-1.1-.5 0-.8.3-.9.7v2.6h-.7v-2.8z" class="st2"/>
    <path d="M387.8 159.3v5.7h-.6v-.7c-.2.4-.7.8-1.3.8-.9 0-1.7-.8-1.7-2 0-1.3.8-2.1 1.7-2.1.6 0 1 .3 1.2.6v-2.3h.7zm-.7 3.4v-.3c-.1-.4-.5-.8-1-.8-.7 0-1.2.6-1.2 1.5 0 .8.4 1.4 1.1 1.4.5 0 .9-.3 1-.8v-1z" class="st2"/>
    <path d="M390.6 164.3c.2.1.6.3.9.3.5 0 .8-.3.8-.6s-.2-.5-.7-.7c-.7-.2-1-.6-1-1.1 0-.6.5-1.1 1.3-1.1.4 0 .7.1 1 .2l-.2.5c-.2-.1-.4-.2-.8-.2s-.6.2-.6.5.2.5.7.7c.7.3 1 .6 1 1.2 0 .7-.5 1.2-1.4 1.2-.4 0-.8-.1-1.1-.3l.1-.6z" class="st2"/>
    <path d="M397.1 163.9v1.1h-.6v-.6c-.2.3-.6.7-1.3.7-.6 0-1.3-.3-1.3-1.7v-2.3h.7v2.1c0 .7.2 1.2.9 1.2.5 0 .8-.3.9-.6 0-.1.1-.2.1-.4V161h.7v2.9z" class="st2"/>
    <path d="M401.6 161.1v3.3c0 .9-.2 1.4-.6 1.8-.4.4-.9.5-1.4.5-.5 0-1-.1-1.3-.3l.2-.5c.3.2.7.3 1.1.3.7 0 1.2-.4 1.2-1.4v-.4c-.2.4-.6.6-1.2.6-1 0-1.6-.8-1.6-1.9 0-1.3.9-2.1 1.7-2.1.7 0 1 .4 1.2.7v-.6h.7zm-.7 1.6v-.3c-.1-.4-.5-.7-1-.7-.7 0-1.2.6-1.2 1.5 0 .8.4 1.4 1.1 1.4.4 0 .8-.3 1-.7 0-.1.1-.3.1-.4v-.8z" class="st2"/>
    <path d="M404.9 165l-.1-.5c-.2.3-.6.6-1.2.6-.8 0-1.2-.6-1.2-1.1 0-.9.8-1.4 2.3-1.4v-.1c0-.3-.1-.9-.9-.9-.4 0-.7.1-1 .3l-.2-.5c.3-.2.8-.3 1.3-.3 1.2 0 1.5.8 1.5 1.6v1.4c0 .3 0 .7.1.9h-.6zm-.1-2c-.8 0-1.6.1-1.6.9 0 .5.3.7.7.7.5 0 .8-.3.9-.6v-1z" class="st2"/>
    <path d="M406.6 162.3v-1.2h.6v.8c.2-.5.6-.8 1.1-.8h.2v.7h-.2c-.5 0-.8.4-.9.9v2.4h-.7v-2.8z" class="st2"/>
    <path d="M409.1 164.3c.2.1.6.3.9.3.5 0 .8-.3.8-.6s-.2-.5-.7-.7c-.7-.2-1-.6-1-1.1 0-.6.5-1.1 1.3-1.1.4 0 .7.1 1 .2l-.2.5c-.2-.1-.4-.2-.8-.2s-.6.2-.6.5.2.5.7.7c.7.3 1 .6 1 1.2 0 .7-.5 1.2-1.4 1.2-.4 0-.8-.1-1.1-.3l.1-.6z" class="st2"/>
    <path d="M416.2 165l-.1-.5c-.2.3-.6.6-1.2.6-.8 0-1.2-.6-1.2-1.1 0-.9.8-1.4 2.3-1.4v-.1c0-.3-.1-.9-.9-.9-.4 0-.7.1-1 .3l-.2-.5c.3-.2.8-.3 1.3-.3 1.2 0 1.5.8 1.5 1.6v1.4c0 .3 0 .7.1.9h-.6zm-.1-2c-.8 0-1.6.1-1.6.9 0 .5.3.7.7.7.5 0 .8-.3.9-.6v-1z" class="st2"/>
    <path d="M417.9 164.3c.2.1.6.3.9.3.5 0 .8-.3.8-.6s-.2-.5-.7-.7c-.7-.2-1-.6-1-1.1 0-.6.5-1.1 1.3-1.1.4 0 .7.1 1 .2l-.2.5c-.2-.1-.4-.2-.8-.2s-.6.2-.6.5.2.5.7.7c.7.3 1 .6 1 1.2 0 .7-.5 1.2-1.4 1.2-.4 0-.8-.1-1.1-.3l.1-.6z" class="st2"/>
    <path d="M305.9 172.8c0 1 .6 1.3 1.3 1.3.5 0 .8-.1 1.1-.2l.1.5c-.2.1-.7.2-1.3.2-1.2 0-1.9-.8-1.9-2s.7-2.1 1.8-2.1c1.3 0 1.6 1.1 1.6 1.8v.3h-2.7zm2.1-.5c0-.4-.2-1.1-1-1.1-.7 0-1 .7-1.1 1.1h2.1z" class="st2"/>
    <path d="M314.4 169.6c-.2-.1-.5-.2-.8-.2-.7 0-1 .5-1 1.1v.2h2.3v3.9h-.7v-3.3h-1.5v3.3h-.7v-3.3h-1.6v3.3h-.7v-3.3h-.7v-.5h.5v-.1c0-.5.1-1 .5-1.3.2-.2.6-.4 1-.4.3 0 .5.1.7.2l-.2.5c-.1-.1-.3-.1-.5-.1s-.4.1-.5.2c-.2.2-.3.6-.3.9v.2h1.6v-.2c0-1 .6-1.7 1.7-1.7.4 0 .8.1 1 .2l-.1.4z" class="st2"/>
    <path d="M318.8 174.5c-.2.1-.6.2-1.1.2-1.2 0-1.9-.8-1.9-2s.8-2.1 2.1-2.1c.4 0 .8.1 1 .2l-.2.5c-.2-.1-.4-.2-.8-.2-.9 0-1.4.7-1.4 1.5 0 .9.6 1.4 1.3 1.4.4 0 .7-.1.9-.2l.1.7z" class="st2"/>
    <path d="M320.4 169.6c0 .2-.2.4-.4.4s-.4-.2-.4-.4.2-.4.4-.4.4.2.4.4zm-.8 5v-3.9h.7v3.9h-.7z" class="st2"/>
    <path d="M321.9 172.8c0 1 .6 1.3 1.3 1.3.5 0 .8-.1 1.1-.2l.1.5c-.2.1-.7.2-1.3.2-1.2 0-1.9-.8-1.9-2s.7-2.1 1.8-2.1c1.3 0 1.6 1.1 1.6 1.8v.3h-2.7zm2-.5c0-.4-.2-1.1-1-1.1-.7 0-1 .7-1.1 1.1h2.1z" class="st2"/>
    <path d="M325.5 171.8v-1h.6v.6c.2-.4.6-.7 1.3-.7.5 0 1.4.3 1.4 1.6v2.3h-.7v-2.2c0-.6-.2-1.1-.9-1.1-.5 0-.8.3-.9.7v2.6h-.7v-2.8z" class="st2"/>
    <path d="M330.8 169.6v1.1h1v.5h-1v2.1c0 .5.1.8.5.8h.4v.5c-.1.1-.4.1-.6.1-.3 0-.6-.1-.8-.3-.2-.2-.3-.6-.3-1v-2.1h-.6v-.5h.6v-.9l.8-.3z" class="st2"/>
    <path d="M332.6 168.9h.7v5.7h-.7v-5.7z" class="st2"/>
    <path d="M334.7 170.7l.8 2.3c.1.3.2.6.2.8.1-.2.2-.5.2-.8l.8-2.3h.7l-1.1 2.8c-.5 1.3-.8 2-1.3 2.4-.3.3-.7.4-.9.5l-.2-.6.6-.3c.2-.2.4-.4.6-.8 0-.1.1-.1.1-.2v-.2l-1.4-3.6h.9z" class="st2"/>
    <path d="M337.4 175.6c.2-.5.4-1.3.5-1.9l.8-.1c-.2.7-.5 1.6-.8 1.9l-.5.1z" class="st2"/>
    <path d="M344.5 173.5v1.1h-.6v-.6c-.2.3-.6.7-1.3.7-.6 0-1.3-.3-1.3-1.7v-2.3h.7v2.1c0 .7.2 1.2.9 1.2.5 0 .8-.3.9-.6 0-.1.1-.2.1-.4v-2.4h.7v2.9z" class="st2"/>
    <path d="M345.7 168.9h.7v5.7h-.7v-5.7z" class="st2"/>
    <path d="M348.4 169.6v1.1h1v.5h-1v2.1c0 .5.1.8.5.8h.4v.5c-.1.1-.4.1-.6.1-.3 0-.6-.1-.8-.3-.2-.2-.3-.6-.3-1v-2.1h-.6v-.5h.6v-.9l.8-.3z" class="st2"/>
    <path d="M351 169.6c0 .2-.2.4-.4.4s-.4-.2-.4-.4.2-.4.4-.4.4.2.4.4zm-.8 5v-3.9h.7v3.9h-.7z" class="st2"/>
    <path d="M352.1 171.8v-1h.6v.6c.2-.4.6-.7 1.2-.7.5 0 .9.3 1.1.8.1-.2.3-.4.4-.5.2-.2.5-.3.9-.3.5 0 1.3.3 1.3 1.7v2.3h-.7v-2.2c0-.7-.3-1.2-.8-1.2-.4 0-.7.3-.8.6 0 .1-.1.2-.1.4v2.4h-.7v-2.3c0-.6-.3-1.1-.8-1.1-.4 0-.8.4-.9.7 0 .1-.1.2-.1.3v2.3h-.7v-2.8z" class="st2"/>
    <path d="M360.9 174.6l-.1-.5c-.2.3-.6.6-1.2.6-.8 0-1.2-.6-1.2-1.1 0-.9.8-1.4 2.3-1.4v-.1c0-.3-.1-.9-.9-.9-.4 0-.7.1-1 .3l-.2-.5c.3-.2.8-.3 1.3-.3 1.2 0 1.5.8 1.5 1.6v1.4c0 .3 0 .7.1.9h-.6zm-.1-2c-.8 0-1.6.1-1.6.9 0 .5.3.7.7.7.5 0 .8-.3.9-.6v-1z" class="st2"/>
    <path d="M363.4 169.6v1.1h1v.5h-1v2.1c0 .5.1.8.5.8h.4v.5c-.1.1-.4.1-.6.1-.3 0-.6-.1-.8-.3-.2-.2-.3-.6-.3-1v-2.1h-.6v-.5h.6v-.9l.8-.3z" class="st2"/>
    <path d="M365.6 172.8c0 1 .6 1.3 1.3 1.3.5 0 .8-.1 1.1-.2l.1.5c-.2.1-.7.2-1.3.2-1.2 0-1.9-.8-1.9-2s.7-2.1 1.8-2.1c1.3 0 1.6 1.1 1.6 1.8v.3h-2.7zm2-.5c0-.4-.2-1.1-1-1.1-.7 0-1 .7-1.1 1.1h2.1z" class="st2"/>
    <path d="M369.2 168.9h.7v5.7h-.7v-5.7z" class="st2"/>
    <path d="M371.3 170.7l.8 2.3c.1.3.2.6.2.8.1-.2.2-.5.2-.8l.8-2.3h.7l-1.1 2.8c-.5 1.3-.8 2-1.3 2.4-.3.3-.7.4-.9.5l-.2-.6.6-.3c.2-.2.4-.4.6-.8 0-.1.1-.1.1-.2v-.2l-1.4-3.6h.9z" class="st2"/>
    <path d="M376.4 173.9c.2.1.6.3.9.3.5 0 .8-.3.8-.6s-.2-.5-.7-.7c-.7-.2-1-.6-1-1.1 0-.6.5-1.1 1.3-1.1.4 0 .7.1 1 .2l-.2.5c-.2-.1-.4-.2-.8-.2s-.6.2-.6.5.2.5.7.7c.7.3 1 .6 1 1.2 0 .7-.5 1.2-1.4 1.2-.4 0-.8-.1-1.1-.3l.1-.6z" class="st2"/>
    <path d="M379.7 168.9h.7v5.7h-.7v-5.7z" class="st2"/>
    <path d="M385.1 172.6c0 1.4-1 2.1-1.9 2.1-1 0-1.9-.8-1.9-2 0-1.3.8-2.1 1.9-2.1 1.1 0 1.9.8 1.9 2zm-3.1.1c0 .8.5 1.5 1.2 1.5s1.2-.6 1.2-1.5c0-.7-.3-1.5-1.2-1.5-.8 0-1.2.7-1.2 1.5z" class="st2"/>
    <path d="M386.2 170.7l.5 2 .3 1.2.3-1.2.6-2h.6l.6 1.9c.1.5.3.9.3 1.3.1-.4.2-.8.3-1.3l.6-1.9h.7l-1.2 3.9h-.6l-.6-1.8c-.1-.4-.2-.8-.3-1.3-.1.5-.2.9-.4 1.3l-.6 1.8h-.6l-1.2-3.9h.7z" class="st2"/>
    <path d="M392.6 169.6c0 .2-.2.4-.4.4s-.4-.2-.4-.4.2-.4.4-.4.4.2.4.4zm-.8 5v-3.9h.7v3.9h-.7z" class="st2"/>
    <path d="M393.7 171.8v-1h.6v.6c.2-.4.6-.7 1.3-.7.5 0 1.4.3 1.4 1.6v2.3h-.7v-2.2c0-.6-.2-1.1-.9-1.1-.5 0-.8.3-.9.7v2.6h-.7v-2.8z" class="st2"/>
    <path d="M401.4 170.7v3.3c0 .9-.2 1.4-.6 1.8-.4.4-.9.5-1.4.5-.5 0-1-.1-1.3-.3l.2-.5c.3.2.7.3 1.1.3.7 0 1.2-.4 1.2-1.4v-.4c-.2.4-.6.6-1.2.6-1 0-1.6-.8-1.6-1.9 0-1.3.9-2.1 1.7-2.1.7 0 1 .4 1.2.7v-.6h.7zm-.7 1.6v-.3c-.1-.4-.5-.7-1-.7-.7 0-1.2.6-1.2 1.5 0 .8.4 1.4 1.1 1.4.4 0 .8-.3 1-.7 0-.1.1-.3.1-.4v-.8z" class="st2"/>
    <path d="M404.5 170.7l.8 2.3c.1.3.2.6.2.8.1-.2.2-.5.2-.8l.8-2.3h.7l-1.1 2.8c-.5 1.3-.8 2-1.3 2.4-.3.3-.7.4-.9.5l-.2-.6.6-.3c.2-.2.4-.4.6-.8 0-.1.1-.1.1-.2v-.2l-1.4-3.6h.9z" class="st2"/>
    <path d="M411.5 172.6c0 1.4-1 2.1-1.9 2.1-1 0-1.9-.8-1.9-2 0-1.3.8-2.1 1.9-2.1 1.1 0 1.9.8 1.9 2zm-3.1.1c0 .8.5 1.5 1.2 1.5s1.2-.6 1.2-1.5c0-.7-.3-1.5-1.2-1.5-.8 0-1.2.7-1.2 1.5z" class="st2"/>
    <path d="M415.6 173.5v1.1h-.6v-.6c-.2.3-.6.7-1.3.7-.6 0-1.3-.3-1.3-1.7v-2.3h.7v2.1c0 .7.2 1.2.9 1.2.5 0 .8-.3.9-.6 0-.1.1-.2.1-.4v-2.4h.7v2.9z" class="st2"/>
    <path d="M416.8 171.9v-1.2h.6v.8c.2-.5.6-.8 1.1-.8h.2v.7h-.2c-.5 0-.8.4-.9.9v2.4h-.7v-2.8z" class="st2"/>
    <path d="M315.6 181.4v-1h.6v.6c.2-.4.6-.7 1.2-.7.5 0 .9.3 1.1.8.1-.2.3-.4.4-.5.2-.2.5-.3.9-.3.5 0 1.3.3 1.3 1.7v2.3h-.7V182c0-.7-.3-1.2-.8-1.2-.4 0-.7.3-.8.6 0 .1-.1.2-.1.4v2.4h-.7v-2.3c0-.6-.3-1.1-.8-1.1-.4 0-.8.4-.9.7 0 .1-.1.2-.1.3v2.3h-.7v-2.7z" class="st2"/>
    <path d="M322.6 182.4c0 1 .6 1.3 1.3 1.3.5 0 .8-.1 1.1-.2l.1.5c-.2.1-.7.2-1.3.2-1.2 0-1.9-.8-1.9-2s.7-2.1 1.8-2.1c1.3 0 1.6 1.1 1.6 1.8v.3h-2.7zm2.1-.5c0-.4-.2-1.1-1-1.1-.7 0-1 .7-1.1 1.1h2.1z" class="st2"/>
    <path d="M327.1 179.2v1.1h1v.5h-1v2.1c0 .5.1.8.5.8h.4v.5c-.1.1-.4.1-.6.1-.3 0-.6-.1-.8-.3-.2-.2-.3-.6-.3-1v-2.1h-.6v-.5h.6v-.9l.8-.3z" class="st2"/>
    <path d="M331 184.2l-.1-.5c-.2.3-.6.6-1.2.6-.8 0-1.2-.6-1.2-1.1 0-.9.8-1.4 2.3-1.4v-.1c0-.3-.1-.9-.9-.9-.4 0-.7.1-1 .3l-.2-.5c.3-.2.8-.3 1.3-.3 1.2 0 1.5.8 1.5 1.6v1.4c0 .3 0 .7.1.9h-.6zm-.1-2c-.8 0-1.6.1-1.6.9 0 .5.3.7.7.7.5 0 .8-.3.9-.6v-1z" class="st2"/>
    <path d="M332.7 184.2v-5.7h.7v2.4c.2-.4.7-.7 1.3-.7 1 0 1.6.8 1.6 2 0 1.4-.9 2.1-1.7 2.1-.6 0-1-.2-1.3-.7v.6h-.6zm.7-1.6v.3c.1.5.5.8 1.1.8.7 0 1.2-.6 1.2-1.5 0-.8-.4-1.4-1.2-1.4-.5 0-.9.3-1.1.9v.9z" class="st2"/>
    <path d="M340.8 182.2c0 1.4-1 2.1-1.9 2.1-1 0-1.9-.8-1.9-2 0-1.3.8-2.1 1.9-2.1 1.1 0 1.9.8 1.9 2zm-3.1.1c0 .8.5 1.5 1.2 1.5s1.2-.6 1.2-1.5c0-.7-.3-1.5-1.2-1.5-.8 0-1.2.7-1.2 1.5z" class="st2"/>
    <path d="M341.7 178.5h.7v5.7h-.7v-5.7z" class="st2"/>
    <path d="M344.4 179.2c0 .2-.2.4-.4.4s-.4-.2-.4-.4.2-.4.4-.4.4.2.4.4zm-.8 5v-3.9h.7v3.9h-.7z" class="st2"/>
    <path d="M345.3 183.5c.2.1.6.3.9.3.5 0 .8-.3.8-.6s-.2-.5-.7-.7c-.7-.2-1-.6-1-1.1 0-.6.5-1.1 1.3-1.1.4 0 .7.1 1 .2l-.2.5c-.2-.1-.4-.2-.8-.2s-.6.2-.6.5.2.5.7.7c.7.3 1 .6 1 1.2 0 .7-.5 1.2-1.4 1.2-.4 0-.8-.1-1.1-.3l.1-.6z" class="st2"/>
    <path d="M348.6 181.4v-1h.6v.6c.2-.4.6-.7 1.2-.7.5 0 .9.3 1.1.8.1-.2.3-.4.4-.5.2-.2.5-.3.9-.3.5 0 1.3.3 1.3 1.7v2.3h-.7V182c0-.7-.3-1.2-.8-1.2-.4 0-.7.3-.8.6 0 .1-.1.2-.1.4v2.4h-.7v-2.3c0-.6-.3-1.1-.8-1.1-.4 0-.8.4-.9.7 0 .1-.1.2-.1.3v2.3h-.7v-2.7z" class="st2"/>
    <path d="M360.3 178.5v5.7h-.6v-.7c-.2.4-.7.8-1.3.8-.9 0-1.7-.8-1.7-2 0-1.3.8-2.1 1.7-2.1.6 0 1 .3 1.2.6v-2.3h.7zm-.7 3.4v-.3c-.1-.4-.5-.8-1-.8-.7 0-1.2.6-1.2 1.5 0 .8.4 1.4 1.1 1.4.5 0 .9-.3 1-.8v-1z" class="st2"/>
    <path d="M365 182.2c0 1.4-1 2.1-1.9 2.1-1 0-1.9-.8-1.9-2 0-1.3.8-2.1 1.9-2.1 1.1 0 1.9.8 1.9 2zm-3.1.1c0 .8.5 1.5 1.2 1.5s1.2-.6 1.2-1.5c0-.7-.3-1.5-1.2-1.5-.8 0-1.2.7-1.2 1.5z" class="st2"/>
    <path d="M366.1 180.3l.5 2 .3 1.2.3-1.2.6-2h.6l.6 1.9c.1.5.3.9.3 1.3.1-.4.2-.8.3-1.3l.6-1.9h.7l-1.2 3.9h-.6l-.6-1.8c-.1-.4-.2-.8-.3-1.3-.1.5-.2.9-.4 1.3l-.6 1.8h-.6l-1.2-3.9h.7z" class="st2"/>
    <path d="M371.7 181.4v-1h.6v.6c.2-.4.6-.7 1.3-.7.5 0 1.4.3 1.4 1.6v2.3h-.7V182c0-.6-.2-1.1-.9-1.1-.5 0-.8.3-.9.7v2.6h-.7v-2.8z" class="st2"/>
    <path d="M381.4 182.2c0 1.4-1 2.1-1.9 2.1-1 0-1.9-.8-1.9-2 0-1.3.8-2.1 1.9-2.1 1.1 0 1.9.8 1.9 2zm-3.1.1c0 .8.5 1.5 1.2 1.5s1.2-.6 1.2-1.5c0-.7-.3-1.5-1.2-1.5-.9 0-1.2.7-1.2 1.5z" class="st2"/>
    <path d="M382.5 180.3l.8 2.2c.1.4.2.7.3 1 .1-.3.2-.6.3-1l.8-2.2h.7l-1.5 3.9h-.7l-1.5-3.9h.8z" class="st2"/>
    <path d="M386.3 182.4c0 1 .6 1.3 1.3 1.3.5 0 .8-.1 1.1-.2l.1.5c-.2.1-.7.2-1.3.2-1.2 0-1.9-.8-1.9-2s.7-2.1 1.8-2.1c1.3 0 1.6 1.1 1.6 1.8v.3h-2.7zm2.1-.5c0-.4-.2-1.1-1-1.1-.7 0-1 .7-1.1 1.1h2.1z" class="st2"/>
    <path d="M390 181.5v-1.2h.6v.8c.2-.5.6-.8 1.1-.8h.2v.7h-.2c-.5 0-.8.4-.9.9v2.4h-.8v-2.8z" class="st2"/>
    <path d="M395.1 179.2v1.1h1v.5h-1v2.1c0 .5.1.8.5.8h.4v.5c-.1.1-.4.1-.6.1-.3 0-.6-.1-.8-.3-.2-.2-.3-.6-.3-1v-2.1h-.6v-.5h.6v-.9l.8-.3z" class="st2"/>
    <path d="M397.7 179.2c0 .2-.2.4-.4.4s-.4-.2-.4-.4.2-.4.4-.4.4.2.4.4zm-.8 5v-3.9h.7v3.9h-.7z" class="st2"/>
    <path d="M398.8 181.4v-1h.6v.6c.2-.4.6-.7 1.2-.7.5 0 .9.3 1.1.8.1-.2.3-.4.4-.5.2-.2.5-.3.9-.3.5 0 1.3.3 1.3 1.7v2.3h-.7V182c0-.7-.3-1.2-.8-1.2-.4 0-.7.3-.8.6 0 .1-.1.2-.1.4v2.4h-.7v-2.3c0-.6-.3-1.1-.8-1.1-.4 0-.8.4-.9.7 0 .1-.1.2-.1.3v2.3h-.7v-2.7z" class="st2"/>
    <path d="M405.9 182.4c0 1 .6 1.3 1.3 1.3.5 0 .8-.1 1.1-.2l.1.5c-.2.1-.7.2-1.3.2-1.2 0-1.9-.8-1.9-2s.7-2.1 1.8-2.1c1.3 0 1.6 1.1 1.6 1.8v.3h-2.7zm2-.5c0-.4-.2-1.1-1-1.1-.7 0-1 .7-1.1 1.1h2.1z" class="st2"/>
    <path d="M409.2 183.8c0-.3.2-.5.5-.5s.5.2.5.5-.2.5-.5.5-.5-.2-.5-.5z" class="st2"/>
  </g>
  <path d="M169.4 105v2s-3.1 1.6-1.7 4.9c0 0 0 .6 4.7 3.5 0 0 2 2.1 2.1 3.7 0 0-.8 1.5.7 4.6 0 0 .6 7.1-.4 7.4 0 0-6.5-2.6-13.5-.9 0 0-22.6 0-23.2-1.3 0 0 1.4-16.2 4.6-20.2 0 0 2.1.3 3-.5 0 0 2 .4 2.6 1.2 0 0 2.9 1.1 2.8-2.9 0 0 6.3.6 6.7-1.7h11.6z" class="st1"/>
  <path d="M235.1 455.4l42.3-12.5s-3.1-67.1 9.2-83.6c0 0 23-42.9 83.8-38.7 0 0 68.5 3.7 92.6 38.2 1.7 2.5 2.6 5.5 2.6 8.5 0 28.6-.3 190.7-5.8 204.1 0 0-1.6 7.9-19.8 27 0 0-2 3.5-9.3 1.7 0 0-169.2-20.4-199.3-26.6-2.6-.5-4.5-2.9-4.4-5.6l4-105.8c0 .1-.4-5.4 4.1-6.7z" class="st4"/>
  <path d="M265.5 445.4s3.3-26.8 39.2-30.1c0 0 18.3-1.3 38.6 5.1 0 0 47.8 3 49.7 5.5 0 0 39.8-13.5 72.3 2.9 0 0 18 5.4 19.3 15.1 0 0 1.1 3.4 8.4 1.8 0 0 5.7 1.3 1.1 8.1 0 0 5.5.4 1.8 9.3 0 0-5.7 5.4-17.8 2.4 0 0-.1 3.3 5.8 7.7 0 0 4 2.8.7 7.4 0 0-2.4 2.9-8.8-2.8 0 0-30-23.4-39.2-21.9 0 0-25.5 3.4-27.4 5.4l-13.4 60.5s14.5 25.8 5.3 80c0 0 11.1 10 15.7 20.9 0 0 4.6 2.7 4 5.4 0 0-2 5.1-6.9 1.6 0 0-2.8 1.8-4.1.7 0 0-7.6 6-15.1 5 0 0-9.3.1-14.5-4.3 0 0-10.4 3.5-17-1.6 0 0-6.8-3.9-5.8-14.8 0 0 17.8-65.9 1.5-73.9 0 0-27.5 9.5-47.8-3.6 0 0-28.5 26.8-35.8 68.8 0 0-1.3 10-9.1 13.8 0 0-9.4 4.3-19.6-.9l-10-6.1s-19.8-4.6-21.7-12c0 0-8.2-2.1-7-5.4 0 0-.2-1.4 2.2-1.9 0 0-.4-4.8 2.5-4.3 0 0 3.1-5.9 6.3-3.9 0 0 13.8-3.4 21.6-7.5 0 0 15.9-58.9 45.3-76.4 0 0-1.8-40.7 36.1-43.1l2.6-6.2s-23.8-12.7-41.5-11.5l-17.5 4.8z" class="st5"/>
  <path d="M329.5 399.6s-2-2.7-.2-6.6c0 0-.2-2.5-3.1-4.8 0 0-2-2.6-.9-5 0 0 1.3-2.4.9-3.2 0 0 .1-2 .8-1.7 0 0 2.5 1.2 1.4 5.4 0 0-.1 1.5 1.9 2.8 0 0 7.3-.5 4.2 7.6 0 0 .8 2.9 2 3.7 0 0 .6.6 1.3.5 0 0 5.7.2 5.2 3.2 0 0-.9 4.8.9 6.8 0 0 2.8 2.6 9.1-.1 0 0 3.1-1.3 5.2 1.7 0 0 .5-7.4 2.9-7.3 0 0 4.8-7.4 1-9.6 0 0-3.3-2.3-4.7-2.2 0 0-5.8-.8-6-4.4 0 0 1.2-5.5.5-6.5 0 0-.3-2.6-4.1-3.8 0 0-8-2.8-7.6-5.4 0 0 .9-5.9.1-6.6 0 0-.7-2.1-2.1-2.6 0 0-7.1-3.4-7.5-8 0 0-.6-6.6 1.8-8.7 0 0 2.5-2.2 2.3 2.1 0 0-2.3 4.5 6.6 7.6 0 0 3.7-7.9 8.8-2.7 0 0 2.6-7.2 12.8-4.1 0 0 5.5 2.6 7.8 4 0 0 22.7 11.9 22.4 29.6 0 0 1.1 11.6-5.6 29.7 0 0 8.8 12.7 4.6 17 0 0-22.2 2.6-44.5-4.4-.1.1-20.6-18.7-18.2-24z" class="st5"/>
  <path d="M394.4 376.5s.2-.1.6-.4c.3-.3.8-.7 1.4-1.2.5-.5 1.1-1.1 1.7-1.8.3-.3.6-.7.8-1.1.3-.4.5-.8.8-1.2.3-.4.5-.8.7-1.3.2-.4.4-.9.6-1.3.2-.4.3-.8.5-1.2.2-.4.2-.8.4-1.1.1-.4.2-.7.3-1 .1-.3.1-.6.2-.8.1-.4.2-.7.2-.7v.7c0 .4 0 1.1-.1 1.8-.1.4-.1.8-.2 1.2-.1.4-.2.9-.4 1.3s-.3.9-.5 1.4c-.2.4-.4.9-.7 1.4-.3.4-.5.9-.9 1.3-.3.4-.6.8-1 1.1-.3.4-.7.6-1 .9-.3.3-.7.5-1 .7-.6.4-1.2.7-1.6.9-.5.3-.8.4-.8.4z" class="st6"/>
  <path d="M396.4 379s.5-.5 1.5-.9c.3-.1.5-.2.8-.2.3 0 .6-.1 1 0 .3 0 .7.1 1 .1l1 .3c.3.2.7.3.9.5.3.2.6.4.8.6.5.4.9.9 1.2 1.3.3.4.5.8.7 1.1.1.3.2.4.2.4s-.1-.1-.4-.3c-.2-.2-.5-.5-.9-.8-.2-.2-.4-.3-.6-.5-.2-.2-.5-.3-.7-.5-.2-.2-.5-.3-.8-.5-.3-.2-.6-.3-.8-.4l-.9-.3c-.3 0-.6-.2-.9-.2-.3 0-.6-.1-.8-.1h-.8c-.8.1-1.5.4-1.5.4z" class="st6"/>
</svg>
