<svg xmlns="http://www.w3.org/2000/svg" id="Layer_1" viewBox="0 0 254.3 572">
  <style>
    .st0{fill:#FFFFFF;} .st1{fill:none;} .st2{fill:#51BA83;} .st3{fill:#C4D82E;} .st4{fill:#C4D82E;stroke:#C4D82E;stroke-miterlimit:10;} .st5{fill:#0D526A;stroke:#C4D82E;stroke-miterlimit:10;} .st6{fill:#C4D82E;stroke:#C4D82E;stroke-width:1.097974e-02;stroke-miterlimit:10;} .st7{fill:#009B9B;stroke:#009B9B;stroke-miterlimit:10;}
  </style>
  <path d="M37.9 2.9V8h5.9V2.9h1.6V15h-1.6V9.4h-5.9v5.7h-1.6V2.9h1.6z" class="st0"/>
  <path d="M58.4 8.9c0 4.2-2.5 6.4-5.6 6.4-3.2 0-5.5-2.5-5.5-6.2 0-3.9 2.4-6.4 5.6-6.4 3.4 0 5.5 2.6 5.5 6.2zm-9.4.2c0 2.6 1.4 4.9 3.9 4.9s3.9-2.3 3.9-5c0-2.4-1.3-4.9-3.9-4.9-2.6-.1-3.9 2.3-3.9 5z" class="st0"/>
  <path d="M62.4 15.1l-3-12.2H61L62.4 9c.4 1.5.7 3 .9 4.2.2-1.2.6-2.6 1-4.2L66 2.9h1.6l1.5 6.2c.3 1.4.7 2.9.8 4.2.3-1.3.6-2.7 1-4.2L72.5 3h1.6l-3.4 12.1h-1.6l-1.5-6.3c-.4-1.5-.6-2.7-.8-4-.2 1.2-.5 2.4-.9 4l-1.7 6.3h-1.8z" class="st0"/>
  <path d="M89.7 9.7c-.1-1.7-.2-3.7-.1-5.2h-.1c-.4 1.4-.9 2.9-1.5 4.6L85.8 15h-1.2l-2-5.8c-.6-1.7-1.1-3.3-1.4-4.7 0 1.5-.1 3.5-.2 5.4l-.3 5.2h-1.5L80 2.9h2l2.1 5.9c.5 1.5.9 2.8 1.2 4.1h.1c.3-1.2.7-2.6 1.3-4.1l2.2-5.9h2l.8 12.1H90l-.3-5.3z" class="st0"/>
  <path d="M95.8 11.2L94.5 15h-1.6L97 2.9h1.9L103 15h-1.7l-1.3-3.8h-4.2zm3.9-1.2l-1.2-3.5c-.3-.8-.5-1.5-.6-2.2l-.6 2.2-1.2 3.5h3.6z" class="st0"/>
  <path d="M104.8 15.1V2.9h1.7l3.9 6.1c.9 1.4 1.6 2.7 2.2 3.9-.1-1.6-.2-3.1-.2-5v-5h1.5V15h-1.6l-3.9-6.2c-.8-1.4-1.7-2.7-2.3-4.1h-.1c.1 1.5.1 3 .1 5v5.2h-1.3v.2z" class="st0"/>
  <path d="M119.2 15.1V9.9l-3.8-7h1.8l1.7 3.3c.5.9.8 1.7 1.2 2.5.3-.8.8-1.6 1.2-2.5l1.7-3.3h1.8l-4.1 7v5.2h-1.5z" class="st0"/>
  <path d="M138.6 14.7c-.6.3-1.7.6-3.2.6-3.4 0-6-2.2-6-6.1 0-3.8 2.6-6.4 6.3-6.4 1.5 0 2.5.3 2.9.5l-.4 1.3c-.6-.3-1.4-.5-2.4-.5-2.8 0-4.7 1.8-4.7 5 0 3 1.7 4.9 4.7 4.9 1 0 1.9-.2 2.6-.5l.2 1.2z" class="st0"/>
  <path d="M142.6 11.2l-1.3 3.8h-1.6l4.1-12.1h1.9l4.1 12.1h-1.7l-1.3-3.8h-4.2zm3.9-1.2l-1.2-3.5c-.3-.8-.5-1.5-.6-2.2l-.6 2.2-1.2 3.5h3.6z" class="st0"/>
  <path d="M151.6 2.9h1.6v10.8h5.2V15h-6.8V2.9z" class="st0"/>
  <path d="M169.8 8.9c0 4.2-2.5 6.4-5.6 6.4-3.2 0-5.5-2.5-5.5-6.2 0-3.9 2.4-6.4 5.6-6.4 3.3 0 5.5 2.6 5.5 6.2zm-9.4.2c0 2.6 1.4 4.9 3.9 4.9s3.9-2.3 3.9-5c0-2.4-1.3-4.9-3.9-4.9-2.6-.1-3.9 2.3-3.9 5z" class="st0"/>
  <path d="M171.8 3.1c.8-.2 1.9-.3 3-.3 1.7 0 2.8.3 3.5 1 .6.5 1 1.4 1 2.3 0 1.6-1 2.7-2.3 3.1v.1c.9.3 1.5 1.2 1.8 2.4.4 1.7.7 2.9.9 3.3h-1.6c-.2-.3-.5-1.4-.8-2.9-.4-1.7-1-2.3-2.4-2.4h-1.5V15h-1.6V3.1zm1.6 5.5h1.6c1.7 0 2.7-.9 2.7-2.3 0-1.6-1.1-2.3-2.8-2.3-.8 0-1.3.1-1.5.1v4.5z" class="st0"/>
  <path d="M183.1 2.9V15h-1.6V2.9h1.6z" class="st0"/>
  <path d="M192.1 9.4h-4.7v4.4h5.3v1.3h-6.8V2.9h6.6v1.3h-5V8h4.7v1.4h-.1z" class="st0"/>
  <path d="M194.4 13.2c.7.4 1.7.8 2.8.8 1.6 0 2.5-.8 2.5-2.1 0-1.1-.6-1.8-2.3-2.4-2-.7-3.2-1.7-3.2-3.4 0-1.9 1.6-3.3 3.9-3.3 1.2 0 2.1.3 2.7.6l-.4 1.3c-.4-.2-1.2-.6-2.3-.6-1.7 0-2.3 1-2.3 1.8 0 1.1.7 1.7 2.4 2.3 2.1.8 3.1 1.8 3.1 3.6 0 1.9-1.4 3.5-4.2 3.5-1.2 0-2.4-.3-3.1-.8l.4-1.3z" class="st0"/>
  <path d="M47.7 32.8l-1.3 3.8h-1.6L49 24.5h1.9L55 36.7h-1.7L52 32.8h-4.3zm4-1.2l-1.2-3.5c-.3-.8-.5-1.5-.6-2.2l-.6 2.2-1.3 3.5h3.7z" class="st0"/>
  <path d="M56.8 24.7c.8-.2 1.9-.3 3-.3 1.7 0 2.8.3 3.5 1 .6.5 1 1.4 1 2.3 0 1.6-1 2.7-2.3 3.1v.1c.9.3 1.5 1.2 1.8 2.4.4 1.7.7 2.9.9 3.3h-1.6c-.2-.3-.5-1.4-.8-2.9-.4-1.7-1-2.3-2.4-2.4h-1.5v5.3h-1.6V24.7zm1.5 5.5h1.6c1.7 0 2.7-.9 2.7-2.3 0-1.6-1.1-2.3-2.8-2.3-.8 0-1.3.1-1.5.1v4.5z" class="st0"/>
  <path d="M72.7 31H68v4.4h5.3v1.3h-6.8V24.5H73v1.3h-5v3.8h4.7V31z" class="st0"/>
  <path d="M81 36.7v-5.1l-3.8-7H79l1.7 3.3c.5.9.8 1.7 1.2 2.5.3-.8.8-1.6 1.2-2.5l1.7-3.3h1.8l-4.1 7v5.2l-1.5-.1z" class="st0"/>
  <path d="M97.8 30.5c0 4.2-2.5 6.4-5.6 6.4-3.2 0-5.5-2.5-5.5-6.2 0-3.9 2.4-6.4 5.6-6.4 3.3 0 5.5 2.6 5.5 6.2zm-9.5.2c0 2.6 1.4 4.9 3.9 4.9s3.9-2.3 3.9-5c0-2.4-1.3-4.9-3.9-4.9-2.6-.1-3.9 2.3-3.9 5z" class="st0"/>
  <path d="M101.4 24.5v7.2c0 2.7 1.2 3.9 2.8 3.9 1.8 0 3-1.2 3-3.9v-7.2h1.6v7.1c0 3.7-2 5.3-4.6 5.3-2.5 0-4.4-1.4-4.4-5.2v-7.1h1.6v-.1z" class="st0"/>
  <path d="M115.3 24.7c1-.1 2.1-.3 3.3-.3 2.3 0 3.9.5 4.9 1.5 1.1 1 1.7 2.4 1.7 4.4s-.6 3.6-1.7 4.7-3 1.7-5.4 1.7c-1.1 0-2.1-.1-2.8-.1V24.7zm1.5 10.7c.4.1 1 .1 1.6.1 3.3 0 5.2-1.9 5.2-5.1 0-2.9-1.6-4.7-4.9-4.7-.8 0-1.4.1-1.8.2l-.1 9.5z" class="st0"/>
  <path d="M127.2 24.7c.8-.2 1.9-.3 3-.3 1.7 0 2.8.3 3.5 1 .6.5 1 1.4 1 2.3 0 1.6-1 2.7-2.3 3.1v.1c.9.3 1.5 1.2 1.8 2.4.4 1.7.7 2.9.9 3.3h-1.6c-.2-.3-.5-1.4-.8-2.9-.4-1.7-1-2.3-2.4-2.4h-1.5v5.3h-1.6V24.7zm1.6 5.5h1.6c1.7 0 2.7-.9 2.7-2.3 0-1.6-1.1-2.3-2.8-2.3-.8 0-1.3.1-1.5.1v4.5z" class="st0"/>
  <path d="M138.5 24.5v12.1h-1.6V24.5h1.6z" class="st0"/>
  <path d="M141.2 36.7V24.5h1.7l3.9 6.1c.9 1.4 1.6 2.7 2.2 3.9-.1-1.6-.2-3.1-.2-5v-5.1h1.5v12.1h-1.6l-3.9-6.2c-.8-1.4-1.7-2.7-2.3-4.1h-.1c.1 1.5.1 3 .1 5v5.2h-1.3v.3z" class="st0"/>
  <path d="M153.1 24.5h1.6v5.9h.1c.3-.5.6-.9 1-1.3l3.7-4.6h1.9l-4.4 5.1 4.7 7h-1.9l-4-6-1.2 1.3v4.6H153v-12h.1z" class="st0"/>
  <path d="M164.4 24.5v12.1h-1.6V24.5h1.6z" class="st0"/>
  <path d="M167.1 36.7V24.5h1.7l3.9 6.1c.9 1.4 1.6 2.7 2.2 3.9-.1-1.6-.2-3.1-.2-5v-5.1h1.5v12.1h-1.6l-3.9-6.2c-.8-1.4-1.7-2.7-2.3-4.1h-.1c.1 1.5.1 3 .1 5v5.2h-1.3v.3z" class="st0"/>
  <path d="M188.2 36.1c-.7.3-2.1.7-3.7.7-1.8 0-3.3-.5-4.5-1.6-1-1-1.7-2.6-1.7-4.5 0-3.6 2.5-6.3 6.6-6.3 1.4 0 2.5.3 3 .6l-.4 1.3c-.6-.3-1.5-.5-2.7-.5-3 0-4.9 1.8-4.9 4.9s1.9 4.9 4.7 4.9c1 0 1.7-.1 2.1-.3v-3.6h-2.5v-1.3h4v5.7z" class="st0"/>
  <path d="M191.8 33.2v-.5c-.1-1 .2-2 1.1-3.1.8-1 1.3-1.7 1.3-2.5 0-.9-.6-1.5-1.7-1.5-.6 0-1.4.2-1.8.6l-.4-1.1c.6-.4 1.6-.7 2.6-.7 2.1 0 3 1.3 3 2.6 0 1.2-.7 2.1-1.5 3.1-.8.9-1.1 1.7-1 2.6v.5h-1.6zm-.4 2.5c0-.7.5-1.1 1.1-1.1s1.1.5 1.1 1.1-.4 1.1-1.1 1.1c-.7.1-1.1-.4-1.1-1.1z" class="st0"/>
  <path d="M168.6 168.8h80.5v25.8h-80.5v-25.8z" class="st1"/>
  <path d="M170.1 172.8l-.6 1.7h-.7l1.8-5.4h.8l1.8 5.4h-.7l-.6-1.7h-1.8zm1.7-.6l-.5-1.6c-.1-.4-.2-.7-.3-1-.1.3-.2.6-.3 1l-.5 1.6h1.6z" class="st0"/>
  <path d="M175.8 171.9v-1.3h.6v.7c.3-.5.7-.8 1.4-.8.9 0 1.6.8 1.6 2 0 1.4-.8 2.1-1.8 2.1-.5 0-1-.2-1.2-.6v2.1h-.7l.1-4.2zm.7 1v.3c.1.5.6.8 1.1.8.7 0 1.2-.6 1.2-1.5 0-.8-.4-1.4-1.2-1.4-.5 0-.9.3-1.1.9v.9z" class="st0"/>
  <path d="M181.1 169.5c0 .2-.2.4-.4.4s-.4-.2-.4-.4.2-.4.4-.4.4.2.4.4zm-.8 5v-3.9h.7v3.9h-.7z" class="st0"/>
  <path d="M182.2 171.6v-1h.6v.6c.2-.4.6-.7 1.3-.7.5 0 1.4.3 1.4 1.6v2.3h-.7v-2.2c0-.6-.2-1.1-.9-1.1-.5 0-.8.3-.9.7v2.6h-.7v-2.8h-.1z" class="st0"/>
  <path d="M188.8 174.5l-.1-.5c-.2.3-.6.6-1.2.6-.8 0-1.2-.6-1.2-1.1 0-.9.8-1.4 2.3-1.4v-.1c0-.3-.1-.9-.9-.9-.4 0-.7.1-1 .3l-.2-.5c.3-.2.8-.3 1.3-.3 1.2 0 1.5.8 1.5 1.6v1.4c0 .3 0 .7.1.9h-.6zm-.1-2c-.8 0-1.6.1-1.6.9 0 .5.3.7.7.7.5 0 .8-.3.9-.6v-1z" class="st0"/>
  <path d="M194.9 174.3c-.2.1-.6.2-1.1.2-1.2 0-1.9-.8-1.9-2s.8-2.1 2.1-2.1c.4 0 .8.1 1 .2l-.2.5c-.2-.1-.4-.2-.8-.2-.9 0-1.4.7-1.4 1.5 0 .9.6 1.4 1.3 1.4.4 0 .7-.1.9-.2l.1.7z" class="st0"/>
  <path d="M199.2 172.5c0 1.4-1 2.1-1.9 2.1-1 0-1.9-.8-1.9-2 0-1.3.8-2.1 1.9-2.1 1.2 0 1.9.8 1.9 2zm-3 0c0 .8.5 1.5 1.2 1.5s1.2-.6 1.2-1.5c0-.7-.3-1.5-1.2-1.5s-1.2.8-1.2 1.5z" class="st0"/>
  <path d="M200.1 168.8h.7v5.7h-.7v-5.7z" class="st0"/>
  <path d="M204.1 174.5l-.1-.5c-.2.3-.6.6-1.2.6-.8 0-1.2-.6-1.2-1.1 0-.9.8-1.4 2.3-1.4v-.1c0-.3-.1-.9-.9-.9-.4 0-.7.1-1 .3l-.2-.5c.3-.2.8-.3 1.3-.3 1.2 0 1.5.8 1.5 1.6v1.4c0 .3 0 .7.1.9h-.6zm-.1-2c-.8 0-1.6.1-1.6.9 0 .5.3.7.7.7.5 0 .8-.3.9-.6v-1z" class="st0"/>
  <path d="M209.2 168.8v5.7h-.6v-.7c-.2.4-.7.8-1.3.8-.9 0-1.7-.8-1.7-2 0-1.3.8-2.1 1.7-2.1.6 0 1 .3 1.2.6v-2.3h.7zm-.7 3.4v-.3c-.1-.4-.5-.8-1-.8-.7 0-1.2.6-1.2 1.5 0 .8.4 1.4 1.1 1.4.5 0 .9-.3 1-.8l.1-1z" class="st0"/>
  <path d="M212.5 174.5l-.1-.5c-.2.3-.6.6-1.2.6-.8 0-1.2-.6-1.2-1.1 0-.9.8-1.4 2.3-1.4v-.1c0-.3-.1-.9-.9-.9-.4 0-.7.1-1 .3l-.2-.5c.3-.2.8-.3 1.3-.3 1.2 0 1.5.8 1.5 1.6v1.4c0 .3 0 .7.1.9h-.6zm-.1-2c-.8 0-1.6.1-1.6.9 0 .5.3.7.7.7.5 0 .8-.3.9-.6v-1z" class="st0"/>
  <path d="M215.9 168.8h.7v2.4c.1-.2.3-.4.5-.5s.5-.2.7-.2c.5 0 1.4.3 1.4 1.7v2.3h-.7v-2.2c0-.6-.2-1.2-.9-1.2-.5 0-.8.3-.9.7v2.6h-.7v-5.6h-.1z" class="st0"/>
  <path d="M222.5 174.5l-.1-.5c-.2.3-.6.6-1.2.6-.8 0-1.2-.6-1.2-1.1 0-.9.8-1.4 2.3-1.4v-.1c0-.3-.1-.9-.9-.9-.4 0-.7.1-1 .3l-.2-.5c.3-.2.8-.3 1.3-.3 1.2 0 1.5.8 1.5 1.6v1.4c0 .3 0 .7.1.9h-.6zm-.1-2c-.8 0-1.6.1-1.6.9 0 .5.3.7.7.7.5 0 .8-.3.9-.6v-1z" class="st0"/>
  <path d="M224.1 173.7c.2.1.6.3.9.3.5 0 .8-.3.8-.6s-.2-.5-.7-.7c-.7-.2-1-.6-1-1.1 0-.6.5-1.1 1.3-1.1.4 0 .7.1 1 .2l-.2.5c-.2-.1-.4-.2-.8-.2s-.6.2-.6.5.2.5.7.7c.7.3 1 .6 1 1.2 0 .7-.5 1.2-1.4 1.2-.4 0-.8-.1-1.1-.3l.1-.6z" class="st0"/>
  <path d="M169.1 183.3c.2.1.6.3.9.3.5 0 .8-.3.8-.6s-.2-.5-.7-.7c-.7-.2-1-.6-1-1.1 0-.6.5-1.1 1.3-1.1.4 0 .7.1 1 .2l-.2.5c-.2-.1-.4-.2-.8-.2s-.6.2-.6.5.2.5.7.7c.7.3 1 .6 1 1.2 0 .7-.5 1.2-1.4 1.2-.4 0-.8-.1-1.1-.3l.1-.6z" class="st0"/>
  <path d="M173.1 179.1c0 .2-.2.4-.4.4s-.4-.2-.4-.4.2-.4.4-.4c.3 0 .4.2.4.4zm-.8 5v-3.9h.7v3.9h-.7z" class="st0"/>
  <path d="M174.2 181.2v-1h.6v.6c.2-.4.6-.7 1.2-.7.5 0 .9.3 1.1.8.1-.2.3-.4.4-.5.2-.2.5-.3.9-.3.5 0 1.3.3 1.3 1.7v2.3h-.7v-2.2c0-.7-.3-1.2-.8-1.2-.4 0-.7.3-.8.6 0 .1-.1.2-.1.4v2.4h-.7v-2.3c0-.6-.3-1.1-.8-1.1-.4 0-.8.4-.9.7 0 .1-.1.2-.1.3v2.3h-.7v-2.8h.1z" class="st0"/>
  <path d="M181.7 179.1c0 .2-.2.4-.4.4s-.4-.2-.4-.4.2-.4.4-.4.4.2.4.4zm-.8 5v-3.9h.7v3.9h-.7z" class="st0"/>
  <path d="M182.8 178.4h.7v5.7h-.7v-5.7z" class="st0"/>
  <path d="M186.8 184.1l-.1-.5c-.2.3-.6.6-1.2.6-.8 0-1.2-.6-1.2-1.1 0-.9.8-1.4 2.3-1.4v-.1c0-.3-.1-.9-.9-.9-.4 0-.7.1-1 .3l-.2-.5c.3-.2.8-.3 1.3-.3 1.2 0 1.5.8 1.5 1.6v1.4c0 .3 0 .7.1.9h-.6zm-.1-2c-.8 0-1.6.1-1.6.9 0 .5.3.7.7.7.5 0 .8-.3.9-.6v-1z" class="st0"/>
  <path d="M188.5 181.4v-1.2h.6v.8c.2-.5.6-.8 1.1-.8h.2v.7h-.2c-.5 0-.8.4-.9.9v2.4h-.7v-2.8h-.1z" class="st0"/>
  <path d="M195.6 183.9c-.2.1-.6.2-1.1.2-1.2 0-1.9-.8-1.9-2s.8-2.1 2.1-2.1c.4 0 .8.1 1 .2l-.2.5c-.2-.1-.4-.2-.8-.2-.9 0-1.4.7-1.4 1.5 0 .9.6 1.4 1.3 1.4.4 0 .7-.1.9-.2l.1.7z" class="st0"/>
  <path d="M198.5 184.1l-.1-.5c-.2.3-.6.6-1.2.6-.8 0-1.2-.6-1.2-1.1 0-.9.8-1.4 2.3-1.4v-.1c0-.3-.1-.9-.9-.9-.4 0-.7.1-1 .3l-.2-.5c.3-.2.8-.3 1.3-.3 1.2 0 1.5.8 1.5 1.6v1.4c0 .3 0 .7.1.9h-.6zm-.1-2c-.8 0-1.6.1-1.6.9 0 .5.3.7.7.7.5 0 .8-.3.9-.6v-1z" class="st0"/>
  <path d="M200.3 178.4h.7v5.7h-.7v-5.7z" class="st0"/>
  <path d="M205.7 182.1c0 1.4-1 2.1-1.9 2.1-1 0-1.9-.8-1.9-2 0-1.3.8-2.1 1.9-2.1 1.1 0 1.9.8 1.9 2zm-3.1 0c0 .8.5 1.5 1.2 1.5s1.2-.6 1.2-1.5c0-.7-.3-1.5-1.2-1.5s-1.2.8-1.2 1.5z" class="st0"/>
  <path d="M206.5 181.4v-1.2h.6v.8c.2-.5.6-.8 1.1-.8h.2v.7h-.2c-.5 0-.8.4-.9.9v2.4h-.7v-2.8h-.1z" class="st0"/>
  <path d="M210 179.1c0 .2-.2.4-.4.4s-.4-.2-.4-.4.2-.4.4-.4.4.2.4.4zm-.8 5v-3.9h.7v3.9h-.7z" class="st0"/>
  <path d="M211.5 182.3c0 1 .6 1.3 1.3 1.3.5 0 .8-.1 1.1-.2l.1.5c-.2.1-.7.2-1.3.2-1.2 0-1.9-.8-1.9-2s.7-2.1 1.8-2.1c1.3 0 1.6 1.1 1.6 1.8v.3h-2.7v.2zm2-.5c0-.4-.2-1.1-1-1.1-.7 0-1 .7-1.1 1.1h2.1z" class="st0"/>
  <path d="M215 183.3c.2.1.6.3.9.3.5 0 .8-.3.8-.6s-.2-.5-.7-.7c-.7-.2-1-.6-1-1.1 0-.6.5-1.1 1.3-1.1.4 0 .7.1 1 .2l-.2.5c-.2-.1-.4-.2-.8-.2s-.6.2-.6.5.2.5.7.7c.7.3 1 .6 1 1.2 0 .7-.5 1.2-1.4 1.2-.4 0-.8-.1-1.1-.3l.1-.6z" class="st0"/>
  <path d="M220.8 179.1v1.1h1v.5h-1v2.1c0 .5.1.8.5.8h.4v.5c-.1.1-.4.1-.6.1-.3 0-.6-.1-.8-.3s-.3-.6-.3-1v-2.1h-.6v-.5h.6v-.9l.8-.3z" class="st0"/>
  <path d="M226 182.1c0 1.4-1 2.1-1.9 2.1-1 0-1.9-.8-1.9-2 0-1.3.8-2.1 1.9-2.1 1.2 0 1.9.8 1.9 2zm-3 0c0 .8.5 1.5 1.2 1.5s1.2-.6 1.2-1.5c0-.7-.3-1.5-1.2-1.5s-1.2.8-1.2 1.5z" class="st0"/>
  <path d="M230.8 184.1l-.1-.5c-.2.3-.6.6-1.2.6-.8 0-1.2-.6-1.2-1.1 0-.9.8-1.4 2.3-1.4v-.1c0-.3-.1-.9-.9-.9-.4 0-.7.1-1 .3l-.2-.5c.3-.2.8-.3 1.3-.3 1.2 0 1.5.8 1.5 1.6v1.4c0 .3 0 .7.1.9h-.6zm-.1-2c-.8 0-1.6.1-1.6.9 0 .5.3.7.7.7.5 0 .8-.3.9-.6v-1z" class="st0"/>
  <path d="M169.2 188.3c.4-.1.9-.1 1.5-.1 1 0 1.7.2 2.2.7.5.4.8 1.1.8 1.9 0 .9-.3 1.6-.8 2.1s-1.3.8-2.4.8c-.5 0-.9 0-1.3-.1v-5.3zm.7 4.8h.7c1.5 0 2.3-.8 2.3-2.3 0-1.3-.7-2.1-2.2-2.1-.4 0-.6 0-.8.1v4.3z" class="st0"/>
  <path d="M179.1 190.9c0 1.9-1.1 2.8-2.5 2.8s-2.4-1.1-2.4-2.7c0-1.7 1.1-2.8 2.5-2.8 1.5 0 2.4 1.1 2.4 2.7zm-4.1.1c0 1.2.6 2.2 1.7 2.2s1.7-1 1.7-2.2c0-1.1-.6-2.2-1.7-2.2-1.2 0-1.7 1-1.7 2.2z" class="st0"/>
  <path d="M180.7 188.3v3.2c0 1.2.5 1.7 1.3 1.7s1.3-.5 1.3-1.7v-3.2h.7v3.1c0 1.7-.9 2.3-2 2.3s-1.9-.6-1.9-2.3v-3.2l.6.1z" class="st0"/>
  <path d="M189.3 193.4c-.3.1-.9.3-1.7.3s-1.5-.2-2-.7c-.5-.4-.8-1.2-.8-2 0-1.6 1.1-2.8 2.9-2.8.6 0 1.1.1 1.3.2v.6c-.3-.1-.6-.2-1.2-.2-1.3 0-2.2.8-2.2 2.2s.8 2.2 2.1 2.2c.5 0 .8-.1.9-.1v-1.6h-1.1v-.6h1.8v2.5z" class="st0"/>
  <path d="M191.1 188.3v2.3h2.6v-2.3h.7v5.4h-.7v-2.5h-2.6v2.5h-.7v-5.4h.7z" class="st0"/>
  <path d="M195.6 193.7v-5.4h.8l1.7 2.7c.4.6.7 1.2 1 1.8-.1-.7-.1-1.4-.1-2.2v-2.3h.7v5.4h-.7l-1.7-2.7c-.4-.6-.7-1.2-1-1.8 0 .7.1 1.3.1 2.2v2.3h-.8z" class="st0"/>
  <path d="M201.6 188.3v3.2c0 1.2.5 1.7 1.3 1.7s1.3-.5 1.3-1.7v-3.2h.7v3.1c0 1.7-.9 2.3-2 2.3s-1.9-.6-1.9-2.3v-3.2l.6.1z" class="st0"/>
  <path d="M207.1 188.9h-1.6v-.6h4v.6h-1.6v4.8h-.7l-.1-4.8z" class="st0"/>
  <path d="M83.1 177.6h12.6v2.8H83.1v-2.8z" class="st2"/>
  <path d="M83.1 183.1h12.6v2.8H83.1v-2.8z" class="st2"/>
  <path d="M51.1 209.8s-5.2.8-5 1.8c0 0-1 1.5 4.7 1.9 0 0 6.2.5 13.5-.1 0 0 2.9-.3 2.7-1.5 0 0 .7-1.3-5.1-2.1 0 0-.6-.2-1.8-1.4 0 0-1-1-1.2-1.5 0 0-.9-1.1-.8-5.5 0 0-.1-3.5 1.2-5.6 0 0 1.8-2.2 2.2-2.2 0 0 2.8-1.5 3.5-2.4 0 0 2.1-1.8 3.3-4.7 0 0 .9-1.9.8-4.9 0 0-1-5.5-2.6-11.6 0 0-.2-2.1-.2-2.5l.4.2s.2-.3.4-.2c0 0 0 .3.5.2 0 0 .2.4.5.3 0 0 .5.7.5.9h.3s.1.3.9.3c0 0 .5.1.4.8h.2s-.1.4.5.3c0 0 .2.1.1.4h.3s.2.4.7.2l.4.7h.4s.3.4.5.4c0 0 1.3-5.5-.8-8.4 0 0-3.2-4.5-5.2-5.4v-.4l.9-.6.1-.7-.5-.1.2-.9-.9-.3s0-.6-.4-.5l-.5-.2s1.4-4.4 1-4.8c0 0-.2-.4-.7.3 0 0-.3-.1-.9 4.2 0 0-1 0-1.3-.1 0 0-1.6-1-2-.9 0 0-1.2-.6-1.5-.4 0 0-.1.1.1.2h-.1s-.4-.3-.8-.2c0 0-.1.1.1.3 0 0-.8-.2-1 .4h-1.4s0 .7 1 .8h.4s.6.6 3.4.6c0 0-2.9 1.6-4.1 2.1h-.6s-.1-.5-.6-.4c0 0-.5.1-.9.6h-.2l-.6-.5s-.1-.1-.2 0c0 0-.2.2-.3.2 0 0-.6-.9-1.1-1.1 0 0-.3-.1-.5 0 0 0-.4.2-.4.6v1s0 .1.1.2l-.4.1s-.1 0-.2.2l-.2.3s-.3 0-.5.1c0 0-1.9.1-2.4.6 0 0-.3.1-.2.7 0 0-.8.1-.9.5h-1.8s-.3.1-.2.4c0 0 1.1 3.4 1.1 4 0 0 .4 3.4-.2 5.7v.1c-.7 2.3-2.6 9.1-2.7 11 0 0-.7 5.9 4.6 10.3 0 0 1.4 1 2.5 1.6 0 0 2.6 2 3.2 3.8 0 0 .1.4.4 4.9 0 0 .2 2.6-1.1 5.2-.3.2-2.2 2.4-3 2.7z" class="st3"/>
  <path d="M117 166.5s5.9-5.6 12.2-5.2c0 0 2.6-1.3 6.2-.4 0 0 6.2-.6 8.7 2 0 0 .6-.1 1.4.6 0 0 1.1 1.1 1.6 1.2 0 0 .5-.1 1.6 1.4 0 0 1.8.4 1.8 1.2 0 0 .4.9.8 1.2 0 0 .8.4 1.2 1.6 0 0 1.3 1.3 2.3 3.7 0 0 1.4 3.2 1.4 3.9 0 0 .7 3.9.3 5 0 0-.3 4.9-.9 5.9 0 0 .1.6-2.9 5.5 0 0-2.3 3.7-6.9 5.2 0 0-2.4.9-2.6 1.2 0 0-5.8 3.1-12 2.1 0 0-.3-.2-.7-.2 0 0-3.8.5-6.1-1 0 0-.1-.2-.3-.2 0 0-1.8.1-4.1-2.3 0 0-1.4-1.3-1.7-1.5 0 0-.6 0-.5-.3 0 0-.6 0-.5-.6 0 0-3.2-2.4-3.3-3.2 0 0-1.7-1.7-1.7-2.8 0 0-.1-1.2-.4-1.4 0 0-1-2-1.3-2.3 0 0-1.2-1.9-.6-3.1 0 0 0-1.3.5-1.9 0 0 .1-1.7-.2-2 0 0-.1-.3-.1-.9 0 0-.6-1.1.8-2.7 0 0 .7-.7.9-1.2 0 0-.1-.7.5-1.3 0 0-.8-.5 0-.8 0 0 .9-2.3 1.5-2.3 0 0-.2-.8.6-1.8.1.3 1.6-1.6 2.5-2.3z" class="st4"/>
  <path d="M127.5 176.3s2.1-2 4.3-1.9c0 0 .9-.5 2.2-.1 0 0 2.2-.2 3.1.7 0 0 .2 0 .5.2 0 0 .4.4.6.4 0 0 .2 0 .6.5 0 0 .6.1.6.4 0 0 .2.3.3.4 0 0 .3.1.4.6 0 0 .5.5.8 1.3 0 0 .5 1.1.5 1.4 0 0 .2 1.4.1 1.8 0 0-.1 1.7-.3 2.1 0 0 .1.2-1 1.9 0 0-.8 1.3-2.4 1.8 0 0-.9.3-.9.4 0 0-2 1.1-4.3.7 0 0-.1-.1-.2-.1 0 0-1.3.2-2.2-.4l-.1-.1s-.7 0-1.4-.8c0 0-.5-.5-.6-.5 0 0-.2 0-.2-.1 0 0-.2 0-.2-.2 0 0-1.1-.8-1.2-1.1 0 0-.6-.6-.6-1 0 0 0-.4-.1-.5 0 0-.3-.7-.5-.8 0 0-.4-.7-.2-1.1 0 0 0-.5.2-.7 0 0 0-.6-.1-.7 0 0-.1-.1 0-.3 0 0-.2-.4.3-.9 0 0 .3-.2.3-.4 0 0 0-.2.2-.4 0 0-.3-.2 0-.3 0 0 .3-.8.5-.8 0 0-.1-.3.2-.6 0 .1.5-.5.8-.8z" class="st5"/>
  <path d="M168.6 267.5h80.5v25.3h-80.5v-25.3z" class="st1"/>
  <path d="M170.1 271.5l-.6 1.7h-.7l1.8-5.4h.8l1.8 5.4h-.7l-.6-1.7h-1.8zm1.7-.5l-.5-1.6c-.1-.4-.2-.7-.3-1-.1.3-.2.6-.3 1l-.5 1.6h1.6z" class="st0"/>
  <path d="M179.1 269.3v3.3c0 .9-.2 1.4-.6 1.8-.4.4-.9.5-1.4.5s-1-.1-1.3-.3l.2-.5c.3.2.7.3 1.1.3.7 0 1.2-.4 1.2-1.4v-.4c-.2.4-.6.6-1.2.6-1 0-1.6-.8-1.6-1.9 0-1.3.9-2.1 1.7-2.1.7 0 1 .4 1.2.7v-.6h.7zm-.7 1.6v-.3c-.1-.4-.5-.7-1-.7-.7 0-1.2.6-1.2 1.5 0 .8.4 1.4 1.1 1.4.4 0 .8-.3 1-.7 0-.1.1-.3.1-.4v-.8z" class="st0"/>
  <path d="M180.2 267.5h.7v5.7h-.7v-5.7z" class="st0"/>
  <path d="M184.3 273.2l-.1-.5c-.2.3-.6.6-1.2.6-.8 0-1.2-.6-1.2-1.1 0-.9.8-1.4 2.3-1.4v-.1c0-.3-.1-.9-.9-.9-.4 0-.7.1-1 .3l-.2-.5c.3-.2.8-.3 1.3-.3 1.2 0 1.5.8 1.5 1.6v1.4c0 .3 0 .7.1.9h-.6zm-.1-2c-.8 0-1.6.1-1.6.9 0 .5.3.7.7.7.5 0 .8-.3.9-.6v-1z" class="st0"/>
  <path d="M185.9 272.5c.2.1.6.3.9.3.5 0 .8-.3.8-.6s-.2-.5-.7-.7c-.7-.2-1-.6-1-1.1 0-.6.5-1.1 1.3-1.1.4 0 .7.1 1 .2l-.2.5c-.2-.1-.4-.2-.8-.2s-.6.2-.6.5.2.5.7.7c.7.3 1 .6 1 1.2 0 .7-.5 1.2-1.4 1.2-.4 0-.8-.1-1.1-.3l.1-.6z" class="st0"/>
  <path d="M189.1 272.5c.2.1.6.3.9.3.5 0 .8-.3.8-.6s-.2-.5-.7-.7c-.7-.2-1-.6-1-1.1 0-.6.5-1.1 1.3-1.1.4 0 .7.1 1 .2l-.2.5c-.2-.1-.4-.2-.8-.2s-.6.2-.6.5.2.5.7.7c.7.3 1 .6 1 1.2 0 .7-.5 1.2-1.4 1.2-.4 0-.8-.1-1.1-.3l.1-.6z" class="st0"/>
  <path d="M197.5 271.2c0 1.4-1 2.1-1.9 2.1-1 0-1.9-.8-1.9-2 0-1.3.8-2.1 1.9-2.1 1.2 0 1.9.8 1.9 2zm-3 .1c0 .8.5 1.5 1.2 1.5s1.2-.6 1.2-1.5c0-.7-.3-1.5-1.2-1.5s-1.2.7-1.2 1.5z" class="st0"/>
  <path d="M198.5 273.2v-3.3h-.5v-.5h.5v-.2c0-.5.1-1 .4-1.4.3-.3.6-.4.9-.4.2 0 .5.1.6.1l-.1.5c-.1 0-.2-.1-.4-.1-.6 0-.8.5-.8 1.1v.2h.9v.5h-.9v3.3h-.6v.2z" class="st0"/>
  <path d="M202.7 269.3l.5 2 .3 1.2.3-1.2.6-2h.6l.6 1.9c.1.5.3.9.3 1.3.1-.4.2-.8.3-1.3l.6-1.9h.7l-1.2 3.9h-.6l-.6-1.8c-.1-.4-.2-.8-.3-1.3-.1.5-.2.9-.4 1.3l-.6 1.8h-.6l-1.2-3.9h.7z" class="st0"/>
  <path d="M209.1 268.2c0 .2-.2.4-.4.4s-.4-.2-.4-.4.2-.4.4-.4.4.2.4.4zm-.8 5v-3.9h.7v3.9h-.7z" class="st0"/>
  <path d="M210.2 270.4v-1h.6v.6c.2-.4.6-.7 1.3-.7.5 0 1.4.3 1.4 1.6v2.3h-.7V271c0-.6-.2-1.1-.9-1.1-.5 0-.8.3-.9.7v2.6h-.7v-2.8h-.1z" class="st0"/>
  <path d="M215 271.4c0 1 .6 1.3 1.3 1.3.5 0 .8-.1 1.1-.2l.1.5c-.2.1-.7.2-1.3.2-1.2 0-1.9-.8-1.9-2s.7-2.1 1.8-2.1c1.3 0 1.6 1.1 1.6 1.8v.3H215v.2zm2.1-.5c0-.4-.2-1.1-1-1.1-.7 0-1 .7-1.1 1.1h2.1z" class="st0"/>
  <path d="M220.3 267.5h.7v2.4c.1-.2.3-.4.5-.5s.5-.2.7-.2c.5 0 1.4.3 1.4 1.7v2.3h-.7V271c0-.6-.2-1.2-.9-1.2-.5 0-.8.3-.9.7v2.6h-.7v-5.6h-.1z" class="st0"/>
  <path d="M226.9 273.2l-.1-.5c-.2.3-.6.6-1.2.6-.8 0-1.2-.6-1.2-1.1 0-.9.8-1.4 2.3-1.4v-.1c0-.3-.1-.9-.9-.9-.4 0-.7.1-1 .3l-.2-.5c.3-.2.8-.3 1.3-.3 1.2 0 1.5.8 1.5 1.6v1.4c0 .3 0 .7.1.9h-.6zm-.1-2c-.8 0-1.6.1-1.6.9 0 .5.3.7.7.7.5 0 .8-.3.9-.6v-1z" class="st0"/>
  <path d="M228.5 272.5c.2.1.6.3.9.3.5 0 .8-.3.8-.6s-.2-.5-.7-.7c-.7-.2-1-.6-1-1.1 0-.6.5-1.1 1.3-1.1.4 0 .7.1 1 .2l-.2.5c-.2-.1-.4-.2-.8-.2s-.6.2-.6.5.2.5.7.7c.7.3 1 .6 1 1.2 0 .7-.5 1.2-1.4 1.2-.4 0-.8-.1-1.1-.3l.1-.6z" class="st0"/>
  <path d="M169.1 282.1c.2.1.6.3.9.3.5 0 .8-.3.8-.6s-.2-.5-.7-.7c-.7-.2-1-.6-1-1.1 0-.6.5-1.1 1.3-1.1.4 0 .7.1 1 .2l-.2.5c-.2-.1-.4-.2-.8-.2s-.6.2-.6.5.2.5.7.7c.7.3 1 .6 1 1.2 0 .7-.5 1.2-1.4 1.2-.4 0-.8-.1-1.1-.3l.1-.6z" class="st0"/>
  <path d="M173.1 277.8c0 .2-.2.4-.4.4s-.4-.2-.4-.4.2-.4.4-.4c.3 0 .4.2.4.4zm-.8 5v-3.9h.7v3.9h-.7z" class="st0"/>
  <path d="M174.2 280v-1h.6v.6c.2-.4.6-.7 1.2-.7.5 0 .9.3 1.1.8.1-.2.3-.4.4-.5.2-.2.5-.3.9-.3.5 0 1.3.3 1.3 1.7v2.3h-.7v-2.2c0-.7-.3-1.2-.8-1.2-.4 0-.7.3-.8.6 0 .1-.1.2-.1.4v2.4h-.7v-2.3c0-.6-.3-1.1-.8-1.1-.4 0-.8.4-.9.7 0 .1-.1.2-.1.3v2.3h-.7V280h.1z" class="st0"/>
  <path d="M181.7 277.8c0 .2-.2.4-.4.4s-.4-.2-.4-.4.2-.4.4-.4.4.2.4.4zm-.8 5v-3.9h.7v3.9h-.7z" class="st0"/>
  <path d="M182.8 277.1h.7v5.7h-.7v-5.7z" class="st0"/>
  <path d="M186.8 282.8l-.1-.5c-.2.3-.6.6-1.2.6-.8 0-1.2-.6-1.2-1.1 0-.9.8-1.4 2.3-1.4v-.1c0-.3-.1-.9-.9-.9-.4 0-.7.1-1 .3l-.2-.5c.3-.2.8-.3 1.3-.3 1.2 0 1.5.8 1.5 1.6v1.4c0 .3 0 .7.1.9h-.6zm-.1-2c-.8 0-1.6.1-1.6.9 0 .5.3.7.7.7.5 0 .8-.3.9-.6v-1z" class="st0"/>
  <path d="M188.5 280.1v-1.2h.6v.8c.2-.5.6-.8 1.1-.8h.2v.7h-.2c-.5 0-.8.4-.9.9v2.4h-.7v-2.8h-.1z" class="st0"/>
  <path d="M195.6 282.7c-.2.1-.6.2-1.1.2-1.2 0-1.9-.8-1.9-2s.8-2.1 2.1-2.1c.4 0 .8.1 1 .2l-.2.5c-.2-.1-.4-.2-.8-.2-.9 0-1.4.7-1.4 1.5 0 .9.6 1.4 1.3 1.4.4 0 .7-.1.9-.2l.1.7z" class="st0"/>
  <path d="M198.5 282.8l-.1-.5c-.2.3-.6.6-1.2.6-.8 0-1.2-.6-1.2-1.1 0-.9.8-1.4 2.3-1.4v-.1c0-.3-.1-.9-.9-.9-.4 0-.7.1-1 .3l-.2-.5c.3-.2.8-.3 1.3-.3 1.2 0 1.5.8 1.5 1.6v1.4c0 .3 0 .7.1.9h-.6zm-.1-2c-.8 0-1.6.1-1.6.9 0 .5.3.7.7.7.5 0 .8-.3.9-.6v-1z" class="st0"/>
  <path d="M200.3 277.1h.7v5.7h-.7v-5.7z" class="st0"/>
  <path d="M205.7 280.8c0 1.4-1 2.1-1.9 2.1-1 0-1.9-.8-1.9-2 0-1.3.8-2.1 1.9-2.1 1.1 0 1.9.8 1.9 2zm-3.1.1c0 .8.5 1.5 1.2 1.5s1.2-.6 1.2-1.5c0-.7-.3-1.5-1.2-1.5s-1.2.7-1.2 1.5z" class="st0"/>
  <path d="M206.5 280.1v-1.2h.6v.8c.2-.5.6-.8 1.1-.8h.2v.7h-.2c-.5 0-.8.4-.9.9v2.4h-.7v-2.8h-.1z" class="st0"/>
  <path d="M210 277.8c0 .2-.2.4-.4.4s-.4-.2-.4-.4.2-.4.4-.4.4.2.4.4zm-.8 5v-3.9h.7v3.9h-.7z" class="st0"/>
  <path d="M211.5 281c0 1 .6 1.3 1.3 1.3.5 0 .8-.1 1.1-.2l.1.5c-.2.1-.7.2-1.3.2-1.2 0-1.9-.8-1.9-2s.7-2.1 1.8-2.1c1.3 0 1.6 1.1 1.6 1.8v.3h-2.7v.2zm2-.5c0-.4-.2-1.1-1-1.1-.7 0-1 .7-1.1 1.1h2.1z" class="st0"/>
  <path d="M215 282.1c.2.1.6.3.9.3.5 0 .8-.3.8-.6s-.2-.5-.7-.7c-.7-.2-1-.6-1-1.1 0-.6.5-1.1 1.3-1.1.4 0 .7.1 1 .2l-.2.5c-.2-.1-.4-.2-.8-.2s-.6.2-.6.5.2.5.7.7c.7.3 1 .6 1 1.2 0 .7-.5 1.2-1.4 1.2-.4 0-.8-.1-1.1-.3l.1-.6z" class="st0"/>
  <path d="M220.8 277.8v1.1h1v.5h-1v2.1c0 .5.1.8.5.8h.4v.5c-.1.1-.4.1-.6.1-.3 0-.6-.1-.8-.3-.2-.2-.3-.6-.3-1v-2.1h-.6v-.5h.6v-1l.8-.2z" class="st0"/>
  <path d="M226 280.8c0 1.4-1 2.1-1.9 2.1-1 0-1.9-.8-1.9-2 0-1.3.8-2.1 1.9-2.1 1.2 0 1.9.8 1.9 2zm-3 .1c0 .8.5 1.5 1.2 1.5s1.2-.6 1.2-1.5c0-.7-.3-1.5-1.2-1.5s-1.2.7-1.2 1.5z" class="st0"/>
  <path d="M230.8 282.8l-.1-.5c-.2.3-.6.6-1.2.6-.8 0-1.2-.6-1.2-1.1 0-.9.8-1.4 2.3-1.4v-.1c0-.3-.1-.9-.9-.9-.4 0-.7.1-1 .3l-.2-.5c.3-.2.8-.3 1.3-.3 1.2 0 1.5.8 1.5 1.6v1.4c0 .3 0 .7.1.9h-.6zm-.1-2c-.8 0-1.6.1-1.6.9 0 .5.3.7.7.7.5 0 .8-.3.9-.6v-1z" class="st0"/>
  <path d="M169.1 291.6c.3.2.8.4 1.2.4.7 0 1.1-.4 1.1-.9s-.3-.8-1-1.1c-.9-.3-1.4-.8-1.4-1.5 0-.8.7-1.5 1.7-1.5.6 0 1 .1 1.2.3l-.2.6c-.2-.1-.5-.3-1-.3-.7 0-1 .4-1 .8 0 .5.3.8 1.1 1 .9.4 1.4.8 1.4 1.6s-.6 1.6-1.9 1.6c-.5 0-1.1-.2-1.4-.3l.2-.7z" class="st0"/>
  <path d="M173.1 287h.7v4.8h2.3v.6h-3V287z" class="st0"/>
  <path d="M177.6 287v5.4h-.7V287h.7z" class="st0"/>
  <path d="M182.6 292.2c-.3.1-.8.3-1.4.3-1.5 0-2.7-1-2.7-2.7s1.1-2.8 2.8-2.8c.7 0 1.1.1 1.3.2l-.2.6c-.3-.1-.6-.2-1.1-.2-1.3 0-2.1.8-2.1 2.2 0 1.3.8 2.2 2.1 2.2.4 0 .9-.1 1.1-.2l.2.4z" class="st0"/>
  <path d="M186.3 289.9h-2.1v1.9h2.3v.6h-3V287h2.9v.6h-2.2v1.7h2.1v.6z" class="st0"/>
  <path d="M193.7 289.6c0 1.9-1.1 2.8-2.5 2.8s-2.4-1.1-2.4-2.7c0-1.7 1.1-2.8 2.5-2.8 1.5 0 2.4 1.1 2.4 2.7zm-4.2.1c0 1.2.6 2.2 1.7 2.2s1.7-1 1.7-2.2c0-1.1-.6-2.2-1.7-2.2s-1.7 1.1-1.7 2.2z" class="st0"/>
  <path d="M194.6 287h2.9v.6h-2.2v1.8h2v.6h-2v2.4h-.7V287z" class="st0"/>
  <path d="M204 292.2c-.3.1-.8.3-1.4.3-1.5 0-2.7-1-2.7-2.7s1.1-2.8 2.8-2.8c.7 0 1.1.1 1.3.2l-.2.6c-.3-.1-.6-.2-1.1-.2-1.3 0-2.1.8-2.1 2.2 0 1.3.8 2.2 2.1 2.2.4 0 .9-.1 1.1-.2l.2.4z" class="st0"/>
  <path d="M205.8 290.7l-.6 1.7h-.7l1.8-5.4h.8l1.8 5.4h-.7l-.6-1.7h-1.8zm1.7-.5l-.5-1.6c-.1-.4-.2-.7-.3-1-.1.3-.2.6-.3 1l-.5 1.6h1.6z" class="st0"/>
  <path d="M209.8 287h.7v2.6c.1-.2.3-.4.4-.6l1.6-2h.9l-2 2.3 2.1 3.1h-.8l-1.8-2.6-.5.6v2.1h-.7V287h.1z" class="st0"/>
  <path d="M216.9 289.9h-2.1v1.9h2.3v.6h-3V287h2.9v.6h-2.2v1.7h2.1v.6z" class="st0"/>
  <path d="M82.7 275.9h12.8v2.8H82.7v-2.8z" class="st2"/>
  <path d="M82.7 281.6h12.8v2.8H82.7v-2.8z" class="st2"/>
  <path d="M69.8 247.9H45c-.5 0-1 .3-1.2.8-1.3 2.6-4.8 11.1-.6 19 0 0 0 .1.1.1.3.7 2.9 6.8 10.9 9.8.3.1.5.3.7.6.4.7 1.2 2.1 1.2 3.3l-.2 19.7c0 1-.3 2.1-.9 2.9-.3.4-.6.8-1 1.3-.2.2-.5.3-.8.4-1.7.2-7.9 1.1-7.7 3.3v.1c0 .5.4 2.9 11.6 3.3 11.3-.4 11.7-3 11.6-3.3v-.1c.2-2.2-6-3.1-7.7-3.3-.3 0-.6-.2-.8-.4-.5-.6-.9-1.1-1.2-1.5-.5-.7-.7-1.6-.7-2.5l-.2-19.9c0-1.2.8-2.6 1.2-3.3.2-.3.4-.5.7-.6 8.1-3 10.7-9.1 10.9-9.8 0 0 0-.1.1-.1 4.2-7.9.7-16.5-.6-19-.2-.5-.7-.8-1.2-.8H44.3" class="st6"/>
  <path d="M110.9 280.8s.6-1.1.5-1.7c0 0 12-13 23.8-23 0 0 .8-.3 2.2.5 0 0 .2.2.7.3 0 0 .9 0 1.7.9 0 0 .3.3.8.4 0 0 .5.2.5.3 0 0 .5-.1 1.1.4 0 0 .3.1.6.1 0 0 1.2.2 1.6.9 0 0 .1.2.4.3 0 0 1.8-.7 4.8 2.9 0 0 3 1.8 4.2 3.1 0 0 1.5-.1 2.9 2.1 0 0-.3.4 0 .8 0 0 1.3 1 1.7 2.1 0 0 .5.8.5 1.8v19s.5 0 .1.4c0 0-.8 1-.8 1.2 0 0 .8.1.6.5 0 0-.2.3-.4.3 0 0-.1-.6-.6-.3 0 0-.3.4-.1.6 0 0 .1.7-1.2.9 0 0-.3.1-.7.1 0 0 .3.3-.1.3h-.7s-.2.2-.1.4l-1.4-.2s0 .5-.8.3c0 0-.1.3-1.3.2 0 0 0 .7-.4.7 0 0-.6 0-.6-.7 0 0-.5 0-.8-.2 0 0-.3-.1-.4 0 0 0-.5.7-1.3.7l-10.7 2.2s-.9.9-1.2.2l-2.6.4s-.5.7-2.9.5h-.2s-.1.4-1 .3l-6.5 1.1s-.4-.2-.9.3c0 0-.2.2-1.2 0 0 0 0 .5-.3.5 0 0-.2.1-.1-.4 0 0-.4.5-1.5.3 0 0-.6 0-.7.4 0 0-.1.7-.4.1 0 0-.5-.3-.9 0 0 0-1 0-1.4.7 0 0-.2.1-.6 0 0 0 0 .4-.2.4 0 0-.4 0-.2-.5 0 0-1-.2-1.3 0 0 0-.3.2-.9.1 0 0-.6.1-1.1.5 0 0-.4.1-.6-.2 0 0-1.1-.7-.9-1.9 0 0 .4-1-.2-1.3 0 0-.2-.6.2-1.2 0 0-.5-.4-.3-1.6 0 0-.8-.2-.6-.5 0 0 .2-.1.3-.3 0 0-.5-2.2.5-2.6v-2.4s-.8 0-.9-.2c0 0 .4-.3.5-.7 0 0 .2-.6.8-.8 0 0 0-1.4.6-1.4v-1.3s-.8-.4-.3-1.1c0 0 0-1.4-.2-1.6 0 0-.4-.3-.3-.8 0 0-.8-.5-.2-.9 0 0 .1-.6 0-.7 0 0-.7-.2 0-.8.1 0 1.3-1 1.4-1.2z" class="st3"/>
  <path d="M168.6 443.8h80.5v26.6h-80.5v-26.6z" class="st1"/>
  <path d="M170.1 447.7l-.6 1.7h-.7l1.8-5.4h.8l1.8 5.4h-.7l-.6-1.7h-1.8zm1.7-.5l-.5-1.6c-.1-.4-.2-.7-.3-1-.1.3-.2.6-.3 1l-.5 1.6h1.6z" class="st0"/>
  <path d="M175.8 446.8v-1.3h.6v.7c.3-.5.7-.8 1.4-.8.9 0 1.6.8 1.6 2 0 1.4-.8 2.1-1.8 2.1-.5 0-1-.2-1.2-.6v2.1h-.7l.1-4.2zm.7 1.1v.3c.1.5.6.8 1.1.8.7 0 1.2-.6 1.2-1.5 0-.8-.4-1.4-1.2-1.4-.5 0-.9.3-1.1.9v.9z" class="st0"/>
  <path d="M181.1 444.5c0 .2-.2.4-.4.4s-.4-.2-.4-.4.2-.4.4-.4c.2-.1.4.1.4.4zm-.8 4.9v-3.9h.7v3.9h-.7z" class="st0"/>
  <path d="M182.2 446.6v-1h.6v.6c.2-.4.6-.7 1.3-.7.5 0 1.4.3 1.4 1.6v2.3h-.7v-2.2c0-.6-.2-1.1-.9-1.1-.5 0-.8.3-.9.7v2.6h-.7v-2.8h-.1z" class="st0"/>
  <path d="M187.5 444.5v1.1h1v.5h-1v2.1c0 .5.1.8.5.8h.4v.5c-.1.1-.4.1-.6.1-.3 0-.6-.1-.8-.3-.2-.2-.3-.6-.3-1v-2.1h-.6v-.5h.6v-.9l.8-.3z" class="st0"/>
  <path d="M194.5 447.5c0 1.4-1 2.1-1.9 2.1-1 0-1.9-.8-1.9-2 0-1.3.8-2.1 1.9-2.1 1.1 0 1.9.8 1.9 2zm-3.1 0c0 .8.5 1.5 1.2 1.5s1.2-.6 1.2-1.5c0-.7-.3-1.5-1.2-1.5s-1.2.8-1.2 1.5z" class="st0"/>
  <path d="M195.4 449.4v-3.3h-.5v-.5h.5v-.2c0-.5.1-1 .4-1.4.3-.3.6-.4.9-.4.2 0 .5.1.6.1l-.1.5c-.1 0-.2-.1-.4-.1-.6 0-.8.5-.8 1.1v.2h.9v.5h-.9v3.3h-.6v.2z" class="st0"/>
  <path d="M199.4 443.8h.7v5.7h-.7v-5.7z" class="st0"/>
  <path d="M203.4 449.4l-.1-.5c-.2.3-.6.6-1.2.6-.8 0-1.2-.6-1.2-1.1 0-.9.8-1.4 2.3-1.4v-.1c0-.3-.1-.9-.9-.9-.4 0-.7.1-1 .3l-.2-.5c.3-.2.8-.3 1.3-.3 1.2 0 1.5.8 1.5 1.6v1.4c0 .3 0 .7.1.9h-.6zm-.1-1.9c-.8 0-1.6.1-1.6.9 0 .5.3.7.7.7.5 0 .8-.3.9-.6v-1z" class="st0"/>
  <path d="M208.5 445.6v3.3c0 .9-.2 1.4-.6 1.8-.4.4-.9.5-1.4.5s-1-.1-1.3-.3l.2-.5c.3.2.7.3 1.1.3.7 0 1.2-.4 1.2-1.4v-.4c-.2.4-.6.6-1.2.6-1 0-1.6-.8-1.6-1.9 0-1.3.9-2.1 1.7-2.1.7 0 1 .4 1.2.7v-.6h.7zm-.8 1.5v-.3c-.1-.4-.5-.7-1-.7-.7 0-1.2.6-1.2 1.5 0 .8.4 1.4 1.1 1.4.4 0 .8-.3 1-.7 0-.1.1-.3.1-.4v-.8z" class="st0"/>
  <path d="M210 447.6c0 1 .6 1.3 1.3 1.3.5 0 .8-.1 1.1-.2l.1.5c-.2.1-.7.2-1.3.2-1.2 0-1.9-.8-1.9-2s.7-2.1 1.8-2.1c1.3 0 1.6 1.1 1.6 1.8v.3H210v.2zm2-.5c0-.4-.2-1.1-1-1.1-.7 0-1 .7-1.1 1.1h2.1z" class="st0"/>
  <path d="M213.6 446.8v-1.2h.6v.8c.2-.5.6-.8 1.1-.8h.2v.7h-.2c-.5 0-.8.4-.9.9v2.4h-.7v-2.8h-.1z" class="st0"/>
  <path d="M217.9 443.8h.7v2.4c.1-.2.3-.4.5-.5s.5-.2.7-.2c.5 0 1.4.3 1.4 1.7v2.3h-.7v-2.2c0-.6-.2-1.2-.9-1.2-.5 0-.8.3-.9.7v2.6h-.7v-5.6h-.1z" class="st0"/>
  <path d="M224.5 449.4l-.1-.5c-.2.3-.6.6-1.2.6-.8 0-1.2-.6-1.2-1.1 0-.9.8-1.4 2.3-1.4v-.1c0-.3-.1-.9-.9-.9-.4 0-.7.1-1 .3l-.2-.5c.3-.2.8-.3 1.3-.3 1.2 0 1.5.8 1.5 1.6v1.4c0 .3 0 .7.1.9h-.6zm-.1-1.9c-.8 0-1.6.1-1.6.9 0 .5.3.7.7.7.5 0 .8-.3.9-.6v-1z" class="st0"/>
  <path d="M226.1 448.7c.2.1.6.3.9.3.5 0 .8-.3.8-.6s-.2-.5-.7-.7c-.7-.2-1-.6-1-1.1 0-.6.5-1.1 1.3-1.1.4 0 .7.1 1 .2l-.2.5c-.2-.1-.4-.2-.8-.2s-.6.2-.6.5.2.5.7.7c.7.3 1 .6 1 1.2 0 .7-.5 1.2-1.4 1.2-.4 0-.8-.1-1.1-.3l.1-.6z" class="st0"/>
  <path d="M169.1 458.3c.2.1.6.3.9.3.5 0 .8-.3.8-.6s-.2-.5-.7-.7c-.7-.2-1-.6-1-1.1 0-.6.5-1.1 1.3-1.1.4 0 .7.1 1 .2l-.2.5c-.2-.1-.4-.2-.8-.2s-.6.2-.6.5.2.5.7.7c.7.3 1 .6 1 1.2 0 .7-.5 1.2-1.4 1.2-.4 0-.8-.1-1.1-.3l.1-.6z" class="st0"/>
  <path d="M173.1 454.1c0 .2-.2.4-.4.4s-.4-.2-.4-.4.2-.4.4-.4c.3-.1.4.1.4.4zm-.8 4.9v-3.9h.7v3.9h-.7z" class="st0"/>
  <path d="M174.2 456.2v-1h.6v.6c.2-.4.6-.7 1.2-.7.5 0 .9.3 1.1.8.1-.2.3-.4.4-.5.2-.2.5-.3.9-.3.5 0 1.3.3 1.3 1.7v2.3h-.7v-2.2c0-.7-.3-1.2-.8-1.2-.4 0-.7.3-.8.6 0 .1-.1.2-.1.4v2.4h-.7v-2.3c0-.6-.3-1.1-.8-1.1-.4 0-.8.4-.9.7 0 .1-.1.2-.1.3v2.3h-.7v-2.8h.1z" class="st0"/>
  <path d="M181.7 454.1c0 .2-.2.4-.4.4s-.4-.2-.4-.4.2-.4.4-.4c.2-.1.4.1.4.4zm-.8 4.9v-3.9h.7v3.9h-.7z" class="st0"/>
  <path d="M182.8 453.4h.7v5.7h-.7v-5.7z" class="st0"/>
  <path d="M186.8 459l-.1-.5c-.2.3-.6.6-1.2.6-.8 0-1.2-.6-1.2-1.1 0-.9.8-1.4 2.3-1.4v-.1c0-.3-.1-.9-.9-.9-.4 0-.7.1-1 .3l-.2-.5c.3-.2.8-.3 1.3-.3 1.2 0 1.5.8 1.5 1.6v1.4c0 .3 0 .7.1.9h-.6zm-.1-1.9c-.8 0-1.6.1-1.6.9 0 .5.3.7.7.7.5 0 .8-.3.9-.6v-1z" class="st0"/>
  <path d="M188.5 456.4v-1.2h.6v.8c.2-.5.6-.8 1.1-.8h.2v.7h-.2c-.5 0-.8.4-.9.9v2.4h-.7v-2.8h-.1z" class="st0"/>
  <path d="M195.6 458.9c-.2.1-.6.2-1.1.2-1.2 0-1.9-.8-1.9-2s.8-2.1 2.1-2.1c.4 0 .8.1 1 .2l-.2.5c-.2-.1-.4-.2-.8-.2-.9 0-1.4.7-1.4 1.5 0 .9.6 1.4 1.3 1.4.4 0 .7-.1.9-.2l.1.7z" class="st0"/>
  <path d="M198.5 459l-.1-.5c-.2.3-.6.6-1.2.6-.8 0-1.2-.6-1.2-1.1 0-.9.8-1.4 2.3-1.4v-.1c0-.3-.1-.9-.9-.9-.4 0-.7.1-1 .3l-.2-.5c.3-.2.8-.3 1.3-.3 1.2 0 1.5.8 1.5 1.6v1.4c0 .3 0 .7.1.9h-.6zm-.1-1.9c-.8 0-1.6.1-1.6.9 0 .5.3.7.7.7.5 0 .8-.3.9-.6v-1z" class="st0"/>
  <path d="M200.3 453.4h.7v5.7h-.7v-5.7z" class="st0"/>
  <path d="M205.7 457.1c0 1.4-1 2.1-1.9 2.1-1 0-1.9-.8-1.9-2 0-1.3.8-2.1 1.9-2.1 1.1 0 1.9.8 1.9 2zm-3.1 0c0 .8.5 1.5 1.2 1.5s1.2-.6 1.2-1.5c0-.7-.3-1.5-1.2-1.5s-1.2.8-1.2 1.5z" class="st0"/>
  <path d="M206.5 456.4v-1.2h.6v.8c.2-.5.6-.8 1.1-.8h.2v.7h-.2c-.5 0-.8.4-.9.9v2.4h-.7v-2.8h-.1z" class="st0"/>
  <path d="M210 454.1c0 .2-.2.4-.4.4s-.4-.2-.4-.4.2-.4.4-.4c.2-.1.4.1.4.4zm-.8 4.9v-3.9h.7v3.9h-.7z" class="st0"/>
  <path d="M211.5 457.2c0 1 .6 1.3 1.3 1.3.5 0 .8-.1 1.1-.2l.1.5c-.2.1-.7.2-1.3.2-1.2 0-1.9-.8-1.9-2s.7-2.1 1.8-2.1c1.3 0 1.6 1.1 1.6 1.8v.3h-2.7v.2zm2-.5c0-.4-.2-1.1-1-1.1-.7 0-1 .7-1.1 1.1h2.1z" class="st0"/>
  <path d="M215 458.3c.2.1.6.3.9.3.5 0 .8-.3.8-.6s-.2-.5-.7-.7c-.7-.2-1-.6-1-1.1 0-.6.5-1.1 1.3-1.1.4 0 .7.1 1 .2l-.2.5c-.2-.1-.4-.2-.8-.2s-.6.2-.6.5.2.5.7.7c.7.3 1 .6 1 1.2 0 .7-.5 1.2-1.4 1.2-.4 0-.8-.1-1.1-.3l.1-.6z" class="st0"/>
  <path d="M220.8 454.1v1.1h1v.5h-1v2.1c0 .5.1.8.5.8h.4v.5c-.1.1-.4.1-.6.1-.3 0-.6-.1-.8-.3-.2-.2-.3-.6-.3-1v-2.1h-.6v-.5h.6v-.9l.8-.3z" class="st0"/>
  <path d="M226 457.1c0 1.4-1 2.1-1.9 2.1-1 0-1.9-.8-1.9-2 0-1.3.8-2.1 1.9-2.1 1.2 0 1.9.8 1.9 2zm-3 0c0 .8.5 1.5 1.2 1.5s1.2-.6 1.2-1.5c0-.7-.3-1.5-1.2-1.5s-1.2.8-1.2 1.5z" class="st0"/>
  <path d="M230.8 459l-.1-.5c-.2.3-.6.6-1.2.6-.8 0-1.2-.6-1.2-1.1 0-.9.8-1.4 2.3-1.4v-.1c0-.3-.1-.9-.9-.9-.4 0-.7.1-1 .3l-.2-.5c.3-.2.8-.3 1.3-.3 1.2 0 1.5.8 1.5 1.6v1.4c0 .3 0 .7.1.9h-.6zm-.1-1.9c-.8 0-1.6.1-1.6.9 0 .5.3.7.7.7.5 0 .8-.3.9-.6v-1z" class="st0"/>
  <path d="M169.1 467.8c.3.2.8.4 1.2.4.7 0 1.1-.4 1.1-.9s-.3-.8-1-1.1c-.9-.3-1.4-.8-1.4-1.5 0-.8.7-1.5 1.7-1.5.6 0 1 .1 1.2.3l-.2.6c-.2-.1-.5-.3-1-.3-.7 0-1 .4-1 .8 0 .5.3.8 1.1 1 .9.4 1.4.8 1.4 1.6s-.6 1.6-1.9 1.6c-.5 0-1.1-.2-1.4-.3l.2-.7z" class="st0"/>
  <path d="M173.1 463.3h.7v4.8h2.3v.6h-3v-5.4z" class="st0"/>
  <path d="M177.6 463.3v5.4h-.7v-5.4h.7z" class="st0"/>
  <path d="M182.6 468.5c-.3.1-.8.3-1.4.3-1.5 0-2.7-1-2.7-2.7s1.1-2.8 2.8-2.8c.7 0 1.1.1 1.3.2l-.2.6c-.3-.1-.6-.2-1.1-.2-1.3 0-2.1.8-2.1 2.2 0 1.3.8 2.2 2.1 2.2.4 0 .9-.1 1.1-.2l.2.4z" class="st0"/>
  <path d="M186.3 466.1h-2.1v1.9h2.3v.6h-3v-5.4h2.9v.6h-2.2v1.7h2.1v.6z" class="st0"/>
  <path d="M193.7 465.9c0 1.9-1.1 2.8-2.5 2.8s-2.4-1.1-2.4-2.7c0-1.7 1.1-2.8 2.5-2.8 1.5 0 2.4 1.1 2.4 2.7zm-4.2.1c0 1.2.6 2.2 1.7 2.2s1.7-1 1.7-2.2c0-1.1-.6-2.2-1.7-2.2-1.1-.1-1.7 1-1.7 2.2z" class="st0"/>
  <path d="M194.6 463.3h2.9v.6h-2.2v1.8h2v.6h-2v2.4h-.7v-5.4z" class="st0"/>
  <path d="M200.2 463.3c.3-.1.8-.1 1.3-.1.7 0 1.2.2 1.5.4.3.3.5.6.5 1.1s-.1.9-.4 1.2c-.4.4-1 .6-1.6.6h-.6v2.2h-.7v-5.4zm.7 2.6c.2 0 .3.1.6.1.8 0 1.4-.4 1.4-1.2 0-.7-.5-1.1-1.3-1.1-.3 0-.5 0-.7.1v2.1z" class="st0"/>
  <path d="M205.2 463.3v5.4h-.7v-5.4h.7z" class="st0"/>
  <path d="M206 468.2l3-4.4h-2.7v-.6h3.6v.4l-3 4.4h3v.6H206v-.4z" class="st0"/>
  <path d="M210.4 468.2l3-4.4h-2.7v-.6h3.6v.4l-3 4.4h3v.6h-3.9v-.4z" class="st0"/>
  <path d="M216.1 466.9l-.6 1.7h-.7l1.8-5.4h.8l1.8 5.4h-.7l-.6-1.7h-1.8zm1.8-.5l-.5-1.6c-.1-.4-.2-.7-.3-1-.1.3-.2.6-.3 1l-.5 1.6h1.6z" class="st0"/>
  <path d="M83.6 453.2h11.9v2.6H83.6v-2.6z" class="st2"/>
  <path d="M83.6 458.4h11.9v2.6H83.6v-2.6z" class="st2"/>
  <path d="M110.6 469.2s-1.2-.2-.9-.8c0 0-.8-.9-.7-1.3 0 0-.3-.4 1.4-3.7l2.7-5.1s0-1.3 1.4-2.3c0 0 .5-1.8 2-5.1 0 0 3.4-7.8 4.1-7.9 0 0 0-3 1.4-2.5 0 0 19.5 3.8 30.2 10.3.7.4.9 1.2.6 1.9-.3.8-.9 1.9-1.7 2.6-.2.2-.4.3-.6.4-2.6 1-23.3 9-24.2 8.8 0 0-3 1.1-3.8.9 0 0-2.6 1.4-2.8 1.1 0 0-.9.9-2.1.7 0 0-2.3.9-2.8.5.1 0-3.8 1.6-4.2 1.5z" class="st4"/>
  <path d="M109.8 468.4s.2 1.7 0 2.9c0 0-.8 2 .7 2.4 0 0 1-1.1 0-2.3 0 0-.5-3.1 0-3.1.5.2-.7.1-.7.1z" class="st4"/>
  <path d="M58.6 434.8c8.8.1 12.2 1.1 12.2 1.1-.3.6-.3 6.1-.3 6.1.9 5.3-.9 7-.9 7l-2 25.8c0 1.6-.5 1.8-.5 1.8-2.9 2-5.8 2.7-8.5 2.6h.2c-2.6 0-5.6-.6-8.5-2.6 0 0-.5-.3-.5-1.8l-2-25.8s-1.8-1.7-.9-7c0 0 0-5.5-.3-6.1 0 0 3.4-1 12.2-1.1" class="st4"/>
  <path d="M168.6 533h80.5v25.2h-80.5V533z" class="st1"/>
  <path d="M170.1 536.9l-.6 1.7h-.7l1.8-5.4h.8l1.8 5.4h-.7l-.6-1.7h-1.8zm1.7-.5l-.5-1.6c-.1-.4-.2-.7-.3-1-.1.3-.2.6-.3 1l-.5 1.6h1.6z" class="st0"/>
  <path d="M175.8 538.6v-3.3h-.5v-.5h.5v-.2c0-.5.1-1 .4-1.4.3-.3.6-.4.9-.4.2 0 .5.1.6.1l-.1.5c-.1 0-.2-.1-.4-.1-.6 0-.8.5-.8 1.1v.2h.9v.5h-.9v3.3h-.6v.2z" class="st0"/>
  <path d="M178.1 536v-1.2h.6v.8c.2-.5.6-.8 1.1-.8h.2v.7h-.2c-.5 0-.8.4-.9.9v2.4h-.7V536h-.1z" class="st0"/>
  <path d="M184.1 536.7c0 1.4-1 2.1-1.9 2.1-1 0-1.9-.8-1.9-2 0-1.3.8-2.1 1.9-2.1 1.2 0 1.9.8 1.9 2zm-3 0c0 .8.5 1.5 1.2 1.5s1.2-.6 1.2-1.5c0-.7-.3-1.5-1.2-1.5s-1.2.8-1.2 1.5z" class="st0"/>
  <path d="M184.5 538.2l1.8-2.3c.2-.2.3-.4.5-.6h-2.1v-.6h3v.4l-1.7 2.2c-.2.2-.3.4-.5.6h2.3v.6h-3.1v-.3h-.2z" class="st0"/>
  <path d="M188.7 536.8c0 1 .6 1.3 1.3 1.3.5 0 .8-.1 1.1-.2l.1.5c-.2.1-.7.2-1.3.2-1.2 0-1.9-.8-1.9-2s.7-2.1 1.8-2.1c1.3 0 1.6 1.1 1.6 1.8v.3h-2.7v.2zm2.1-.5c0-.4-.2-1.1-1-1.1-.7 0-1 .7-1.1 1.1h2.1z" class="st0"/>
  <path d="M192.4 535.8v-1h.6v.6c.2-.4.6-.7 1.3-.7.5 0 1.4.3 1.4 1.6v2.3h-.7v-2.2c0-.6-.2-1.1-.9-1.1-.5 0-.8.3-.9.7v2.6h-.7v-2.8h-.1z" class="st0"/>
  <path d="M198.5 535.8v-1h.6v.6c.2-.4.6-.7 1.2-.7.5 0 .9.3 1.1.8.1-.2.3-.4.4-.5.2-.2.5-.3.9-.3.5 0 1.3.3 1.3 1.7v2.3h-.7v-2.2c0-.7-.3-1.2-.8-1.2-.4 0-.7.3-.8.6 0 .1-.1.2-.1.4v2.4h-.7v-2.3c0-.6-.3-1.1-.8-1.1-.4 0-.8.4-.9.7 0 .1-.1.2-.1.3v2.3h-.7v-2.8h.1z" class="st0"/>
  <path d="M207.3 538.6l-.1-.5c-.2.3-.6.6-1.2.6-.8 0-1.2-.6-1.2-1.1 0-.9.8-1.4 2.3-1.4v-.1c0-.3-.1-.9-.9-.9-.4 0-.7.1-1 .3l-.2-.5c.3-.2.8-.3 1.3-.3 1.2 0 1.5.8 1.5 1.6v1.4c0 .3 0 .7.1.9h-.6zm-.1-1.9c-.8 0-1.6.1-1.6.9 0 .5.3.7.7.7.5 0 .8-.3.9-.6v-1z" class="st0"/>
  <path d="M209 536v-1.2h.6v.8c.2-.5.6-.8 1.1-.8h.2v.7h-.2c-.5 0-.8.4-.9.9v2.4h-.8V536z" class="st0"/>
  <path d="M214.9 534.8v3.3c0 .9-.2 1.4-.6 1.8-.4.4-.9.5-1.4.5s-1-.1-1.3-.3l.2-.5c.3.2.7.3 1.1.3.7 0 1.2-.4 1.2-1.4v-.5c-.2.4-.6.6-1.2.6-1 0-1.6-.8-1.6-1.9 0-1.3.9-2.1 1.7-2.1.7 0 1 .4 1.2.7v-.6h.7v.1zm-.7 1.5v-.3c-.1-.4-.5-.7-1-.7-.7 0-1.2.6-1.2 1.5 0 .8.4 1.4 1.1 1.4.4 0 .8-.3 1-.7 0-.1.1-.3.1-.4v-.8z" class="st0"/>
  <path d="M218.2 538.6l-.1-.5c-.2.3-.6.6-1.2.6-.8 0-1.2-.6-1.2-1.1 0-.9.8-1.4 2.3-1.4v-.1c0-.3-.1-.9-.9-.9-.4 0-.7.1-1 .3l-.1-.5c.3-.2.8-.3 1.3-.3 1.2 0 1.5.8 1.5 1.6v1.4c0 .3 0 .7.1.9h-.7zm-.1-1.9c-.8 0-1.6.1-1.6.9 0 .5.3.7.7.7.5 0 .8-.3.9-.6v-1z" class="st0"/>
  <path d="M219.9 536v-1.2h.6v.8c.2-.5.6-.8 1.1-.8h.2v.7h-.2c-.5 0-.8.4-.9.9v2.4h-.7V536h-.1z" class="st0"/>
  <path d="M223.3 533.7c0 .2-.2.4-.4.4s-.4-.2-.4-.4.2-.4.4-.4c.3-.1.4.1.4.4zm-.8 4.9v-3.9h.7v3.9h-.7z" class="st0"/>
  <path d="M225.3 533.7v1.1h1v.5h-1v2.1c0 .5.1.8.5.8h.4v.5c-.1.1-.4.1-.6.1-.3 0-.6-.1-.8-.3s-.3-.6-.3-1v-2.1h-.5v-.5h.6v-.9l.7-.3z" class="st0"/>
  <path d="M229.2 538.6l-.1-.5c-.2.3-.6.6-1.2.6-.8 0-1.2-.6-1.2-1.1 0-.9.8-1.4 2.3-1.4v-.1c0-.3-.1-.9-.9-.9-.4 0-.7.1-1 .3l-.1-.5c.3-.2.8-.3 1.3-.3 1.2 0 1.5.8 1.5 1.6v1.4c0 .3 0 .7.1.9h-.7zm-.1-1.9c-.8 0-1.6.1-1.6.9 0 .5.3.7.7.7.5 0 .8-.3.9-.6v-1z" class="st0"/>
  <path d="M232.6 533h.7v2.4c.1-.2.3-.4.5-.5s.5-.2.7-.2c.5 0 1.4.3 1.4 1.7v2.3h-.7v-2.2c0-.6-.2-1.2-.9-1.2-.5 0-.8.3-.9.7v2.6h-.7V533h-.1z" class="st0"/>
  <path d="M239.2 538.6l-.1-.5c-.2.3-.6.6-1.2.6-.8 0-1.2-.6-1.2-1.1 0-.9.8-1.4 2.3-1.4v-.1c0-.3-.1-.9-.9-.9-.4 0-.7.1-1 .3l-.1-.5c.3-.2.8-.3 1.3-.3 1.2 0 1.5.8 1.5 1.6v1.4c0 .3 0 .7.1.9h-.7zm-.1-1.9c-.8 0-1.6.1-1.6.9 0 .5.3.7.7.7.5 0 .8-.3.9-.6v-1z" class="st0"/>
  <path d="M240.8 537.9c.2.1.6.3.9.3.5 0 .8-.3.8-.6s-.2-.5-.7-.7c-.7-.2-1-.6-1-1.1 0-.6.5-1.1 1.3-1.1.4 0 .7.1 1 .2l-.2.5c-.2-.1-.4-.2-.8-.2s-.6.2-.6.5.2.5.7.7c.7.3 1 .6 1 1.2 0 .7-.5 1.2-1.4 1.2-.4 0-.8-.1-1.1-.3l.1-.6z" class="st0"/>
  <path d="M169.1 547.5c.2.1.6.3.9.3.5 0 .8-.3.8-.6s-.2-.5-.7-.7c-.7-.2-1-.6-1-1.1 0-.6.5-1.1 1.3-1.1.4 0 .7.1 1 .2l-.2.5c-.2-.1-.4-.2-.8-.2s-.6.2-.6.5.2.5.7.7c.7.3 1 .6 1 1.2 0 .7-.5 1.2-1.4 1.2-.4 0-.8-.1-1.1-.3l.1-.6z" class="st0"/>
  <path d="M173.1 543.3c0 .2-.2.4-.4.4s-.4-.2-.4-.4.2-.4.4-.4c.3-.1.4.1.4.4zm-.8 4.9v-3.9h.7v3.9h-.7z" class="st0"/>
  <path d="M174.2 545.4v-1h.6v.6c.2-.4.6-.7 1.2-.7.5 0 .9.3 1.1.8.1-.2.3-.4.4-.5.2-.2.5-.3.9-.3.5 0 1.3.3 1.3 1.7v2.3h-.7v-2.2c0-.7-.3-1.2-.8-1.2-.4 0-.7.3-.8.6 0 .1-.1.2-.1.4v2.4h-.7V546c0-.6-.3-1.1-.8-1.1-.4 0-.8.4-.9.7 0 .1-.1.2-.1.3v2.3h-.7v-2.8h.1z" class="st0"/>
  <path d="M181.7 543.3c0 .2-.2.4-.4.4s-.4-.2-.4-.4.2-.4.4-.4c.2-.1.4.1.4.4zm-.8 4.9v-3.9h.7v3.9h-.7z" class="st0"/>
  <path d="M182.8 542.6h.7v5.7h-.7v-5.7z" class="st0"/>
  <path d="M186.8 548.2l-.1-.5c-.2.3-.6.6-1.2.6-.8 0-1.2-.6-1.2-1.1 0-.9.8-1.4 2.3-1.4v-.1c0-.3-.1-.9-.9-.9-.4 0-.7.1-1 .3l-.2-.5c.3-.2.8-.3 1.3-.3 1.2 0 1.5.8 1.5 1.6v1.4c0 .3 0 .7.1.9h-.6zm-.1-1.9c-.8 0-1.6.1-1.6.9 0 .5.3.7.7.7.5 0 .8-.3.9-.6v-1z" class="st0"/>
  <path d="M188.5 545.6v-1.2h.6v.8c.2-.5.6-.8 1.1-.8h.2v.7h-.2c-.5 0-.8.4-.9.9v2.4h-.7v-2.8h-.1z" class="st0"/>
  <path d="M195.6 548.1c-.2.1-.6.2-1.1.2-1.2 0-1.9-.8-1.9-2s.8-2.1 2.1-2.1c.4 0 .8.1 1 .2l-.2.5c-.2-.1-.4-.2-.8-.2-.9 0-1.4.7-1.4 1.5 0 .9.6 1.4 1.3 1.4.4 0 .7-.1.9-.2l.1.7z" class="st0"/>
  <path d="M198.5 548.2l-.1-.5c-.2.3-.6.6-1.2.6-.8 0-1.2-.6-1.2-1.1 0-.9.8-1.4 2.3-1.4v-.1c0-.3-.1-.9-.9-.9-.4 0-.7.1-1 .3l-.2-.5c.3-.2.8-.3 1.3-.3 1.2 0 1.5.8 1.5 1.6v1.4c0 .3 0 .7.1.9h-.6zm-.1-1.9c-.8 0-1.6.1-1.6.9 0 .5.3.7.7.7.5 0 .8-.3.9-.6v-1z" class="st0"/>
  <path d="M200.3 542.6h.7v5.7h-.7v-5.7z" class="st0"/>
  <path d="M205.7 546.3c0 1.4-1 2.1-1.9 2.1-1 0-1.9-.8-1.9-2 0-1.3.8-2.1 1.9-2.1 1.1 0 1.9.8 1.9 2zm-3.1 0c0 .8.5 1.5 1.2 1.5s1.2-.6 1.2-1.5c0-.7-.3-1.5-1.2-1.5s-1.2.8-1.2 1.5z" class="st0"/>
  <path d="M206.5 545.6v-1.2h.6v.8c.2-.5.6-.8 1.1-.8h.2v.7h-.2c-.5 0-.8.4-.9.9v2.4h-.7v-2.8h-.1z" class="st0"/>
  <path d="M210 543.3c0 .2-.2.4-.4.4s-.4-.2-.4-.4.2-.4.4-.4c.2-.1.4.1.4.4zm-.8 4.9v-3.9h.7v3.9h-.7z" class="st0"/>
  <path d="M211.5 546.4c0 1 .6 1.3 1.3 1.3.5 0 .8-.1 1.1-.2l.1.5c-.2.1-.7.2-1.3.2-1.2 0-1.9-.8-1.9-2s.7-2.1 1.8-2.1c1.3 0 1.6 1.1 1.6 1.8v.3h-2.7v.2zm2-.5c0-.4-.2-1.1-1-1.1-.7 0-1 .7-1.1 1.1h2.1z" class="st0"/>
  <path d="M215 547.5c.2.1.6.3.9.3.5 0 .8-.3.8-.6s-.2-.5-.7-.7c-.7-.2-1-.6-1-1.1 0-.6.5-1.1 1.3-1.1.4 0 .7.1 1 .2l-.3.5c-.2-.1-.4-.2-.8-.2s-.6.2-.6.5.2.5.7.7c.7.3 1 .6 1 1.2 0 .7-.5 1.2-1.4 1.2-.4 0-.8-.1-1.1-.3l.2-.6z" class="st0"/>
  <path d="M220.8 543.3v1.1h1v.5h-1v2.1c0 .5.1.8.5.8h.4v.5c-.1.1-.4.1-.6.1-.3 0-.6-.1-.8-.3s-.3-.6-.3-1V545h-.6v-.5h.6v-.9l.8-.3z" class="st0"/>
  <path d="M226 546.3c0 1.4-1 2.1-1.9 2.1-1 0-1.9-.8-1.9-2 0-1.3.8-2.1 1.9-2.1 1.2 0 1.9.8 1.9 2zm-3 0c0 .8.5 1.5 1.2 1.5s1.2-.6 1.2-1.5c0-.7-.3-1.5-1.2-1.5s-1.2.8-1.2 1.5z" class="st0"/>
  <path d="M230.8 548.2l-.1-.5c-.2.3-.6.6-1.2.6-.8 0-1.2-.6-1.2-1.1 0-.9.8-1.4 2.3-1.4v-.1c0-.3-.1-.9-.9-.9-.4 0-.7.1-1 .3l-.2-.5c.3-.2.8-.3 1.3-.3 1.2 0 1.5.8 1.5 1.6v1.4c0 .3 0 .7.1.9h-.6zm-.1-1.9c-.8 0-1.6.1-1.6.9 0 .5.3.7.7.7.5 0 .8-.3.9-.6v-1z" class="st0"/>
  <path d="M173 557.7c-.3.1-.8.3-1.4.3-1.5 0-2.7-1-2.7-2.7s1.1-2.8 2.8-2.8c.7 0 1.1.1 1.3.2l-.2.6c-.3-.1-.6-.2-1.1-.2-1.3 0-2.1.8-2.1 2.2 0 1.3.8 2.2 2.1 2.2.4 0 .9-.1 1.1-.2l.2.4z" class="st0"/>
  <path d="M174.5 552.5v2.3h2.6v-2.3h.7v5.4h-.7v-2.5h-2.6v2.5h-.7v-5.4h.7z" class="st0"/>
  <path d="M181.9 555.3h-2.1v1.9h2.3v.6h-3v-5.4h2.9v.6h-2.2v1.7h2.1v.6z" class="st0"/>
  <path d="M185.8 555.3h-2.1v1.9h2.3v.6h-3v-5.4h2.9v.6h-2.2v1.7h2.1v.6z" class="st0"/>
  <path d="M186.8 557c.3.2.8.4 1.2.4.7 0 1.1-.4 1.1-.9s-.3-.8-1-1.1c-.9-.3-1.4-.8-1.4-1.5 0-.8.7-1.5 1.7-1.5.6 0 1 .1 1.2.3l-.2.6c-.2-.1-.5-.3-1-.3-.7 0-1 .4-1 .8 0 .5.3.8 1.1 1 .9.4 1.4.8 1.4 1.6s-.6 1.6-1.9 1.6c-.5 0-1.1-.2-1.4-.3l.2-.7z" class="st0"/>
  <path d="M193.7 555.3h-2.1v1.9h2.3v.6h-3v-5.4h2.9v.6h-2.2v1.7h2.1v.6z" class="st0"/>
  <path d="M194.8 552.5c.3-.1.8-.1 1.3-.1.7 0 1.1.1 1.5.4.3.2.4.5.4 1s-.3 1-.9 1.2c.5.1 1.1.6 1.1 1.4 0 .5-.2.8-.5 1.1-.4.3-1 .5-1.9.5-.5 0-.8 0-1.1-.1l.1-5.4zm.7 2.2h.6c.7 0 1.2-.4 1.2-.9 0-.6-.5-.9-1.2-.9h-.6v1.8zm0 2.6h.6c.7 0 1.4-.3 1.4-1s-.6-1-1.4-1h-.6v2z" class="st0"/>
  <path d="M199.8 552.5v3.2c0 1.2.5 1.7 1.3 1.7s1.3-.5 1.3-1.7v-3.2h.7v3.1c0 1.7-.9 2.3-2 2.3s-1.9-.6-1.9-2.3v-3.2h.6v.1z" class="st0"/>
  <path d="M204.3 552.5c.4-.1.9-.1 1.3-.1.7 0 1.2.1 1.6.4.3.2.4.6.4 1 0 .7-.4 1.2-1 1.4.4.1.7.5.8 1.1.2.8.3 1.3.4 1.5h-.7c-.1-.2-.2-.6-.4-1.3s-.4-1-1.1-1h-.6v2.3h-.7v-5.3zm.7 2.5h.7c.7 0 1.2-.4 1.2-1 0-.7-.5-1-1.2-1-.3 0-.6 0-.7.1v1.9z" class="st0"/>
  <path d="M212.8 557.6c-.3.1-.9.3-1.7.3s-1.5-.2-2-.7c-.5-.4-.8-1.2-.8-2 0-1.6 1.1-2.8 2.9-2.8.6 0 1.1.1 1.3.2l-.2.6c-.3-.1-.6-.2-1.2-.2-1.3 0-2.2.8-2.2 2.2s.8 2.2 2.1 2.2c.5 0 .8-.1.9-.1v-1.6h-.9v-.7h1.8v2.6z" class="st0"/>
  <path d="M216.6 555.3h-2.1v1.9h2.3v.6h-3v-5.4h2.9v.6h-2.2v1.7h2.1v.6z" class="st0"/>
  <path d="M217.8 552.5c.4-.1.9-.1 1.3-.1.7 0 1.2.1 1.6.4.3.2.4.6.4 1 0 .7-.4 1.2-1 1.4.4.1.7.5.8 1.1.2.8.3 1.3.4 1.5h-.7c-.1-.2-.2-.6-.4-1.3s-.4-1-1.1-1h-.7v2.3h-.7l.1-5.3zm.7 2.5h.7c.7 0 1.2-.4 1.2-1 0-.7-.5-1-1.2-1-.3 0-.6 0-.7.1v1.9z" class="st0"/>
  <path d="M83.1 541.4h12.4v2.7H83.1v-2.7z" class="st2"/>
  <path d="M83.1 546.9h12.4v2.7H83.1v-2.7z" class="st2"/>
  <path d="M109.4 551.9s-1.1 5.6 0 7.3c0 0 1.6 3.6 7.5 6.2 0 0 8.4 3.8 18.6 2.8 0 0 11.4-1.1 14.6-3.6 3.2-2.6 7-3.9 6.1-8.5 0 0 1-.2.3-.6 0 0 0-.6.7-.4 0 0 .2-.1 0-.5 0 0 .6-.7.1-1.3 0 0 0-.6-.6-.8 0 0 0-.3.2-.3 0 0 .6-.2.3-.4 0 0 .5-.4.3-.6 0 0 .5-.6.2-.9 0 0-.1-.2-.4-.2 0 0-.2-.5-.3-.5s-.2-.5-.3-.5c0 0 0-.2.4-.1 0 0 .4-.7-.2-1.4 0 0-.2-.6-.8-1 0 0 .2.1.2-2.4 0 0 .1-.6-1.5-1.6 0 0 .1-.3.4-.6 0 0 0-1.1-.3-1.4 0 0 2.5-1.7 2.3-4 0 0 .3-4.9-4.5-8 0 0-3.5-4.1-16.9-5.6 0 0-7.3-1-18.3 2.9 0 0-6.7 2.3-8.2 6.2 0 0-1.5 1.1-1 4.8 0 0 .2 1.2 1.6 2.6 0 0-.3.5 0 .5 0 0 .2-.1.2 0v.3s-.7.4-.2.7c0 0 .1.1-.6.5 0 0-.2 0 0 .3 0 0-.2.2 0 .4 0 0 .3.3.3.4 0 0 0 .3.4.7 0 0 0 .2.6.7 0 0 .4-.2.6.1l.1-.3s.8-.2.9-.2c0 0 .3.2.8.3v.6l-.2.1h-.3s-1.1-.2-1.6.6c0 0-.6.2-.4.8 0 0-.1.2-.2.3 0 0-.1.2 0 .3 0 0-.2.3-.3.3s-.1 0-.1.4c0 0-.4-.3-.6.1 0 0-.7.3-.1 1 0 0 .5.3.1.6 0 0-.2.1-.2.2 0 0-.3-.1-.3.2 0 0-.1.3.2.6 0 0 .3.1.4.4l-.4.6s-.2.1.2.6c-.2-.1.2.2.2.3z" class="st3"/>
  <path d="M54.7 545.8s2.8 1.4 2.9 7.5v8.9s-.6 3.1-1.4 4.5c0 0-6.5.5-7.6 2.1 0 0-1.5 2.6 8.5 3.2 0 0 11 .6 12-2.3 0 0 1-2.1-7.6-2.9 0 0-1.3-3-1.4-4.5 0 0-.5-3.9-.3-8.9 0 0 .2-5.4 2-7.1 0 0 2.9-2.3 3.4-5.5 0 0 .3-5.7 1.9-6.1 0 0 5.3-1.1 6.7-6.9 0 0 3.5 4.2 4.8 6.8 0 0 .2.1.2-.5 0 0 .1-1.3.2-1.5 0 0 1.3-2 .9-4 0 0-.5-6.6-6.6-9.3 0 0-3.2-1.1-4.8.6 0 0-.2.1.3.6 0 0 2.1 2.6 2.2 2.9 0 0 .3.6.1.8 0 0-.4-.1-.6 0 0 0-.4-.6-.9-.4 0 0-.4.2-.5.2H69c-.1-.1.2-.7-1-.5 0 0-.6.1-.6 0 0 0 .1-.6-.7-.4 0 0-.3-.3-.7-.6 0 0-.8-1-.9-1 0 0-.2-.4-1.2 0 0 0-.4-1.2-1.4-.6 0 0-.5.2-.9.1 0 0-.2-.3-.6-.2 0 0-.2-1.3-1.7-.7 0 0-1.9-.1-2.7 1.4 0 0-.6 0-.8.4 0 0-.6 0-.8.5 0 0-.3 0-.5.4 0 0-.7 0-.7-.1 0 0-.3-.2-.7.1 0 0-.5.1-.5-.3 0 0-.5-.4-1 .2 0 0-.3.2-.5.6 0 0-.5-.1-.8.4 0 0-.4-.5-1.1-.1 0 0-.6-.3-.8 0 0 0-3.5-.1-5.2.6 0 0-1.2.4-.4 1.6 0 0 .8 7.5 7.4 9.1 0 0 1.2.4 1.4 3.4-.4 0-.1 5.3 3.1 7.5z" class="st3"/>
  <path d="M168.6 356h80.5v25.2h-80.5V356z" class="st1"/>
  <path d="M170.1 360l-.6 1.7h-.7l1.8-5.4h.8l1.8 5.4h-.7l-.5-1.7h-1.9zm1.7-.5l-.5-1.6c-.1-.4-.2-.7-.3-1-.1.3-.2.6-.3 1l-.5 1.6h1.6z" class="st0"/>
  <path d="M178.7 357.1h-2l-.2 1.3h.4c.4 0 .8.1 1.1.3.4.2.7.7.7 1.3 0 1-.8 1.8-1.9 1.8-.6 0-1-.2-1.3-.3l.2-.5c.2.1.6.3 1.1.3.7 0 1.2-.4 1.2-1.1s-.5-1.2-1.5-1.2c-.3 0-.5 0-.7.1l.3-2.5h2.5l.1.5z" class="st0"/>
  <path d="M183.1 359c0 1.8-.7 2.7-1.8 2.7-1 0-1.7-1-1.7-2.7s.8-2.7 1.8-2.7c1.1.1 1.7 1.1 1.7 2.7zm-2.8.1c0 1.4.4 2.1 1.1 2.1.7 0 1.1-.8 1.1-2.2 0-1.3-.3-2.1-1.1-2.1-.7.1-1.1.8-1.1 2.2z" class="st0"/>
  <path d="M184 358.9v-1h.6v.6c.2-.4.6-.7 1.2-.7.5 0 .9.3 1.1.8.1-.2.3-.4.4-.5.2-.2.5-.3.9-.3.5 0 1.3.3 1.3 1.7v2.3h-.7v-2.2c0-.7-.3-1.2-.8-1.2-.4 0-.7.3-.8.6 0 .1-.1.2-.1.4v2.4h-.7v-2.3c0-.6-.3-1.1-.8-1.1-.4 0-.8.4-.9.7 0 .1-.1.2-.1.3v2.3h-.6v-2.8z" class="st0"/>
  <path d="M190.7 356h.7v5.7h-.7V356z" class="st0"/>
  <path d="M194.2 356h.7v5.7h-.7V356z" class="st0"/>
  <path d="M196.9 356.7c0 .2-.2.4-.4.4s-.4-.2-.4-.4.2-.4.4-.4.4.2.4.4zm-.8 5v-3.9h.7v3.9h-.7z" class="st0"/>
  <path d="M200.6 361.1c-.2.4-.7.7-1.3.7-.9 0-1.6-.8-1.6-2 0-1.4.9-2.1 1.8-2.1.6 0 1 .3 1.2.7v-.6h.7v5.5h-.7l-.1-2.2zm0-1.7v-.3c-.1-.4-.5-.8-1-.8-.7 0-1.2.6-1.2 1.5 0 .8.4 1.4 1.1 1.4.5 0 .8-.3 1-.8 0-.1.1-.2.1-.3v-.7z" class="st0"/>
  <path d="M205.7 360.6v1.1h-.6v-.6c-.2.3-.6.7-1.3.7-.6 0-1.3-.3-1.3-1.7v-2.3h.7v2.1c0 .7.2 1.2.9 1.2.5 0 .8-.3.9-.6 0-.1.1-.2.1-.4v-2.4h.7l-.1 2.9z" class="st0"/>
  <path d="M207.3 359.9c0 1 .6 1.3 1.3 1.3.5 0 .8-.1 1.1-.2l.1.5c-.2.1-.7.2-1.3.2-1.2 0-1.9-.8-1.9-2s.7-2.1 1.8-2.1c1.3 0 1.6 1.1 1.6 1.8v.3h-2.7v.2zm2.1-.5c0-.4-.2-1.1-1-1.1-.7 0-1 .7-1.1 1.1h2.1z" class="st0"/>
  <path d="M210.9 359v-1.2h.6v.8c.2-.5.6-.8 1.1-.8h.2v.7h-.2c-.5 0-.8.4-.9.9v2.4h-.7V359h-.1z" class="st0"/>
  <path d="M215.2 356h.7v2.4c.1-.2.3-.4.5-.5s.5-.2.7-.2c.5 0 1.4.3 1.4 1.7v2.3h-.7v-2.2c0-.6-.2-1.2-.9-1.2-.5 0-.8.3-.9.7v2.6h-.7V356h-.1z" class="st0"/>
  <path d="M221.8 361.7l-.1-.5c-.2.3-.6.6-1.2.6-.8 0-1.2-.6-1.2-1.1 0-.9.8-1.4 2.3-1.4v-.1c0-.3-.1-.9-.9-.9-.4 0-.7.1-1 .3l-.2-.5c.3-.2.8-.3 1.3-.3 1.2 0 1.5.8 1.5 1.6v1.4c0 .3 0 .7.1.9h-.6zm-.1-2c-.8 0-1.6.1-1.6.9 0 .5.3.7.7.7.5 0 .8-.3.9-.6v-1z" class="st0"/>
  <path d="M223.4 361c.2.1.6.3.9.3.5 0 .8-.3.8-.6s-.2-.5-.7-.7c-.7-.2-1-.6-1-1.1 0-.6.5-1.1 1.3-1.1.4 0 .7.1 1 .2l-.2.5c-.2-.1-.4-.2-.8-.2s-.6.2-.6.5.2.5.7.7c.7.3 1 .6 1 1.2 0 .7-.5 1.2-1.4 1.2-.4 0-.8-.1-1.1-.3l.1-.6z" class="st0"/>
  <path d="M169.1 370.6c.2.1.6.3.9.3.5 0 .8-.3.8-.6s-.2-.5-.7-.7c-.7-.2-1-.6-1-1.1 0-.6.5-1.1 1.3-1.1.4 0 .7.1 1 .2l-.2.5c-.2-.1-.4-.2-.8-.2s-.6.2-.6.5.2.5.7.7c.7.3 1 .6 1 1.2 0 .7-.5 1.2-1.4 1.2-.4 0-.8-.1-1.1-.3l.1-.6z" class="st0"/>
  <path d="M173.1 366.3c0 .2-.2.4-.4.4s-.4-.2-.4-.4.2-.4.4-.4c.3 0 .4.2.4.4zm-.8 5v-3.9h.7v3.9h-.7z" class="st0"/>
  <path d="M174.2 368.5v-1h.6v.6c.2-.4.6-.7 1.2-.7.5 0 .9.3 1.1.8.1-.2.3-.4.4-.5.2-.2.5-.3.9-.3.5 0 1.3.3 1.3 1.7v2.3h-.7v-2.2c0-.7-.3-1.2-.8-1.2-.4 0-.7.3-.8.6 0 .1-.1.2-.1.4v2.4h-.7V369c0-.6-.3-1.1-.8-1.1-.4 0-.8.4-.9.7 0 .1-.1.2-.1.3v2.3h-.7v-2.7h.1z" class="st0"/>
  <path d="M181.7 366.3c0 .2-.2.4-.4.4s-.4-.2-.4-.4.2-.4.4-.4.4.2.4.4zm-.8 5v-3.9h.7v3.9h-.7z" class="st0"/>
  <path d="M182.8 365.6h.7v5.7h-.7v-5.7z" class="st0"/>
  <path d="M186.8 371.3l-.1-.5c-.2.3-.6.6-1.2.6-.8 0-1.2-.6-1.2-1.1 0-.9.8-1.4 2.3-1.4v-.1c0-.3-.1-.9-.9-.9-.4 0-.7.1-1 .3l-.2-.5c.3-.2.8-.3 1.3-.3 1.2 0 1.5.8 1.5 1.6v1.4c0 .3 0 .7.1.9h-.6zm-.1-2c-.8 0-1.6.1-1.6.9 0 .5.3.7.7.7.5 0 .8-.3.9-.6v-1z" class="st0"/>
  <path d="M188.5 368.6v-1.2h.6v.8c.2-.5.6-.8 1.1-.8h.2v.7h-.2c-.5 0-.8.4-.9.9v2.4h-.7v-2.8h-.1z" class="st0"/>
  <path d="M195.6 371.1c-.2.1-.6.2-1.1.2-1.2 0-1.9-.8-1.9-2s.8-2.1 2.1-2.1c.4 0 .8.1 1 .2l-.2.5c-.2-.1-.4-.2-.8-.2-.9 0-1.4.7-1.4 1.5 0 .9.6 1.4 1.3 1.4.4 0 .7-.1.9-.2l.1.7z" class="st0"/>
  <path d="M198.5 371.3l-.1-.5c-.2.3-.6.6-1.2.6-.8 0-1.2-.6-1.2-1.1 0-.9.8-1.4 2.3-1.4v-.1c0-.3-.1-.9-.9-.9-.4 0-.7.1-1 .3l-.2-.5c.3-.2.8-.3 1.3-.3 1.2 0 1.5.8 1.5 1.6v1.4c0 .3 0 .7.1.9h-.6zm-.1-2c-.8 0-1.6.1-1.6.9 0 .5.3.7.7.7.5 0 .8-.3.9-.6v-1z" class="st0"/>
  <path d="M200.3 365.6h.7v5.7h-.7v-5.7z" class="st0"/>
  <path d="M205.7 369.3c0 1.4-1 2.1-1.9 2.1-1 0-1.9-.8-1.9-2 0-1.3.8-2.1 1.9-2.1 1.1 0 1.9.8 1.9 2zm-3.1.1c0 .8.5 1.5 1.2 1.5s1.2-.6 1.2-1.5c0-.7-.3-1.5-1.2-1.5s-1.2.7-1.2 1.5z" class="st0"/>
  <path d="M206.5 368.6v-1.2h.6v.8c.2-.5.6-.8 1.1-.8h.2v.7h-.2c-.5 0-.8.4-.9.9v2.4h-.7v-2.8h-.1z" class="st0"/>
  <path d="M210 366.3c0 .2-.2.4-.4.4s-.4-.2-.4-.4.2-.4.4-.4.4.2.4.4zm-.8 5v-3.9h.7v3.9h-.7z" class="st0"/>
  <path d="M211.5 369.5c0 1 .6 1.3 1.3 1.3.5 0 .8-.1 1.1-.2l.1.5c-.2.1-.7.2-1.3.2-1.2 0-1.9-.8-1.9-2s.7-2.1 1.8-2.1c1.3 0 1.6 1.1 1.6 1.8v.3h-2.7v.2zm2-.5c0-.4-.2-1.1-1-1.1-.7 0-1 .7-1.1 1.1h2.1z" class="st0"/>
  <path d="M215 370.6c.2.1.6.3.9.3.5 0 .8-.3.8-.6s-.2-.5-.7-.7c-.7-.2-1-.6-1-1.1 0-.6.5-1.1 1.3-1.1.4 0 .7.1 1 .2l-.2.5c-.2-.1-.4-.2-.8-.2s-.6.2-.6.5.2.5.7.7c.7.3 1 .6 1 1.2 0 .7-.5 1.2-1.4 1.2-.4 0-.8-.1-1.1-.3l.1-.6z" class="st0"/>
  <path d="M220.8 366.3v1.1h1v.5h-1v2.1c0 .5.1.8.5.8h.4v.5c-.1.1-.4.1-.6.1-.3 0-.6-.1-.8-.3-.2-.2-.3-.6-.3-1V368h-.6v-.5h.6v-.9l.8-.3z" class="st0"/>
  <path d="M226 369.3c0 1.4-1 2.1-1.9 2.1-1 0-1.9-.8-1.9-2 0-1.3.8-2.1 1.9-2.1 1.2 0 1.9.8 1.9 2zm-3 .1c0 .8.5 1.5 1.2 1.5s1.2-.6 1.2-1.5c0-.7-.3-1.5-1.2-1.5s-1.2.7-1.2 1.5z" class="st0"/>
  <path d="M229.3 366.5h-1.6v-.6h4v.6H230v4.8h-.7v-4.8z" class="st0"/>
  <path d="M233.5 371.3l-1.4-5.4h.7l.6 2.7c.2.7.3 1.3.4 1.9.1-.5.3-1.2.4-1.9l.7-2.7h.7l.7 2.7c.2.6.3 1.3.4 1.8.1-.6.3-1.2.4-1.9l.7-2.7h.7l-1.5 5.4h-.7l-.7-2.8c-.2-.7-.3-1.2-.4-1.8-.1.5-.2 1.1-.4 1.8l-.8 2.8h-.5v.1z" class="st0"/>
  <path d="M244 368.5c0 1.9-1.1 2.8-2.5 2.8s-2.4-1.1-2.4-2.7c0-1.7 1.1-2.8 2.5-2.8s2.4 1.1 2.4 2.7zm-4.2.1c0 1.2.6 2.2 1.7 2.2s1.7-1 1.7-2.2c0-1.1-.6-2.2-1.7-2.2s-1.7 1-1.7 2.2z" class="st0"/>
  <path d="M169.1 380c.3.2.8.4 1.2.4.7 0 1.1-.4 1.1-.9s-.3-.8-1-1.1c-.9-.3-1.4-.8-1.4-1.5 0-.8.7-1.5 1.7-1.5.6 0 1 .1 1.2.3l-.2.6c-.2-.1-.5-.3-1-.3-.7 0-1 .4-1 .8 0 .5.3.8 1.1 1 .9.4 1.4.8 1.4 1.6s-.6 1.6-1.9 1.6c-.5 0-1.1-.2-1.4-.3l.2-.7z" class="st0"/>
  <path d="M174 379.2l-.6 1.7h-.7l1.8-5.4h.8l1.8 5.4h-.7l-.6-1.7H174zm1.8-.5l-.5-1.6c-.1-.4-.2-.7-.3-1-.1.3-.2.6-.3 1l-.5 1.6h1.6z" class="st0"/>
  <path d="M178.5 375.5v3.2c0 1.2.5 1.7 1.3 1.7s1.3-.5 1.3-1.7v-3.2h.7v3.1c0 1.7-.9 2.3-2 2.3s-1.9-.6-1.9-2.3v-3.2h.6v.1z" class="st0"/>
  <path d="M182.9 380c.3.2.8.4 1.2.4.7 0 1.1-.4 1.1-.9s-.3-.8-1-1.1c-.9-.3-1.4-.8-1.4-1.5 0-.8.7-1.5 1.7-1.5.6 0 1 .1 1.2.3l-.2.6c-.2-.1-.5-.3-1-.3-.7 0-1 .4-1 .8 0 .5.3.8 1.1 1 .9.4 1.4.8 1.4 1.6s-.6 1.6-1.9 1.6c-.5 0-1.1-.2-1.4-.3l.2-.7z" class="st0"/>
  <path d="M187.8 379.2l-.6 1.7h-.7l1.8-5.4h.8l1.8 5.4h-.7l-.6-1.7h-1.8zm1.8-.5l-.5-1.6c-.1-.4-.2-.7-.3-1-.1.3-.2.6-.3 1l-.5 1.6h1.6z" class="st0"/>
  <path d="M195.8 380.7c-.3.1-.9.3-1.7.3s-1.5-.2-2-.7c-.5-.4-.8-1.2-.8-2 0-1.6 1.1-2.8 2.9-2.8.6 0 1.1.1 1.3.2l-.2.6c-.3-.1-.6-.2-1.2-.2-1.3 0-2.2.8-2.2 2.2 0 1.4.8 2.2 2.1 2.2.5 0 .8-.1.9-.1v-1.6h-.9v-.6h1.8v2.5z" class="st0"/>
  <path d="M199.7 378.4h-2.1v1.9h2.3v.6h-3v-5.4h2.9v.6h-2.2v1.7h2.1v.6z" class="st0"/>
  <path d="M200.7 380c.3.2.8.4 1.2.4.7 0 1.1-.4 1.1-.9s-.3-.8-1-1.1c-.9-.3-1.4-.8-1.4-1.5 0-.8.7-1.5 1.7-1.5.6 0 1 .1 1.2.3l-.2.6c-.2-.1-.5-.3-1-.3-.7 0-1 .4-1 .8 0 .5.3.8 1.1 1 .9.4 1.4.8 1.4 1.6s-.6 1.6-1.9 1.6c-.5 0-1.1-.2-1.4-.3l.2-.7z" class="st0"/>
  <path d="M82.9 364.5h12.6v2.8H82.9v-2.8z" class="st2"/>
  <path d="M82.9 370h12.6v2.8H82.9V370z" class="st2"/>
  <path d="M106.4 364.3s-1-5.8 9.1-4c0 0 2.9.7 6.1.9 0 0 29.7 6.1 38.8 21.5 0 0 1.5 5.3-3.2 6.6 0 0-4.4.4-7.1-4 0 0-6-6.4-13.4-9.3 0 0-16.4-7.1-22-6.8-.1-.1-8.6 1-8.3-4.9z" class="st3"/>
  <path d="M103.7 352.9s.4-3.8 6.3-3.9c0 0 6.2-.9 16.9 2.4 0 0 26.5 7 32.3 13.3 0 0 7.5 7 1.8 10 0 0-4 2.2-6.4-1.7 0 0-5.1-5.4-9.3-6.5 0 0-6.3-2.6-6.6-2.8 0 0-9.8-2.9-11.8-4 0 0-12.1-3.4-12.7-3.4 0 0-3.9-.2-4.7 0 0-.1-5.6.5-5.8-3.4z" class="st3"/>
  <path d="M44.9 394.9s-.1 1.9 1.4 2.1l19.9.8s.6 0 1.1-.4l1.2-.9s1-1.3 1.2-2.6c0 0 .3-1.8.2-3.8L70 360s-.1-3-3.8-5.3c0 0-3.2-1.8-3.3-3.5l-.1-3.1s1.1-.6.9-1c0 0 .3-.3 0-.6v-.3s.5-.4.1-.7c0 0 .2-1-.4-1.3v-.3s.5-.4.1-.7v-.5s.1-.6.3-.5c0 0 .2-.2.1-.3v-.9s-.2-1.4-5.9-1.5c0 0-5.6-.3-6.2 1v1.3s.1.3.6.3c0 0-.7.3-.5.8 0 0 0 .2.3.3 0 0-.9.5-.2 1 0 0-.3.4-.2 1 0 0-.6.6 0 1 0 0-.4.7.1 1.1 0 0-.5.5.7.9l-.1 2.6s0 1.5-1.5 2.3c0 0-6.3 3-6 6.3l-.5 33.6c.1-.1 0 1.3.4 1.9z" class="st3"/>
  <path d="M166.6 77.6h87.7v27.3h-87.7V77.6z" class="st1"/>
  <path d="M168.1 81.5l-.6 1.7h-.7l1.8-5.4h.8l1.8 5.4h-.7l-.6-1.7h-1.8zm1.7-.5l-.5-1.6c-.1-.4-.2-.7-.3-1-.1.3-.2.6-.3 1l-.5 1.6h1.6z" class="st0"/>
  <path d="M173.7 82.5c.2.1.6.3.9.3.5 0 .8-.3.8-.6s-.2-.5-.7-.7c-.7-.2-1-.6-1-1.1 0-.6.5-1.1 1.3-1.1.4 0 .7.1 1 .2l-.2.5c-.2-.1-.4-.2-.8-.2s-.6.2-.6.5.2.5.7.7c.7.3 1 .6 1 1.2 0 .7-.5 1.2-1.4 1.2-.4 0-.8-.1-1.1-.3l.1-.6z" class="st0"/>
  <path d="M176.9 80.6v-1.3h.6v.7c.3-.5.7-.8 1.4-.8.9 0 1.6.8 1.6 2 0 1.4-.8 2.1-1.8 2.1-.5 0-1-.2-1.2-.6v2.1h-.7l.1-4.2zm.7 1.1v.3c.1.5.6.8 1.1.8.7 0 1.2-.6 1.2-1.5 0-.8-.4-1.4-1.2-1.4-.5 0-.9.3-1.1.9v.9z" class="st0"/>
  <path d="M182.3 78.3c0 .2-.2.4-.4.4s-.4-.2-.4-.4.2-.4.4-.4c.2-.1.4.1.4.4zm-.8 4.9v-3.9h.7v3.9h-.7z" class="st0"/>
  <path d="M183.4 80.6v-1.2h.6v.8c.2-.5.6-.8 1.1-.8h.2v.6h-.2c-.5 0-.8.4-.9.9v2.4h-.7v-2.7h-.1z" class="st0"/>
  <path d="M186.8 78.3c0 .2-.2.4-.4.4s-.4-.2-.4-.4.2-.4.4-.4c.2-.1.4.1.4.4zm-.8 4.9v-3.9h.7v3.9h-.7z" class="st0"/>
  <path d="M188.7 78.3v1.1h1v.5h-1V82c0 .5.1.8.5.8h.4v.5c-.1.1-.4.1-.6.1-.3 0-.6-.1-.8-.3-.2-.2-.3-.6-.3-1V80h-.6v-.5h.6v-.9l.8-.3z" class="st0"/>
  <path d="M194.4 83.2l-.1-.5c-.2.3-.6.6-1.2.6-.8 0-1.2-.6-1.2-1.1 0-.9.8-1.4 2.3-1.4v-.1c0-.3-.1-.9-.9-.9-.4 0-.7.1-1 .3l-.2-.5c.3-.2.8-.3 1.3-.3 1.2 0 1.5.8 1.5 1.6v1.4c0 .3 0 .7.1.9h-.6zm-.1-1.9c-.8 0-1.6.1-1.6.9 0 .5.3.7.7.7.5 0 .8-.3.9-.6v-1z" class="st0"/>
  <path d="M196.1 80.4v-1h.6v.6c.2-.4.6-.7 1.3-.7.5 0 1.4.3 1.4 1.6v2.3h-.7V81c0-.6-.2-1.1-.9-1.1-.5 0-.8.3-.9.7v2.6h-.7v-2.8h-.1z" class="st0"/>
  <path d="M203.9 77.6v5.7h-.6v-.7c-.2.4-.7.8-1.3.8-.9 0-1.7-.8-1.7-2 0-1.3.8-2.1 1.7-2.1.6 0 1 .3 1.2.6v-2.3h.7zm-.7 3.3v-.3c-.1-.4-.5-.8-1-.8-.7 0-1.2.6-1.2 1.5 0 .8.4 1.4 1.1 1.4.5 0 .9-.3 1-.8l.1-1z" class="st0"/>
  <path d="M209.5 83.1c-.2.1-.6.2-1.1.2-1.2 0-1.9-.8-1.9-2s.8-2.1 2.1-2.1c.4 0 .8.1 1 .2l-.2.5c-.2-.1-.4-.2-.8-.2-.9 0-1.4.7-1.4 1.5 0 .9.6 1.4 1.3 1.4.4 0 .7-.1.9-.2l.1.7z" class="st0"/>
  <path d="M213.8 81.3c0 1.4-1 2.1-1.9 2.1-1 0-1.9-.8-1.9-2 0-1.3.8-2.1 1.9-2.1 1.1 0 1.9.8 1.9 2zm-3.1 0c0 .8.5 1.5 1.2 1.5s1.2-.6 1.2-1.5c0-.7-.3-1.5-1.2-1.5-.8 0-1.2.8-1.2 1.5z" class="st0"/>
  <path d="M215.4 81.1c.1-.1.2-.3.4-.4l1.1-1.3h.8l-1.5 1.6 1.7 2.3h-.9l-1.3-1.9-.4.4v1.5h-.7v-5.7h.7l.1 3.5z" class="st0"/>
  <path d="M218.8 81.4c0 1 .6 1.3 1.3 1.3.5 0 .8-.1 1.1-.2l.1.5c-.2.1-.7.2-1.3.2-1.2 0-1.9-.8-1.9-2s.7-2.1 1.8-2.1c1.3 0 1.6 1.1 1.6 1.8v.3h-2.7v.2zm2.1-.5c0-.4-.2-1.1-1-1.1-.7 0-1 .7-1.1 1.1h2.1z" class="st0"/>
  <path d="M224.1 77.6h.7V80c.1-.2.3-.4.5-.5s.5-.2.7-.2c.5 0 1.4.3 1.4 1.7v2.3h-.7V81c0-.6-.2-1.2-.9-1.2-.5 0-.8.3-.9.7v2.6h-.7v-5.5h-.1z" class="st0"/>
  <path d="M230.7 83.2l-.1-.5c-.2.3-.6.6-1.2.6-.8 0-1.2-.6-1.2-1.1 0-.9.8-1.4 2.3-1.4v-.1c0-.3-.1-.9-.9-.9-.4 0-.7.1-1 .3l-.2-.5c.3-.2.8-.3 1.3-.3 1.2 0 1.5.8 1.5 1.6v1.4c0 .3 0 .7.1.9h-.6zm-.1-1.9c-.8 0-1.6.1-1.6.9 0 .5.3.7.7.7.5 0 .8-.3.9-.6v-1z" class="st0"/>
  <path d="M232.3 82.5c.2.1.6.3.9.3.5 0 .8-.3.8-.6s-.2-.5-.7-.7c-.7-.2-1-.6-1-1.1 0-.6.5-1.1 1.3-1.1.4 0 .7.1 1 .2l-.2.5c-.2-.1-.4-.2-.8-.2s-.6.2-.6.5.2.5.7.7c.7.3 1 .6 1 1.2 0 .7-.5 1.2-1.4 1.2-.4 0-.8-.1-1.1-.3l.1-.6z" class="st0"/>
  <path d="M167.1 92.1c.2.1.6.3.9.3.5 0 .8-.3.8-.6s-.2-.5-.7-.7c-.7-.2-1-.6-1-1.1 0-.6.5-1.1 1.3-1.1.4 0 .7.1 1 .2l-.2.5c-.2-.1-.4-.2-.8-.2s-.6.2-.6.5.2.5.7.7c.7.3 1 .6 1 1.2 0 .7-.5 1.2-1.4 1.2-.4 0-.8-.1-1.1-.3l.1-.6z" class="st0"/>
  <path d="M171.1 87.9c0 .2-.2.4-.4.4s-.4-.2-.4-.4.2-.4.4-.4c.3-.1.4.1.4.4zm-.8 4.9V89h.7v3.9l-.7-.1z" class="st0"/>
  <path d="M172.2 90v-1h.6v.6c.2-.4.6-.7 1.2-.7.5 0 .9.3 1.1.8.1-.2.3-.4.4-.5.2-.2.5-.3.9-.3.5 0 1.3.3 1.3 1.7v2.3h-.7v-2.2c0-.7-.3-1.2-.8-1.2-.4 0-.7.3-.8.6 0 .1-.1.2-.1.4v2.4h-.7v-2.3c0-.6-.3-1.1-.8-1.1-.4 0-.8.4-.9.7 0 .1-.1.2-.1.3v2.3h-.7V90h.1z" class="st0"/>
  <path d="M179.7 87.9c0 .2-.2.4-.4.4s-.4-.2-.4-.4.2-.4.4-.4c.2-.1.4.1.4.4zm-.8 4.9V89h.7v3.9l-.7-.1z" class="st0"/>
  <path d="M180.8 87.2h.7v5.7h-.7v-5.7z" class="st0"/>
  <path d="M184.8 92.8l-.1-.5c-.2.3-.6.6-1.2.6-.8 0-1.2-.6-1.2-1.1 0-.9.8-1.4 2.3-1.4v-.1c0-.3-.1-.9-.9-.9-.4 0-.7.1-1 .3l-.2-.5c.3-.2.8-.3 1.3-.3 1.2 0 1.5.8 1.5 1.6v1.4c0 .3 0 .7.1.9h-.6zm-.1-1.9c-.8 0-1.6.1-1.6.9 0 .5.3.7.7.7.5 0 .8-.3.9-.6v-1z" class="st0"/>
  <path d="M186.5 90.2V89h.6v.8c.2-.5.6-.8 1.1-.8h.2v.7h-.2c-.5 0-.8.4-.9.9V93h-.7v-2.8h-.1z" class="st0"/>
  <path d="M193.6 92.7c-.2.1-.6.2-1.1.2-1.2 0-1.9-.8-1.9-2s.8-2.1 2.1-2.1c.4 0 .8.1 1 .2l-.2.5c-.2-.1-.4-.2-.8-.2-.9 0-1.4.7-1.4 1.5 0 .9.6 1.4 1.3 1.4.4 0 .7-.1.9-.2l.1.7z" class="st0"/>
  <path d="M196.5 92.8l-.1-.5c-.2.3-.6.6-1.2.6-.8 0-1.2-.6-1.2-1.1 0-.9.8-1.4 2.3-1.4v-.1c0-.3-.1-.9-.9-.9-.4 0-.7.1-1 .3l-.2-.5c.3-.2.8-.3 1.3-.3 1.2 0 1.5.8 1.5 1.6v1.4c0 .3 0 .7.1.9h-.6zm-.1-1.9c-.8 0-1.6.1-1.6.9 0 .5.3.7.7.7.5 0 .8-.3.9-.6v-1z" class="st0"/>
  <path d="M198.3 87.2h.7v5.7h-.7v-5.7z" class="st0"/>
  <path d="M203.6 90.9c0 1.4-1 2.1-1.9 2.1-1 0-1.9-.8-1.9-2 0-1.3.8-2.1 1.9-2.1 1.2 0 1.9.8 1.9 2zm-3 0c0 .8.5 1.5 1.2 1.5s1.2-.6 1.2-1.5c0-.7-.3-1.5-1.2-1.5s-1.2.8-1.2 1.5z" class="st0"/>
  <path d="M204.5 90.2V89h.6v.8c.2-.5.6-.8 1.1-.8h.2v.7h-.2c-.5 0-.8.4-.9.9V93h-.7v-2.8h-.1z" class="st0"/>
  <path d="M208 87.9c0 .2-.2.4-.4.4s-.4-.2-.4-.4.2-.4.4-.4c.2-.1.4.1.4.4zm-.8 4.9V89h.7v3.9l-.7-.1z" class="st0"/>
  <path d="M209.5 91c0 1 .6 1.3 1.3 1.3.5 0 .8-.1 1.1-.2l.1.5c-.2.1-.7.2-1.3.2-1.2 0-1.9-.8-1.9-2s.7-2.1 1.8-2.1c1.3 0 1.6 1.1 1.6 1.8v.3h-2.7v.2zm2-.5c0-.4-.2-1.1-1-1.1-.7 0-1 .7-1.1 1.1h2.1z" class="st0"/>
  <path d="M213 92.1c.2.1.6.3.9.3.5 0 .8-.3.8-.6s-.2-.5-.7-.7c-.7-.2-1-.6-1-1.1 0-.6.5-1.1 1.3-1.1.4 0 .7.1 1 .2l-.2.5c-.2-.1-.4-.2-.8-.2s-.6.2-.6.5.2.5.7.7c.7.3 1 .6 1 1.2 0 .7-.5 1.2-1.4 1.2-.4 0-.8-.1-1.1-.3l.1-.6z" class="st0"/>
  <path d="M218.8 87.9V89h1v.5h-1v2.1c0 .5.1.8.5.8h.4v.5c-.1.1-.4.1-.6.1-.3 0-.6-.1-.8-.3-.2-.2-.3-.6-.3-1v-2.1h-.6V89h.6v-1l.8-.1z" class="st0"/>
  <path d="M224 90.9c0 1.4-1 2.1-1.9 2.1-1 0-1.9-.8-1.9-2 0-1.3.8-2.1 1.9-2.1 1.2 0 1.9.8 1.9 2zm-3 0c0 .8.5 1.5 1.2 1.5s1.2-.6 1.2-1.5c0-.7-.3-1.5-1.2-1.5s-1.2.8-1.2 1.5z" class="st0"/>
  <path d="M228.8 92.8l-.1-.5c-.2.3-.6.6-1.2.6-.8 0-1.2-.6-1.2-1.1 0-.9.8-1.4 2.3-1.4v-.1c0-.3-.1-.9-.9-.9-.4 0-.7.1-1 .3l-.2-.5c.3-.2.8-.3 1.3-.3 1.2 0 1.5.8 1.5 1.6v1.4c0 .3 0 .7.1.9h-.6zm-.1-1.9c-.8 0-1.6.1-1.6.9 0 .5.3.7.7.7.5 0 .8-.3.9-.6v-1z" class="st0"/>
  <path d="M167.2 97.1c.3-.1.8-.1 1.3-.1.7 0 1.1.1 1.5.4.3.2.4.5.4 1s-.3 1-.9 1.2c.5.1 1.1.6 1.1 1.4 0 .5-.2.8-.5 1.1-.4.3-1 .5-1.9.5-.5 0-.8 0-1.1-.1l.1-5.4zm.7 2.2h.6c.7 0 1.2-.4 1.2-.9 0-.6-.5-.9-1.2-.9h-.6v1.8zm0 2.6h.6c.7 0 1.4-.3 1.4-1s-.6-1-1.4-1h-.6v2z" class="st0"/>
  <path d="M171.5 97.1h.7v4.8h2.3v.6h-3v-5.4z" class="st0"/>
  <path d="M175.7 97.1v3.2c0 1.2.5 1.7 1.3 1.7s1.3-.5 1.3-1.7v-3.2h.7v3.1c0 1.7-.9 2.3-2 2.3s-1.9-.6-1.9-2.3V97l.6.1z" class="st0"/>
  <path d="M183 99.9h-2.1v1.9h2.3v.6h-3V97h2.9v.6h-2.2v1.7h2.1v.6z" class="st0"/>
  <path d="M184.1 97.1c.3-.1.8-.1 1.3-.1.7 0 1.1.1 1.5.4.3.2.4.5.4 1s-.3 1-.9 1.2c.5.1 1.1.6 1.1 1.4 0 .5-.2.8-.5 1.1-.4.3-1 .5-1.9.5-.5 0-.8 0-1.1-.1l.1-5.4zm.7 2.2h.6c.7 0 1.2-.4 1.2-.9 0-.6-.5-.9-1.2-.9h-.6v1.8zm0 2.6h.6c.7 0 1.4-.3 1.4-1s-.6-1-1.4-1h-.6v2z" class="st0"/>
  <path d="M191.3 99.9h-2.1v1.9h2.3v.6h-3V97h2.9v.6h-2.2v1.7h2.1v.6z" class="st0"/>
  <path d="M192.4 97.1c.4-.1.9-.1 1.3-.1.7 0 1.2.1 1.6.4.3.2.4.6.4 1 0 .7-.4 1.2-1 1.4.4.1.7.5.8 1.1.2.8.3 1.3.4 1.5h-.7c-.1-.2-.2-.6-.4-1.3-.2-.7-.4-1-1.1-1h-.7v2.3h-.7l.1-5.3zm.7 2.5h.7c.7 0 1.2-.4 1.2-1 0-.7-.5-1-1.2-1-.3 0-.6 0-.7.1v1.9z" class="st0"/>
  <path d="M196.7 97.1c.4-.1.9-.1 1.3-.1.7 0 1.2.1 1.6.4.3.2.4.6.4 1 0 .7-.4 1.2-1 1.4.4.1.7.5.8 1.1.2.8.3 1.3.4 1.5h-.7c-.1-.2-.2-.6-.4-1.3-.2-.7-.4-1-1.1-1h-.7v2.3h-.7l.1-5.3zm.7 2.5h.7c.7 0 1.2-.4 1.2-1 0-.7-.5-1-1.2-1-.3 0-.6 0-.7.1v1.9z" class="st0"/>
  <path d="M202.1 102.4v-2.3l-1.7-3.1h.8l.8 1.5c.2.4.4.7.5 1.1.2-.4.3-.7.5-1.1l.8-1.5h.8l-1.8 3.1v2.3h-.7z" class="st0"/>
  <path d="M211.5 100.1c0-.8-.1-1.7-.1-2.3-.2.6-.4 1.3-.7 2l-1 2.6h-.5l-.9-2.6c-.3-.8-.5-1.5-.6-2.1 0 .7-.1 1.6-.1 2.4l-.1 2.3h-.7l.4-5.4h.9l.9 2.6c.2.7.4 1.3.5 1.8.1-.5.3-1.1.6-1.8l1-2.6h.9l.3 5.4h-.7l-.1-2.3z" class="st0"/>
  <path d="M214.1 97.1v3.2c0 1.2.5 1.7 1.3 1.7s1.3-.5 1.3-1.7v-3.2h.7v3.1c0 1.7-.9 2.3-2 2.3s-1.9-.6-1.9-2.3V97l.6.1z" class="st0"/>
  <path d="M218.6 97.1h2.9v.6h-2.2v1.8h2v.6h-2v2.4h-.7v-5.4z" class="st0"/>
  <path d="M222.5 97.1h2.9v.6h-2.2v1.8h2v.6h-2v2.4h-.7v-5.4z" class="st0"/>
  <path d="M227.1 97.1v5.4h-.7v-5.4h.7z" class="st0"/>
  <path d="M228.3 102.4V97h.8l1.7 2.7c.4.6.7 1.2 1 1.8-.1-.7-.1-1.4-.1-2.2V97h.7v5.4h-.7l-1.7-2.7c-.4-.6-.7-1.2-1-1.8 0 .7.1 1.3.1 2.2v2.3h-.8z" class="st0"/>
  <path d="M.6 80.3s3-.7 8.6-.7c0 0 7.5 0 8.3.7l-2.8 21.1s-4.6 2.6-10.7 0L.6 80.3z" class="st4"/>
  <path d="M80.7 86.9h12.5v2.8H80.7v-2.8z" class="st2"/>
  <path d="M80.7 92.4h12.5v2.8H80.7v-2.8z" class="st2"/>
  <path d="M33.1 84.8v12.5h-2.8V84.8h2.8z" class="st2"/>
  <path d="M25.5 89.7H38v2.8H25.5v-2.8z" class="st2"/>
  <path d="M45.8 109s.8 1.3 2.1 2c0 0 .9.7 1 .9 0 0 .2.7 2.5 1.1 0 0 8 1.5 12.9 0 0 0 2.1-.6 2.3-.7 0 0 .6-.4.8-.6l.3-.3c.5-.4 1.8-1.5 2.1-1.6 0 0 .5-.2.6-.8l.1-35.2s-.3-1.3-.8-2l-1.4-2.5s-.2-.4-.2-.7c0 0 .2-.2.2-.6 0 0 0-.5-.1-.6 0 0-.4-1-4.9-1.3 0 0-6-.5-9.3 0 0 0-3.7.1-5.9 1.1 0 0-.4.1-.3.7 0 0 .1.6.2.7 0 0-.2 1-.8 1.7 0 0-1.5 2.5-1.6 3l.2 35.7z" class="st3"/>
  <path d="M58.8 111.9s3.7.1 6.2-.3c0 0 3.6-5.3 2.6-15.6 0 0-.8-6.6-1.1-7 0 0-.8-4.6-1-4.7 0 0-1.4-6.4-1.3-8 0 0-.5-7.6.8-8.8h-3s-.2 5.3 1.5 9.2c0 0 2.3 9 2.2 12.1 0 0 0 9.6-1.5 12.8 0 0-2.5 6.9-5.4 10.3z" class="st0"/>
  <path d="M105 89.7s-1.1-2.4.4-4c0 0 1.5-3.5 2.3-3.7 0 0 1.7-2.9 2.4-3.2 0 0 1.2-1.8 2.6-1.9 0 0 1.8-1.6 2.6-1.5 0 0 .4-.6.8-.5l.5-.2s.2-.3.3-.3c0 0 2.1-1.7 2.2-2h.3s3.4-3 4.5-3.1c0 0 .4.2.4.3l1.2.1s.3-1 .8.1l4.9-.4s1.6-1.4 4-.3l1-.1s.4-.5 1.1-.4c0 0 1.4-1.4 3.5 1.2 0 0 .6.3.9.6 0 0 1.2.1 2 1.2 0 0 4.6 4.8 6.2 5.8 0 0 2.3 2.2 3.5 4.5 0 0 .1.2 0 .4 0 0 .5.7 1.2 2.6 0 0 2 2.7 2 4.1l.3.3s.1.2-.2.6c0 0 .4.9-.1 1.4l-7.5 16.9s-.8 2.5-1.9 3.3c0 0-3.9 5.5-18.2 5.3 0 0-12.4-.3-15.7-6.2 0 0-.8-1.2-2.1-5l-6.8-15.7c.1-.1.2-.3.6-.2z" class="st4"/>
  <path d="M114.2 81.2s-.2-.2-.4-.2c0 0-.2-.7-.8-.6 0 0-.6-.1-.8.2 0 0-1.4.3-1 1.8 0 0-.2.6-.1.7 0 0-.6.4-.4.8 0 0-.1 1.1 1 .7 0 0 .9-.4.8-.7 0 0 .7-.3 1.1-.9 0 0 .2-.5.1-.8 0 .2 1-.1.5-1z" class="st7"/>
  <path d="M127.5 76s-.8-.4-.8-.7c0 0-.5-.4-.3-.5l1-.2s.7-.8 1-.7c0 0 .3-.6 1.2-.4l.4.1s.7-.4.9.5c0 0 .5.4.1.8 0 0-.2.5-1 .5 0 0-.8.1-1 .3-.1 0-1-.2-1.5.3z" class="st7"/>
  <path d="M135.3 85.1s1.2.2 1.5-1c0 0-.1-1.1-.5-1.4 0 0-.9-1-1.9-.8 0 0-1.5-.4-1.3 1.3 0 0 0 1 1.4 1.4 0-.2.8.4.8.5z" class="st7"/>
  <path d="M145.5 78.8s.3-.2.6-.1c0 0 .1-.5.5-.3 0 0 .2 0 .3.4 0 0 .2.2.4.2 0 0 .9.2 1.4 1.4 0 0 .3.6.7.7 0 0 .1.2-.2.2 0 0 .2.5.1.9 0 0-.8-.8-1.1-.7 0 0-.5-.6-.8-.5 0 0-1-1.1-1.2-1l-.6-1s-.1-.1-.1-.2z" class="st7"/>
</svg>
