<svg xmlns="http://www.w3.org/2000/svg" id="Layer_1" viewBox="0 0 176 101">
  <style>
    .st0{fill:#FFFFFF;} .st1{fill:none;} .st2{fill:none;stroke:#FFFFFF;stroke-miterlimit:10;} .st3{fill:#FFFFFF;stroke:#FFFFFF;stroke-width:0.3629;stroke-miterlimit:10;} .st4{fill:#FFFFFF;stroke:#FFFFFF;stroke-width:0.3983;stroke-miterlimit:10;} .st5{fill:#C4D82E;stroke:#C4D82E;stroke-width:8.680066e-02;stroke-miterlimit:10;} .st6{fill:#FFFFFF;stroke:#FFFFFF;stroke-width:0.3404;stroke-miterlimit:10;} .st7{fill:#FFFFFF;stroke:#FFFFFF;stroke-width:0.3529;stroke-miterlimit:10;} .st8{fill:#51BA83;}
  </style>
  <path d="M1.4 3.1c1-.1 2.1-.3 3.3-.3 2.3 0 3.9.5 4.9 1.5 1.1 1 1.7 2.4 1.7 4.4 0 2-.6 3.6-1.7 4.7s-3 1.7-5.4 1.7c-1.1 0-2.1-.1-2.8-.1V3.1zm1.5 10.7c.4.1 1 .1 1.6.1 3.3 0 5.2-1.9 5.2-5.1 0-2.9-1.6-4.7-4.9-4.7-.8 0-1.5.1-1.9.1v9.6z" class="st0"/>
  <path d="M13.4 3.1c.8-.2 1.9-.3 3-.3 1.7 0 2.8.3 3.5 1 .6.5 1 1.4 1 2.3 0 1.6-1 2.7-2.3 3.1v.1c.9.3 1.5 1.2 1.8 2.4.4 1.7.7 2.9.9 3.3h-1.6c-.2-.3-.5-1.4-.8-2.9-.4-1.7-1-2.3-2.4-2.4H15V15h-1.6V3.1zm1.5 5.5h1.6c1.7 0 2.7-.9 2.7-2.3 0-1.6-1.1-2.3-2.8-2.3-.8 0-1.3.1-1.5.1v4.5z" class="st0"/>
  <path d="M24.6 2.9V15H23V2.9h1.6z" class="st0"/>
  <path d="M27.3 15.1V2.9H29L32.9 9c.9 1.4 1.6 2.7 2.2 3.9-.1-1.5-.1-3-.1-4.9V2.9h1.5V15h-1.6L31 8.9c-.8-1.4-1.7-2.7-2.3-4.1h-.1c.1 1.5.1 3 .1 5V15h-1.4z" class="st0"/>
  <path d="M39.2 2.9h1.6v5.9h.1c.3-.5.6-.9 1-1.3l3.7-4.6h1.9L43 8.1l4.7 7h-1.9l-4-6-1.2 1.3V15H39V2.9z" class="st0"/>
  <path d="M54.3 2.9V15h-1.6V2.9h1.6z" class="st0"/>
  <path d="M57.1 15.1V2.9h1.7L62.7 9c.9 1.4 1.6 2.7 2.2 3.9-.1-1.6-.2-3.1-.2-5v-5h1.5V15h-1.6l-3.9-6.2c-.8-1.4-1.7-2.7-2.3-4.1h-.1c.1 1.5.1 3 .1 5v5.2h-1.3z" class="st0"/>
  <path d="M82.9 9.7c0-1.7-.2-3.7-.1-5.2h-.1c-.4 1.4-.9 2.9-1.5 4.6L79 15h-1.2l-2-5.8c-.6-1.7-1.1-3.3-1.4-4.7 0 1.5-.1 3.5-.2 5.4l-.3 5.2h-1.5L73.2 3h2l2.1 5.9c.5 1.5.9 2.8 1.2 4.1h.1c.3-1.2.7-2.6 1.3-4.1l2.1-6h2l.8 12.1h-1.5l-.4-5.3z" class="st0"/>
  <path d="M97.6 8.9c0 4.2-2.5 6.4-5.6 6.4-3.2 0-5.5-2.5-5.5-6.2 0-3.9 2.4-6.4 5.6-6.4 3.3 0 5.5 2.6 5.5 6.2zm-9.5.2c0 2.6 1.4 4.9 3.9 4.9s3.9-2.3 3.9-5c0-2.5-1.3-5-3.9-5-2.6 0-3.9 2.4-3.9 5.1z" class="st0"/>
  <path d="M99.6 3.1c1-.1 2.1-.3 3.3-.3 2.3 0 3.9.5 4.9 1.5 1.1 1 1.7 2.4 1.7 4.4 0 2-.6 3.6-1.7 4.7s-3 1.7-5.4 1.7c-1.1 0-2.1-.1-2.8-.1V3.1zm1.6 10.7c.4.1 1 .1 1.6.1 3.3 0 5.2-1.9 5.2-5.1 0-2.9-1.6-4.7-4.9-4.7-.8 0-1.4.1-1.8.2v9.5z" class="st0"/>
  <path d="M117.9 9.4h-4.7v4.4h5.3v1.3h-6.8V2.9h6.6v1.3h-5V8h4.7v1.4z" class="st0"/>
  <path d="M120.4 3.1c.8-.2 1.9-.3 3-.3 1.7 0 2.8.3 3.5 1 .6.5 1 1.4 1 2.3 0 1.6-1 2.7-2.3 3.1v.1c.9.3 1.5 1.2 1.8 2.4.4 1.7.7 2.9.9 3.3h-1.6c-.2-.3-.5-1.4-.8-2.9-.4-1.7-1-2.3-2.4-2.4H122V15h-1.6V3.1zm1.6 5.5h1.6c1.7 0 2.7-.9 2.7-2.3 0-1.6-1.1-2.3-2.8-2.3-.8 0-1.3.1-1.5.1v4.5z" class="st0"/>
  <path d="M132.2 11.2l-1.3 3.8h-1.6l4.1-12.1h1.9l4.1 12.1h-1.7l-1.3-3.8h-4.2zm4-1.2L135 6.5c-.3-.8-.5-1.5-.6-2.2l-.6 2.2-1.2 3.5h3.6z" class="st0"/>
  <path d="M142.1 4.3h-3.7V2.9h9v1.3h-3.7V15h-1.6V4.3z" class="st0"/>
  <path d="M150.4 2.9V15h-1.6V2.9h1.6z" class="st0"/>
  <path d="M163.5 8.9c0 4.2-2.5 6.4-5.6 6.4-3.2 0-5.5-2.5-5.5-6.2 0-3.9 2.4-6.4 5.6-6.4 3.3 0 5.5 2.6 5.5 6.2zm-9.5.2c0 2.6 1.4 4.9 3.9 4.9s3.9-2.3 3.9-5c0-2.4-1.3-4.9-3.9-4.9-2.6-.1-3.9 2.3-3.9 5z" class="st0"/>
  <path d="M165.5 15.1V2.9h1.7l3.9 6.1c.9 1.4 1.6 2.7 2.2 3.9-.1-1.6-.2-3.1-.2-5v-5h1.5V15H173l-3.9-6.2c-.8-1.4-1.7-2.7-2.3-4.1h-.1c.1 1.5.1 3 .1 5v5.2h-1.3z" class="st0"/>
  <path d="M30.9 22.4h119.4v9.8H30.9z" class="st1"/>
  <path d="M33.2 30.9l-2.1-8.1h1.1l1 4.1c.2 1 .5 2 .6 2.8.1-.8.4-1.8.7-2.8l1.1-4.1h1.1l1 4.1c.2 1 .4 1.9.6 2.8.2-.9.4-1.8.6-2.8l1.1-4.1h1l-2.3 8.1h-1.1l-1-4.2c-.3-1-.4-1.8-.5-2.6-.1.8-.3 1.6-.6 2.6l-1.2 4.2h-1.1z" class="st0"/>
  <path d="M41.9 22.4H43V26c.2-.3.4-.6.8-.7.3-.2.7-.3 1.1-.3.8 0 2 .5 2 2.5V31h-1.1v-3.3c0-.9-.3-1.7-1.3-1.7-.7 0-1.2.5-1.4 1.1-.1 0-.1.1-.1.3v3.5h-1.1v-8.5z" class="st0"/>
  <path d="M51.8 30.9l-.1-.7c-.3.5-.9.9-1.8.9-1.2 0-1.8-.8-1.8-1.7 0-1.4 1.2-2.2 3.5-2.2v-.1c0-.5-.1-1.3-1.3-1.3-.5 0-1.1.2-1.5.4l-.2-.7c.5-.3 1.2-.5 1.9-.5 1.8 0 2.2 1.2 2.2 2.4v2.2c0 .5 0 1 .1 1.4h-1zm-.2-2.9c-1.2 0-2.5.2-2.5 1.3 0 .7.5 1 1 1 .8 0 1.2-.5 1.4-1 0-.1.1-.2.1-.3v-1z" class="st0"/>
  <path d="M55.6 23.5v1.7h1.5v.8h-1.5v3.1c0 .7.2 1.1.8 1.1.3 0 .5 0 .6-.1v.8c-.2.1-.5.1-.9.1-.5 0-.9-.2-1.1-.4-.3-.3-.4-.8-.4-1.5v-3.2h-.9v-.8h.9v-1.4l1-.2z" class="st0"/>
  <path d="M62 23.5c0 .4-.3.6-.7.6-.4 0-.6-.3-.6-.6 0-.4.3-.7.7-.7.3 0 .6.3.6.7zm-1.2 7.4v-5.8h1.1v5.8h-1.1z" class="st0"/>
  <path d="M63.5 29.9c.3.2.9.4 1.4.4.8 0 1.1-.4 1.1-.9s-.3-.8-1.1-1.1c-1-.4-1.5-.9-1.5-1.6 0-.9.8-1.7 2-1.7.6 0 1.1.2 1.4.4l-.3.8c-.2-.1-.6-.3-1.2-.3s-1 .4-1 .8c0 .5.3.7 1.1 1 1 .4 1.5.9 1.5 1.8 0 1-.8 1.7-2.2 1.7-.6 0-1.2-.2-1.6-.4l.4-.9z" class="st0"/>
  <path d="M70.9 26.7v-1.6h.9v.9c.3-.6.9-1.1 1.8-1.1.8 0 1.4.5 1.6 1.2.2-.3.4-.6.6-.8.3-.3.7-.4 1.3-.4.8 0 1.9.5 1.9 2.5v3.4h-1v-3.3c0-1.1-.4-1.8-1.3-1.8-.6 0-1.1.4-1.2 1 0 .1-.1.3-.1.5v3.6h-1v-3.5c0-.9-.4-1.6-1.2-1.6-.7 0-1.1.5-1.3 1.1-.1.2-.1.3-.1.5v3.5h-1v-4.1z" class="st0"/>
  <path d="M86.2 28c0 2.1-1.5 3.1-2.9 3.1-1.6 0-2.8-1.2-2.8-3 0-1.9 1.3-3.1 2.9-3.1 1.6 0 2.8 1.2 2.8 3zm-4.6 0c0 1.3.7 2.2 1.8 2.2 1 0 1.8-.9 1.8-2.3 0-1-.5-2.2-1.7-2.2-1.4.1-1.9 1.2-1.9 2.3z" class="st0"/>
  <path d="M92.5 22.4v8.5h-.9v-1c-.3.6-1 1.1-2 1.1-1.4 0-2.5-1.2-2.5-3 0-1.9 1.2-3.1 2.6-3.1.9 0 1.5.4 1.8.9v-3.5h1zm-1 5.1v-.4c-.2-.7-.7-1.2-1.5-1.2-1.1 0-1.7 1-1.7 2.2 0 1.2.6 2.1 1.7 2.1.7 0 1.4-.5 1.5-1.3v-1.4z" class="st0"/>
  <path d="M94.9 28.2c0 1.4.9 2 2 2 .8 0 1.2-.1 1.6-.3l.2.8c-.4.2-1 .4-1.9.4-1.8 0-2.9-1.2-2.9-2.9s1-3.1 2.7-3.1c1.9 0 2.4 1.7 2.4 2.7v.5h-4.1zm3.1-.7c0-.7-.3-1.7-1.5-1.7-1.1 0-1.5 1-1.6 1.7H98z" class="st0"/>
  <path d="M100.3 26.9v-1.8h.9v1.1c.3-.8.9-1.3 1.6-1.3h.3v1h-.4c-.7 0-1.3.6-1.4 1.4v3.6h-1v-4z" class="st0"/>
  <path d="M107.4 30.9l-.1-.7c-.3.5-.9.9-1.8.9-1.2 0-1.8-.8-1.8-1.7 0-1.4 1.2-2.2 3.5-2.2v-.1c0-.5-.1-1.3-1.3-1.3-.5 0-1.1.2-1.5.4l-.2-.7c.5-.3 1.2-.5 1.9-.5 1.8 0 2.2 1.2 2.2 2.4v2.2c0 .5 0 1 .1 1.4h-1zm-.2-2.9c-1.2 0-2.5.2-2.5 1.3 0 .7.5 1 1 1 .8 0 1.2-.5 1.4-1 0-.1.1-.2.1-.3v-1z" class="st0"/>
  <path d="M111.2 23.5v1.7h1.5v.8h-1.5v3.1c0 .7.2 1.1.8 1.1.3 0 .5 0 .6-.1v.8c-.2.1-.5.1-.9.1-.5 0-.9-.2-1.1-.4-.3-.3-.4-.8-.4-1.5v-3.2h-.9v-.8h.9v-1.4l1-.2z" class="st0"/>
  <path d="M115 23.5c0 .4-.3.6-.7.6-.4 0-.6-.3-.6-.6 0-.4.3-.7.7-.7.4 0 .6.3.6.7zm-1.1 7.4v-5.8h1.1v5.8h-1.1z" class="st0"/>
  <path d="M121.9 28c0 2.1-1.5 3.1-2.9 3.1-1.6 0-2.8-1.2-2.8-3 0-1.9 1.3-3.1 2.9-3.1 1.7 0 2.8 1.2 2.8 3zm-4.6 0c0 1.3.7 2.2 1.8 2.2 1 0 1.8-.9 1.8-2.3 0-1-.5-2.2-1.7-2.2s-1.9 1.2-1.9 2.3z" class="st0"/>
  <path d="M123.3 26.7v-1.6h.9l.1 1c.3-.6 1-1.1 1.9-1.1.8 0 2.1.5 2.1 2.5V31h-1.1v-3.3c0-.9-.3-1.7-1.3-1.7-.7 0-1.2.5-1.4 1.1 0 .1-.1.3-.1.5v3.5h-1.1v-4.4z" class="st0"/>
  <path d="M130.7 28.6v-.3c-.1-.6.1-1.4.7-2.1.5-.6.8-1.1.8-1.6 0-.6-.4-1-1.1-1-.4 0-.9.1-1.2.4l-.3-.8c.4-.3 1.1-.5 1.7-.5 1.4 0 2 .9 2 1.8 0 .8-.5 1.4-1 2.1-.5.6-.7 1.2-.7 1.8v.3h-.9zm-.2 1.7c0-.4.3-.8.7-.8s.7.3.7.8c0 .4-.3.7-.7.7-.4.1-.7-.3-.7-.7z" class="st0"/>
  <path d="M13.1 34.2h155" class="st2"/>
  <circle cx="17.1" cy="61.9" r="3.8" class="st3"/>
  <path d="M12.7 66.6h8.4V99c0 2-1.8 1.8-1.8 1.8-1.6 0-1.8-1.6-1.8-1.6v-16h-1.2V99c0 2-1.8 1.8-1.8 1.8-1.6 0-1.8-1.6-1.8-1.6V72.8h-.8v9.1c-.1 1.5-1.6 1.3-1.6 1.3-1.1 0-1.3-1.3-1.3-1.3V69.7c.6-2.9 3.7-3.1 3.7-3.1z" class="st4"/>
  <path d="M24.9 69.7v12.2s-.2 1.3-1.3 1.3c0 0-1.4.2-1.6-1.3v-9.1h-.8v-6.2s3.2.1 3.7 3.1z" class="st4"/>
  <path d="M55.4 50s1.8-.7 4.3 0c0 0 .6.1.5 1.4 0 0 .1.1-.2 0 0 0 .4 1 .3 1.8 0 0 0 .1-.5.1v.1s.1.1.2.1c0 0 1.1 12.1 1 12.9 0 0 0 1.2.7 2 0 0 1.9 1.6 2.1 3.4 0 0 .2 2.2 0 2.8 0 0-.1.2-.1.3l-.1 21.4s.2.2.1.6c0 0 .1 2.6-.5 3 0 0-4.4 1.8-11.6 0 0 0-.8-.2-.5-3.7L51 75.1s-.6-3.9 1.1-5.7c0 0 1.8-1.8 1.8-2.6l.6-6.7.7-6.8s0-.1.2-.2c0 0-.5-.1-.5-.2 0 0 0-1.4.4-1.7 0 0-.4-.2-.4-.3.1.3.1-.5.5-.9z" class="st5"/>
  <path d="M71.8 50s1.8-.7 4.3 0c0 0 .6.1.5 1.4 0 0 .1.1-.2 0 0 0 .4 1 .3 1.8 0 0 0 .1-.5.1v.1s.1.1.2.1c0 0 1.1 12.1 1 12.9 0 0 0 1.2.7 2 0 0 1.9 1.6 2.1 3.4 0 0 .2 2.2 0 2.8 0 0-.1.2-.1.3L80 96.3s.2.2.1.6c0 0 .1 2.6-.5 3 0 0-4.4 1.8-11.6 0 0 0-.8-.2-.5-3.7l-.1-21.1s-.6-3.9 1.1-5.7c0 0 1.8-1.8 1.8-2.6l.6-6.7.7-6.8s0-.1.2-.2c0 0-.5-.1-.5-.2 0 0 0-1.4.4-1.7 0 0-.4-.2-.4-.3 0 .3 0-.5.5-.9z" class="st5"/>
  <circle cx="122.5" cy="58.9" r="3.6" class="st6"/>
  <path d="M131.2 78.8c-.1 0-1.7.3-1.9-1.6l-2.6-8.3s0-.5-.7-.4l-.2-.8v.8s0 .1.1.1h.2l4.8 16.3h-4.5v12.3c-.1 1.6-1.7 1.5-1.7 1.5-1.5-.2-1.5-1.5-1.5-1.5V84.4h-1V97c-.1 1.6-1.7 1.5-1.7 1.5-1.5-.2-1.5-1.5-1.5-1.5V84.8h-4.4l4.6-16.3h.1s.1 0 .1-.1v-.8l-.2.8c-.7-.1-.7.4-.7.4l-2.6 8.3c-.2 1.9-1.8 1.6-1.9 1.6-1.2-.4-1.2-1.5-1.2-1.6l3.1-10.2c.9-2.7 3-3.3 3.4-3.4 0 0 .1 0 .1.1 0 0 0-.1.1-.1h6.4s.1 0 .1.1c0 0 0-.1.1-.1.4.1 2.5.7 3.4 3.4l3.1 10.2c-.3.2-.3 1.3-1.4 1.7z" class="st7"/>
  <path d="M162.3 47.4s1.8-.7 4.3 0c0 0 .6.1.5 1.4 0 0 .1.1-.2 0 0 0 .4 1 .3 1.8 0 0 0 .1-.5.1v.1s.1.1.2.1c0 0 1.1 12.1 1 12.9 0 0 0 1.2.7 2 0 0 1.9 1.6 2.1 3.4 0 0 .2 2.2 0 2.8 0 0-.1.2-.1.3l-.1 21.4s.2.2.1.6c0 0 .1 2.6-.5 3 0 0-4.4 1.8-11.6 0 0 0-.8-.2-.5-3.7v-21s-.6-3.9 1.1-5.7c0 0 1.8-1.8 1.8-2.6l.6-6.7.7-6.8s0-.1.2-.2c0 0-.5-.1-.5-.2 0 0 0-1.4.4-1.7 0 0-.4-.2-.4-.3 0 .2 0-.6.4-1z" class="st5"/>
  <path d="M31 74.9h13.9V78H31z" class="st8"/>
  <path d="M31 81h13.9v3.1H31z" class="st8"/>
  <path d="M136.5 71.5h13.9v3.1h-13.9z" class="st8"/>
  <path d="M136.5 77.6h13.9v3.1h-13.9z" class="st8"/>
</svg>
