<svg xmlns="http://www.w3.org/2000/svg" id="Layer_1" viewBox="0 0 253.3 206.2">
  <style>
    .st0{fill:#FFFFFF;} .st1{fill:#008743;} .st2{fill:#006C38;} .st3{fill:#C4D82E;} .st4{fill:#51BA83;stroke:#51BA83;stroke-miterlimit:10;} .st5{fill:#C4D82E;stroke:#C4D82E;stroke-miterlimit:10;} .st6{fill:#FFFFFF;stroke:#FFFFFF;stroke-miterlimit:10;}
  </style>
  <path d="M10.1 3.1c1-.1 2.1-.3 3.3-.3 2.3 0 3.9.5 4.9 1.5 1.1 1 1.7 2.4 1.7 4.4 0 2-.6 3.6-1.7 4.7s-3 1.7-5.4 1.7c-1.1 0-2.1-.1-2.8-.1V3.1zm1.6 10.7c.4.1 1 .1 1.6.1 3.3 0 5.2-1.9 5.2-5.1 0-2.9-1.6-4.7-4.9-4.7-.8 0-1.4.1-1.8.2v9.5z" class="st0"/>
  <path d="M23.7 2.9V15h-1.6V2.9h1.6z" class="st0"/>
  <path d="M26.4 3.1c1-.1 2.1-.3 3.3-.3 2.3 0 3.9.5 4.9 1.5 1.1 1 1.7 2.4 1.7 4.4 0 2-.6 3.6-1.7 4.7s-3 1.7-5.4 1.7c-1.1 0-2.1-.1-2.8-.1V3.1zM28 13.8c.4.1 1 .1 1.6.1 3.3 0 5.2-1.9 5.2-5.1 0-2.9-1.6-4.7-4.9-4.7-.8 0-1.4.1-1.8.2v9.5z" class="st0"/>
  <path d="M44.1 15.1V9.9l-3.8-7h1.8l1.7 3.3c.5.9.8 1.7 1.2 2.5.3-.8.8-1.6 1.2-2.5L48 2.9h1.8l-4.1 7v5.2h-1.6z" class="st0"/>
  <path d="M60.9 8.9c0 4.2-2.5 6.4-5.6 6.4-3.2 0-5.5-2.5-5.5-6.2 0-3.9 2.4-6.4 5.6-6.4 3.3 0 5.5 2.6 5.5 6.2zm-9.5.2c0 2.6 1.4 4.9 3.9 4.9s3.9-2.3 3.9-5c0-2.4-1.3-4.9-3.9-4.9-2.6-.1-3.9 2.3-3.9 5z" class="st0"/>
  <path d="M64.5 2.9v7.2c0 2.7 1.2 3.9 2.8 3.9 1.8 0 3-1.2 3-3.9V2.9h1.6V10c0 3.7-2 5.3-4.6 5.3-2.5 0-4.4-1.4-4.4-5.2V2.9h1.6z" class="st0"/>
  <path d="M78.4 2.9H80v5.9c.3-.5.6-.9 1-1.3l3.7-4.6h1.9L82.2 8l4.7 7H85l-4-6-1.2 1.3v4.6h-1.6v-12z" class="st0"/>
  <path d="M88.1 15.1V2.9h1.7L93.7 9c.9 1.4 1.6 2.7 2.2 3.9-.1-1.6-.2-3.1-.2-5v-5h1.5V15h-1.6l-3.9-6.2c-.8-1.4-1.7-2.7-2.3-4.1h-.1c.1 1.5.1 3 .1 5v5.2h-1.3z" class="st0"/>
  <path d="M110.3 8.9c0 4.2-2.5 6.4-5.6 6.4-3.2 0-5.5-2.5-5.5-6.2 0-3.9 2.4-6.4 5.6-6.4 3.4 0 5.5 2.6 5.5 6.2zm-9.4.2c0 2.6 1.4 4.9 3.9 4.9s3.9-2.3 3.9-5c0-2.4-1.3-4.9-3.9-4.9-2.6-.1-3.9 2.3-3.9 5z" class="st0"/>
  <path d="M114.3 15.1L111.2 3h1.7l1.4 6.1c.4 1.5.7 3 .9 4.2.2-1.2.6-2.6 1-4.2l1.6-6.1h1.6l1.5 6.2c.3 1.4.7 2.9.8 4.2.3-1.3.6-2.7 1-4.2l1.6-6.1h1.6l-3.4 12.1H121l-1.5-6.3c-.4-1.5-.6-2.7-.8-4-.2 1.2-.5 2.4-.9 4l-1.7 6.3h-1.8z" class="st0"/>
  <path d="M128.8 11.6v-.5c-.1-1 .2-2 1.1-3.1.8-1 1.3-1.7 1.3-2.5 0-.9-.6-1.5-1.7-1.5-.6 0-1.4.2-1.8.6l-.4-1.1c.6-.4 1.6-.7 2.6-.7 2.1 0 3 1.3 3 2.6 0 1.2-.7 2.1-1.5 3.1-.8.9-1.1 1.7-1 2.6v.5h-1.6zm-.4 2.5c0-.7.5-1.1 1.1-1.1.6 0 1.1.5 1.1 1.1 0 .6-.4 1.1-1.1 1.1-.7.1-1.1-.4-1.1-1.1z" class="st0"/>
  <path d="M29.7 69.7v-2.2l2.8-2.7c6.7-6.3 9.7-9.7 9.7-13.6 0-2.6-1.3-5.1-5.2-5.1-2.4 0-4.3 1.2-5.5 2.2l-1.1-2.5c1.8-1.5 4.4-2.6 7.4-2.6 5.6 0 8 3.8 8 7.6 0 4.8-3.5 8.7-9 14l-2.1 1.9v.1h11.7v2.9H29.7z" class="st1"/>
  <path d="M49.1 74.6c.9-2.4 2-6.7 2.4-9.6l3.9-.4c-.9 3.4-2.7 7.9-3.8 9.7l-2.5.3z" class="st1"/>
  <path d="M75.9 56.4c0 8.9-3.3 13.8-9.1 13.8-5.1 0-8.5-4.8-8.6-13.4 0-8.7 3.8-13.6 9.1-13.6 5.4 0 8.6 4.9 8.6 13.2zm-14.2.4c0 6.8 2.1 10.6 5.3 10.6 3.6 0 5.3-4.2 5.3-10.9 0-6.4-1.6-10.6-5.3-10.6-3.1 0-5.3 3.8-5.3 10.9z" class="st1"/>
  <path d="M96.4 56.4c0 8.9-3.3 13.8-9.1 13.8-5.1 0-8.5-4.8-8.6-13.4 0-8.7 3.8-13.6 9.1-13.6 5.5 0 8.6 4.9 8.6 13.2zm-14.1.4c0 6.8 2.1 10.6 5.3 10.6 3.6 0 5.3-4.2 5.3-10.9 0-6.4-1.6-10.6-5.3-10.6-3.1 0-5.3 3.8-5.3 10.9z" class="st1"/>
  <path d="M117 56.4c0 8.9-3.3 13.8-9.1 13.8-5.1 0-8.5-4.8-8.6-13.4 0-8.7 3.8-13.6 9.1-13.6 5.5 0 8.6 4.9 8.6 13.2zm-14.2.4c0 6.8 2.1 10.6 5.3 10.6 3.6 0 5.3-4.2 5.3-10.9 0-6.4-1.6-10.6-5.3-10.6-3 0-5.3 3.8-5.3 10.9z" class="st1"/>
  <path d="M52.2 103.8l-4.6 2.4-.7-2.7 5.7-3h3v26.1h-3.4v-22.8z" class="st2"/>
  <path d="M76 126.5v-7.1H63.9v-2.3l11.6-16.6h3.8v16.2H83v2.8h-3.6v7.1H76zm0-9.8V108c0-1.4 0-2.7.1-4.1H76c-.8 1.5-1.4 2.6-2.2 3.8l-6.4 8.9v.1H76z" class="st2"/>
  <path d="M93.3 103.8l-4.6 2.4-.7-2.7 5.7-3h3v26.1h-3.4v-22.8z" class="st2"/>
  <path d="M14.8 32.9l-.6 1.8h-.8l1.9-5.6h.9l1.9 5.6h-.8l-.6-1.8h-1.9zm1.8-.6l-.6-1.6c-.1-.4-.2-.7-.3-1l-.3 1-.6 1.6h1.8z" class="st0"/>
  <path d="M19.1 30.6l.8 2.3c.1.4.2.7.3 1l.3-1 .8-2.3h.8l-1.6 4h-.7l-1.5-4h.8z" class="st0"/>
  <path d="M23.1 32.8c0 1 .7 1.4 1.4 1.4.5 0 .8-.1 1.1-.2l.1.5c-.3.1-.7.3-1.3.3-1.2 0-2-.8-2-2s.7-2.2 1.9-2.2c1.3 0 1.7 1.2 1.7 1.9v.3h-2.9zm2.2-.6c0-.5-.2-1.2-1-1.2-.7 0-1.1.7-1.1 1.2h2.1z" class="st0"/>
  <path d="M26.9 31.9v-1.3h.6v.8c.2-.5.6-.9 1.1-.9h.2v.7h-.3c-.5 0-.9.4-1 .9v2.5h-.7v-2.7z" class="st0"/>
  <path d="M31.8 34.7l-.1-.5c-.2.3-.7.6-1.2.6-.8 0-1.2-.6-1.2-1.2 0-1 .9-1.5 2.4-1.5V32c0-.3-.1-.9-.9-.9-.4 0-.8.1-1.1.3l-.2-.5c.3-.2.8-.4 1.3-.4 1.2 0 1.5.8 1.5 1.7v1.5c0 .4 0 .7.1 1h-.6zm-.1-2.1c-.8 0-1.7.1-1.7.9 0 .5.3.7.7.7.5 0 .9-.3 1-.7v-.9z" class="st0"/>
  <path d="M37.1 30.6V34c0 .9-.2 1.5-.6 1.8-.4.4-1 .5-1.5.5s-1-.1-1.3-.3l.2-.6c.3.2.7.3 1.2.3.8 0 1.3-.4 1.3-1.4V34c-.2.4-.7.7-1.3.7-1 0-1.7-.9-1.7-2 0-1.4.9-2.1 1.8-2.1.7 0 1.1.4 1.3.7v-.6h.6zm-.7 1.6v-.3c-.1-.4-.5-.8-1-.8-.7 0-1.2.6-1.2 1.5 0 .8.4 1.5 1.2 1.5.5 0 .9-.3 1-.8 0-.1.1-.3.1-.4v-.7z" class="st0"/>
  <path d="M38.7 32.8c0 1 .7 1.4 1.4 1.4.5 0 .8-.1 1.1-.2l.1.5c-.3.1-.7.3-1.3.3-1.2 0-2-.8-2-2s.7-2.2 1.9-2.2c1.3 0 1.7 1.2 1.7 1.9v.3h-2.9zm2.2-.6c0-.5-.2-1.2-1-1.2-.7 0-1.1.7-1.1 1.2h2.1z" class="st0"/>
  <path d="M44.6 30.6l.5 2.1c.1.5.2.9.3 1.3.1-.4.2-.8.4-1.3l.7-2.1h.6l.6 2c.1.5.3.9.4 1.3.1-.4.2-.8.3-1.3l.6-2h.7l-1.3 4h-.7l-.6-1.9c-.1-.5-.3-.9-.4-1.3-.1.5-.2.9-.4 1.3l-.7 1.9H45l-1.2-4h.8z" class="st0"/>
  <path d="M51.2 29.5c0 .3-.2.5-.5.5s-.4-.2-.4-.5.2-.5.5-.5.4.2.4.5zm-.8 5.2v-4h.7v4h-.7z" class="st0"/>
  <path d="M52.4 31.7v-1.1h.6v.7c.2-.4.7-.8 1.3-.8.6 0 1.4.3 1.4 1.7v2.4H55v-2.3c0-.7-.2-1.2-.9-1.2-.5 0-.9.3-1 .8v2.7h-.7v-2.9z" class="st0"/>
  <path d="M57.4 32.8c0 1 .7 1.4 1.4 1.4.5 0 .8-.1 1.1-.2l.1.5c-.3.1-.7.3-1.3.3-1.2 0-2-.8-2-2s.7-2.2 1.9-2.2c1.3 0 1.7 1.2 1.7 1.9v.3h-2.9zm2.2-.6c0-.5-.2-1.2-1-1.2-.7 0-1.1.7-1.1 1.2h2.1z" class="st0"/>
  <path d="M66.5 28.7v5.9h-.7v-.7c-.2.5-.7.8-1.4.8-1 0-1.7-.8-1.7-2.1s.8-2.2 1.8-2.2c.6 0 1 .3 1.2.6v-2.4h.8zm-.8 3.6V32c-.1-.5-.5-.9-1.1-.9-.8 0-1.2.7-1.2 1.6 0 .8.4 1.5 1.2 1.5.5 0 .9-.3 1.1-.9v-1z" class="st0"/>
  <path d="M67.7 31.9v-1.3h.6v.8c.2-.5.6-.9 1.1-.9h.2v.7h-.3c-.5 0-.9.4-1 .9v2.5h-.7v-2.7z" class="st0"/>
  <path d="M71.3 29.5c0 .3-.2.5-.5.5s-.4-.2-.4-.5.2-.5.5-.5c.2 0 .4.2.4.5zm-.9 5.2v-4h.7v4h-.7z" class="st0"/>
  <path d="M72.4 31.7v-1.1h.6v.7c.2-.4.7-.8 1.3-.8.6 0 1.4.3 1.4 1.7v2.4H75v-2.3c0-.7-.2-1.2-.9-1.2-.5 0-.9.3-1 .8v2.7h-.7v-2.9z" class="st0"/>
  <path d="M77.8 32.5c.1-.1.3-.3.4-.5l1.2-1.4h.9l-1.6 1.7 1.8 2.4h-.9l-1.4-1.9-.4.4v1.5H77v-5.9h.7v3.7z" class="st0"/>
  <path d="M81.4 32.8c0 1 .7 1.4 1.4 1.4.5 0 .8-.1 1.1-.2l.1.5c-.3.1-.7.3-1.3.3-1.2 0-2-.8-2-2s.7-2.2 1.9-2.2c1.3 0 1.7 1.2 1.7 1.9v.3h-2.9zm2.1-.6c0-.5-.2-1.2-1-1.2-.7 0-1.1.7-1.1 1.2h2.1z" class="st0"/>
  <path d="M85.1 31.9v-1.3h.6v.8c.2-.5.6-.9 1.1-.9h.2v.7h-.3c-.5 0-.9.4-1 .9v2.5H85v-2.7z" class="st0"/>
  <path d="M87.8 33.9c.2.1.6.3 1 .3.5 0 .8-.3.8-.6 0-.4-.2-.5-.8-.7-.7-.3-1.1-.7-1.1-1.1 0-.7.5-1.2 1.4-1.2.4 0 .8.1 1 .2l-.2.5c-.2-.1-.5-.2-.8-.2-.4 0-.7.3-.7.6s.2.5.8.7c.7.3 1.1.6 1.1 1.2 0 .7-.6 1.2-1.5 1.2-.4 0-.9-.1-1.1-.3l.1-.6z" class="st0"/>
  <path d="M95.8 34.5c-.2.1-.6.2-1.2.2-1.2 0-2-.8-2-2.1 0-1.2.9-2.1 2.2-2.1.4 0 .8.1 1 .2l-.2.6c-.2-.1-.5-.2-.9-.2-.9 0-1.4.7-1.4 1.5 0 .9.6 1.5 1.4 1.5.4 0 .7-.1.9-.2l.2.6z" class="st0"/>
  <path d="M100.3 32.6c0 1.5-1 2.1-2 2.1-1.1 0-1.9-.8-1.9-2.1 0-1.4.9-2.1 2-2.1s1.9.9 1.9 2.1zm-3.2 0c0 .9.5 1.6 1.2 1.6s1.2-.7 1.2-1.6c0-.7-.3-1.6-1.2-1.6s-1.2.9-1.2 1.6z" class="st0"/>
  <path d="M101.2 31.7v-1.1h.7v.7c.2-.4.7-.8 1.3-.8.6 0 1.4.3 1.4 1.7v2.4h-.7v-2.3c0-.7-.2-1.2-.9-1.2-.5 0-.9.3-1 .8v2.7h-.7v-2.9z" class="st0"/>
  <path d="M105.8 33.9c.2.1.6.3 1 .3.5 0 .8-.3.8-.6 0-.4-.2-.5-.8-.7-.7-.3-1.1-.7-1.1-1.1 0-.7.5-1.2 1.4-1.2.4 0 .8.1 1 .2l-.2.5c-.2-.1-.5-.2-.8-.2-.4 0-.7.3-.7.6s.2.5.8.7c.7.3 1.1.6 1.1 1.2 0 .7-.6 1.2-1.5 1.2-.4 0-.9-.1-1.1-.3l.1-.6z" class="st0"/>
  <path d="M112.5 33.6v1.1h-.7V34c-.2.3-.6.8-1.3.8-.6 0-1.4-.4-1.4-1.8v-2.4h.7v2.2c0 .8.2 1.3.9 1.3.5 0 .8-.3 1-.7 0-.1.1-.2.1-.4v-2.5h.7v3.1z" class="st0"/>
  <path d="M113.8 31.7v-1.1h.6v.7c.2-.4.6-.7 1.3-.7.6 0 1 .3 1.1.8.1-.2.3-.4.5-.5.2-.2.5-.3.9-.3.5 0 1.3.4 1.3 1.8v2.4h-.7v-2.3c0-.8-.3-1.2-.9-1.2-.4 0-.7.3-.9.7 0 .1-.1.2-.1.4v2.5h-.7v-2.4c0-.6-.3-1.1-.8-1.1s-.8.4-.9.7c0 .1-.1.2-.1.4v2.4h-.7v-3.2z" class="st0"/>
  <path d="M121.1 32.8c0 1 .7 1.4 1.4 1.4.5 0 .8-.1 1.1-.2l.1.5c-.3.1-.7.3-1.3.3-1.2 0-2-.8-2-2s.7-2.2 1.9-2.2c1.3 0 1.7 1.2 1.7 1.9v.3h-2.9zm2.2-.6c0-.5-.2-1.2-1-1.2-.7 0-1.1.7-1.1 1.2h2.1z" class="st0"/>
  <path d="M25.3 69.7v-2.2l2.8-2.7c6.7-6.3 9.7-9.7 9.7-13.6 0-2.6-1.3-5.1-5.2-5.1-2.4 0-4.3 1.2-5.5 2.2L26 45.8c1.8-1.5 4.4-2.6 7.4-2.6 5.6 0 8 3.8 8 7.6 0 4.8-3.5 8.7-9 14l-2.1 1.9v.1H42v2.9H25.3z" class="st3"/>
  <path d="M44.7 74.7c.9-2.4 2-6.7 2.4-9.6l3.9-.4c-.9 3.4-2.7 7.9-3.8 9.7l-2.5.3z" class="st3"/>
  <path d="M71.5 56.4c0 8.9-3.3 13.8-9.1 13.8-5.1 0-8.5-4.8-8.6-13.4 0-8.7 3.8-13.6 9.1-13.6 5.5 0 8.6 4.9 8.6 13.2zm-14.2.4c0 6.8 2.1 10.6 5.3 10.6 3.6 0 5.3-4.2 5.3-10.9 0-6.4-1.6-10.6-5.3-10.6-3 .1-5.3 3.8-5.3 10.9z" class="st3"/>
  <path d="M92.1 56.4c0 8.9-3.3 13.8-9.1 13.8-5.1 0-8.5-4.8-8.6-13.4 0-8.7 3.8-13.6 9.1-13.6 5.4 0 8.6 4.9 8.6 13.2zm-14.2.4c0 6.8 2.1 10.6 5.3 10.6 3.6 0 5.3-4.2 5.3-10.9 0-6.4-1.6-10.6-5.3-10.6-3 .1-5.3 3.8-5.3 10.9z" class="st3"/>
  <path d="M112.6 56.4c0 8.9-3.3 13.8-9.1 13.8-5.1 0-8.5-4.8-8.6-13.4 0-8.7 3.8-13.6 9.1-13.6 5.5 0 8.6 4.9 8.6 13.2zm-14.1.4c0 6.8 2.1 10.6 5.3 10.6 3.6 0 5.3-4.2 5.3-10.9 0-6.4-1.6-10.6-5.3-10.6-3.1.1-5.3 3.8-5.3 10.9z" class="st3"/>
  <path d="M20.8 81.2c0 1 .7 1.4 1.4 1.4.5 0 .8-.1 1.1-.2l.1.5c-.3.1-.7.2-1.3.2-1.2 0-2-.8-2-2S20.8 79 22 79c1.3 0 1.7 1.2 1.7 1.9v.3h-2.9zm2.2-.5c0-.5-.2-1.2-1-1.2-.7 0-1.1.7-1.1 1.2H23z" class="st0"/>
  <path d="M24.9 79.1l.6.9c.2.2.3.4.4.7.1-.2.3-.5.4-.7l.6-.9h.8l-1.4 2 1.4 2.1h-.8l-.6-.9c-.2-.2-.3-.5-.4-.7-.1.2-.3.5-.4.7l-.6.9H24l1.4-2.1-1.4-2h.9z" class="st0"/>
  <path d="M29.4 77.9v1.2h1.1v.6h-1.1v2.2c0 .5.1.8.6.8h.4v.6c-.1.1-.4.1-.7.1-.3 0-.6-.1-.8-.3-.2-.2-.3-.6-.3-1.1v-2.2H28v-.6h.6v-1l.8-.3z" class="st0"/>
  <path d="M31.3 80.3V79h.6v.8c.2-.5.6-.9 1.1-.9h.2v.7h-.3c-.5 0-.9.4-1 .9V83h-.7v-2.7z" class="st0"/>
  <path d="M36.2 83.1l-.1-.5c-.2.3-.7.6-1.2.6-.8 0-1.2-.6-1.2-1.2 0-1 .9-1.5 2.4-1.5v-.1c0-.3-.1-.9-.9-.9-.4 0-.8.1-1.1.3l-.1-.5c.3-.2.8-.4 1.3-.4 1.2 0 1.5.8 1.5 1.7v1.5c0 .4 0 .7.1 1h-.7zm-.1-2.1c-.8 0-1.7.1-1.7.9 0 .5.3.7.7.7.5 0 .9-.3 1-.7V81z" class="st0"/>
  <path d="M42.7 83c-.2.1-.6.2-1.2.2-1.2 0-2-.8-2-2.1 0-1.2.9-2.1 2.2-2.1.4 0 .8.1 1 .2l-.2.6c-.2-.1-.5-.2-.9-.2-.9 0-1.4.7-1.4 1.5 0 .9.6 1.5 1.4 1.5.4 0 .7-.1.9-.2l.2.6z" class="st0"/>
  <path d="M45.8 83.1l-.1-.5c-.2.3-.7.6-1.2.6-.8 0-1.2-.6-1.2-1.2 0-1 .9-1.5 2.4-1.5v-.1c0-.3-.1-.9-.9-.9-.4 0-.8.1-1.1.3l-.2-.5c.3-.2.8-.4 1.3-.4 1.2 0 1.5.8 1.5 1.7v1.5c0 .4 0 .7.1 1h-.6zm-.1-2.1c-.8 0-1.7.2-1.7 1 0 .5.3.7.7.7.5 0 .9-.3 1-.7v-1z" class="st0"/>
  <path d="M47.6 77.2h.7v5.9h-.7v-5.9z" class="st0"/>
  <path d="M53.2 81.1c0 1.5-1 2.1-2 2.1-1.1 0-1.9-.8-1.9-2.1 0-1.4.9-2.1 2-2.1s1.9.8 1.9 2.1zm-3.2 0c0 .9.5 1.6 1.2 1.6s1.2-.7 1.2-1.6c0-.7-.3-1.6-1.2-1.6s-1.2.8-1.2 1.6z" class="st0"/>
  <path d="M54.1 80.3V79h.6v.8c.2-.5.6-.9 1.1-.9h.2v.7h-.3c-.5 0-.9.4-1 .9V83H54v-2.7z" class="st0"/>
  <path d="M57.7 77.9c0 .2-.2.5-.5.5s-.4-.2-.4-.5.2-.5.5-.5c.2.1.4.3.4.5zm-.8 5.2v-4h.7v4h-.7z" class="st0"/>
  <path d="M59.3 81.2c0 1 .7 1.4 1.4 1.4.5 0 .8-.1 1.1-.2l.1.5c-.3.1-.7.2-1.3.2-1.2 0-2-.8-2-2s.7-2.2 1.9-2.2c1.3 0 1.7 1.2 1.7 1.9v.3h-2.9zm2.1-.5c0-.5-.2-1.2-1-1.2-.7 0-1.1.7-1.1 1.2h2.1z" class="st0"/>
  <path d="M62.9 82.4c.2.1.6.3 1 .3.5 0 .8-.3.8-.6 0-.4-.2-.5-.8-.7-.7-.3-1.1-.7-1.1-1.1 0-.7.5-1.2 1.4-1.2.4 0 .8.1 1 .3l-.2.5c-.2-.1-.5-.2-.8-.2-.4 0-.7.3-.7.6s.2.5.8.7c.7.3 1.1.6 1.1 1.2 0 .7-.6 1.2-1.5 1.2-.4 0-.9-.1-1.1-.3l.1-.7z" class="st0"/>
  <path d="M68.5 81.2c0 1 .7 1.4 1.4 1.4.5 0 .8-.1 1.1-.2l.1.5c-.3.1-.7.2-1.3.2-1.2 0-2-.8-2-2s.7-2.2 1.9-2.2c1.3 0 1.7 1.2 1.7 1.9v.3h-2.9zm2.2-.5c0-.5-.2-1.2-1-1.2-.7 0-1.1.7-1.1 1.2h2.1z" class="st0"/>
  <path d="M74.5 83.1l-.1-.5c-.2.3-.7.6-1.2.6-.8 0-1.2-.6-1.2-1.2 0-1 .9-1.5 2.4-1.5v-.1c0-.3-.1-.9-.9-.9-.4 0-.8.1-1.1.3l-.2-.5c.3-.2.8-.4 1.3-.4 1.2 0 1.5.8 1.5 1.7v1.5c0 .4 0 .7.1 1h-.6zm-.1-2.1c-.8 0-1.7.1-1.7.9 0 .5.3.7.7.7.5 0 .9-.3 1-.7V81z" class="st0"/>
  <path d="M79.2 83c-.2.1-.6.2-1.2.2-1.2 0-2-.8-2-2.1 0-1.2.9-2.1 2.2-2.1.4 0 .8.1 1 .2l-.2.6c-.2-.1-.5-.2-.9-.2-.9 0-1.4.7-1.4 1.5 0 .9.6 1.5 1.4 1.5.4 0 .7-.1.9-.2l.2.6z" class="st0"/>
  <path d="M80.1 77.2h.7v2.5c.1-.2.3-.4.5-.5.2-.1.5-.2.8-.2.5 0 1.4.3 1.4 1.7v2.4h-.7v-2.3c0-.7-.2-1.2-.9-1.2-.5 0-.9.3-1 .7v2.8h-.7v-5.9z" class="st0"/>
  <path d="M86.5 80.2v-1.1h.6v.7c.2-.4.6-.7 1.3-.7.6 0 1 .3 1.1.8.1-.2.3-.4.5-.5.2-.2.5-.3.9-.3.5 0 1.3.4 1.3 1.8v2.4h-.7V81c0-.8-.3-1.2-.9-1.2-.4 0-.7.3-.9.7 0 .1-.1.2-.1.4v2.5H89V81c0-.6-.3-1.1-.8-1.1s-.8.4-.9.7c0 .1-.1.2-.1.4v2.4h-.7v-3.2z" class="st0"/>
  <path d="M97.1 81.1c0 1.5-1 2.1-2 2.1-1.1 0-1.9-.8-1.9-2.1 0-1.4.9-2.1 2-2.1s1.9.8 1.9 2.1zm-3.2 0c0 .9.5 1.6 1.2 1.6s1.2-.7 1.2-1.6c0-.7-.3-1.6-1.2-1.6s-1.2.8-1.2 1.6z" class="st0"/>
  <path d="M98 80.2v-1.1h.7v.7c.2-.4.7-.8 1.3-.8.6 0 1.4.3 1.4 1.7v2.4h-.7v-2.3c0-.7-.2-1.2-.9-1.2-.5 0-.9.3-1 .8v2.7H98v-2.9z" class="st0"/>
  <path d="M103.5 77.9v1.2h1.1v.6h-1.1v2.2c0 .5.1.8.6.8h.4v.6c-.1.1-.4.1-.7.1-.3 0-.6-.1-.8-.3-.2-.2-.3-.6-.3-1.1v-2.2h-.6v-.6h.6v-1l.8-.3z" class="st0"/>
  <path d="M105.4 77.2h.7v2.5c.1-.2.3-.4.5-.5.2-.1.5-.2.8-.2.5 0 1.4.3 1.4 1.7v2.4h-.7v-2.3c0-.7-.2-1.2-.9-1.2-.5 0-.9.3-1 .7v2.8h-.7v-5.9z" class="st0"/>
  <path d="M117.5 80.7v.5h-7.8v-.5h7.8z" class="st0"/>
  <path d="M48.9 87.9v1.2H50v.6h-1.1v2.2c0 .5.1.8.6.8h.4v.6c-.1.1-.4.1-.7.1-.3 0-.6-.1-.8-.3-.2-.2-.3-.6-.3-1.1v-2.2h-.6v-.6h.6v-1l.8-.3z" class="st0"/>
  <path d="M50.8 87.2h.7v2.5c.1-.2.3-.4.5-.5.2-.1.5-.2.8-.2.5 0 1.4.3 1.4 1.7v2.4h-.7v-2.3c0-.7-.2-1.2-.9-1.2-.5 0-.9.3-1 .7v2.8h-.7v-5.9z" class="st0"/>
  <path d="M55.8 91.2c0 1 .7 1.4 1.4 1.4.5 0 .8-.1 1.1-.2l.1.5c-.3.1-.7.2-1.3.2-1.2 0-2-.8-2-2S55.9 89 57 89c1.3 0 1.7 1.2 1.7 1.9v.3h-2.9zm2.2-.5c0-.5-.2-1.2-1-1.2-.7 0-1.1.7-1.1 1.2H58z" class="st0"/>
  <path d="M61.3 92.4c.2.1.6.3 1 .3.5 0 .8-.3.8-.6 0-.4-.2-.5-.8-.7-.7-.3-1.1-.7-1.1-1.1 0-.7.5-1.2 1.4-1.2.4 0 .8.1 1 .3l-.2.5c-.2-.1-.5-.2-.8-.2-.4 0-.7.3-.7.6s.2.5.8.7c.7.3 1.1.6 1.1 1.2 0 .7-.6 1.2-1.5 1.2-.4 0-.9-.1-1.1-.3l.1-.7z" class="st0"/>
  <path d="M66.9 93.1l-.1-.5c-.2.3-.7.6-1.2.6-.8 0-1.2-.6-1.2-1.2 0-1 .9-1.5 2.4-1.5v-.1c0-.3-.1-.9-.9-.9-.4 0-.8.1-1.1.3l-.2-.5c.4-.2.9-.3 1.4-.3 1.2 0 1.5.8 1.5 1.7v1.5c0 .4 0 .7.1 1h-.7zm-.1-2c-.8 0-1.7.1-1.7.9 0 .5.3.7.7.7.5 0 .9-.3 1-.7v-.9z" class="st0"/>
  <path d="M68.7 90.2v-1.1h.6v.7c.2-.4.6-.7 1.3-.7.6 0 1 .3 1.1.8.1-.2.3-.4.5-.5.2-.2.5-.3.9-.3.5 0 1.3.4 1.3 1.8v2.4h-.7V91c0-.8-.3-1.2-.9-1.2-.4 0-.7.3-.9.7 0 .1-.1.2-.1.4v2.5h-.7V91c0-.6-.3-1.1-.8-1.1s-.8.4-.9.7c0 .1-.1.2-.1.4v2.4h-.7v-3.2z" class="st0"/>
  <path d="M76.1 91.2c0 1 .7 1.4 1.4 1.4.5 0 .8-.1 1.1-.2l.1.5c-.3.1-.7.2-1.3.2-1.2 0-2-.8-2-2s.7-2.2 1.9-2.2c1.3 0 1.7 1.2 1.7 1.9v.3h-2.9zm2.2-.5c0-.5-.2-1.2-1-1.2-.7 0-1.1.7-1.1 1.2h2.1z" class="st0"/>
  <path d="M83.9 93.1l-.1-.5c-.2.3-.7.6-1.2.6-.8 0-1.2-.6-1.2-1.2 0-1 .9-1.5 2.4-1.5v-.1c0-.3-.1-.9-.9-.9-.4 0-.8.1-1.1.3l-.2-.5c.3-.2.8-.4 1.3-.4 1.2 0 1.5.8 1.5 1.7v1.5c0 .4 0 .7.1 1h-.6zm-.1-2c-.8 0-1.7.1-1.7.9 0 .5.3.7.7.7.5 0 .9-.3 1-.7v-.9z" class="st0"/>
  <path d="M85.6 92.4c.2.1.6.3 1 .3.5 0 .8-.3.8-.6 0-.4-.2-.5-.8-.7-.7-.3-1.1-.7-1.1-1.1 0-.7.5-1.2 1.4-1.2.4 0 .8.1 1 .3l-.2.5c-.2-.1-.5-.2-.8-.2-.4 0-.7.3-.7.6s.2.5.8.7c.7.3 1.1.6 1.1 1.2 0 .7-.6 1.2-1.5 1.2-.4 0-.9-.1-1.1-.3l.1-.7z" class="st0"/>
  <path d="M47.4 103.8l-4.6 2.4-.7-2.7 5.7-3h3v26.1h-3.4v-22.8z" class="st3"/>
  <path d="M71.2 126.5v-7.1H59.1v-2.3l11.6-16.6h3.8v16.2h3.6v2.8h-3.6v7.1h-3.3zm0-9.8V108c0-1.4 0-2.7.1-4.1h-.1c-.8 1.5-1.4 2.6-2.2 3.8l-6.4 8.9v.1h8.6z" class="st3"/>
  <path d="M88.5 103.8l-4.6 2.4-.7-2.7 5.7-3h3v26.1h-3.4v-22.8z" class="st3"/>
  <path d="M27.5 131.4c0 .2-.2.5-.5.5s-.4-.2-.4-.5.2-.5.5-.5.4.2.4.5zm-.8 5.2v-4h.7v4h-.7z" class="st0"/>
  <path d="M31.5 136.4c-.2.1-.6.2-1.2.2-1.2 0-2-.8-2-2.1 0-1.2.9-2.1 2.2-2.1.4 0 .8.1 1 .2l-.2.6c-.2-.1-.5-.2-.9-.2-.9 0-1.4.7-1.4 1.5 0 .9.6 1.5 1.4 1.5.4 0 .7-.1.9-.2l.2.6z" class="st0"/>
  <path d="M32.8 134.7c0 1 .7 1.4 1.4 1.4.5 0 .8-.1 1.1-.2l.1.5c-.3.1-.7.2-1.3.2-1.2 0-2-.8-2-2s.7-2.2 1.9-2.2c1.3 0 1.7 1.2 1.7 1.9v.3h-2.9zm2.1-.5c0-.5-.2-1.2-1-1.2-.7 0-1.1.7-1.1 1.2h2.1z" class="st0"/>
  <path d="M41.2 136.4c-.2.1-.6.2-1.2.2-1.2 0-2-.8-2-2.1 0-1.2.9-2.1 2.2-2.1.4 0 .8.1 1 .2l-.2.6c-.2-.1-.5-.2-.9-.2-.9 0-1.4.7-1.4 1.5 0 .9.6 1.5 1.4 1.5.4 0 .7-.1.9-.2l.2.6z" class="st0"/>
  <path d="M42.1 133.8v-1.3h.6v.8c.2-.5.6-.9 1.1-.9h.2v.7h-.3c-.5 0-.9.4-1 .9v2.5H42v-2.7z" class="st0"/>
  <path d="M45.1 134.7c0 1 .7 1.4 1.4 1.4.5 0 .8-.1 1.1-.2l.1.5c-.3.1-.7.2-1.3.2-1.2 0-2-.8-2-2s.7-2.2 1.9-2.2c1.3 0 1.7 1.2 1.7 1.9v.3h-2.9zm2.2-.5c0-.5-.2-1.2-1-1.2-.7 0-1.1.7-1.1 1.2h2.1z" class="st0"/>
  <path d="M51.1 136.6l-.1-.5c-.2.3-.7.6-1.2.6-.8 0-1.2-.6-1.2-1.2 0-1 .9-1.5 2.4-1.5v-.1c0-.3-.1-.9-.9-.9-.4 0-.8.1-1.1.3l-.2-.5c.3-.2.8-.4 1.3-.4 1.2 0 1.5.8 1.5 1.7v1.5c0 .4 0 .7.1 1h-.6zm-.1-2.1c-.8 0-1.7.1-1.7.9 0 .5.3.7.7.7.5 0 .9-.3 1-.7v-.9z" class="st0"/>
  <path d="M52.9 133.6v-1.1h.6v.7c.2-.4.6-.7 1.3-.7.6 0 1 .3 1.1.8.1-.2.3-.4.5-.5.2-.2.5-.3.9-.3.5 0 1.3.4 1.3 1.8v2.4H58v-2.3c0-.8-.3-1.2-.9-1.2-.4 0-.7.3-.9.7 0 .1-.1.2-.1.4v2.5h-.7v-2.4c0-.6-.3-1.1-.8-1.1s-.8.4-.9.7c0 .1-.1.2-.1.4v2.4h-.7v-3.2z" class="st0"/>
  <path d="M64.5 136.4c-.2.1-.6.2-1.2.2-1.2 0-2-.8-2-2.1 0-1.2.9-2.1 2.2-2.1.4 0 .8.1 1 .2l-.2.6c-.2-.1-.5-.2-.9-.2-.9 0-1.4.7-1.4 1.5 0 .9.6 1.5 1.4 1.5.4 0 .7-.1.9-.2l.2.6z" class="st0"/>
  <path d="M69 134.5c0 1.5-1 2.1-2 2.1-1.1 0-1.9-.8-1.9-2.1 0-1.4.9-2.1 2-2.1s1.9.9 1.9 2.1zm-3.2.1c0 .9.5 1.6 1.2 1.6s1.2-.7 1.2-1.6c0-.7-.3-1.6-1.2-1.6s-1.2.8-1.2 1.6z" class="st0"/>
  <path d="M69.9 133.6v-1.1h.7v.7c.2-.4.7-.8 1.3-.8.6 0 1.4.3 1.4 1.7v2.4h-.7v-2.3c0-.7-.2-1.2-.9-1.2-.5 0-.9.3-1 .8v2.7H70v-2.9z" class="st0"/>
  <path d="M75 134.7c0 1 .7 1.4 1.4 1.4.5 0 .8-.1 1.1-.2l.1.5c-.3.1-.7.2-1.3.2-1.2 0-2-.8-2-2s.7-2.2 1.9-2.2c1.3 0 1.7 1.2 1.7 1.9v.3H75zm2.1-.5c0-.5-.2-1.2-1-1.2-.7 0-1.1.7-1.1 1.2h2.1z" class="st0"/>
  <path d="M78.7 135.8c.2.1.6.3 1 .3.5 0 .8-.3.8-.6 0-.4-.2-.5-.8-.7-.7-.3-1.1-.7-1.1-1.1 0-.7.5-1.2 1.4-1.2.4 0 .8.1 1 .3l-.2.5c-.2-.1-.5-.2-.8-.2-.4 0-.7.3-.7.6s.2.5.8.7c.7.3 1.1.6 1.1 1.2 0 .7-.6 1.2-1.5 1.2-.4 0-.9-.1-1.1-.3l.1-.7z" class="st0"/>
  <path d="M83.8 133.8v-1.3h.7v.7c.3-.5.8-.8 1.4-.8 1 0 1.7.8 1.7 2.1 0 1.5-.9 2.2-1.8 2.2-.5 0-1-.2-1.2-.6v2.2h-.7v-4.5zm.8 1.1v.3c.1.5.6.9 1.1.9.8 0 1.2-.6 1.2-1.6 0-.8-.4-1.5-1.2-1.5-.5 0-1 .4-1.1.9v1z" class="st0"/>
  <path d="M89 134.7c0 1 .7 1.4 1.4 1.4.5 0 .8-.1 1.1-.2l.1.5c-.3.1-.7.2-1.3.2-1.2 0-2-.8-2-2s.7-2.2 1.9-2.2c1.3 0 1.7 1.2 1.7 1.9v.3H89zm2.2-.5c0-.5-.2-1.2-1-1.2-.7 0-1.1.7-1.1 1.2h2.1z" class="st0"/>
  <path d="M92.8 133.8v-1.3h.6v.8c.2-.5.6-.9 1.1-.9h.2v.7h-.3c-.5 0-.9.4-1 .9v2.5h-.7v-2.7z" class="st0"/>
  <path d="M97.5 132.5l.9 2.4c.1.3.2.6.3.8.1-.2.2-.6.3-.8l.8-2.4h.8l-1.1 2.9c-.5 1.4-.9 2.1-1.4 2.5-.4.3-.7.4-.9.5l-.2-.6c.2-.1.4-.2.6-.4.2-.2.5-.4.6-.8 0-.1.1-.1.1-.2v-.2l-1.5-3.7h.7z" class="st0"/>
  <path d="M101.5 134.7c0 1 .7 1.4 1.4 1.4.5 0 .8-.1 1.1-.2l.1.5c-.3.1-.7.2-1.3.2-1.2 0-2-.8-2-2s.7-2.2 1.9-2.2c1.3 0 1.7 1.2 1.7 1.9v.3h-2.9zm2.2-.5c0-.5-.2-1.2-1-1.2-.7 0-1.1.7-1.1 1.2h2.1z" class="st0"/>
  <path d="M107.6 136.6l-.1-.5c-.2.3-.7.6-1.2.6-.8 0-1.2-.6-1.2-1.2 0-1 .9-1.5 2.4-1.5v-.1c0-.3-.1-.9-.9-.9-.4 0-.8.1-1.1.3l-.2-.5c.3-.2.8-.4 1.3-.4 1.2 0 1.5.8 1.5 1.7v1.5c0 .4 0 .7.1 1h-.6zm-.2-2.1c-.8 0-1.7.1-1.7.9 0 .5.3.7.7.7.5 0 .9-.3 1-.7v-.9z" class="st0"/>
  <path d="M109.3 133.8v-1.3h.6v.8c.2-.5.6-.9 1.1-.9h.2v.7h-.3c-.5 0-.9.4-1 .9v2.5h-.7v-2.7z" class="st0"/>
  <path d="M187.9 167l-4.8 2.5-.7-2.8 5.9-3.1h3.1v26.9h-3.5V167z" class="st2"/>
  <path d="M219.1 176.8c0 9.1-3.4 14.2-9.3 14.2-5.3 0-8.8-4.9-8.9-13.8 0-9 3.9-14 9.3-14 5.7 0 8.9 5 8.9 13.6zm-14.6.4c0 7 2.2 11 5.5 11 3.7 0 5.5-4.3 5.5-11.2 0-6.6-1.7-11-5.5-11-3.2 0-5.5 3.9-5.5 11.2z" class="st2"/>
  <path d="M234.6 171.2c0 5.7-3 8.5-6.5 8.5-3.4 0-6.2-2.7-6.3-8.1 0-5.4 2.9-8.4 6.5-8.4 3.8 0 6.3 2.9 6.3 8zm-9.9.3c-.1 3.4 1.2 6 3.5 6 2.4 0 3.5-2.6 3.5-6.1 0-3.3-1-6-3.5-6-2.3 0-3.5 2.7-3.5 6.1zm3.2 19.5l15.8-27.8h2.3L230.2 191h-2.3zm24.2-8.6c0 5.7-3 8.5-6.4 8.5-3.4 0-6.2-2.7-6.3-8.1 0-5.4 2.9-8.4 6.5-8.4 3.7-.1 6.2 2.8 6.2 8zm-9.9.2c0 3.4 1.3 6 3.5 6 2.4 0 3.5-2.6 3.5-6.1 0-3.3-1-6-3.5-6-2.2 0-3.5 2.7-3.5 6.1z" class="st2"/>
  <path d="M184.1 167l-4.8 2.5-.7-2.8 5.9-3.1h3.1v26.9h-3.5V167z" class="st3"/>
  <path d="M215.3 176.8c0 9.1-3.4 14.2-9.3 14.2-5.3 0-8.8-4.9-8.9-13.8 0-9 3.9-14 9.3-14 5.7 0 8.9 5 8.9 13.6zm-14.6.4c0 7 2.2 11 5.5 11 3.7 0 5.5-4.3 5.5-11.2 0-6.6-1.7-11-5.5-11-3.2 0-5.5 3.9-5.5 11.2z" class="st3"/>
  <path d="M230.8 171.2c0 5.7-3 8.5-6.5 8.5-3.4 0-6.2-2.7-6.3-8.1 0-5.4 2.9-8.4 6.5-8.4 3.8 0 6.3 2.9 6.3 8zm-9.9.3c-.1 3.4 1.2 6 3.5 6 2.4 0 3.5-2.6 3.5-6.1 0-3.3-1-6-3.5-6-2.3 0-3.5 2.7-3.5 6.1zm3.2 19.5l15.8-27.8h2.3L226.4 191h-2.3zm24.2-8.6c0 5.7-3 8.5-6.4 8.5-3.4 0-6.2-2.7-6.3-8.1 0-5.4 2.9-8.4 6.5-8.4 3.7-.1 6.2 2.8 6.2 8zm-9.9.2c0 3.4 1.3 6 3.5 6 2.4 0 3.5-2.6 3.5-6.1 0-3.3-1-6-3.5-6-2.2 0-3.5 2.7-3.5 6.1z" class="st3"/>
  <path d="M68.6 168.3l-.8 2.3h-1l2.5-7.4h1.2l2.5 7.4h-1l-.8-2.3h-2.6zm2.4-.8l-.7-2.1c-.2-.5-.3-.9-.4-1.4-.1.4-.2.9-.4 1.3l-.7 2.1H71z" class="st0"/>
  <path d="M74.1 163.2h1v6.6h3.2v.8h-4.1v-7.4z" class="st0"/>
  <path d="M84 170.4c-.4.2-1.1.4-2 .4-2.1 0-3.7-1.3-3.7-3.8 0-2.3 1.6-3.9 3.9-3.9.9 0 1.5.2 1.8.3l-.2.8c-.4-.2-.9-.3-1.5-.3-1.7 0-2.9 1.1-2.9 3.1 0 1.8 1 3 2.8 3 .6 0 1.2-.1 1.6-.3l.2.7z" class="st0"/>
  <path d="M91.3 166.8c0 2.6-1.6 3.9-3.4 3.9-2 0-3.3-1.5-3.3-3.8 0-2.4 1.5-3.9 3.4-3.9 2 .1 3.3 1.6 3.3 3.8zm-5.7.1c0 1.6.9 3 2.4 3s2.4-1.4 2.4-3.1c0-1.5-.8-3-2.4-3-1.6 0-2.4 1.5-2.4 3.1z" class="st0"/>
  <path d="M93.5 163.2v3.1h3.6v-3.1h1v7.4h-1v-3.5h-3.6v3.5h-1v-7.4h1z" class="st0"/>
  <path d="M106.1 166.8c0 2.6-1.6 3.9-3.4 3.9-2 0-3.3-1.5-3.3-3.8 0-2.4 1.5-3.9 3.4-3.9 2 .1 3.3 1.6 3.3 3.8zm-5.8.1c0 1.6.9 3 2.4 3s2.4-1.4 2.4-3.1c0-1.5-.8-3-2.4-3-1.6 0-2.4 1.5-2.4 3.1z" class="st0"/>
  <path d="M107.3 163.2h1v6.6h3.2v.8h-4.1v-7.4z" class="st0"/>
  <path d="M117 170.6l-.1-.5c-.2.3-.6.6-1.2.6-.8 0-1.2-.6-1.2-1.1 0-.9.8-1.4 2.3-1.4v-.1c0-.3-.1-.9-.9-.9-.4 0-.7.1-1 .3l-.2-.5c.3-.2.8-.3 1.3-.3 1.2 0 1.5.8 1.5 1.6v1.4c0 .3 0 .7.1.9h-.6zm-.1-2c-.8 0-1.6.1-1.6.9 0 .5.3.7.7.7.5 0 .8-.3.9-.6v-1z" class="st0"/>
  <path d="M121.4 170.5c-.2.1-.6.2-1.1.2-1.2 0-1.9-.8-1.9-2s.8-2.1 2.1-2.1c.4 0 .8.1 1 .2l-.2.5c-.2-.1-.4-.2-.8-.2-.9 0-1.4.7-1.4 1.5 0 .9.6 1.4 1.3 1.4.4 0 .7-.1.9-.2l.1.7z" class="st0"/>
  <path d="M125 170.5c-.2.1-.6.2-1.1.2-1.2 0-1.9-.8-1.9-2s.8-2.1 2.1-2.1c.4 0 .8.1 1 .2l-.2.5c-.2-.1-.4-.2-.8-.2-.9 0-1.4.7-1.4 1.5 0 .9.6 1.4 1.3 1.4.4 0 .7-.1.9-.2l.1.7z" class="st0"/>
  <path d="M129.2 168.6c0 1.4-1 2.1-1.9 2.1-1 0-1.9-.8-1.9-2 0-1.3.8-2.1 1.9-2.1 1.2 0 1.9.8 1.9 2zm-3 .1c0 .8.5 1.5 1.2 1.5s1.2-.6 1.2-1.5c0-.7-.3-1.5-1.2-1.5-.9 0-1.2.7-1.2 1.5z" class="st0"/>
  <path d="M133.4 169.5v1.1h-.6v-.6c-.2.3-.6.7-1.3.7-.6 0-1.3-.3-1.3-1.7v-2.3h.7v2.1c0 .7.2 1.2.9 1.2.5 0 .8-.3.9-.6 0-.1.1-.2.1-.4v-2.4h.7v2.9z" class="st0"/>
  <path d="M134.5 167.8v-1h.6v.6c.2-.4.6-.7 1.3-.7.5 0 1.4.3 1.4 1.6v2.3h-.7v-2.2c0-.6-.2-1.1-.9-1.1-.5 0-.8.3-.9.7v2.6h-.7v-2.8z" class="st0"/>
  <path d="M139.8 165.6v1.1h1v.5h-1v2.1c0 .5.1.8.5.8h.4v.5c-.1.1-.4.1-.6.1-.3 0-.6-.1-.8-.3-.2-.2-.3-.6-.3-1v-2.1h-.6v-.5h.6v-.9l.8-.3z" class="st0"/>
  <path d="M141.5 169.9c.2.1.6.3.9.3.5 0 .8-.3.8-.6s-.2-.5-.7-.7c-.7-.2-1-.6-1-1.1 0-.6.5-1.1 1.3-1.1.4 0 .7.1 1 .2l-.2.5c-.2-.1-.4-.2-.8-.2s-.6.2-.6.5.2.5.7.7c.7.3 1 .6 1 1.2 0 .7-.5 1.2-1.4 1.2-.4 0-.8-.1-1.1-.3l.1-.6z" class="st0"/>
  <path d="M146.5 170.6v-3.3h-.5v-.5h.5v-.2c0-.5.1-1 .4-1.4.3-.3.6-.4.9-.4.2 0 .5.1.6.1l-.1.5c-.1 0-.2-.1-.4-.1-.6 0-.8.5-.8 1.1v.2h.9v.5h-.9v3.3h-.6z" class="st0"/>
  <path d="M152.2 168.6c0 1.4-1 2.1-1.9 2.1-1 0-1.9-.8-1.9-2 0-1.3.8-2.1 1.9-2.1 1.1 0 1.9.8 1.9 2zm-3.1.1c0 .8.5 1.5 1.2 1.5s1.2-.6 1.2-1.5c0-.7-.3-1.5-1.2-1.5-.8 0-1.2.7-1.2 1.5z" class="st0"/>
  <path d="M153.1 167.9v-1.2h.6v.8c.2-.5.6-.8 1.1-.8h.2v.7h-.2c-.5 0-.8.4-.9.9v2.4h-.7v-2.8z" class="st0"/>
  <path d="M70.6 178.2c0 1.4-1 2.1-1.9 2.1-1 0-1.9-.8-1.9-2 0-1.3.8-2.1 1.9-2.1 1.2 0 1.9.8 1.9 2zm-3.1.1c0 .8.5 1.5 1.2 1.5s1.2-.6 1.2-1.5c0-.7-.3-1.5-1.2-1.5-.8 0-1.2.7-1.2 1.5z" class="st0"/>
  <path d="M71.6 180.2v-3.3H71v-.5h.5v-.2c0-.5.1-1 .4-1.4.3-.3.6-.4.9-.4.2 0 .5.1.6.1l-.1.5c-.1 0-.2-.1-.4-.1-.6 0-.8.5-.8 1.1v.2h.9v.5h-.9v3.3h-.5z" class="st0"/>
  <path d="M76.4 175.2v1.1h1v.5h-1v2.1c0 .5.1.8.5.8h.4v.5c-.1.1-.4.1-.6.1-.3 0-.6-.1-.8-.3-.2-.2-.3-.6-.3-1v-2.1H75v-.5h.6v-.9l.8-.3z" class="st0"/>
  <path d="M78.2 174.5h.7v2.4c.1-.2.3-.4.5-.5.2-.1.5-.2.7-.2.5 0 1.4.3 1.4 1.7v2.3h-.7V178c0-.6-.2-1.2-.9-1.2-.5 0-.8.3-.9.7v2.6h-.7v-5.6z" class="st0"/>
  <path d="M83 178.4c0 1 .6 1.3 1.3 1.3.5 0 .8-.1 1.1-.2l.1.5c-.2.1-.7.2-1.3.2-1.2 0-1.9-.8-1.9-2s.7-2.1 1.8-2.1c1.3 0 1.6 1.1 1.6 1.8v.3H83zm2.1-.5c0-.4-.2-1.1-1-1.1-.7 0-1 .7-1.1 1.1h2.1z" class="st0"/>
  <path d="M91.7 174.5v5.7h-.6v-.7c-.2.4-.7.8-1.3.8-.9 0-1.7-.8-1.7-2 0-1.3.8-2.1 1.7-2.1.6 0 1 .3 1.2.6v-2.3h.7zm-.7 3.4v-.3c-.1-.4-.5-.8-1-.8-.7 0-1.2.6-1.2 1.5 0 .8.4 1.4 1.1 1.4.5 0 .9-.3 1-.8v-1z" class="st0"/>
  <path d="M95 180.2l-.1-.5c-.2.3-.6.6-1.2.6-.8 0-1.2-.6-1.2-1.1 0-.9.8-1.4 2.3-1.4v-.1c0-.3-.1-.9-.9-.9-.4 0-.7.1-1 .3l-.2-.5c.3-.2.8-.3 1.3-.3 1.2 0 1.5.8 1.5 1.6v1.4c0 .3 0 .7.1.9H95zm-.1-2c-.8 0-1.6.1-1.6.9 0 .5.3.7.7.7.5 0 .8-.3.9-.6v-1z" class="st0"/>
  <path d="M97.5 175.2c0 .2-.2.4-.4.4s-.4-.2-.4-.4.2-.4.4-.4.4.2.4.4zm-.8 5v-3.9h.7v3.9h-.7z" class="st0"/>
  <path d="M98.6 174.5h.7v5.7h-.7v-5.7z" class="st0"/>
  <path d="M100.7 176.3l.8 2.3c.1.3.2.6.2.8.1-.2.2-.5.2-.8l.8-2.3h.7l-1.1 2.8c-.5 1.3-.8 2-1.3 2.4-.3.3-.7.4-.9.5l-.2-.6.6-.3c.2-.2.4-.4.6-.8 0-.1.1-.1.1-.2v-.2l-1.4-3.6h.9z" class="st0"/>
  <path d="M108.7 180.1c-.2.1-.6.2-1.1.2-1.2 0-1.9-.8-1.9-2s.8-2.1 2.1-2.1c.4 0 .8.1 1 .2l-.2.5c-.2-.1-.4-.2-.8-.2-.9 0-1.4.7-1.4 1.5 0 .9.6 1.4 1.3 1.4.4 0 .7-.1.9-.2l.1.7z" class="st0"/>
  <path d="M111.6 180.2l-.1-.5c-.2.3-.6.6-1.2.6-.8 0-1.2-.6-1.2-1.1 0-.9.8-1.4 2.3-1.4v-.1c0-.3-.1-.9-.9-.9-.4 0-.7.1-1 .3l-.2-.5c.3-.2.8-.3 1.3-.3 1.2 0 1.5.8 1.5 1.6v1.4c0 .3 0 .7.1.9h-.6zm-.1-2c-.8 0-1.6.1-1.6.9 0 .5.3.7.7.7.5 0 .8-.3.9-.6v-1z" class="st0"/>
  <path d="M113.3 174.5h.7v5.7h-.7v-5.7z" class="st0"/>
  <path d="M118.7 178.2c0 1.4-1 2.1-1.9 2.1-1 0-1.9-.8-1.9-2 0-1.3.8-2.1 1.9-2.1 1.2 0 1.9.8 1.9 2zm-3 .1c0 .8.5 1.5 1.2 1.5s1.2-.6 1.2-1.5c0-.7-.3-1.5-1.2-1.5-.9 0-1.2.7-1.2 1.5z" class="st0"/>
  <path d="M119.6 177.5v-1.2h.6v.8c.2-.5.6-.8 1.1-.8h.2v.7h-.2c-.5 0-.8.4-.9.9v2.4h-.7v-2.8z" class="st0"/>
  <path d="M123.1 175.2c0 .2-.2.4-.4.4s-.4-.2-.4-.4.2-.4.4-.4.4.2.4.4zm-.8 5v-3.9h.7v3.9h-.7z" class="st0"/>
  <path d="M124.5 178.4c0 1 .6 1.3 1.3 1.3.5 0 .8-.1 1.1-.2l.1.5c-.2.1-.7.2-1.3.2-1.2 0-1.9-.8-1.9-2s.7-2.1 1.8-2.1c1.3 0 1.6 1.1 1.6 1.8v.3h-2.7zm2.1-.5c0-.4-.2-1.1-1-1.1-.7 0-1 .7-1.1 1.1h2.1z" class="st0"/>
  <path d="M130.6 175.2c0 .2-.2.4-.4.4s-.4-.2-.4-.4.2-.4.4-.4c.3 0 .4.2.4.4zm-.7 5v-3.9h.7v3.9h-.7z" class="st0"/>
  <path d="M131.7 177.4v-1h.6v.6c.2-.4.6-.7 1.3-.7.5 0 1.4.3 1.4 1.6v2.3h-.7V178c0-.6-.2-1.1-.9-1.1-.5 0-.8.3-.9.7v2.6h-.7v-2.8z" class="st0"/>
  <path d="M137 175.2v1.1h1v.5h-1v2.1c0 .5.1.8.5.8h.4v.5c-.1.1-.4.1-.6.1-.3 0-.6-.1-.8-.3-.2-.2-.3-.6-.3-1v-2.1h-.6v-.5h.6v-.9l.8-.3z" class="st0"/>
  <path d="M140.9 180.2l-.1-.5c-.2.3-.6.6-1.2.6-.8 0-1.2-.6-1.2-1.1 0-.9.8-1.4 2.3-1.4v-.1c0-.3-.1-.9-.9-.9-.4 0-.7.1-1 .3l-.2-.5c.3-.2.8-.3 1.3-.3 1.2 0 1.5.8 1.5 1.6v1.4c0 .3 0 .7.1.9h-.6zm-.1-2c-.8 0-1.6.1-1.6.9 0 .5.3.7.7.7.5 0 .8-.3.9-.6v-1z" class="st0"/>
  <path d="M143.3 178.1c.1-.1.2-.3.4-.4l1.1-1.3h.8l-1.5 1.6 1.7 2.3h-.8l-1.3-1.9-.4.4v1.5h-.7v-5.7h.7v3.5z" class="st0"/>
  <path d="M146.8 178.4c0 1 .6 1.3 1.3 1.3.5 0 .8-.1 1.1-.2l.1.5c-.2.1-.7.2-1.3.2-1.2 0-1.9-.8-1.9-2s.7-2.1 1.8-2.1c1.3 0 1.6 1.1 1.6 1.8v.3h-2.7zm2-.5c0-.4-.2-1.1-1-1.1-.7 0-1 .7-1.1 1.1h2.1z" class="st0"/>
  <path d="M67.9 184.8c0 .2-.2.4-.4.4s-.4-.2-.4-.4.2-.4.4-.4.4.2.4.4zm-.8 5v-3.9h.7v3.9h-.7z" class="st0"/>
  <path d="M69 187v-1h.6v.6c.2-.4.6-.7 1.3-.7.5 0 1.4.3 1.4 1.6v2.3h-.7v-2.2c0-.6-.2-1.1-.9-1.1-.5 0-.8.3-.9.7v2.6H69V187z" class="st0"/>
  <path d="M77.3 189.8l-.1-.5c-.2.3-.6.6-1.2.6-.8 0-1.2-.6-1.2-1.1 0-.9.8-1.4 2.3-1.4v-.1c0-.3-.1-.9-.9-.9-.4 0-.7.1-1 .3l-.2-.5c.3-.2.8-.3 1.3-.3 1.2 0 1.5.8 1.5 1.6v1.4c0 .3 0 .7.1.9h-.6zm-.2-2c-.8 0-1.6.1-1.6.9 0 .5.3.7.7.7.5 0 .8-.3.9-.6v-1z" class="st0"/>
  <path d="M82.3 184.1v5.7h-.6v-.7c-.2.4-.7.8-1.3.8-.9 0-1.7-.8-1.7-2 0-1.3.8-2.1 1.7-2.1.6 0 1 .3 1.2.6v-2.3h.7zm-.7 3.4v-.3c-.1-.4-.5-.8-1-.8-.7 0-1.2.6-1.2 1.5 0 .8.4 1.4 1.1 1.4.5 0 .9-.3 1-.8v-1z" class="st0"/>
  <path d="M86.7 188.7v1.1h-.6v-.6c-.2.3-.6.7-1.3.7-.6 0-1.3-.3-1.3-1.7v-2.3h.7v2.1c0 .7.2 1.2.9 1.2.5 0 .8-.3.9-.6 0-.1.1-.2.1-.4v-2.4h.7v2.9z" class="st0"/>
  <path d="M87.9 184.1h.7v5.7h-.7v-5.7z" class="st0"/>
  <path d="M90.6 184.8v1.1h1v.5h-1v2.1c0 .5.1.8.5.8h.4v.5c-.1.1-.4.1-.6.1-.3 0-.6-.1-.8-.3-.2-.2-.3-.6-.3-1v-2.1h-.6v-.5h.6v-1l.8-.2z" class="st0"/>
  <path d="M92.3 189.1c.2.1.6.3.9.3.5 0 .8-.3.8-.6s-.2-.5-.7-.7c-.7-.2-1-.6-1-1.1 0-.6.5-1.1 1.3-1.1.4 0 .7.1 1 .2l-.2.5c-.2-.1-.4-.2-.8-.2s-.6.2-.6.5.2.5.7.7c.7.3 1 .6 1 1.2 0 .7-.5 1.2-1.4 1.2-.4 0-.8-.1-1.1-.3l.1-.6z" class="st0"/>
  <path d="M97.6 185.9l.5 2 .3 1.2.3-1.2.6-2h.6l.6 1.9c.1.5.3.9.3 1.3.1-.4.2-.8.3-1.3l.6-1.9h.7l-1.2 3.9h-.6l-.6-1.8c-.1-.4-.2-.8-.3-1.3-.1.5-.2.9-.4 1.3l-.6 1.8H98l-1.2-3.9h.8z" class="st0"/>
  <path d="M103.2 184.1h.7v2.4c.1-.2.3-.4.5-.5.2-.1.5-.2.7-.2.5 0 1.4.3 1.4 1.7v2.3h-.7v-2.2c0-.6-.2-1.2-.9-1.2-.5 0-.8.3-.9.7v2.6h-.7v-5.6z" class="st0"/>
  <path d="M111.1 187.8c0 1.4-1 2.1-1.9 2.1-1 0-1.9-.8-1.9-2 0-1.3.8-2.1 1.9-2.1 1.2 0 1.9.8 1.9 2zm-3.1.1c0 .8.5 1.5 1.2 1.5s1.2-.6 1.2-1.5c0-.7-.3-1.5-1.2-1.5-.8 0-1.2.7-1.2 1.5z" class="st0"/>
  <path d="M117 184.1v5.7h-.6v-.7c-.2.4-.7.8-1.3.8-.9 0-1.7-.8-1.7-2 0-1.3.8-2.1 1.7-2.1.6 0 1 .3 1.2.6v-2.3h.7zm-.7 3.4v-.3c-.1-.4-.5-.8-1-.8-.7 0-1.2.6-1.2 1.5 0 .8.4 1.4 1.1 1.4.5 0 .9-.3 1-.8v-1z" class="st0"/>
  <path d="M118.2 187.1v-1.2h.6v.8c.2-.5.6-.8 1.1-.8h.2v.7h-.2c-.5 0-.8.4-.9.9v2.4h-.7v-2.8z" class="st0"/>
  <path d="M121.6 184.8c0 .2-.2.4-.4.4s-.4-.2-.4-.4.2-.4.4-.4c.3 0 .4.2.4.4zm-.7 5v-3.9h.7v3.9h-.7z" class="st0"/>
  <path d="M122.7 187v-1h.6v.6c.2-.4.6-.7 1.3-.7.5 0 1.4.3 1.4 1.6v2.3h-.7v-2.2c0-.6-.2-1.1-.9-1.1-.5 0-.8.3-.9.7v2.6h-.7V187z" class="st0"/>
  <path d="M127.9 187.7c.1-.1.2-.3.4-.4l1.1-1.3h.8l-1.5 1.6 1.7 2.3h-.9l-1.3-1.9-.4.4v1.5h-.7v-5.7h.7v3.5z" class="st0"/>
  <path d="M3.2 188.4l27-12.4-17.5 24c5.1 3.7 11.5 5.9 18.3 5.7 16.4-.5 29.3-14.1 28.8-30.5s-14.1-29.3-30.5-28.8C13 146.9.1 160.5.5 176.9c.1 4.1 1.1 8 2.7 11.5z" class="st4"/>
  <path d="M59.5 171.8L30.1 176l23.6-18c-3.9-5-9.3-8.9-15.9-10.6-15.8-4.2-32.1 5.2-36.3 21.1-4.2 15.8 5.2 32.1 21.1 36.3 15.8 4.2 32.1-5.2 36.3-21.1 1-4 1.2-8 .6-11.9z" class="st5"/>
  <path d="M147.3 40.5s2.3 8.8 5.3 12.1c0 0 3.5-3.4 5.4-12.1h-10.7z" class="st5"/>
  <path d="M147 37.6s-2.9 2.1.3 4.3c0 0 1.2.4 2.4 0 0 0 1.9 2.7 4.3.5 0 0 1.5 1 2.8-1 0 0 2 .9 2.6-1.6 0 0 .2-1.3-.9-2.4 0 0 1.8-6.1-5.6-7.1 0 0-7.6-.1-5.9 7.3z" class="st6"/>
  <path d="M164.1 40.5s2.3 8.8 5.3 12.1c0 0 3.5-3.4 5.4-12.1h-10.7z" class="st5"/>
  <path d="M163.8 37.6s-2.9 2.1.3 4.3c0 0 1.2.4 2.4 0 0 0 1.9 2.7 4.3.5 0 0 1.5 1 2.8-1 0 0 2 .9 2.6-1.6 0 0 .2-1.3-.9-2.4 0 0 1.8-6.1-5.6-7.1 0 0-7.5-.1-5.9 7.3z" class="st6"/>
  <path d="M181.8 40.5s2.3 8.8 5.3 12.1c0 0 3.5-3.4 5.4-12.1h-10.7z" class="st5"/>
  <path d="M181.6 37.6s-2.9 2.1.3 4.3c0 0 1.2.4 2.4 0 0 0 1.9 2.7 4.3.5 0 0 1.5 1 2.8-1 0 0 2 .9 2.6-1.6 0 0 .2-1.3-.9-2.4 0 0 1.8-6.1-5.6-7.1-.1 0-7.6-.1-5.9 7.3z" class="st6"/>
  <path d="M199.2 40.5s2.3 8.8 5.3 12.1c0 0 3.5-3.4 5.4-12.1h-10.7z" class="st5"/>
  <path d="M198.9 37.6s-2.9 2.1.3 4.3c0 0 1.2.4 2.4 0 0 0 1.9 2.7 4.3.5 0 0 1.5 1 2.8-1 0 0 2 .9 2.6-1.6 0 0 .2-1.3-.9-2.4 0 0 1.8-6.1-5.6-7.1 0 0-7.6-.1-5.9 7.3z" class="st6"/>
  <path d="M216.5 40.5s2.3 8.8 5.3 12.1c0 0 3.5-3.4 5.4-12.1h-10.7z" class="st5"/>
  <path d="M216.2 37.6s-2.9 2.1.3 4.3c0 0 1.2.4 2.4 0 0 0 1.9 2.7 4.3.5 0 0 1.5 1 2.8-1 0 0 2 .9 2.6-1.6 0 0 .2-1.3-.9-2.4 0 0 1.8-6.1-5.6-7.1 0 0-7.6-.1-5.9 7.3z" class="st6"/>
  <path d="M147.3 66.9s2.3 8.8 5.3 12.1c0 0 3.5-3.4 5.4-12.1h-10.7z" class="st5"/>
  <path d="M147 64s-2.9 2.1.3 4.3c0 0 1.2.4 2.4 0 0 0 1.9 2.7 4.3.5 0 0 1.5 1 2.8-1 0 0 2 .9 2.6-1.6 0 0 .2-1.3-.9-2.4 0 0 1.8-6.1-5.6-7.1 0 0-7.6-.1-5.9 7.3z" class="st6"/>
  <path d="M164.1 66.9s2.3 8.8 5.3 12.1c0 0 3.5-3.4 5.4-12.1h-10.7z" class="st5"/>
  <path d="M163.8 64s-2.9 2.1.3 4.3c0 0 1.2.4 2.4 0 0 0 1.9 2.7 4.3.5 0 0 1.5 1 2.8-1 0 0 2 .9 2.6-1.6 0 0 .2-1.3-.9-2.4 0 0 1.8-6.1-5.6-7.1 0 0-7.5-.1-5.9 7.3z" class="st6"/>
  <path d="M181.8 66.9s2.3 8.8 5.3 12.1c0 0 3.5-3.4 5.4-12.1h-10.7z" class="st5"/>
  <path d="M181.6 64s-2.9 2.1.3 4.3c0 0 1.2.4 2.4 0 0 0 1.9 2.7 4.3.5 0 0 1.5 1 2.8-1 0 0 2 .9 2.6-1.6 0 0 .2-1.3-.9-2.4 0 0 1.8-6.1-5.6-7.1-.1 0-7.6-.1-5.9 7.3z" class="st6"/>
  <path d="M199.2 66.9s2.3 8.8 5.3 12.1c0 0 3.5-3.4 5.4-12.1h-10.7z" class="st5"/>
  <path d="M198.9 64s-2.9 2.1.3 4.3c0 0 1.2.4 2.4 0 0 0 1.9 2.7 4.3.5 0 0 1.5 1 2.8-1 0 0 2 .9 2.6-1.6 0 0 .2-1.3-.9-2.4 0 0 1.8-6.1-5.6-7.1 0 0-7.6-.1-5.9 7.3z" class="st6"/>
  <path d="M147.3 92.7s2.3 8.8 5.3 12.1c0 0 3.5-3.4 5.4-12.1h-10.7z" class="st5"/>
  <path d="M147 89.8s-2.9 2.1.3 4.3c0 0 1.2.4 2.4 0 0 0 1.9 2.7 4.3.5 0 0 1.5 1 2.8-1 0 0 2 .9 2.6-1.6 0 0 .2-1.3-.9-2.4 0 0 1.8-6.1-5.6-7.1 0 0-7.6-.1-5.9 7.3z" class="st6"/>
  <path d="M164.1 92.7s2.3 8.8 5.3 12.1c0 0 3.5-3.4 5.4-12.1h-10.7z" class="st5"/>
  <path d="M163.8 89.8s-2.9 2.1.3 4.3c0 0 1.2.4 2.4 0 0 0 1.9 2.7 4.3.5 0 0 1.5 1 2.8-1 0 0 2 .9 2.6-1.6 0 0 .2-1.3-.9-2.4 0 0 1.8-6.1-5.6-7.1 0 0-7.5-.1-5.9 7.3z" class="st6"/>
  <path d="M181.8 92.7s2.3 8.8 5.3 12.1c0 0 3.5-3.4 5.4-12.1h-10.7z" class="st5"/>
  <path d="M181.6 89.8s-2.9 2.1.3 4.3c0 0 1.2.4 2.4 0 0 0 1.9 2.7 4.3.5 0 0 1.5 1 2.8-1 0 0 2 .9 2.6-1.6 0 0 .2-1.3-.9-2.4 0 0 1.8-6.1-5.6-7.1-.1 0-7.6-.1-5.9 7.3z" class="st6"/>
  <path d="M199.2 92.7s2.3 8.8 5.3 12.1c0 0 3.5-3.4 5.4-12.1h-10.7z" class="st5"/>
  <path d="M198.9 89.8s-2.9 2.1.3 4.3c0 0 1.2.4 2.4 0 0 0 1.9 2.7 4.3.5 0 0 1.5 1 2.8-1 0 0 2 .9 2.6-1.6 0 0 .2-1.3-.9-2.4 0 0 1.8-6.1-5.6-7.1 0 0-7.6-.1-5.9 7.3z" class="st6"/>
  <path d="M216.5 92.7s2.3 8.8 5.3 12.1c0 0 3.5-3.4 5.4-12.1h-10.7z" class="st5"/>
  <path d="M216.3 89.8s-2.9 2.1.3 4.3c0 0 1.2.4 2.4 0 0 0 1.9 2.7 4.3.5 0 0 1.5 1 2.8-1 0 0 2 .9 2.6-1.6 0 0 .2-1.3-.9-2.4 0 0 1.8-6.1-5.6-7.1-.1 0-7.6-.1-5.9 7.3z" class="st6"/>
  <path d="M216.5 66.9s2.3 8.8 5.3 12.1c0 0 3.5-3.4 5.4-12.1h-10.7z" class="st5"/>
  <path d="M216.2 64s-2.9 2.1.3 4.3c0 0 1.2.4 2.4 0 0 0 1.9 2.7 4.3.5 0 0 1.5 1 2.8-1 0 0 2 .9 2.6-1.6 0 0 .2-1.3-.9-2.4 0 0 1.8-6.1-5.6-7.1 0 0-7.6-.1-5.9 7.3z" class="st6"/>
  <path d="M233.5 40.5s2.3 8.8 5.3 12.1c0 0 3.5-3.4 5.4-12.1h-10.7z" class="st5"/>
  <path d="M233.2 37.6s-2.9 2.1.3 4.3c0 0 1.2.4 2.4 0 0 0 1.9 2.7 4.3.5 0 0 1.5 1 2.8-1 0 0 2 .9 2.6-1.6 0 0 .2-1.3-.9-2.4 0 0 1.8-6.1-5.6-7.1 0 0-7.6-.1-5.9 7.3z" class="st6"/>
  <path d="M233.5 92.7s2.3 8.8 5.3 12.1c0 0 3.5-3.4 5.4-12.1h-10.7z" class="st5"/>
  <path d="M233.3 89.8s-2.9 2.1.3 4.3c0 0 1.2.4 2.4 0 0 0 1.9 2.7 4.3.5 0 0 1.5 1 2.8-1 0 0 2 .9 2.6-1.6 0 0 .2-1.3-.9-2.4 0 0 1.8-6.1-5.6-7.1-.1 0-7.6-.1-5.9 7.3z" class="st6"/>
  <path d="M147.3 118.8s2.3 8.8 5.3 12.1c0 0 3.5-3.4 5.4-12.1h-10.7z" class="st5"/>
  <path d="M147 115.9s-2.9 2.1.3 4.3c0 0 1.2.4 2.4 0 0 0 1.9 2.7 4.3.5 0 0 1.5 1 2.8-1 0 0 2 .9 2.6-1.6 0 0 .2-1.3-.9-2.4 0 0 1.8-6.1-5.6-7.1 0 0-7.6-.1-5.9 7.3z" class="st6"/>
  <path d="M164.1 118.8s2.3 8.8 5.3 12.1c0 0 3.5-3.4 5.4-12.1h-10.7z" class="st5"/>
  <path d="M163.8 115.9s-2.9 2.1.3 4.3c0 0 1.2.4 2.4 0 0 0 1.9 2.7 4.3.5 0 0 1.5 1 2.8-1 0 0 2 .9 2.6-1.6 0 0 .2-1.3-.9-2.4 0 0 1.8-6.1-5.6-7.1 0 0-7.5-.1-5.9 7.3z" class="st6"/>
  <path d="M181.8 118.8s2.3 8.8 5.3 12.1c0 0 3.5-3.4 5.4-12.1h-10.7z" class="st5"/>
  <path d="M181.6 115.9s-2.9 2.1.3 4.3c0 0 1.2.4 2.4 0 0 0 1.9 2.7 4.3.5 0 0 1.5 1 2.8-1 0 0 2 .9 2.6-1.6 0 0 .2-1.3-.9-2.4 0 0 1.8-6.1-5.6-7.1-.1 0-7.6-.1-5.9 7.3z" class="st6"/>
  <path d="M199.2 118.8s2.3 8.8 5.3 12.1c0 0 3.5-3.4 5.4-12.1h-10.7z" class="st5"/>
  <path d="M198.9 115.9s-2.9 2.1.3 4.3c0 0 1.2.4 2.4 0 0 0 1.9 2.7 4.3.5 0 0 1.5 1 2.8-1 0 0 2 .9 2.6-1.6 0 0 .2-1.3-.9-2.4 0 0 1.8-6.1-5.6-7.1 0 0-7.6-.1-5.9 7.3z" class="st6"/>
  <path d="M216.5 118.8s2.3 8.8 5.3 12.1c0 0 3.5-3.4 5.4-12.1h-10.7z" class="st5"/>
  <path d="M216.3 115.9s-2.9 2.1.3 4.3c0 0 1.2.4 2.4 0 0 0 1.9 2.7 4.3.5 0 0 1.5 1 2.8-1 0 0 2 .9 2.6-1.6 0 0 .2-1.3-.9-2.4 0 0 1.8-6.1-5.6-7.1-.1 0-7.6-.1-5.9 7.3z" class="st6"/>
  <path d="M233.5 118.8s2.3 8.8 5.3 12.1c0 0 3.5-3.4 5.4-12.1h-10.7z" class="st5"/>
  <path d="M233.3 115.9s-2.9 2.1.3 4.3c0 0 1.2.4 2.4 0 0 0 1.9 2.7 4.3.5 0 0 1.5 1 2.8-1 0 0 2 .9 2.6-1.6 0 0 .2-1.3-.9-2.4 0 0 1.8-6.1-5.6-7.1-.1 0-7.6-.1-5.9 7.3z" class="st6"/>
  <path d="M233.5 66.9s2.3 8.8 5.3 12.1c0 0 3.5-3.4 5.4-12.1h-10.7z" class="st5"/>
  <path d="M233.2 64s-2.9 2.1.3 4.3c0 0 1.2.4 2.4 0 0 0 1.9 2.7 4.3.5 0 0 1.5 1 2.8-1 0 0 2 .9 2.6-1.6 0 0 .2-1.3-.9-2.4 0 0 1.8-6.1-5.6-7.1 0 0-7.6-.1-5.9 7.3z" class="st6"/>
</svg>
