<svg xmlns="http://www.w3.org/2000/svg" id="Layer_1" viewBox="0 0 654.2 143">
  <style>
    .st0{fill:#FFFFFF;} .st1{fill:#006C38;} .st2{fill:#C4D82E;} .st3{fill:none;stroke:#C4D82E;stroke-width:3;stroke-miterlimit:10;} .st4{fill:#7FBB42;}
  </style>
  <path d="M100.7 120.8v6.8h7.8v-6.8h2.1V137h-2.1v-7.6h-7.8v7.6h-2.1v-16.2h2.1z" class="st0"/>
  <path d="M128.1 128.7c0 5.6-3.4 8.5-7.5 8.5-4.3 0-7.3-3.3-7.3-8.2 0-5.1 3.2-8.5 7.5-8.5 4.4 0 7.3 3.4 7.3 8.2zm-12.6.3c0 3.5 1.9 6.6 5.2 6.6 3.3 0 5.2-3 5.2-6.7 0-3.2-1.7-6.6-5.2-6.6-3.4-.1-5.2 3.1-5.2 6.7z" class="st0"/>
  <path d="M133.4 137l-4.1-16.2h2.2l1.9 8.2c.5 2 .9 4 1.2 5.6.3-1.6.8-3.5 1.3-5.6l2.2-8.2h2.2l2 8.2c.5 1.9.9 3.8 1.1 5.5.3-1.8.8-3.6 1.3-5.6l2.1-8.2h2.1l-4.6 16.2h-2.2l-2-8.4c-.5-2.1-.8-3.6-1.1-5.3-.3 1.6-.6 3.2-1.2 5.3l-2.3 8.4h-2.1z" class="st0"/>
  <path d="M158.8 131.9l-1.7 5.1H155l5.5-16.2h2.5l5.5 16.2h-2.2l-1.7-5.1h-5.8zm5.3-1.6l-1.6-4.7c-.4-1.1-.6-2-.8-3-.2 1-.5 1.9-.8 2.9l-1.6 4.7h4.8z" class="st0"/>
  <path d="M170.9 120.8h2.1v14.4h6.9v1.8h-9v-16.2z" class="st0"/>
  <path d="M192.6 136.4c-.8.4-2.3.8-4.3.8-4.6 0-8-2.9-8-8.2 0-5.1 3.4-8.5 8.4-8.5 2 0 3.3.4 3.8.7l-.5 1.7c-.8-.4-1.9-.7-3.3-.7-3.8 0-6.3 2.4-6.3 6.7 0 4 2.3 6.5 6.2 6.5 1.3 0 2.6-.3 3.4-.7l.6 1.7z" class="st0"/>
  <path d="M208.5 128.7c0 5.6-3.4 8.5-7.5 8.5-4.3 0-7.3-3.3-7.3-8.2 0-5.1 3.2-8.5 7.5-8.5 4.5 0 7.3 3.4 7.3 8.2zm-12.5.3c0 3.5 1.9 6.6 5.2 6.6 3.3 0 5.2-3 5.2-6.7 0-3.2-1.7-6.6-5.2-6.6-3.5-.1-5.2 3.1-5.2 6.7z" class="st0"/>
  <path d="M213.3 120.8v6.8h7.8v-6.8h2.1V137h-2.1v-7.6h-7.8v7.6h-2.1v-16.2h2.1z" class="st0"/>
  <path d="M240.7 128.7c0 5.6-3.4 8.5-7.5 8.5-4.3 0-7.3-3.3-7.3-8.2 0-5.1 3.2-8.5 7.5-8.5 4.4 0 7.3 3.4 7.3 8.2zm-12.6.3c0 3.5 1.9 6.6 5.2 6.6 3.3 0 5.2-3 5.2-6.7 0-3.2-1.7-6.6-5.2-6.6-3.4-.1-5.2 3.1-5.2 6.7z" class="st0"/>
  <path d="M243.4 120.8h2.1v14.4h6.9v1.8h-9v-16.2z" class="st0"/>
  <path d="M271.1 136.4c-.8.4-2.3.8-4.3.8-4.6 0-8-2.9-8-8.2 0-5.1 3.4-8.5 8.4-8.5 2 0 3.3.4 3.8.7l-.5 1.7c-.8-.4-1.9-.7-3.3-.7-3.8 0-6.3 2.4-6.3 6.7 0 4 2.3 6.5 6.2 6.5 1.3 0 2.6-.3 3.4-.7l.6 1.7z" class="st0"/>
  <path d="M287.1 128.7c0 5.6-3.4 8.5-7.5 8.5-4.3 0-7.3-3.3-7.3-8.2 0-5.1 3.2-8.5 7.5-8.5 4.4 0 7.3 3.4 7.3 8.2zm-12.6.3c0 3.5 1.9 6.6 5.2 6.6 3.3 0 5.2-3 5.2-6.7 0-3.2-1.7-6.6-5.2-6.6-3.5-.1-5.2 3.1-5.2 6.7z" class="st0"/>
  <path d="M289.8 137v-16.2h2.3l5.2 8.2c1.2 1.9 2.1 3.6 2.9 5.3-.2-2.2-.2-4.1-.2-6.6v-6.8h2V137h-2.1l-5.1-8.2c-1.1-1.8-2.2-3.6-3-5.4h-.1c.1 2 .2 4 .2 6.7v6.9h-2.1z" class="st0"/>
  <path d="M308.6 122.6h-4.9v-1.8h12v1.8h-4.9V137h-2.1v-14.4z" class="st0"/>
  <path d="M317.5 121c1.1-.2 2.6-.3 4-.3 2.2 0 3.7.4 4.7 1.3.8.7 1.3 1.8 1.3 3.1 0 2.1-1.3 3.6-3 4.1v.1c1.2.4 2 1.6 2.4 3.3.5 2.3.9 3.8 1.2 4.4h-2.2c-.3-.5-.6-1.8-1.1-3.9-.5-2.2-1.3-3.1-3.2-3.1h-2v7h-2.1v-16zm2.1 7.4h2.1c2.2 0 3.6-1.2 3.6-3.1 0-2.1-1.5-3-3.7-3-1 0-1.7.1-2.1.2v5.9z" class="st0"/>
  <path d="M332.5 120.8V137h-2.1v-16.2h2.1z" class="st0"/>
  <path d="M336.1 121c.9-.2 2.4-.3 3.8-.3 2.1 0 3.4.4 4.4 1.2.8.6 1.3 1.6 1.3 2.9 0 1.6-1 2.9-2.7 3.6 1.5.4 3.3 1.7 3.3 4.1 0 1.4-.6 2.4-1.4 3.2-1.1 1-3 1.5-5.6 1.5-1.4 0-2.5-.1-3.2-.2v-16zm2.1 6.6h1.9c2.2 0 3.5-1.2 3.5-2.7 0-1.9-1.4-2.6-3.6-2.6-1 0-1.5.1-1.8.1v5.2zm0 7.8c.4.1 1 .1 1.8.1 2.2 0 4.2-.8 4.2-3.1 0-2.2-1.9-3.1-4.2-3.1h-1.7v6.1z" class="st0"/>
  <path d="M351.2 120.8v9.6c0 3.6 1.6 5.2 3.8 5.2 2.4 0 3.9-1.6 3.9-5.2v-9.6h2.1v9.4c0 5-2.6 7-6.1 7-3.3 0-5.8-1.9-5.8-6.9v-9.5h2.1z" class="st0"/>
  <path d="M367.8 122.6h-4.9v-1.8h12v1.8H370V137h-2.1v-14.4z" class="st0"/>
  <path d="M385 129.4h-6.3v5.8h7v1.8h-9.1v-16.2h8.7v1.8h-6.6v5.1h6.3v1.7z" class="st0"/>
  <path d="M388.1 134.4c.9.6 2.3 1.1 3.7 1.1 2.1 0 3.4-1.1 3.4-2.8 0-1.5-.9-2.4-3-3.2-2.6-.9-4.3-2.3-4.3-4.6 0-2.5 2.1-4.4 5.2-4.4 1.7 0 2.9.4 3.6.8l-.6 1.7c-.5-.3-1.6-.8-3.1-.8-2.2 0-3 1.3-3 2.4 0 1.5 1 2.3 3.2 3.1 2.7 1.1 4.1 2.4 4.1 4.8 0 2.5-1.8 4.7-5.7 4.7-1.6 0-3.3-.5-4.1-1l.6-1.8z" class="st0"/>
  <path d="M407.4 122.6h-4.9v-1.8h12v1.8h-4.9V137h-2.1v-14.4z" class="st0"/>
  <path d="M429.5 128.7c0 5.6-3.4 8.5-7.5 8.5-4.3 0-7.3-3.3-7.3-8.2 0-5.1 3.2-8.5 7.5-8.5 4.4 0 7.3 3.4 7.3 8.2zm-12.6.3c0 3.5 1.9 6.6 5.2 6.6 3.3 0 5.2-3 5.2-6.7 0-3.2-1.7-6.6-5.2-6.6-3.5-.1-5.2 3.1-5.2 6.7z" class="st0"/>
  <path d="M439 137l-4.1-16.2h2.2l1.9 8.2c.5 2 .9 4 1.2 5.6.3-1.6.8-3.5 1.3-5.6l2.2-8.2h2.2l2 8.2c.5 1.9.9 3.8 1.1 5.5.3-1.8.8-3.6 1.3-5.6l2.1-8.2h2.1l-4.6 16.2h-2.2l-2-8.4c-.5-2.1-.8-3.6-1.1-5.3-.3 1.6-.6 3.2-1.2 5.3l-2.3 8.4H439z" class="st0"/>
  <path d="M465.1 129.4h-6.3v5.8h7v1.8h-9.1v-16.2h8.7v1.8h-6.6v5.1h6.3v1.7z" class="st0"/>
  <path d="M470.6 120.8V137h-2.1v-16.2h2.1z" class="st0"/>
  <path d="M486.6 136.3c-.9.3-2.8.9-5 .9-2.4 0-4.5-.6-6-2.1-1.4-1.3-2.3-3.5-2.3-6 0-4.8 3.3-8.4 8.8-8.4 1.9 0 3.3.4 4 .7l-.5 1.7c-.9-.4-1.9-.7-3.6-.7-3.9 0-6.5 2.4-6.5 6.5s2.5 6.5 6.2 6.5c1.4 0 2.3-.2 2.8-.4v-4.8h-3.3v-1.7h5.3v7.8z" class="st0"/>
  <path d="M491.8 120.8v6.8h7.8v-6.8h2.1V137h-2.1v-7.6h-7.8v7.6h-2.1v-16.2h2.1z" class="st0"/>
  <path d="M508.5 122.6h-4.9v-1.8h12v1.8h-4.9V137h-2.1v-14.4z" class="st0"/>
  <path d="M534.7 136.3c-.9.3-2.8.9-5 .9-2.4 0-4.5-.6-6-2.1-1.4-1.3-2.3-3.5-2.3-6 0-4.8 3.3-8.4 8.8-8.4 1.9 0 3.3.4 4 .7l-.5 1.7c-.9-.4-1.9-.7-3.6-.7-3.9 0-6.5 2.4-6.5 6.5s2.5 6.5 6.2 6.5c1.4 0 2.3-.2 2.8-.4v-4.8h-3.3v-1.7h5.3v7.8z" class="st0"/>
  <path d="M540.5 131.9l-1.7 5.1h-2.2l5.5-16.2h2.5l5.5 16.2H548l-1.7-5.1h-5.8zm5.3-1.6l-1.6-4.7c-.4-1.1-.6-2-.8-3-.2 1-.5 1.9-.8 2.9l-1.6 4.7h4.8z" class="st0"/>
  <path d="M554.7 120.8V137h-2.1v-16.2h2.1z" class="st0"/>
  <path d="M558.3 137v-16.2h2.3l5.2 8.2c1.2 1.9 2.1 3.6 2.9 5.3-.2-2.2-.2-4.1-.2-6.6v-6.8h2V137h-2.1l-5.1-8.2c-1.1-1.8-2.2-3.6-3-5.4h-.1c.1 2 .2 4 .2 6.7v6.9h-2.1z" class="st0"/>
  <path d="M20.3 63.5l-5 15.3H8.8l16.5-48.5h7.6l16.6 48.5h-6.7l-5.2-15.3H20.3zm15.9-4.9l-4.8-14c-1.1-3.2-1.8-6-2.5-8.9h-.1c-.7 2.9-1.5 5.8-2.4 8.8l-4.8 14h14.6z" class="st1"/>
  <path d="M56.5 30.2h6.3v43.3h20.7v5.3h-27V30.2z" class="st1"/>
  <path d="M121.6 77.1c-2.3 1.2-6.9 2.3-12.8 2.3-13.7 0-24-8.6-24-24.6 0-15.2 10.3-25.5 25.3-25.5 6 0 9.9 1.3 11.5 2.2l-1.5 5.1c-2.4-1.2-5.8-2-9.8-2-11.4 0-18.9 7.3-18.9 20 0 11.9 6.8 19.5 18.6 19.5 3.8 0 7.7-.8 10.2-2l1.4 5z" class="st1"/>
  <path d="M169.4 54c0 16.7-10.2 25.6-22.5 25.6-12.8 0-21.8-9.9-21.8-24.6 0-15.4 9.6-25.5 22.5-25.5 13.3-.1 21.8 10.1 21.8 24.5zm-37.6.8c0 10.4 5.6 19.7 15.5 19.7s15.6-9.1 15.6-20.2c0-9.6-5-19.7-15.5-19.7-10.4-.1-15.6 9.5-15.6 20.2z" class="st1"/>
  <path d="M183.8 30.2v20.3h23.5V30.2h6.3v48.5h-6.3V56h-23.5v22.8h-6.3V30.2h6.3z" class="st1"/>
  <path d="M266 54c0 16.7-10.2 25.6-22.5 25.6-12.8 0-21.8-9.9-21.8-24.6 0-15.4 9.6-25.5 22.5-25.5C257.4 29.4 266 39.6 266 54zm-37.7.8c0 10.4 5.6 19.7 15.5 19.7s15.6-9.1 15.6-20.2c0-9.6-5-19.7-15.5-19.7-10.4-.1-15.6 9.5-15.6 20.2z" class="st1"/>
  <path d="M274.1 30.2h6.3v43.3h20.7v5.3h-27V30.2z" class="st1"/>
  <path d="M13.3 63.5l-5 15.3H1.8l16.5-48.5h7.6l16.6 48.5h-6.7l-5.2-15.3H13.3zm15.9-4.9l-4.8-14c-1.1-3.2-1.8-6-2.5-8.9h-.1c-.7 2.9-1.5 5.8-2.4 8.8l-4.8 14h14.6z" class="st2"/>
  <path d="M49.5 30.2h6.3v43.3h20.7v5.3h-27V30.2z" class="st2"/>
  <path d="M114.6 77.1c-2.3 1.2-6.9 2.3-12.8 2.3-13.7 0-24-8.6-24-24.6 0-15.2 10.3-25.5 25.3-25.5 6 0 9.9 1.3 11.5 2.2l-1.5 5.1c-2.4-1.2-5.8-2-9.8-2-11.4 0-18.9 7.3-18.9 20 0 11.9 6.8 19.5 18.6 19.5 3.8 0 7.7-.8 10.2-2l1.4 5z" class="st2"/>
  <path d="M162.4 54c0 16.7-10.2 25.6-22.5 25.6-12.8 0-21.8-9.9-21.8-24.6 0-15.4 9.6-25.5 22.5-25.5 13.3-.1 21.8 10.1 21.8 24.5zm-37.6.8c0 10.4 5.6 19.7 15.5 19.7s15.6-9.1 15.6-20.2c0-9.6-5-19.7-15.5-19.7-10.4-.1-15.6 9.5-15.6 20.2z" class="st2"/>
  <path d="M176.8 30.2v20.3h23.5V30.2h6.3v48.5h-6.3V56h-23.5v22.8h-6.3V30.2h6.3z" class="st2"/>
  <path d="M259 54c0 16.7-10.2 25.6-22.5 25.6-12.8 0-21.8-9.9-21.8-24.6 0-15.4 9.6-25.5 22.5-25.5C250.4 29.4 259 39.6 259 54zm-37.7.8c0 10.4 5.6 19.7 15.5 19.7s15.6-9.1 15.6-20.2c0-9.6-5-19.7-15.5-19.7-10.4-.1-15.6 9.5-15.6 20.2z" class="st2"/>
  <path d="M267.1 30.2h6.3v43.3h20.7v5.3h-27V30.2z" class="st2"/>
  <path d="M485.5 45l-8.9-35h4.8l4.2 17.7c1 4.4 2 8.7 2.6 12.1h.1c.6-3.5 1.7-7.6 2.9-12.2l4.7-17.7h4.7l4.3 17.8c1 4.2 1.9 8.3 2.4 12h.1c.7-3.8 1.7-7.7 2.8-12.1l4.6-17.7h4.6l-9.9 35h-4.7l-4.4-18.3c-1.1-4.5-1.8-7.9-2.3-11.4h-.1c-.6 3.5-1.4 6.9-2.7 11.4l-5 18.3h-4.8z" class="st3"/>
  <path d="M541.9 28.6h-13.6v12.6h15.2V45h-19.7V10h18.9v3.8h-14.4v11.1h13.6v3.7z" class="st3"/>
  <path d="M553.9 10v35h-4.5V10h4.5z" class="st3"/>
  <path d="M588.5 43.5c-2 .7-6 1.9-10.8 1.9-5.3 0-9.7-1.4-13.1-4.6-3-2.9-4.9-7.6-4.9-13.1.1-10.5 7.2-18.1 19-18.1 4.1 0 7.2.9 8.7 1.6l-1.1 3.7c-1.9-.8-4.2-1.5-7.7-1.5-8.5 0-14.1 5.3-14.1 14.1 0 8.9 5.4 14.1 13.5 14.1 3 0 5-.4 6-.9V30.3h-7.1v-3.6h11.5v16.8z" class="st3"/>
  <path d="M599.9 10v14.7h17V10h4.6v35h-4.6V28.6h-17V45h-4.5V10h4.5z" class="st3"/>
  <path d="M635.9 13.8h-10.7V10h25.9v3.8h-10.7V45h-4.6V13.8z" class="st3"/>
  <path d="M537.7 97.5c-2 .7-6 1.9-10.8 1.9-5.3 0-9.7-1.4-13.1-4.6-3-2.9-4.9-7.6-4.9-13.1.1-10.5 7.2-18.1 19-18.1 4.1 0 7.2.9 8.7 1.6l-1.1 3.7c-1.9-.8-4.2-1.5-7.7-1.5-8.5 0-14.1 5.3-14.1 14.1 0 8.9 5.4 14.1 13.5 14.1 3 0 5-.4 6-.9V84.3h-7.1v-3.6h11.5v16.8z" class="st3"/>
  <path d="M550.2 88l-3.6 11h-4.7l11.9-35h5.5l12 35h-4.8l-3.7-11h-12.6zm11.5-3.5l-3.4-10.1c-.8-2.3-1.3-4.4-1.8-6.4h-.1c-.5 2.1-1.1 4.2-1.8 6.3l-3.4 10.1h10.5z" class="st3"/>
  <path d="M580.9 64v35h-4.5V64h4.5z" class="st3"/>
  <path d="M588.8 99V64h4.9L605 81.7c2.6 4.1 4.6 7.8 6.3 11.4l.1-.1c-.4-4.7-.5-8.9-.5-14.4V64h4.3v35h-4.6l-11.1-17.8c-2.4-3.9-4.8-7.9-6.6-11.7l-.2.1c.3 4.4.4 8.6.4 14.5v15h-4.3z" class="st3"/>
  <ellipse cx="395.4" cy="56.5" class="st4" rx="47.5" ry="24"/>
  <path d="M372 59l-2 6.1h-2.6l6.6-19.6h3l6.7 19.6H381l-2.1-6.1H372zm6.4-2l-1.9-5.6c-.4-1.3-.7-2.4-1-3.6h-.1c-.3 1.2-.6 2.3-1 3.5l-1.9 5.7h5.9z" class="st0"/>
  <path d="M386.6 65.1V45.6h2.8l6.3 9.9c1.5 2.3 2.6 4.4 3.5 6.4h.1c-.2-2.6-.3-5-.3-8v-8.2h2.4v19.6h-2.6l-6.2-9.9c-1.4-2.2-2.7-4.4-3.7-6.5h-.1c.1 2.5.2 4.8.2 8.1v8.4h-2.4z" class="st0"/>
  <path d="M405.6 45.8c1.5-.2 3.4-.4 5.4-.4 3.6 0 6.2.8 7.9 2.4 1.7 1.6 2.8 3.9 2.8 7 0 3.2-1 5.8-2.8 7.6-1.8 1.8-4.8 2.8-8.6 2.8-1.8 0-3.3-.1-4.6-.2V45.8zm2.6 17.3c.6.1 1.6.1 2.6.1 5.4 0 8.3-3 8.3-8.3 0-4.6-2.6-7.5-7.9-7.5-1.3 0-2.3.1-3 .3v15.4z" class="st0"/>
</svg>
